M48
; DRILL file {KiCad 7.0.1} date Tue Aug 13 13:22:25 2024
; FORMAT={-:-/ absolute / metric / decimal}
; #@! TF.CreationDate,2024-08-13T13:22:25+02:00
; #@! TF.GenerationSoftware,Kicad,Pcbnew,7.0.1
; #@! TF.FileFunction,Plated,1,2,PTH
FMAT,2
METRIC
; #@! TA.AperFunction,Plated,PTH,ViaDrill
T1C0.400
; #@! TA.AperFunction,Plated,PTH,ComponentDrill
T2C0.800
; #@! TA.AperFunction,Plated,PTH,ComponentDrill
T3C1.200
%
G90
G05
T1
X124.206Y-120.65
X124.206Y-124.968
X124.206Y-129.54
X124.206Y-132.588
X124.46Y-111.633
X124.46Y-112.522
X126.0Y-117.856
X126.111Y-116.332
X127.127Y-108.458
X127.508Y-114.3
X127.762Y-137.668
X128.016Y-120.904
X128.27Y-109.474
X128.65Y-122.622
X129.54Y-124.968
X129.54Y-132.334
X129.58Y-120.744
X130.016Y-116.713
X130.016Y-117.713
X130.016Y-118.713
X130.302Y-114.91
X130.724Y-124.695
X131.572Y-132.334
X132.588Y-126.256
X132.731Y-122.682
X132.842Y-112.141
X132.842Y-123.952
X133.065Y-119.786
X133.096Y-128.397
X133.096Y-137.668
X133.35Y-120.744
X134.052Y-119.967
X134.454Y-115.826
X134.747Y-109.347
X135.029Y-120.175
X135.128Y-134.072
X135.509Y-110.617
X135.636Y-105.156
X135.636Y-106.172
X136.108Y-108.966
X136.398Y-111.125
X136.652Y-123.698
X137.16Y-119.253
X137.287Y-108.585
X137.541Y-109.728
X137.668Y-104.394
X138.176Y-133.35
X138.684Y-120.523
X138.684Y-125.73
X139.192Y-104.394
X139.227Y-117.59
X139.328Y-113.538
X139.7Y-108.331
X140.081Y-125.347
X140.081Y-128.637
X140.081Y-134.62
X140.208Y-106.807
X140.208Y-137.668
X140.612Y-121.278
X140.733Y-132.588
X140.843Y-108.204
X140.944Y-119.38
X141.144Y-112.696
X141.224Y-123.571
X141.334Y-120.523
X141.478Y-128.524
X141.946Y-111.72
X141.986Y-118.364
X141.986Y-132.588
X142.003Y-115.714
X142.24Y-122.282
X142.367Y-128.397
X142.637Y-119.731
X142.748Y-117.62
X142.875Y-121.031
X143.002Y-104.394
X143.002Y-132.588
X143.078Y-115.289
X143.764Y-133.532
X143.764Y-135.382
X143.891Y-112.522
X143.891Y-118.491
X144.013Y-108.844
X144.048Y-128.003
X144.145Y-128.905
X144.272Y-132.334
X144.399Y-113.538
X144.526Y-104.394
X144.526Y-130.937
X144.78Y-137.668
X144.907Y-117.348
X145.161Y-127.889
X145.163Y-109.855
X145.237Y-106.725
X145.288Y-107.823
X145.415Y-130.937
X145.796Y-122.665
X146.05Y-127.889
X146.304Y-125.095
X146.304Y-130.937
X146.558Y-115.697
X146.685Y-110.998
X146.939Y-108.195
X147.32Y-119.634
X147.455Y-124.087
X147.709Y-113.856
X148.082Y-117.221
X148.232Y-134.35
X148.844Y-124.968
X148.844Y-130.81
X149.606Y-106.553
X150.194Y-118.364
X150.241Y-110.236
X150.241Y-111.125
X150.241Y-112.014
X150.368Y-128.27
X151.003Y-116.078
X151.281Y-117.856
X151.765Y-137.16
X151.892Y-120.523
X151.892Y-126.492
X151.892Y-134.747
X152.146Y-113.03
X153.162Y-116.078
X153.416Y-123.317
X153.416Y-124.714
X153.543Y-119.888
X153.543Y-122.174
X154.269Y-135.164
X154.305Y-132.424
X155.194Y-137.16
X156.591Y-135.763
X156.752Y-113.792
X156.752Y-115.316
X157.861Y-134.112
X157.988Y-106.172
X157.988Y-107.188
X157.988Y-109.474
X157.988Y-112.014
T2
X138.366Y-106.426
X143.666Y-106.426
T3
X126.492Y-106.172
X126.492Y-123.19
X126.492Y-131.064
X130.048Y-106.172
X133.604Y-106.172
X152.273Y-106.172
X155.829Y-106.172
X155.829Y-117.856
X155.829Y-121.412
X155.829Y-124.968
T0
M30
