%TF.GenerationSoftware,KiCad,Pcbnew,7.0.1*%
%TF.CreationDate,2024-08-13T13:22:24+02:00*%
%TF.ProjectId,wpt_receiver,7770745f-7265-4636-9569-7665722e6b69,rev?*%
%TF.SameCoordinates,Original*%
%TF.FileFunction,Soldermask,Top*%
%TF.FilePolarity,Negative*%
%FSLAX46Y46*%
G04 Gerber Fmt 4.6, Leading zero omitted, Abs format (unit mm)*
G04 Created by KiCad (PCBNEW 7.0.1) date 2024-08-13 13:22:24*
%MOMM*%
%LPD*%
G01*
G04 APERTURE LIST*
G04 Aperture macros list*
%AMRoundRect*
0 Rectangle with rounded corners*
0 $1 Rounding radius*
0 $2 $3 $4 $5 $6 $7 $8 $9 X,Y pos of 4 corners*
0 Add a 4 corners polygon primitive as box body*
4,1,4,$2,$3,$4,$5,$6,$7,$8,$9,$2,$3,0*
0 Add four circle primitives for the rounded corners*
1,1,$1+$1,$2,$3*
1,1,$1+$1,$4,$5*
1,1,$1+$1,$6,$7*
1,1,$1+$1,$8,$9*
0 Add four rect primitives between the rounded corners*
20,1,$1+$1,$2,$3,$4,$5,0*
20,1,$1+$1,$4,$5,$6,$7,0*
20,1,$1+$1,$6,$7,$8,$9,0*
20,1,$1+$1,$8,$9,$2,$3,0*%
G04 Aperture macros list end*
%ADD10RoundRect,0.237500X-0.237500X0.300000X-0.237500X-0.300000X0.237500X-0.300000X0.237500X0.300000X0*%
%ADD11R,3.000000X3.000000*%
%ADD12RoundRect,0.237500X-0.250000X-0.237500X0.250000X-0.237500X0.250000X0.237500X-0.250000X0.237500X0*%
%ADD13RoundRect,0.237500X0.237500X-0.300000X0.237500X0.300000X-0.237500X0.300000X-0.237500X-0.300000X0*%
%ADD14RoundRect,0.237500X-0.300000X-0.237500X0.300000X-0.237500X0.300000X0.237500X-0.300000X0.237500X0*%
%ADD15RoundRect,0.150000X0.587500X0.150000X-0.587500X0.150000X-0.587500X-0.150000X0.587500X-0.150000X0*%
%ADD16R,2.500000X2.500000*%
%ADD17RoundRect,0.237500X0.300000X0.237500X-0.300000X0.237500X-0.300000X-0.237500X0.300000X-0.237500X0*%
%ADD18RoundRect,0.237500X-0.237500X0.250000X-0.237500X-0.250000X0.237500X-0.250000X0.237500X0.250000X0*%
%ADD19RoundRect,0.150000X-0.150000X-0.200000X0.150000X-0.200000X0.150000X0.200000X-0.150000X0.200000X0*%
%ADD20RoundRect,0.250000X0.625000X-0.400000X0.625000X0.400000X-0.625000X0.400000X-0.625000X-0.400000X0*%
%ADD21R,0.431800X0.431800*%
%ADD22R,0.850000X0.280000*%
%ADD23R,0.280000X0.850000*%
%ADD24RoundRect,0.237500X0.237500X-0.250000X0.237500X0.250000X-0.237500X0.250000X-0.237500X-0.250000X0*%
%ADD25RoundRect,0.062500X-0.375000X-0.062500X0.375000X-0.062500X0.375000X0.062500X-0.375000X0.062500X0*%
%ADD26RoundRect,0.062500X-0.062500X-0.375000X0.062500X-0.375000X0.062500X0.375000X-0.062500X0.375000X0*%
%ADD27R,3.450000X3.450000*%
%ADD28R,3.700000X0.980000*%
%ADD29RoundRect,0.237500X0.250000X0.237500X-0.250000X0.237500X-0.250000X-0.237500X0.250000X-0.237500X0*%
%ADD30RoundRect,0.250000X-0.250000X0.250000X-0.250000X-0.250000X0.250000X-0.250000X0.250000X0.250000X0*%
%ADD31C,0.990600*%
%ADD32C,0.787400*%
%ADD33R,0.240000X0.599999*%
%ADD34R,0.599999X0.240000*%
%ADD35R,0.700001X0.850001*%
%ADD36R,0.349999X1.450000*%
%ADD37R,0.349999X1.799999*%
%ADD38RoundRect,0.250000X-0.325000X-0.450000X0.325000X-0.450000X0.325000X0.450000X-0.325000X0.450000X0*%
%ADD39R,0.660400X0.254000*%
%ADD40R,1.092200X2.743200*%
%ADD41R,3.400000X0.980000*%
%ADD42RoundRect,0.250000X-0.337500X-0.475000X0.337500X-0.475000X0.337500X0.475000X-0.337500X0.475000X0*%
%ADD43RoundRect,0.250000X-0.475000X0.337500X-0.475000X-0.337500X0.475000X-0.337500X0.475000X0.337500X0*%
%ADD44R,1.900000X1.100000*%
%ADD45R,0.812800X0.254000*%
%ADD46R,0.254000X0.812800*%
%ADD47R,1.828800X1.828800*%
%ADD48R,0.900000X1.000000*%
%ADD49C,2.000000*%
G04 APERTURE END LIST*
%TO.C,U11*%
G36*
X152640594Y-123780596D02*
G01*
X151651403Y-123780596D01*
X151651403Y-123361402D01*
X152640594Y-123361402D01*
X152640594Y-123780596D01*
G37*
G36*
X152640594Y-123280594D02*
G01*
X151651403Y-123280594D01*
X151651403Y-122861403D01*
X152640594Y-122861403D01*
X152640594Y-123280594D01*
G37*
G36*
X152640594Y-122780595D02*
G01*
X151651403Y-122780595D01*
X151651403Y-122361404D01*
X152640594Y-122361404D01*
X152640594Y-122780595D01*
G37*
G36*
X152640594Y-122280596D02*
G01*
X151651403Y-122280596D01*
X151651403Y-121861402D01*
X152640594Y-121861402D01*
X152640594Y-122280596D01*
G37*
G36*
X151630784Y-124790594D02*
G01*
X151211592Y-124790594D01*
X151211592Y-123801403D01*
X151630784Y-123801403D01*
X151630784Y-124790594D01*
G37*
G36*
X151630784Y-121840595D02*
G01*
X151211592Y-121840595D01*
X151211592Y-120851404D01*
X151630784Y-120851404D01*
X151630784Y-121840595D01*
G37*
G36*
X151584499Y-123734499D02*
G01*
X151264699Y-123734499D01*
X151264699Y-121907499D01*
X151584499Y-121907499D01*
X151584499Y-123734499D01*
G37*
G36*
X151584499Y-123734499D02*
G01*
X149757499Y-123734499D01*
X149757499Y-123414699D01*
X151584499Y-123414699D01*
X151584499Y-123734499D01*
G37*
G36*
X151584499Y-123014699D02*
G01*
X149757499Y-123014699D01*
X149757499Y-122627299D01*
X151584499Y-122627299D01*
X151584499Y-123014699D01*
G37*
G36*
X151584499Y-122227299D02*
G01*
X149757499Y-122227299D01*
X149757499Y-121907499D01*
X151584499Y-121907499D01*
X151584499Y-122227299D01*
G37*
G36*
X151130658Y-124790594D02*
G01*
X150711466Y-124790594D01*
X150711466Y-123801403D01*
X151130658Y-123801403D01*
X151130658Y-124790594D01*
G37*
G36*
X151130658Y-121840595D02*
G01*
X150711466Y-121840595D01*
X150711466Y-120851404D01*
X151130658Y-120851404D01*
X151130658Y-121840595D01*
G37*
G36*
X150630532Y-124790594D02*
G01*
X150211340Y-124790594D01*
X150211340Y-123801403D01*
X150630532Y-123801403D01*
X150630532Y-124790594D01*
G37*
G36*
X150630532Y-121840595D02*
G01*
X150211340Y-121840595D01*
X150211340Y-120851404D01*
X150630532Y-120851404D01*
X150630532Y-121840595D01*
G37*
G36*
X150864699Y-123734499D02*
G01*
X150477299Y-123734499D01*
X150477299Y-121907499D01*
X150864699Y-121907499D01*
X150864699Y-123734499D01*
G37*
G36*
X150130406Y-124790594D02*
G01*
X149711214Y-124790594D01*
X149711214Y-123801403D01*
X150130406Y-123801403D01*
X150130406Y-124790594D01*
G37*
G36*
X150130406Y-121840595D02*
G01*
X149711214Y-121840595D01*
X149711214Y-120851404D01*
X150130406Y-120851404D01*
X150130406Y-121840595D01*
G37*
G36*
X150077299Y-123734499D02*
G01*
X149757499Y-123734499D01*
X149757499Y-121907499D01*
X150077299Y-121907499D01*
X150077299Y-123734499D01*
G37*
G36*
X149690595Y-123780596D02*
G01*
X148701404Y-123780596D01*
X148701404Y-123361402D01*
X149690595Y-123361402D01*
X149690595Y-123780596D01*
G37*
G36*
X149690595Y-123280594D02*
G01*
X148701404Y-123280594D01*
X148701404Y-122861403D01*
X149690595Y-122861403D01*
X149690595Y-123280594D01*
G37*
G36*
X149690595Y-122780595D02*
G01*
X148701404Y-122780595D01*
X148701404Y-122361404D01*
X149690595Y-122361404D01*
X149690595Y-122780595D01*
G37*
G36*
X149690595Y-122280596D02*
G01*
X148701404Y-122280596D01*
X148701404Y-121861402D01*
X149690595Y-121861402D01*
X149690595Y-122280596D01*
G37*
%TO.C,U8*%
G36*
X149097756Y-131979959D02*
G01*
X149107136Y-131982804D01*
X149115780Y-131987427D01*
X149123357Y-131993645D01*
X149129574Y-132001222D01*
X149134195Y-132009865D01*
X149137040Y-132019246D01*
X149138000Y-132028999D01*
X149138000Y-132679000D01*
X149137040Y-132688754D01*
X149134195Y-132698134D01*
X149129574Y-132706778D01*
X149123357Y-132714355D01*
X149115780Y-132720573D01*
X149107136Y-132725195D01*
X149097756Y-132728040D01*
X149088000Y-132729000D01*
X148938000Y-132729000D01*
X148928246Y-132728040D01*
X148918866Y-132725195D01*
X148910223Y-132720573D01*
X148902646Y-132714355D01*
X148896428Y-132706778D01*
X148891808Y-132698134D01*
X148888963Y-132688754D01*
X148888000Y-132679000D01*
X148888000Y-132028999D01*
X148888963Y-132019246D01*
X148891808Y-132009865D01*
X148896428Y-132001222D01*
X148902646Y-131993645D01*
X148910223Y-131987427D01*
X148918866Y-131982804D01*
X148928246Y-131979959D01*
X148938000Y-131978999D01*
X149088000Y-131978999D01*
X149097756Y-131979959D01*
G37*
G36*
X151547754Y-131979959D02*
G01*
X151557134Y-131982804D01*
X151565777Y-131987427D01*
X151573354Y-131993645D01*
X151579572Y-132001222D01*
X151584192Y-132009865D01*
X151587037Y-132019246D01*
X151588000Y-132028999D01*
X151588000Y-132679000D01*
X151587037Y-132688754D01*
X151584192Y-132698134D01*
X151579572Y-132706778D01*
X151573354Y-132714355D01*
X151565777Y-132720573D01*
X151557134Y-132725195D01*
X151547754Y-132728040D01*
X151538000Y-132729000D01*
X151388000Y-132729000D01*
X151378244Y-132728040D01*
X151368864Y-132725195D01*
X151360220Y-132720573D01*
X151352643Y-132714355D01*
X151346426Y-132706778D01*
X151341805Y-132698134D01*
X151338960Y-132688754D01*
X151338000Y-132679000D01*
X151338000Y-132028999D01*
X151338960Y-132019246D01*
X151341805Y-132009865D01*
X151346426Y-132001222D01*
X151352643Y-131993645D01*
X151360220Y-131987427D01*
X151368864Y-131982804D01*
X151378244Y-131979959D01*
X151388000Y-131978999D01*
X151538000Y-131978999D01*
X151547754Y-131979959D01*
G37*
G36*
X151897753Y-132479963D02*
G01*
X151907133Y-132482808D01*
X151915777Y-132487429D01*
X151923354Y-132493646D01*
X151929571Y-132501223D01*
X151934194Y-132509867D01*
X151937039Y-132519247D01*
X151937999Y-132529001D01*
X151937999Y-132679000D01*
X151937039Y-132688757D01*
X151934194Y-132698137D01*
X151929571Y-132706780D01*
X151923354Y-132714357D01*
X151915777Y-132720575D01*
X151907133Y-132725195D01*
X151897753Y-132728040D01*
X151887999Y-132729000D01*
X151388000Y-132729000D01*
X151378247Y-132728040D01*
X151368866Y-132725195D01*
X151360223Y-132720575D01*
X151352646Y-132714357D01*
X151346428Y-132706780D01*
X151341805Y-132698137D01*
X151338960Y-132688757D01*
X151338000Y-132679000D01*
X151338000Y-132529001D01*
X151338960Y-132519247D01*
X151341805Y-132509867D01*
X151346428Y-132501223D01*
X151352646Y-132493646D01*
X151360223Y-132487429D01*
X151368866Y-132482808D01*
X151378247Y-132479963D01*
X151388000Y-132479001D01*
X151887999Y-132479001D01*
X151897753Y-132479963D01*
G37*
G36*
X149097753Y-132479963D02*
G01*
X149107134Y-132482808D01*
X149115777Y-132487429D01*
X149123354Y-132493646D01*
X149129572Y-132501223D01*
X149134195Y-132509867D01*
X149137040Y-132519247D01*
X149138000Y-132529001D01*
X149138000Y-132679000D01*
X149137040Y-132688757D01*
X149134195Y-132698137D01*
X149129572Y-132706780D01*
X149123354Y-132714357D01*
X149115777Y-132720575D01*
X149107134Y-132725195D01*
X149097753Y-132728040D01*
X149088000Y-132729000D01*
X148588001Y-132729000D01*
X148578247Y-132728040D01*
X148568867Y-132725195D01*
X148560223Y-132720575D01*
X148552646Y-132714357D01*
X148546429Y-132706780D01*
X148541806Y-132698137D01*
X148538961Y-132688757D01*
X148538001Y-132679000D01*
X148538001Y-132529001D01*
X148538961Y-132519247D01*
X148541806Y-132509867D01*
X148546429Y-132501223D01*
X148552646Y-132493646D01*
X148560223Y-132487429D01*
X148568867Y-132482808D01*
X148578247Y-132479963D01*
X148588001Y-132479001D01*
X149088000Y-132479001D01*
X149097753Y-132479963D01*
G37*
G36*
X151897753Y-131979959D02*
G01*
X151907133Y-131982804D01*
X151915777Y-131987424D01*
X151923354Y-131993642D01*
X151929571Y-132001219D01*
X151934194Y-132009863D01*
X151937039Y-132019243D01*
X151937999Y-132028999D01*
X151937999Y-132178999D01*
X151937039Y-132188752D01*
X151934194Y-132198133D01*
X151929571Y-132206776D01*
X151923354Y-132214353D01*
X151915777Y-132220571D01*
X151907133Y-132225191D01*
X151897753Y-132228036D01*
X151887999Y-132228999D01*
X151388000Y-132228999D01*
X151378247Y-132228036D01*
X151368866Y-132225191D01*
X151360223Y-132220571D01*
X151352646Y-132214353D01*
X151346428Y-132206776D01*
X151341805Y-132198133D01*
X151338960Y-132188752D01*
X151338000Y-132178999D01*
X151338000Y-132028999D01*
X151338960Y-132019243D01*
X151341805Y-132009863D01*
X151346428Y-132001219D01*
X151352646Y-131993642D01*
X151360223Y-131987424D01*
X151368866Y-131982804D01*
X151378247Y-131979959D01*
X151388000Y-131978999D01*
X151887999Y-131978999D01*
X151897753Y-131979959D01*
G37*
G36*
X149097753Y-131979959D02*
G01*
X149107134Y-131982804D01*
X149115777Y-131987424D01*
X149123354Y-131993642D01*
X149129572Y-132001219D01*
X149134195Y-132009863D01*
X149137040Y-132019243D01*
X149138000Y-132028999D01*
X149138000Y-132178999D01*
X149137040Y-132188752D01*
X149134195Y-132198133D01*
X149129572Y-132206776D01*
X149123354Y-132214353D01*
X149115777Y-132220571D01*
X149107134Y-132225191D01*
X149097753Y-132228036D01*
X149088000Y-132228999D01*
X148588001Y-132228999D01*
X148578247Y-132228036D01*
X148568867Y-132225191D01*
X148560223Y-132220571D01*
X148552646Y-132214353D01*
X148546429Y-132206776D01*
X148541806Y-132198133D01*
X148538961Y-132188752D01*
X148538001Y-132178999D01*
X148538001Y-132028999D01*
X148538961Y-132019243D01*
X148541806Y-132009863D01*
X148546429Y-132001219D01*
X148552646Y-131993642D01*
X148560223Y-131987424D01*
X148568867Y-131982804D01*
X148578247Y-131979959D01*
X148588001Y-131978999D01*
X149088000Y-131978999D01*
X149097753Y-131979959D01*
G37*
%TD*%
D10*
%TO.C,C17*%
X141478000Y-129774000D03*
X141478000Y-131499000D03*
%TD*%
D11*
%TO.C,L2*%
X126492000Y-134874000D03*
X126492000Y-127254000D03*
%TD*%
D12*
%TO.C,R15*%
X146706000Y-135913001D03*
X148531000Y-135913001D03*
%TD*%
D13*
%TO.C,C31*%
X145948400Y-111619370D03*
X145948400Y-109894370D03*
%TD*%
D10*
%TO.C,C21*%
X143078200Y-113564500D03*
X143078200Y-115289500D03*
%TD*%
D14*
%TO.C,C40*%
X139218500Y-117729000D03*
X140943500Y-117729000D03*
%TD*%
%TO.C,C38*%
X139218500Y-119380000D03*
X140943500Y-119380000D03*
%TD*%
D15*
%TO.C,Q2*%
X140051000Y-135570000D03*
X140051000Y-133670000D03*
X138176000Y-134620000D03*
%TD*%
D16*
%TO.C,TP1*%
X126492000Y-123190000D03*
%TD*%
D17*
%TO.C,C37*%
X128878500Y-117856000D03*
X127153500Y-117856000D03*
%TD*%
D14*
%TO.C,C45*%
X147092500Y-126365000D03*
X148817500Y-126365000D03*
%TD*%
D18*
%TO.C,R25*%
X150241000Y-114212370D03*
X150241000Y-116037370D03*
%TD*%
%TO.C,R14*%
X151765000Y-114212370D03*
X151765000Y-116037370D03*
%TD*%
D19*
%TO.C,D11*%
X144679500Y-122936000D03*
X143279500Y-122936000D03*
%TD*%
D14*
%TO.C,C33*%
X154539300Y-113817486D03*
X156264300Y-113817486D03*
%TD*%
D20*
%TO.C,R28*%
X145134250Y-129491500D03*
X145134250Y-126391500D03*
%TD*%
D12*
%TO.C,R1*%
X142978500Y-119253000D03*
X144803500Y-119253000D03*
%TD*%
D21*
%TO.C,U12*%
X148409700Y-106908600D03*
X147806500Y-106908600D03*
X147806500Y-107518200D03*
X148409700Y-107518200D03*
%TD*%
D16*
%TO.C,TP5*%
X155829000Y-117856000D03*
%TD*%
D22*
%TO.C,U11*%
X152146000Y-123571000D03*
X152146000Y-123070999D03*
X152146000Y-122570999D03*
X152146000Y-122070998D03*
D23*
X151421188Y-121345998D03*
X150921062Y-121345998D03*
X150420936Y-121345998D03*
X149920810Y-121345998D03*
D22*
X149195998Y-122070998D03*
X149195998Y-122570999D03*
X149195998Y-123070999D03*
X149195998Y-123571000D03*
D23*
X149920810Y-124296000D03*
X150420936Y-124296000D03*
X150921062Y-124296000D03*
X151421188Y-124296000D03*
%TD*%
D10*
%TO.C,C44*%
X135237000Y-121935000D03*
X135237000Y-123660000D03*
%TD*%
D24*
%TO.C,R11*%
X141986000Y-135429000D03*
X141986000Y-133604000D03*
%TD*%
D25*
%TO.C,U10*%
X132031000Y-114062000D03*
X132031000Y-114562000D03*
X132031000Y-115062000D03*
X132031000Y-115562000D03*
X132031000Y-116062000D03*
X132031000Y-116562000D03*
X132031000Y-117062000D03*
X132031000Y-117562000D03*
D26*
X132718500Y-118249500D03*
X133218500Y-118249500D03*
X133718500Y-118249500D03*
X134218500Y-118249500D03*
X134718500Y-118249500D03*
X135218500Y-118249500D03*
X135718500Y-118249500D03*
X136218500Y-118249500D03*
D25*
X136906000Y-117562000D03*
X136906000Y-117062000D03*
X136906000Y-116562000D03*
X136906000Y-116062000D03*
X136906000Y-115562000D03*
X136906000Y-115062000D03*
X136906000Y-114562000D03*
X136906000Y-114062000D03*
D26*
X136218500Y-113374500D03*
X135718500Y-113374500D03*
X135218500Y-113374500D03*
X134718500Y-113374500D03*
X134218500Y-113374500D03*
X133718500Y-113374500D03*
X133218500Y-113374500D03*
X132718500Y-113374500D03*
D27*
X134468500Y-115812000D03*
%TD*%
D17*
%TO.C,C22*%
X148117972Y-105511600D03*
X146392972Y-105511600D03*
%TD*%
D16*
%TO.C,TP4*%
X155829000Y-121412000D03*
%TD*%
D28*
%TO.C,L5*%
X155301300Y-109584486D03*
X155301300Y-111954486D03*
%TD*%
D10*
%TO.C,C27*%
X156588000Y-132424000D03*
X156588000Y-134149000D03*
%TD*%
D16*
%TO.C,TP10*%
X155829000Y-106172000D03*
%TD*%
D29*
%TO.C,R31*%
X152019000Y-117602000D03*
X150194000Y-117602000D03*
%TD*%
D30*
%TO.C,D1*%
X134112000Y-127254000D03*
X134112000Y-129754000D03*
%TD*%
D14*
%TO.C,C19*%
X134165000Y-125476000D03*
X135890000Y-125476000D03*
%TD*%
%TO.C,FB1*%
X127153500Y-116332000D03*
X128878500Y-116332000D03*
%TD*%
D31*
%TO.C,J1*%
X143637000Y-109982000D03*
X138557000Y-110998000D03*
X138557000Y-108966000D03*
D32*
X142367000Y-109347000D03*
X142367000Y-110617000D03*
X141097000Y-109347000D03*
X141097000Y-110617000D03*
X139827000Y-109347000D03*
X139827000Y-110617000D03*
%TD*%
D33*
%TO.C,U8*%
X149487999Y-134029000D03*
X149987998Y-134029000D03*
X150488000Y-134029000D03*
X150987998Y-134029000D03*
D34*
X151638000Y-133604000D03*
X151638000Y-133104001D03*
D35*
X151638000Y-132354000D03*
X151638000Y-132354000D03*
D36*
X150737999Y-132104000D03*
D37*
X150238000Y-132279001D03*
D36*
X149738001Y-132104000D03*
D35*
X148838000Y-132354000D03*
X148838000Y-132354000D03*
D34*
X148838000Y-133104001D03*
X148838000Y-133604000D03*
%TD*%
D15*
%TO.C,Q1*%
X140051000Y-127950000D03*
X140051000Y-126050000D03*
X138176000Y-127000000D03*
%TD*%
D17*
%TO.C,C26*%
X147261000Y-132118001D03*
X145536000Y-132118001D03*
%TD*%
D13*
%TO.C,C42*%
X125832500Y-114489000D03*
X125832500Y-112764000D03*
%TD*%
D14*
%TO.C,C34*%
X154539300Y-115341486D03*
X156264300Y-115341486D03*
%TD*%
%TO.C,C43*%
X139328000Y-113538000D03*
X141053000Y-113538000D03*
%TD*%
D12*
%TO.C,R23*%
X153357000Y-135913001D03*
X155182000Y-135913001D03*
%TD*%
D38*
%TO.C,D4*%
X142880500Y-121031000D03*
X144930500Y-121031000D03*
%TD*%
D13*
%TO.C,C41*%
X132062500Y-110729000D03*
X132062500Y-109004000D03*
%TD*%
D16*
%TO.C,TP11*%
X133604000Y-106172000D03*
%TD*%
D39*
%TO.C,U9*%
X151282400Y-112387126D03*
X151282400Y-111887000D03*
X151282400Y-111386874D03*
X151282400Y-110886748D03*
X151282400Y-110386622D03*
X151282400Y-109886496D03*
X149225000Y-109886496D03*
X149225000Y-110386622D03*
X149225000Y-110886748D03*
X149225000Y-111386874D03*
X149225000Y-111887000D03*
X149225000Y-112387126D03*
D40*
X150253700Y-111136811D03*
%TD*%
D41*
%TO.C,L4*%
X154940000Y-127974000D03*
X154940000Y-130344000D03*
%TD*%
D30*
%TO.C,D3*%
X136144000Y-127254000D03*
X136144000Y-129754000D03*
%TD*%
D10*
%TO.C,C18*%
X139954000Y-129774000D03*
X139954000Y-131499000D03*
%TD*%
D12*
%TO.C,R33*%
X147042500Y-129439500D03*
X148867500Y-129439500D03*
%TD*%
D30*
%TO.C,D8*%
X138176000Y-129560000D03*
X138176000Y-132060000D03*
%TD*%
D16*
%TO.C,TP6*%
X152273000Y-106172000D03*
%TD*%
D42*
%TO.C,C4*%
X129497000Y-126746000D03*
X131572000Y-126746000D03*
%TD*%
D10*
%TO.C,C46*%
X147114999Y-121565500D03*
X147114999Y-123290500D03*
%TD*%
D43*
%TO.C,C15*%
X129794000Y-133858000D03*
X129794000Y-135933000D03*
%TD*%
D16*
%TO.C,TP8*%
X155829000Y-124968000D03*
%TD*%
D12*
%TO.C,R13*%
X143005000Y-124460000D03*
X144830000Y-124460000D03*
%TD*%
D10*
%TO.C,C39*%
X125832500Y-109462000D03*
X125832500Y-111187000D03*
%TD*%
D16*
%TO.C,TP2*%
X126492000Y-131064000D03*
%TD*%
D14*
%TO.C,C20*%
X133911000Y-135890000D03*
X135636000Y-135890000D03*
%TD*%
D16*
%TO.C,TP7*%
X130048000Y-106172000D03*
%TD*%
D21*
%TO.C,U1*%
X146245872Y-107543600D03*
X146849072Y-107543600D03*
X146849072Y-106934000D03*
X146245872Y-106934000D03*
%TD*%
D30*
%TO.C,D5*%
X136144000Y-131572000D03*
X136144000Y-134072000D03*
%TD*%
D13*
%TO.C,C32*%
X147412400Y-111619370D03*
X147412400Y-109894370D03*
%TD*%
D29*
%TO.C,R30*%
X152019000Y-119126000D03*
X150194000Y-119126000D03*
%TD*%
D44*
%TO.C,Y1*%
X128760500Y-110732000D03*
X128760500Y-113232000D03*
%TD*%
D29*
%TO.C,R34*%
X148867500Y-127915500D03*
X147042500Y-127915500D03*
%TD*%
D42*
%TO.C,C6*%
X129497000Y-130810000D03*
X131572000Y-130810000D03*
%TD*%
%TO.C,C5*%
X129497000Y-128778000D03*
X131572000Y-128778000D03*
%TD*%
D24*
%TO.C,R2*%
X139573000Y-123594500D03*
X139573000Y-121769500D03*
%TD*%
D45*
%TO.C,U6*%
X148005800Y-116447001D03*
X148005800Y-115947000D03*
X148005800Y-115447000D03*
X148005800Y-114946999D03*
D46*
X147308001Y-114249200D03*
X146808000Y-114249200D03*
X146308000Y-114249200D03*
X145807999Y-114249200D03*
D45*
X145110200Y-114946999D03*
X145110200Y-115447000D03*
X145110200Y-115947000D03*
X145110200Y-116447001D03*
D46*
X145807999Y-117144800D03*
X146308000Y-117144800D03*
X146808000Y-117144800D03*
X147308001Y-117144800D03*
D47*
X146558000Y-115697000D03*
%TD*%
D43*
%TO.C,C14*%
X131826000Y-133858000D03*
X131826000Y-135933000D03*
%TD*%
D12*
%TO.C,R32*%
X127103500Y-119380000D03*
X128928500Y-119380000D03*
%TD*%
D48*
%TO.C,SW1*%
X129631000Y-121844000D03*
X133731000Y-121844000D03*
X129631000Y-123444000D03*
X133731000Y-123444000D03*
%TD*%
D30*
%TO.C,D2*%
X134112000Y-131572000D03*
X134112000Y-134072000D03*
%TD*%
D10*
%TO.C,C16*%
X143002000Y-129774000D03*
X143002000Y-131499000D03*
%TD*%
%TO.C,C28*%
X155094000Y-132424000D03*
X155094000Y-134149000D03*
%TD*%
D14*
%TO.C,C29*%
X150058000Y-135913001D03*
X151783000Y-135913001D03*
%TD*%
D18*
%TO.C,R29*%
X133586500Y-108942500D03*
X133586500Y-110767500D03*
%TD*%
%TO.C,R3*%
X138049000Y-121793000D03*
X138049000Y-123618000D03*
%TD*%
%TO.C,R22*%
X153380000Y-132342001D03*
X153380000Y-134167001D03*
%TD*%
D17*
%TO.C,C25*%
X147261000Y-133612001D03*
X145536000Y-133612001D03*
%TD*%
D16*
%TO.C,TP9*%
X126492000Y-106172000D03*
%TD*%
D49*
%TO.C,C2*%
X138366000Y-106426000D03*
X143666000Y-106426000D03*
%TD*%
M02*
