%TF.GenerationSoftware,KiCad,Pcbnew,7.0.1*%
%TF.CreationDate,2024-08-13T13:22:24+02:00*%
%TF.ProjectId,wpt_receiver,7770745f-7265-4636-9569-7665722e6b69,rev?*%
%TF.SameCoordinates,Original*%
%TF.FileFunction,Legend,Bot*%
%TF.FilePolarity,Positive*%
%FSLAX46Y46*%
G04 Gerber Fmt 4.6, Leading zero omitted, Abs format (unit mm)*
G04 Created by KiCad (PCBNEW 7.0.1) date 2024-08-13 13:22:24*
%MOMM*%
%LPD*%
G01*
G04 APERTURE LIST*
%ADD10C,0.100000*%
%ADD11C,0.125000*%
%ADD12C,0.120000*%
%ADD13C,0.010000*%
G04 APERTURE END LIST*
D10*
%TO.C,U2*%
X113156904Y-141329619D02*
X113156904Y-142139142D01*
X113156904Y-142139142D02*
X113109285Y-142234380D01*
X113109285Y-142234380D02*
X113061666Y-142282000D01*
X113061666Y-142282000D02*
X112966428Y-142329619D01*
X112966428Y-142329619D02*
X112775952Y-142329619D01*
X112775952Y-142329619D02*
X112680714Y-142282000D01*
X112680714Y-142282000D02*
X112633095Y-142234380D01*
X112633095Y-142234380D02*
X112585476Y-142139142D01*
X112585476Y-142139142D02*
X112585476Y-141329619D01*
X112156904Y-141424857D02*
X112109285Y-141377238D01*
X112109285Y-141377238D02*
X112014047Y-141329619D01*
X112014047Y-141329619D02*
X111775952Y-141329619D01*
X111775952Y-141329619D02*
X111680714Y-141377238D01*
X111680714Y-141377238D02*
X111633095Y-141424857D01*
X111633095Y-141424857D02*
X111585476Y-141520095D01*
X111585476Y-141520095D02*
X111585476Y-141615333D01*
X111585476Y-141615333D02*
X111633095Y-141758190D01*
X111633095Y-141758190D02*
X112204523Y-142329619D01*
X112204523Y-142329619D02*
X111585476Y-142329619D01*
X138795190Y-135529619D02*
X138795190Y-136243904D01*
X138795190Y-136243904D02*
X138842809Y-136386761D01*
X138842809Y-136386761D02*
X138938047Y-136482000D01*
X138938047Y-136482000D02*
X139080904Y-136529619D01*
X139080904Y-136529619D02*
X139176142Y-136529619D01*
X138176142Y-136529619D02*
X138271380Y-136482000D01*
X138271380Y-136482000D02*
X138318999Y-136434380D01*
X138318999Y-136434380D02*
X138366618Y-136339142D01*
X138366618Y-136339142D02*
X138366618Y-136053428D01*
X138366618Y-136053428D02*
X138318999Y-135958190D01*
X138318999Y-135958190D02*
X138271380Y-135910571D01*
X138271380Y-135910571D02*
X138176142Y-135862952D01*
X138176142Y-135862952D02*
X138033285Y-135862952D01*
X138033285Y-135862952D02*
X137938047Y-135910571D01*
X137938047Y-135910571D02*
X137890428Y-135958190D01*
X137890428Y-135958190D02*
X137842809Y-136053428D01*
X137842809Y-136053428D02*
X137842809Y-136339142D01*
X137842809Y-136339142D02*
X137890428Y-136434380D01*
X137890428Y-136434380D02*
X137938047Y-136482000D01*
X137938047Y-136482000D02*
X138033285Y-136529619D01*
X138033285Y-136529619D02*
X138176142Y-136529619D01*
X137414237Y-135862952D02*
X137414237Y-136529619D01*
X137414237Y-135958190D02*
X137366618Y-135910571D01*
X137366618Y-135910571D02*
X137271380Y-135862952D01*
X137271380Y-135862952D02*
X137128523Y-135862952D01*
X137128523Y-135862952D02*
X137033285Y-135910571D01*
X137033285Y-135910571D02*
X136985666Y-136005809D01*
X136985666Y-136005809D02*
X136985666Y-136529619D01*
X136080904Y-136529619D02*
X136080904Y-136005809D01*
X136080904Y-136005809D02*
X136128523Y-135910571D01*
X136128523Y-135910571D02*
X136223761Y-135862952D01*
X136223761Y-135862952D02*
X136414237Y-135862952D01*
X136414237Y-135862952D02*
X136509475Y-135910571D01*
X136080904Y-136482000D02*
X136176142Y-136529619D01*
X136176142Y-136529619D02*
X136414237Y-136529619D01*
X136414237Y-136529619D02*
X136509475Y-136482000D01*
X136509475Y-136482000D02*
X136557094Y-136386761D01*
X136557094Y-136386761D02*
X136557094Y-136291523D01*
X136557094Y-136291523D02*
X136509475Y-136196285D01*
X136509475Y-136196285D02*
X136414237Y-136148666D01*
X136414237Y-136148666D02*
X136176142Y-136148666D01*
X136176142Y-136148666D02*
X136080904Y-136101047D01*
X134271380Y-136434380D02*
X134318999Y-136482000D01*
X134318999Y-136482000D02*
X134461856Y-136529619D01*
X134461856Y-136529619D02*
X134557094Y-136529619D01*
X134557094Y-136529619D02*
X134699951Y-136482000D01*
X134699951Y-136482000D02*
X134795189Y-136386761D01*
X134795189Y-136386761D02*
X134842808Y-136291523D01*
X134842808Y-136291523D02*
X134890427Y-136101047D01*
X134890427Y-136101047D02*
X134890427Y-135958190D01*
X134890427Y-135958190D02*
X134842808Y-135767714D01*
X134842808Y-135767714D02*
X134795189Y-135672476D01*
X134795189Y-135672476D02*
X134699951Y-135577238D01*
X134699951Y-135577238D02*
X134557094Y-135529619D01*
X134557094Y-135529619D02*
X134461856Y-135529619D01*
X134461856Y-135529619D02*
X134318999Y-135577238D01*
X134318999Y-135577238D02*
X134271380Y-135624857D01*
X133414237Y-136529619D02*
X133414237Y-136005809D01*
X133414237Y-136005809D02*
X133461856Y-135910571D01*
X133461856Y-135910571D02*
X133557094Y-135862952D01*
X133557094Y-135862952D02*
X133747570Y-135862952D01*
X133747570Y-135862952D02*
X133842808Y-135910571D01*
X133414237Y-136482000D02*
X133509475Y-136529619D01*
X133509475Y-136529619D02*
X133747570Y-136529619D01*
X133747570Y-136529619D02*
X133842808Y-136482000D01*
X133842808Y-136482000D02*
X133890427Y-136386761D01*
X133890427Y-136386761D02*
X133890427Y-136291523D01*
X133890427Y-136291523D02*
X133842808Y-136196285D01*
X133842808Y-136196285D02*
X133747570Y-136148666D01*
X133747570Y-136148666D02*
X133509475Y-136148666D01*
X133509475Y-136148666D02*
X133414237Y-136101047D01*
X132938046Y-135862952D02*
X132938046Y-136862952D01*
X132938046Y-135910571D02*
X132842808Y-135862952D01*
X132842808Y-135862952D02*
X132652332Y-135862952D01*
X132652332Y-135862952D02*
X132557094Y-135910571D01*
X132557094Y-135910571D02*
X132509475Y-135958190D01*
X132509475Y-135958190D02*
X132461856Y-136053428D01*
X132461856Y-136053428D02*
X132461856Y-136339142D01*
X132461856Y-136339142D02*
X132509475Y-136434380D01*
X132509475Y-136434380D02*
X132557094Y-136482000D01*
X132557094Y-136482000D02*
X132652332Y-136529619D01*
X132652332Y-136529619D02*
X132842808Y-136529619D01*
X132842808Y-136529619D02*
X132938046Y-136482000D01*
X132033284Y-135862952D02*
X132033284Y-136862952D01*
X132033284Y-135910571D02*
X131938046Y-135862952D01*
X131938046Y-135862952D02*
X131747570Y-135862952D01*
X131747570Y-135862952D02*
X131652332Y-135910571D01*
X131652332Y-135910571D02*
X131604713Y-135958190D01*
X131604713Y-135958190D02*
X131557094Y-136053428D01*
X131557094Y-136053428D02*
X131557094Y-136339142D01*
X131557094Y-136339142D02*
X131604713Y-136434380D01*
X131604713Y-136434380D02*
X131652332Y-136482000D01*
X131652332Y-136482000D02*
X131747570Y-136529619D01*
X131747570Y-136529619D02*
X131938046Y-136529619D01*
X131938046Y-136529619D02*
X132033284Y-136482000D01*
X130747570Y-136482000D02*
X130842808Y-136529619D01*
X130842808Y-136529619D02*
X131033284Y-136529619D01*
X131033284Y-136529619D02*
X131128522Y-136482000D01*
X131128522Y-136482000D02*
X131176141Y-136386761D01*
X131176141Y-136386761D02*
X131176141Y-136005809D01*
X131176141Y-136005809D02*
X131128522Y-135910571D01*
X131128522Y-135910571D02*
X131033284Y-135862952D01*
X131033284Y-135862952D02*
X130842808Y-135862952D01*
X130842808Y-135862952D02*
X130747570Y-135910571D01*
X130747570Y-135910571D02*
X130699951Y-136005809D01*
X130699951Y-136005809D02*
X130699951Y-136101047D01*
X130699951Y-136101047D02*
X131176141Y-136196285D01*
X130128522Y-136529619D02*
X130223760Y-136482000D01*
X130223760Y-136482000D02*
X130271379Y-136386761D01*
X130271379Y-136386761D02*
X130271379Y-135529619D01*
X129604712Y-136529619D02*
X129699950Y-136482000D01*
X129699950Y-136482000D02*
X129747569Y-136386761D01*
X129747569Y-136386761D02*
X129747569Y-135529619D01*
X128842807Y-136482000D02*
X128938045Y-136529619D01*
X128938045Y-136529619D02*
X129128521Y-136529619D01*
X129128521Y-136529619D02*
X129223759Y-136482000D01*
X129223759Y-136482000D02*
X129271378Y-136386761D01*
X129271378Y-136386761D02*
X129271378Y-136005809D01*
X129271378Y-136005809D02*
X129223759Y-135910571D01*
X129223759Y-135910571D02*
X129128521Y-135862952D01*
X129128521Y-135862952D02*
X128938045Y-135862952D01*
X128938045Y-135862952D02*
X128842807Y-135910571D01*
X128842807Y-135910571D02*
X128795188Y-136005809D01*
X128795188Y-136005809D02*
X128795188Y-136101047D01*
X128795188Y-136101047D02*
X129271378Y-136196285D01*
D11*
%TO.C,JP5*%
X142910666Y-124699309D02*
X142910666Y-125056452D01*
X142910666Y-125056452D02*
X142934475Y-125127880D01*
X142934475Y-125127880D02*
X142982094Y-125175500D01*
X142982094Y-125175500D02*
X143053523Y-125199309D01*
X143053523Y-125199309D02*
X143101142Y-125199309D01*
X142672571Y-125199309D02*
X142672571Y-124699309D01*
X142672571Y-124699309D02*
X142482095Y-124699309D01*
X142482095Y-124699309D02*
X142434476Y-124723119D01*
X142434476Y-124723119D02*
X142410666Y-124746928D01*
X142410666Y-124746928D02*
X142386857Y-124794547D01*
X142386857Y-124794547D02*
X142386857Y-124865976D01*
X142386857Y-124865976D02*
X142410666Y-124913595D01*
X142410666Y-124913595D02*
X142434476Y-124937404D01*
X142434476Y-124937404D02*
X142482095Y-124961214D01*
X142482095Y-124961214D02*
X142672571Y-124961214D01*
X141934476Y-124699309D02*
X142172571Y-124699309D01*
X142172571Y-124699309D02*
X142196380Y-124937404D01*
X142196380Y-124937404D02*
X142172571Y-124913595D01*
X142172571Y-124913595D02*
X142124952Y-124889785D01*
X142124952Y-124889785D02*
X142005904Y-124889785D01*
X142005904Y-124889785D02*
X141958285Y-124913595D01*
X141958285Y-124913595D02*
X141934476Y-124937404D01*
X141934476Y-124937404D02*
X141910666Y-124985023D01*
X141910666Y-124985023D02*
X141910666Y-125104071D01*
X141910666Y-125104071D02*
X141934476Y-125151690D01*
X141934476Y-125151690D02*
X141958285Y-125175500D01*
X141958285Y-125175500D02*
X142005904Y-125199309D01*
X142005904Y-125199309D02*
X142124952Y-125199309D01*
X142124952Y-125199309D02*
X142172571Y-125175500D01*
X142172571Y-125175500D02*
X142196380Y-125151690D01*
%TO.C,JP2*%
X138846666Y-114539309D02*
X138846666Y-114896452D01*
X138846666Y-114896452D02*
X138870475Y-114967880D01*
X138870475Y-114967880D02*
X138918094Y-115015500D01*
X138918094Y-115015500D02*
X138989523Y-115039309D01*
X138989523Y-115039309D02*
X139037142Y-115039309D01*
X138608571Y-115039309D02*
X138608571Y-114539309D01*
X138608571Y-114539309D02*
X138418095Y-114539309D01*
X138418095Y-114539309D02*
X138370476Y-114563119D01*
X138370476Y-114563119D02*
X138346666Y-114586928D01*
X138346666Y-114586928D02*
X138322857Y-114634547D01*
X138322857Y-114634547D02*
X138322857Y-114705976D01*
X138322857Y-114705976D02*
X138346666Y-114753595D01*
X138346666Y-114753595D02*
X138370476Y-114777404D01*
X138370476Y-114777404D02*
X138418095Y-114801214D01*
X138418095Y-114801214D02*
X138608571Y-114801214D01*
X138132380Y-114586928D02*
X138108571Y-114563119D01*
X138108571Y-114563119D02*
X138060952Y-114539309D01*
X138060952Y-114539309D02*
X137941904Y-114539309D01*
X137941904Y-114539309D02*
X137894285Y-114563119D01*
X137894285Y-114563119D02*
X137870476Y-114586928D01*
X137870476Y-114586928D02*
X137846666Y-114634547D01*
X137846666Y-114634547D02*
X137846666Y-114682166D01*
X137846666Y-114682166D02*
X137870476Y-114753595D01*
X137870476Y-114753595D02*
X138156190Y-115039309D01*
X138156190Y-115039309D02*
X137846666Y-115039309D01*
%TO.C,JP6*%
X149387666Y-110221309D02*
X149387666Y-110578452D01*
X149387666Y-110578452D02*
X149411475Y-110649880D01*
X149411475Y-110649880D02*
X149459094Y-110697500D01*
X149459094Y-110697500D02*
X149530523Y-110721309D01*
X149530523Y-110721309D02*
X149578142Y-110721309D01*
X149149571Y-110721309D02*
X149149571Y-110221309D01*
X149149571Y-110221309D02*
X148959095Y-110221309D01*
X148959095Y-110221309D02*
X148911476Y-110245119D01*
X148911476Y-110245119D02*
X148887666Y-110268928D01*
X148887666Y-110268928D02*
X148863857Y-110316547D01*
X148863857Y-110316547D02*
X148863857Y-110387976D01*
X148863857Y-110387976D02*
X148887666Y-110435595D01*
X148887666Y-110435595D02*
X148911476Y-110459404D01*
X148911476Y-110459404D02*
X148959095Y-110483214D01*
X148959095Y-110483214D02*
X149149571Y-110483214D01*
X148435285Y-110221309D02*
X148530523Y-110221309D01*
X148530523Y-110221309D02*
X148578142Y-110245119D01*
X148578142Y-110245119D02*
X148601952Y-110268928D01*
X148601952Y-110268928D02*
X148649571Y-110340357D01*
X148649571Y-110340357D02*
X148673380Y-110435595D01*
X148673380Y-110435595D02*
X148673380Y-110626071D01*
X148673380Y-110626071D02*
X148649571Y-110673690D01*
X148649571Y-110673690D02*
X148625761Y-110697500D01*
X148625761Y-110697500D02*
X148578142Y-110721309D01*
X148578142Y-110721309D02*
X148482904Y-110721309D01*
X148482904Y-110721309D02*
X148435285Y-110697500D01*
X148435285Y-110697500D02*
X148411476Y-110673690D01*
X148411476Y-110673690D02*
X148387666Y-110626071D01*
X148387666Y-110626071D02*
X148387666Y-110507023D01*
X148387666Y-110507023D02*
X148411476Y-110459404D01*
X148411476Y-110459404D02*
X148435285Y-110435595D01*
X148435285Y-110435595D02*
X148482904Y-110411785D01*
X148482904Y-110411785D02*
X148578142Y-110411785D01*
X148578142Y-110411785D02*
X148625761Y-110435595D01*
X148625761Y-110435595D02*
X148649571Y-110459404D01*
X148649571Y-110459404D02*
X148673380Y-110507023D01*
%TO.C,JP4*%
X133512666Y-114666309D02*
X133512666Y-115023452D01*
X133512666Y-115023452D02*
X133536475Y-115094880D01*
X133536475Y-115094880D02*
X133584094Y-115142500D01*
X133584094Y-115142500D02*
X133655523Y-115166309D01*
X133655523Y-115166309D02*
X133703142Y-115166309D01*
X133274571Y-115166309D02*
X133274571Y-114666309D01*
X133274571Y-114666309D02*
X133084095Y-114666309D01*
X133084095Y-114666309D02*
X133036476Y-114690119D01*
X133036476Y-114690119D02*
X133012666Y-114713928D01*
X133012666Y-114713928D02*
X132988857Y-114761547D01*
X132988857Y-114761547D02*
X132988857Y-114832976D01*
X132988857Y-114832976D02*
X133012666Y-114880595D01*
X133012666Y-114880595D02*
X133036476Y-114904404D01*
X133036476Y-114904404D02*
X133084095Y-114928214D01*
X133084095Y-114928214D02*
X133274571Y-114928214D01*
X132560285Y-114832976D02*
X132560285Y-115166309D01*
X132679333Y-114642500D02*
X132798380Y-114999642D01*
X132798380Y-114999642D02*
X132488857Y-114999642D01*
%TO.C,C2*%
X141099333Y-106609690D02*
X141123142Y-106633500D01*
X141123142Y-106633500D02*
X141194571Y-106657309D01*
X141194571Y-106657309D02*
X141242190Y-106657309D01*
X141242190Y-106657309D02*
X141313618Y-106633500D01*
X141313618Y-106633500D02*
X141361237Y-106585880D01*
X141361237Y-106585880D02*
X141385047Y-106538261D01*
X141385047Y-106538261D02*
X141408856Y-106443023D01*
X141408856Y-106443023D02*
X141408856Y-106371595D01*
X141408856Y-106371595D02*
X141385047Y-106276357D01*
X141385047Y-106276357D02*
X141361237Y-106228738D01*
X141361237Y-106228738D02*
X141313618Y-106181119D01*
X141313618Y-106181119D02*
X141242190Y-106157309D01*
X141242190Y-106157309D02*
X141194571Y-106157309D01*
X141194571Y-106157309D02*
X141123142Y-106181119D01*
X141123142Y-106181119D02*
X141099333Y-106204928D01*
X140908856Y-106204928D02*
X140885047Y-106181119D01*
X140885047Y-106181119D02*
X140837428Y-106157309D01*
X140837428Y-106157309D02*
X140718380Y-106157309D01*
X140718380Y-106157309D02*
X140670761Y-106181119D01*
X140670761Y-106181119D02*
X140646952Y-106204928D01*
X140646952Y-106204928D02*
X140623142Y-106252547D01*
X140623142Y-106252547D02*
X140623142Y-106300166D01*
X140623142Y-106300166D02*
X140646952Y-106371595D01*
X140646952Y-106371595D02*
X140932666Y-106657309D01*
X140932666Y-106657309D02*
X140623142Y-106657309D01*
%TO.C,TP3*%
X144394951Y-132965309D02*
X144109237Y-132965309D01*
X144252094Y-133465309D02*
X144252094Y-132965309D01*
X143942571Y-133465309D02*
X143942571Y-132965309D01*
X143942571Y-132965309D02*
X143752095Y-132965309D01*
X143752095Y-132965309D02*
X143704476Y-132989119D01*
X143704476Y-132989119D02*
X143680666Y-133012928D01*
X143680666Y-133012928D02*
X143656857Y-133060547D01*
X143656857Y-133060547D02*
X143656857Y-133131976D01*
X143656857Y-133131976D02*
X143680666Y-133179595D01*
X143680666Y-133179595D02*
X143704476Y-133203404D01*
X143704476Y-133203404D02*
X143752095Y-133227214D01*
X143752095Y-133227214D02*
X143942571Y-133227214D01*
X143490190Y-132965309D02*
X143180666Y-132965309D01*
X143180666Y-132965309D02*
X143347333Y-133155785D01*
X143347333Y-133155785D02*
X143275904Y-133155785D01*
X143275904Y-133155785D02*
X143228285Y-133179595D01*
X143228285Y-133179595D02*
X143204476Y-133203404D01*
X143204476Y-133203404D02*
X143180666Y-133251023D01*
X143180666Y-133251023D02*
X143180666Y-133370071D01*
X143180666Y-133370071D02*
X143204476Y-133417690D01*
X143204476Y-133417690D02*
X143228285Y-133441500D01*
X143228285Y-133441500D02*
X143275904Y-133465309D01*
X143275904Y-133465309D02*
X143418761Y-133465309D01*
X143418761Y-133465309D02*
X143466380Y-133441500D01*
X143466380Y-133441500D02*
X143490190Y-133417690D01*
%TO.C,JP1*%
X138749666Y-117206309D02*
X138749666Y-117563452D01*
X138749666Y-117563452D02*
X138773475Y-117634880D01*
X138773475Y-117634880D02*
X138821094Y-117682500D01*
X138821094Y-117682500D02*
X138892523Y-117706309D01*
X138892523Y-117706309D02*
X138940142Y-117706309D01*
X138511571Y-117706309D02*
X138511571Y-117206309D01*
X138511571Y-117206309D02*
X138321095Y-117206309D01*
X138321095Y-117206309D02*
X138273476Y-117230119D01*
X138273476Y-117230119D02*
X138249666Y-117253928D01*
X138249666Y-117253928D02*
X138225857Y-117301547D01*
X138225857Y-117301547D02*
X138225857Y-117372976D01*
X138225857Y-117372976D02*
X138249666Y-117420595D01*
X138249666Y-117420595D02*
X138273476Y-117444404D01*
X138273476Y-117444404D02*
X138321095Y-117468214D01*
X138321095Y-117468214D02*
X138511571Y-117468214D01*
X137749666Y-117706309D02*
X138035380Y-117706309D01*
X137892523Y-117706309D02*
X137892523Y-117206309D01*
X137892523Y-117206309D02*
X137940142Y-117277738D01*
X137940142Y-117277738D02*
X137987761Y-117325357D01*
X137987761Y-117325357D02*
X138035380Y-117349166D01*
%TO.C,JP3*%
X138719666Y-112126309D02*
X138719666Y-112483452D01*
X138719666Y-112483452D02*
X138743475Y-112554880D01*
X138743475Y-112554880D02*
X138791094Y-112602500D01*
X138791094Y-112602500D02*
X138862523Y-112626309D01*
X138862523Y-112626309D02*
X138910142Y-112626309D01*
X138481571Y-112626309D02*
X138481571Y-112126309D01*
X138481571Y-112126309D02*
X138291095Y-112126309D01*
X138291095Y-112126309D02*
X138243476Y-112150119D01*
X138243476Y-112150119D02*
X138219666Y-112173928D01*
X138219666Y-112173928D02*
X138195857Y-112221547D01*
X138195857Y-112221547D02*
X138195857Y-112292976D01*
X138195857Y-112292976D02*
X138219666Y-112340595D01*
X138219666Y-112340595D02*
X138243476Y-112364404D01*
X138243476Y-112364404D02*
X138291095Y-112388214D01*
X138291095Y-112388214D02*
X138481571Y-112388214D01*
X138029190Y-112126309D02*
X137719666Y-112126309D01*
X137719666Y-112126309D02*
X137886333Y-112316785D01*
X137886333Y-112316785D02*
X137814904Y-112316785D01*
X137814904Y-112316785D02*
X137767285Y-112340595D01*
X137767285Y-112340595D02*
X137743476Y-112364404D01*
X137743476Y-112364404D02*
X137719666Y-112412023D01*
X137719666Y-112412023D02*
X137719666Y-112531071D01*
X137719666Y-112531071D02*
X137743476Y-112578690D01*
X137743476Y-112578690D02*
X137767285Y-112602500D01*
X137767285Y-112602500D02*
X137814904Y-112626309D01*
X137814904Y-112626309D02*
X137957761Y-112626309D01*
X137957761Y-112626309D02*
X138005380Y-112602500D01*
X138005380Y-112602500D02*
X138029190Y-112578690D01*
D12*
%TO.C,JP5*%
X141094000Y-126446000D02*
X141094000Y-127046000D01*
X141794000Y-127746000D02*
X143194000Y-127746000D01*
X143194000Y-125746000D02*
X141794000Y-125746000D01*
X143894000Y-127046000D02*
X143894000Y-126446000D01*
X141794000Y-125746000D02*
G75*
G03*
X141094000Y-126446000I-1J-699999D01*
G01*
X141094000Y-127046000D02*
G75*
G03*
X141794000Y-127746000I699999J-1D01*
G01*
X143894000Y-126446000D02*
G75*
G03*
X143194000Y-125746000I-700000J0D01*
G01*
X143194000Y-127746000D02*
G75*
G03*
X143894000Y-127046000I0J700000D01*
G01*
%TO.C,JP2*%
X134617000Y-114508000D02*
X134617000Y-115108000D01*
X135317000Y-115808000D02*
X136717000Y-115808000D01*
X136717000Y-113808000D02*
X135317000Y-113808000D01*
X137417000Y-115108000D02*
X137417000Y-114508000D01*
X135317000Y-113808000D02*
G75*
G03*
X134617000Y-114508000I-1J-699999D01*
G01*
X134617000Y-115108000D02*
G75*
G03*
X135317000Y-115808000I699999J-1D01*
G01*
X137417000Y-114508000D02*
G75*
G03*
X136717000Y-113808000I-700000J0D01*
G01*
X136717000Y-115808000D02*
G75*
G03*
X137417000Y-115108000I0J700000D01*
G01*
%TO.C,JP6*%
X147521472Y-108412000D02*
X147521472Y-109012000D01*
X148221472Y-109712000D02*
X149621472Y-109712000D01*
X149621472Y-107712000D02*
X148221472Y-107712000D01*
X150321472Y-109012000D02*
X150321472Y-108412000D01*
X148221472Y-107712000D02*
G75*
G03*
X147521472Y-108412000I-1J-699999D01*
G01*
X147521472Y-109012000D02*
G75*
G03*
X148221472Y-109712000I699999J-1D01*
G01*
X150321472Y-108412000D02*
G75*
G03*
X149621472Y-107712000I-700000J0D01*
G01*
X149621472Y-109712000D02*
G75*
G03*
X150321472Y-109012000I0J700000D01*
G01*
%TO.C,JP4*%
X133396000Y-115552000D02*
X132796000Y-115552000D01*
X132096000Y-116252000D02*
X132096000Y-117652000D01*
X134096000Y-117652000D02*
X134096000Y-116252000D01*
X132796000Y-118352000D02*
X133396000Y-118352000D01*
X134096000Y-116252000D02*
G75*
G03*
X133396000Y-115552000I-699999J1D01*
G01*
X132796000Y-115552000D02*
G75*
G03*
X132096000Y-116252000I-1J-699999D01*
G01*
X133396000Y-118352000D02*
G75*
G03*
X134096000Y-117652000I0J700000D01*
G01*
X132096000Y-117652000D02*
G75*
G03*
X132796000Y-118352000I700000J0D01*
G01*
%TO.C,U4*%
D13*
X133757268Y-131194201D02*
X133759447Y-131197437D01*
X133772925Y-131225712D01*
X133790050Y-131272405D01*
X133810253Y-131335585D01*
X133832964Y-131413321D01*
X133857617Y-131503683D01*
X133883643Y-131604741D01*
X133910472Y-131714564D01*
X133917750Y-131744995D01*
X133947432Y-131866323D01*
X133975355Y-131975979D01*
X134000916Y-132071689D01*
X134023510Y-132151183D01*
X134042536Y-132212188D01*
X134045481Y-132222197D01*
X134043027Y-132223714D01*
X134030488Y-132208543D01*
X134009089Y-132178666D01*
X133975351Y-132125112D01*
X133935808Y-132055807D01*
X133889930Y-131969780D01*
X133837188Y-131866059D01*
X133777051Y-131743672D01*
X133642317Y-131465736D01*
X133671495Y-131367807D01*
X133677416Y-131348356D01*
X133693435Y-131298880D01*
X133709098Y-131254248D01*
X133721723Y-131222234D01*
X133730042Y-131203887D01*
X133740080Y-131186469D01*
X133747952Y-131184190D01*
X133757268Y-131194201D01*
G36*
X133757268Y-131194201D02*
G01*
X133759447Y-131197437D01*
X133772925Y-131225712D01*
X133790050Y-131272405D01*
X133810253Y-131335585D01*
X133832964Y-131413321D01*
X133857617Y-131503683D01*
X133883643Y-131604741D01*
X133910472Y-131714564D01*
X133917750Y-131744995D01*
X133947432Y-131866323D01*
X133975355Y-131975979D01*
X134000916Y-132071689D01*
X134023510Y-132151183D01*
X134042536Y-132212188D01*
X134045481Y-132222197D01*
X134043027Y-132223714D01*
X134030488Y-132208543D01*
X134009089Y-132178666D01*
X133975351Y-132125112D01*
X133935808Y-132055807D01*
X133889930Y-131969780D01*
X133837188Y-131866059D01*
X133777051Y-131743672D01*
X133642317Y-131465736D01*
X133671495Y-131367807D01*
X133677416Y-131348356D01*
X133693435Y-131298880D01*
X133709098Y-131254248D01*
X133721723Y-131222234D01*
X133730042Y-131203887D01*
X133740080Y-131186469D01*
X133747952Y-131184190D01*
X133757268Y-131194201D01*
G37*
X133316709Y-131133075D02*
X133360714Y-131155169D01*
X133407244Y-131195603D01*
X133457457Y-131255034D01*
X133512509Y-131334118D01*
X133540463Y-131377181D01*
X133460563Y-131704689D01*
X133452165Y-131739048D01*
X133423578Y-131854752D01*
X133398938Y-131952118D01*
X133377725Y-132032981D01*
X133359417Y-132099178D01*
X133343493Y-132152546D01*
X133329434Y-132194922D01*
X133316718Y-132228142D01*
X133304824Y-132254044D01*
X133283477Y-132295900D01*
X133263383Y-132256732D01*
X133250216Y-132226022D01*
X133234019Y-132179032D01*
X133214616Y-132115072D01*
X133191797Y-132033390D01*
X133165350Y-131933229D01*
X133135065Y-131813836D01*
X133100731Y-131674455D01*
X133029100Y-131380240D01*
X133049077Y-131342980D01*
X133054036Y-131334066D01*
X133085843Y-131285547D01*
X133125085Y-131235616D01*
X133166100Y-131191044D01*
X133203228Y-131158601D01*
X133231651Y-131141281D01*
X133274074Y-131128664D01*
X133316709Y-131133075D01*
G36*
X133316709Y-131133075D02*
G01*
X133360714Y-131155169D01*
X133407244Y-131195603D01*
X133457457Y-131255034D01*
X133512509Y-131334118D01*
X133540463Y-131377181D01*
X133460563Y-131704689D01*
X133452165Y-131739048D01*
X133423578Y-131854752D01*
X133398938Y-131952118D01*
X133377725Y-132032981D01*
X133359417Y-132099178D01*
X133343493Y-132152546D01*
X133329434Y-132194922D01*
X133316718Y-132228142D01*
X133304824Y-132254044D01*
X133283477Y-132295900D01*
X133263383Y-132256732D01*
X133250216Y-132226022D01*
X133234019Y-132179032D01*
X133214616Y-132115072D01*
X133191797Y-132033390D01*
X133165350Y-131933229D01*
X133135065Y-131813836D01*
X133100731Y-131674455D01*
X133029100Y-131380240D01*
X133049077Y-131342980D01*
X133054036Y-131334066D01*
X133085843Y-131285547D01*
X133125085Y-131235616D01*
X133166100Y-131191044D01*
X133203228Y-131158601D01*
X133231651Y-131141281D01*
X133274074Y-131128664D01*
X133316709Y-131133075D01*
G37*
X135190110Y-131141901D02*
X135207097Y-131152826D01*
X135241825Y-131182980D01*
X135280652Y-131223941D01*
X135319335Y-131271091D01*
X135353629Y-131319813D01*
X135392202Y-131380112D01*
X135377177Y-131430873D01*
X135373830Y-131442871D01*
X135364727Y-131477847D01*
X135352197Y-131527718D01*
X135337139Y-131588858D01*
X135320450Y-131657643D01*
X135303027Y-131730446D01*
X135280412Y-131824400D01*
X135249997Y-131946104D01*
X135222924Y-132048261D01*
X135198976Y-132131649D01*
X135177937Y-132197043D01*
X135159590Y-132245220D01*
X135151568Y-132262298D01*
X135138108Y-132282641D01*
X135128516Y-132285389D01*
X135125735Y-132282156D01*
X135113384Y-132259726D01*
X135098043Y-132220700D01*
X135079506Y-132164386D01*
X135057566Y-132090092D01*
X135032017Y-131997126D01*
X135002650Y-131884796D01*
X134969260Y-131752410D01*
X134875992Y-131377333D01*
X134912688Y-131319969D01*
X134931828Y-131292157D01*
X134965513Y-131248375D01*
X134998840Y-131209731D01*
X135018515Y-131189580D01*
X135065168Y-131150758D01*
X135107653Y-131130462D01*
X135148468Y-131127805D01*
X135190110Y-131141901D01*
G36*
X135190110Y-131141901D02*
G01*
X135207097Y-131152826D01*
X135241825Y-131182980D01*
X135280652Y-131223941D01*
X135319335Y-131271091D01*
X135353629Y-131319813D01*
X135392202Y-131380112D01*
X135377177Y-131430873D01*
X135373830Y-131442871D01*
X135364727Y-131477847D01*
X135352197Y-131527718D01*
X135337139Y-131588858D01*
X135320450Y-131657643D01*
X135303027Y-131730446D01*
X135280412Y-131824400D01*
X135249997Y-131946104D01*
X135222924Y-132048261D01*
X135198976Y-132131649D01*
X135177937Y-132197043D01*
X135159590Y-132245220D01*
X135151568Y-132262298D01*
X135138108Y-132282641D01*
X135128516Y-132285389D01*
X135125735Y-132282156D01*
X135113384Y-132259726D01*
X135098043Y-132220700D01*
X135079506Y-132164386D01*
X135057566Y-132090092D01*
X135032017Y-131997126D01*
X135002650Y-131884796D01*
X134969260Y-131752410D01*
X134875992Y-131377333D01*
X134912688Y-131319969D01*
X134931828Y-131292157D01*
X134965513Y-131248375D01*
X134998840Y-131209731D01*
X135018515Y-131189580D01*
X135065168Y-131150758D01*
X135107653Y-131130462D01*
X135148468Y-131127805D01*
X135190110Y-131141901D01*
G37*
X135731872Y-134454567D02*
X135731872Y-134486430D01*
X135637804Y-134479753D01*
X135590658Y-134475693D01*
X135542430Y-134468400D01*
X135506209Y-134457375D01*
X135476761Y-134440886D01*
X135448850Y-134417200D01*
X135432645Y-134399719D01*
X135408078Y-134359056D01*
X135394556Y-134308566D01*
X135390418Y-134243305D01*
X135391788Y-134219035D01*
X135426620Y-134219035D01*
X135427876Y-134262707D01*
X135431280Y-134295832D01*
X135445951Y-134351791D01*
X135472106Y-134392876D01*
X135511207Y-134421882D01*
X135538605Y-134432174D01*
X135580440Y-134442083D01*
X135625025Y-134448273D01*
X135700109Y-134454567D01*
X135700109Y-134046121D01*
X135623537Y-134053238D01*
X135612865Y-134054300D01*
X135551381Y-134064560D01*
X135506039Y-134081629D01*
X135472864Y-134107571D01*
X135447880Y-134144451D01*
X135441809Y-134156725D01*
X135430736Y-134186830D01*
X135426620Y-134219035D01*
X135391788Y-134219035D01*
X135392641Y-134203910D01*
X135408909Y-134139426D01*
X135440682Y-134088749D01*
X135487633Y-134052525D01*
X135490919Y-134050808D01*
X135517394Y-134039184D01*
X135545575Y-134032234D01*
X135581937Y-134028866D01*
X135632954Y-134027986D01*
X135731872Y-134027986D01*
X135731872Y-134454567D01*
G36*
X135731872Y-134454567D02*
G01*
X135731872Y-134486430D01*
X135637804Y-134479753D01*
X135590658Y-134475693D01*
X135542430Y-134468400D01*
X135506209Y-134457375D01*
X135476761Y-134440886D01*
X135448850Y-134417200D01*
X135432645Y-134399719D01*
X135408078Y-134359056D01*
X135394556Y-134308566D01*
X135390418Y-134243305D01*
X135391788Y-134219035D01*
X135426620Y-134219035D01*
X135427876Y-134262707D01*
X135431280Y-134295832D01*
X135445951Y-134351791D01*
X135472106Y-134392876D01*
X135511207Y-134421882D01*
X135538605Y-134432174D01*
X135580440Y-134442083D01*
X135625025Y-134448273D01*
X135700109Y-134454567D01*
X135700109Y-134046121D01*
X135623537Y-134053238D01*
X135612865Y-134054300D01*
X135551381Y-134064560D01*
X135506039Y-134081629D01*
X135472864Y-134107571D01*
X135447880Y-134144451D01*
X135441809Y-134156725D01*
X135430736Y-134186830D01*
X135426620Y-134219035D01*
X135391788Y-134219035D01*
X135392641Y-134203910D01*
X135408909Y-134139426D01*
X135440682Y-134088749D01*
X135487633Y-134052525D01*
X135490919Y-134050808D01*
X135517394Y-134039184D01*
X135545575Y-134032234D01*
X135581937Y-134028866D01*
X135632954Y-134027986D01*
X135731872Y-134027986D01*
X135731872Y-134454567D01*
G37*
X133442094Y-134020290D02*
X133495407Y-134033785D01*
X133500942Y-134036171D01*
X133555540Y-134070287D01*
X133594067Y-134117349D01*
X133616966Y-134178108D01*
X133624679Y-134253316D01*
X133624635Y-134262278D01*
X133617444Y-134333555D01*
X133597274Y-134389484D01*
X133563060Y-134432077D01*
X133513740Y-134463347D01*
X133499275Y-134468932D01*
X133461820Y-134477624D01*
X133419760Y-134481946D01*
X133378186Y-134482026D01*
X133342187Y-134477995D01*
X133316854Y-134469981D01*
X133307276Y-134458113D01*
X133316433Y-134451756D01*
X133346253Y-134447598D01*
X133396458Y-134446202D01*
X133440375Y-134445443D01*
X133473362Y-134442211D01*
X133496472Y-134435402D01*
X133515573Y-134423920D01*
X133541571Y-134401239D01*
X133568559Y-134362437D01*
X133583349Y-134313414D01*
X133587854Y-134249556D01*
X133587110Y-134210693D01*
X133583332Y-134178111D01*
X133574768Y-134152669D01*
X133559683Y-134126804D01*
X133530287Y-134090819D01*
X133495209Y-134066724D01*
X133451542Y-134054500D01*
X133395751Y-134053168D01*
X133324300Y-134061752D01*
X133308112Y-134061703D01*
X133300562Y-134053622D01*
X133307983Y-134041090D01*
X133329553Y-134029190D01*
X133382602Y-134018786D01*
X133442094Y-134020290D01*
G36*
X133442094Y-134020290D02*
G01*
X133495407Y-134033785D01*
X133500942Y-134036171D01*
X133555540Y-134070287D01*
X133594067Y-134117349D01*
X133616966Y-134178108D01*
X133624679Y-134253316D01*
X133624635Y-134262278D01*
X133617444Y-134333555D01*
X133597274Y-134389484D01*
X133563060Y-134432077D01*
X133513740Y-134463347D01*
X133499275Y-134468932D01*
X133461820Y-134477624D01*
X133419760Y-134481946D01*
X133378186Y-134482026D01*
X133342187Y-134477995D01*
X133316854Y-134469981D01*
X133307276Y-134458113D01*
X133316433Y-134451756D01*
X133346253Y-134447598D01*
X133396458Y-134446202D01*
X133440375Y-134445443D01*
X133473362Y-134442211D01*
X133496472Y-134435402D01*
X133515573Y-134423920D01*
X133541571Y-134401239D01*
X133568559Y-134362437D01*
X133583349Y-134313414D01*
X133587854Y-134249556D01*
X133587110Y-134210693D01*
X133583332Y-134178111D01*
X133574768Y-134152669D01*
X133559683Y-134126804D01*
X133530287Y-134090819D01*
X133495209Y-134066724D01*
X133451542Y-134054500D01*
X133395751Y-134053168D01*
X133324300Y-134061752D01*
X133308112Y-134061703D01*
X133300562Y-134053622D01*
X133307983Y-134041090D01*
X133329553Y-134029190D01*
X133382602Y-134018786D01*
X133442094Y-134020290D01*
G37*
X134683367Y-131190471D02*
X134688448Y-131200732D01*
X134699639Y-131229286D01*
X134713689Y-131269106D01*
X134728928Y-131314992D01*
X134743687Y-131361745D01*
X134756297Y-131404166D01*
X134765087Y-131437057D01*
X134768388Y-131455218D01*
X134764015Y-131473052D01*
X134750865Y-131507438D01*
X134730256Y-131555240D01*
X134703516Y-131613785D01*
X134671976Y-131680399D01*
X134636965Y-131752411D01*
X134599812Y-131827146D01*
X134561847Y-131901932D01*
X134524400Y-131974096D01*
X134488799Y-132040965D01*
X134456375Y-132099866D01*
X134428457Y-132148126D01*
X134406374Y-132183072D01*
X134394682Y-132199746D01*
X134379255Y-132220117D01*
X134371469Y-132228070D01*
X134371192Y-132227741D01*
X134373463Y-132215445D01*
X134381129Y-132188950D01*
X134392801Y-132153136D01*
X134394628Y-132147623D01*
X134405788Y-132110516D01*
X134420342Y-132058170D01*
X134437109Y-131995018D01*
X134454907Y-131925494D01*
X134472552Y-131854032D01*
X134486038Y-131798522D01*
X134519516Y-131662838D01*
X134549109Y-131546387D01*
X134575127Y-131448079D01*
X134597885Y-131366822D01*
X134617695Y-131301524D01*
X134634868Y-131251094D01*
X134649719Y-131214440D01*
X134662559Y-131190471D01*
X134664023Y-131188299D01*
X134673523Y-131179914D01*
X134683367Y-131190471D01*
G36*
X134683367Y-131190471D02*
G01*
X134688448Y-131200732D01*
X134699639Y-131229286D01*
X134713689Y-131269106D01*
X134728928Y-131314992D01*
X134743687Y-131361745D01*
X134756297Y-131404166D01*
X134765087Y-131437057D01*
X134768388Y-131455218D01*
X134764015Y-131473052D01*
X134750865Y-131507438D01*
X134730256Y-131555240D01*
X134703516Y-131613785D01*
X134671976Y-131680399D01*
X134636965Y-131752411D01*
X134599812Y-131827146D01*
X134561847Y-131901932D01*
X134524400Y-131974096D01*
X134488799Y-132040965D01*
X134456375Y-132099866D01*
X134428457Y-132148126D01*
X134406374Y-132183072D01*
X134394682Y-132199746D01*
X134379255Y-132220117D01*
X134371469Y-132228070D01*
X134371192Y-132227741D01*
X134373463Y-132215445D01*
X134381129Y-132188950D01*
X134392801Y-132153136D01*
X134394628Y-132147623D01*
X134405788Y-132110516D01*
X134420342Y-132058170D01*
X134437109Y-131995018D01*
X134454907Y-131925494D01*
X134472552Y-131854032D01*
X134486038Y-131798522D01*
X134519516Y-131662838D01*
X134549109Y-131546387D01*
X134575127Y-131448079D01*
X134597885Y-131366822D01*
X134617695Y-131301524D01*
X134634868Y-131251094D01*
X134649719Y-131214440D01*
X134662559Y-131190471D01*
X134664023Y-131188299D01*
X134673523Y-131179914D01*
X134683367Y-131190471D01*
G37*
X135191898Y-134059750D02*
X135191898Y-134247572D01*
X135191868Y-134267841D01*
X135191363Y-134332474D01*
X135190308Y-134388858D01*
X135188802Y-134433762D01*
X135186946Y-134463953D01*
X135184839Y-134476201D01*
X135178816Y-134481165D01*
X135169820Y-134480952D01*
X135164074Y-134465849D01*
X135161028Y-134433782D01*
X135160134Y-134382676D01*
X135160134Y-134282092D01*
X135046278Y-134282092D01*
X134986255Y-134382676D01*
X134964808Y-134417053D01*
X134941108Y-134451340D01*
X134922182Y-134474656D01*
X134910836Y-134483259D01*
X134904190Y-134482856D01*
X134898129Y-134479218D01*
X134898812Y-134469327D01*
X134907341Y-134450247D01*
X134924820Y-134419042D01*
X134952353Y-134372775D01*
X135009220Y-134278172D01*
X134976307Y-134255992D01*
X134957359Y-134240916D01*
X134927954Y-134201174D01*
X134916050Y-134156096D01*
X134917497Y-134145519D01*
X134954224Y-134145519D01*
X134960321Y-134185037D01*
X134978795Y-134218869D01*
X135006789Y-134239809D01*
X135022993Y-134243990D01*
X135057819Y-134248555D01*
X135097297Y-134250329D01*
X135160134Y-134250329D01*
X135160134Y-134059750D01*
X135091812Y-134059750D01*
X135039229Y-134062423D01*
X134999693Y-134072122D01*
X134973998Y-134090358D01*
X134958752Y-134118634D01*
X134954224Y-134145519D01*
X134917497Y-134145519D01*
X134922335Y-134110163D01*
X134947494Y-134067857D01*
X134954064Y-134060578D01*
X134967878Y-134047338D01*
X134982904Y-134039009D01*
X135004129Y-134034207D01*
X135036543Y-134031546D01*
X135085135Y-134029641D01*
X135191898Y-134026002D01*
X135191898Y-134059750D01*
G36*
X135191898Y-134059750D02*
G01*
X135191898Y-134247572D01*
X135191868Y-134267841D01*
X135191363Y-134332474D01*
X135190308Y-134388858D01*
X135188802Y-134433762D01*
X135186946Y-134463953D01*
X135184839Y-134476201D01*
X135178816Y-134481165D01*
X135169820Y-134480952D01*
X135164074Y-134465849D01*
X135161028Y-134433782D01*
X135160134Y-134382676D01*
X135160134Y-134282092D01*
X135046278Y-134282092D01*
X134986255Y-134382676D01*
X134964808Y-134417053D01*
X134941108Y-134451340D01*
X134922182Y-134474656D01*
X134910836Y-134483259D01*
X134904190Y-134482856D01*
X134898129Y-134479218D01*
X134898812Y-134469327D01*
X134907341Y-134450247D01*
X134924820Y-134419042D01*
X134952353Y-134372775D01*
X135009220Y-134278172D01*
X134976307Y-134255992D01*
X134957359Y-134240916D01*
X134927954Y-134201174D01*
X134916050Y-134156096D01*
X134917497Y-134145519D01*
X134954224Y-134145519D01*
X134960321Y-134185037D01*
X134978795Y-134218869D01*
X135006789Y-134239809D01*
X135022993Y-134243990D01*
X135057819Y-134248555D01*
X135097297Y-134250329D01*
X135160134Y-134250329D01*
X135160134Y-134059750D01*
X135091812Y-134059750D01*
X135039229Y-134062423D01*
X134999693Y-134072122D01*
X134973998Y-134090358D01*
X134958752Y-134118634D01*
X134954224Y-134145519D01*
X134917497Y-134145519D01*
X134922335Y-134110163D01*
X134947494Y-134067857D01*
X134954064Y-134060578D01*
X134967878Y-134047338D01*
X134982904Y-134039009D01*
X135004129Y-134034207D01*
X135036543Y-134031546D01*
X135085135Y-134029641D01*
X135191898Y-134026002D01*
X135191898Y-134059750D01*
G37*
X133132581Y-134250329D02*
X133132247Y-134292821D01*
X133130309Y-134328263D01*
X133125554Y-134353554D01*
X133116775Y-134374652D01*
X133102765Y-134397515D01*
X133073166Y-134432328D01*
X133028650Y-134462682D01*
X132969351Y-134480065D01*
X132903721Y-134479643D01*
X132841015Y-134459437D01*
X132822327Y-134448302D01*
X132782328Y-134409123D01*
X132754425Y-134358309D01*
X132738618Y-134300006D01*
X132734906Y-134238357D01*
X132736904Y-134223858D01*
X132773272Y-134223858D01*
X132774334Y-134283795D01*
X132787686Y-134340980D01*
X132813245Y-134390523D01*
X132850925Y-134427534D01*
X132870592Y-134438319D01*
X132921592Y-134451235D01*
X132974581Y-134447676D01*
X133021919Y-134427638D01*
X133052227Y-134403118D01*
X133080329Y-134364311D01*
X133095802Y-134314805D01*
X133100539Y-134250329D01*
X133098704Y-134207499D01*
X133087630Y-134153541D01*
X133064883Y-134111473D01*
X133028574Y-134076738D01*
X133018389Y-134070336D01*
X132977371Y-134056913D01*
X132929026Y-134053421D01*
X132881974Y-134059882D01*
X132844841Y-134076314D01*
X132844678Y-134076434D01*
X132808359Y-134115288D01*
X132784586Y-134166059D01*
X132773272Y-134223858D01*
X132736904Y-134223858D01*
X132743289Y-134177510D01*
X132763769Y-134121608D01*
X132796344Y-134074796D01*
X132841015Y-134041221D01*
X132888680Y-134023785D01*
X132950300Y-134018289D01*
X133009382Y-134030361D01*
X133061633Y-134058984D01*
X133102765Y-134103143D01*
X133115023Y-134122810D01*
X133124515Y-134143792D01*
X133129801Y-134168068D01*
X133132087Y-134201594D01*
X133132581Y-134250329D01*
G36*
X133132581Y-134250329D02*
G01*
X133132247Y-134292821D01*
X133130309Y-134328263D01*
X133125554Y-134353554D01*
X133116775Y-134374652D01*
X133102765Y-134397515D01*
X133073166Y-134432328D01*
X133028650Y-134462682D01*
X132969351Y-134480065D01*
X132903721Y-134479643D01*
X132841015Y-134459437D01*
X132822327Y-134448302D01*
X132782328Y-134409123D01*
X132754425Y-134358309D01*
X132738618Y-134300006D01*
X132734906Y-134238357D01*
X132736904Y-134223858D01*
X132773272Y-134223858D01*
X132774334Y-134283795D01*
X132787686Y-134340980D01*
X132813245Y-134390523D01*
X132850925Y-134427534D01*
X132870592Y-134438319D01*
X132921592Y-134451235D01*
X132974581Y-134447676D01*
X133021919Y-134427638D01*
X133052227Y-134403118D01*
X133080329Y-134364311D01*
X133095802Y-134314805D01*
X133100539Y-134250329D01*
X133098704Y-134207499D01*
X133087630Y-134153541D01*
X133064883Y-134111473D01*
X133028574Y-134076738D01*
X133018389Y-134070336D01*
X132977371Y-134056913D01*
X132929026Y-134053421D01*
X132881974Y-134059882D01*
X132844841Y-134076314D01*
X132844678Y-134076434D01*
X132808359Y-134115288D01*
X132784586Y-134166059D01*
X132773272Y-134223858D01*
X132736904Y-134223858D01*
X132743289Y-134177510D01*
X132763769Y-134121608D01*
X132796344Y-134074796D01*
X132841015Y-134041221D01*
X132888680Y-134023785D01*
X132950300Y-134018289D01*
X133009382Y-134030361D01*
X133061633Y-134058984D01*
X133102765Y-134103143D01*
X133115023Y-134122810D01*
X133124515Y-134143792D01*
X133129801Y-134168068D01*
X133132087Y-134201594D01*
X133132581Y-134250329D01*
G37*
X134706690Y-134279445D02*
X134727109Y-134329968D01*
X134747282Y-134381100D01*
X134763509Y-134423762D01*
X134774379Y-134454541D01*
X134778482Y-134470025D01*
X134777261Y-134475709D01*
X134764284Y-134483259D01*
X134761808Y-134482458D01*
X134749497Y-134468083D01*
X134733242Y-134438683D01*
X134715291Y-134398165D01*
X134680989Y-134313070D01*
X134590893Y-134316110D01*
X134500796Y-134319149D01*
X134469587Y-134401204D01*
X134467377Y-134406942D01*
X134449935Y-134447096D01*
X134434642Y-134473658D01*
X134423392Y-134483259D01*
X134416883Y-134482032D01*
X134408404Y-134470969D01*
X134409061Y-134466459D01*
X134415743Y-134443946D01*
X134428532Y-134407810D01*
X134446062Y-134361390D01*
X134466963Y-134308028D01*
X134477546Y-134281708D01*
X134516435Y-134281708D01*
X134523443Y-134288141D01*
X134546155Y-134291629D01*
X134587263Y-134292680D01*
X134629988Y-134291361D01*
X134654690Y-134287070D01*
X134662433Y-134279445D01*
X134661417Y-134273677D01*
X134654505Y-134250238D01*
X134642497Y-134214877D01*
X134627097Y-134172732D01*
X134591838Y-134079254D01*
X134556781Y-134172732D01*
X134548483Y-134194866D01*
X134533731Y-134234258D01*
X134522548Y-134264176D01*
X134516870Y-134279445D01*
X134516435Y-134281708D01*
X134477546Y-134281708D01*
X134489869Y-134251061D01*
X134513411Y-134193832D01*
X134536223Y-134139679D01*
X134556936Y-134091943D01*
X134574183Y-134053963D01*
X134586596Y-134029080D01*
X134592808Y-134020634D01*
X134593831Y-134021554D01*
X134602151Y-134036419D01*
X134616393Y-134066704D01*
X134635150Y-134108995D01*
X134657010Y-134159880D01*
X134680563Y-134215946D01*
X134704399Y-134273779D01*
X134706690Y-134279445D01*
G36*
X134706690Y-134279445D02*
G01*
X134727109Y-134329968D01*
X134747282Y-134381100D01*
X134763509Y-134423762D01*
X134774379Y-134454541D01*
X134778482Y-134470025D01*
X134777261Y-134475709D01*
X134764284Y-134483259D01*
X134761808Y-134482458D01*
X134749497Y-134468083D01*
X134733242Y-134438683D01*
X134715291Y-134398165D01*
X134680989Y-134313070D01*
X134590893Y-134316110D01*
X134500796Y-134319149D01*
X134469587Y-134401204D01*
X134467377Y-134406942D01*
X134449935Y-134447096D01*
X134434642Y-134473658D01*
X134423392Y-134483259D01*
X134416883Y-134482032D01*
X134408404Y-134470969D01*
X134409061Y-134466459D01*
X134415743Y-134443946D01*
X134428532Y-134407810D01*
X134446062Y-134361390D01*
X134466963Y-134308028D01*
X134477546Y-134281708D01*
X134516435Y-134281708D01*
X134523443Y-134288141D01*
X134546155Y-134291629D01*
X134587263Y-134292680D01*
X134629988Y-134291361D01*
X134654690Y-134287070D01*
X134662433Y-134279445D01*
X134661417Y-134273677D01*
X134654505Y-134250238D01*
X134642497Y-134214877D01*
X134627097Y-134172732D01*
X134591838Y-134079254D01*
X134556781Y-134172732D01*
X134548483Y-134194866D01*
X134533731Y-134234258D01*
X134522548Y-134264176D01*
X134516870Y-134279445D01*
X134516435Y-134281708D01*
X134477546Y-134281708D01*
X134489869Y-134251061D01*
X134513411Y-134193832D01*
X134536223Y-134139679D01*
X134556936Y-134091943D01*
X134574183Y-134053963D01*
X134586596Y-134029080D01*
X134592808Y-134020634D01*
X134593831Y-134021554D01*
X134602151Y-134036419D01*
X134616393Y-134066704D01*
X134635150Y-134108995D01*
X134657010Y-134159880D01*
X134680563Y-134215946D01*
X134704399Y-134273779D01*
X134706690Y-134279445D01*
G37*
X133860691Y-134029494D02*
X133869644Y-134035714D01*
X133879587Y-134049155D01*
X133891846Y-134072323D01*
X133907746Y-134107727D01*
X133928613Y-134157873D01*
X133955773Y-134225270D01*
X134034701Y-134422553D01*
X134113028Y-134225376D01*
X134124936Y-134195441D01*
X134148907Y-134135833D01*
X134167131Y-134092361D01*
X134180992Y-134062482D01*
X134191873Y-134043656D01*
X134201157Y-134033343D01*
X134210229Y-134029002D01*
X134220472Y-134028092D01*
X134249588Y-134027986D01*
X134249588Y-134248564D01*
X134249561Y-134267980D01*
X134249061Y-134332538D01*
X134248007Y-134388879D01*
X134246500Y-134433762D01*
X134244641Y-134463949D01*
X134242530Y-134476201D01*
X134236519Y-134480857D01*
X134229836Y-134479980D01*
X134224805Y-134468643D01*
X134221137Y-134444703D01*
X134218540Y-134406017D01*
X134216725Y-134350442D01*
X134215402Y-134275835D01*
X134212531Y-134068411D01*
X134134435Y-134262600D01*
X134131560Y-134269737D01*
X134106923Y-134329831D01*
X134084262Y-134383337D01*
X134065020Y-134426974D01*
X134050639Y-134457463D01*
X134042561Y-134471525D01*
X134041483Y-134472712D01*
X134037258Y-134477446D01*
X134033397Y-134479499D01*
X134028853Y-134476755D01*
X134022581Y-134467100D01*
X134013536Y-134448417D01*
X134000673Y-134418591D01*
X133982947Y-134375506D01*
X133959312Y-134317045D01*
X133928722Y-134241094D01*
X133863136Y-134078337D01*
X133860260Y-134280798D01*
X133859960Y-134301027D01*
X133858661Y-134367528D01*
X133856984Y-134416116D01*
X133854690Y-134449386D01*
X133851541Y-134469935D01*
X133847301Y-134480361D01*
X133841731Y-134483259D01*
X133837759Y-134481894D01*
X133833479Y-134474384D01*
X133830360Y-134458100D01*
X133828231Y-134430562D01*
X133826922Y-134389289D01*
X133826261Y-134331803D01*
X133826078Y-134255623D01*
X133826078Y-134027986D01*
X133851462Y-134027986D01*
X133860691Y-134029494D01*
G36*
X133860691Y-134029494D02*
G01*
X133869644Y-134035714D01*
X133879587Y-134049155D01*
X133891846Y-134072323D01*
X133907746Y-134107727D01*
X133928613Y-134157873D01*
X133955773Y-134225270D01*
X134034701Y-134422553D01*
X134113028Y-134225376D01*
X134124936Y-134195441D01*
X134148907Y-134135833D01*
X134167131Y-134092361D01*
X134180992Y-134062482D01*
X134191873Y-134043656D01*
X134201157Y-134033343D01*
X134210229Y-134029002D01*
X134220472Y-134028092D01*
X134249588Y-134027986D01*
X134249588Y-134248564D01*
X134249561Y-134267980D01*
X134249061Y-134332538D01*
X134248007Y-134388879D01*
X134246500Y-134433762D01*
X134244641Y-134463949D01*
X134242530Y-134476201D01*
X134236519Y-134480857D01*
X134229836Y-134479980D01*
X134224805Y-134468643D01*
X134221137Y-134444703D01*
X134218540Y-134406017D01*
X134216725Y-134350442D01*
X134215402Y-134275835D01*
X134212531Y-134068411D01*
X134134435Y-134262600D01*
X134131560Y-134269737D01*
X134106923Y-134329831D01*
X134084262Y-134383337D01*
X134065020Y-134426974D01*
X134050639Y-134457463D01*
X134042561Y-134471525D01*
X134041483Y-134472712D01*
X134037258Y-134477446D01*
X134033397Y-134479499D01*
X134028853Y-134476755D01*
X134022581Y-134467100D01*
X134013536Y-134448417D01*
X134000673Y-134418591D01*
X133982947Y-134375506D01*
X133959312Y-134317045D01*
X133928722Y-134241094D01*
X133863136Y-134078337D01*
X133860260Y-134280798D01*
X133859960Y-134301027D01*
X133858661Y-134367528D01*
X133856984Y-134416116D01*
X133854690Y-134449386D01*
X133851541Y-134469935D01*
X133847301Y-134480361D01*
X133841731Y-134483259D01*
X133837759Y-134481894D01*
X133833479Y-134474384D01*
X133830360Y-134458100D01*
X133828231Y-134430562D01*
X133826922Y-134389289D01*
X133826261Y-134331803D01*
X133826078Y-134255623D01*
X133826078Y-134027986D01*
X133851462Y-134027986D01*
X133860691Y-134029494D01*
G37*
X134324149Y-130457260D02*
X134405303Y-130464038D01*
X134471931Y-130474578D01*
X134510933Y-130483646D01*
X134669555Y-130533589D01*
X134819356Y-130601970D01*
X134958844Y-130687635D01*
X135086528Y-130789429D01*
X135200914Y-130906199D01*
X135300513Y-131036790D01*
X135383830Y-131180048D01*
X135401385Y-131216473D01*
X135414955Y-131250165D01*
X135419909Y-131273716D01*
X135417595Y-131291577D01*
X135413658Y-131301850D01*
X135407890Y-131306918D01*
X135398465Y-131301205D01*
X135382403Y-131282631D01*
X135356723Y-131249116D01*
X135329604Y-131215639D01*
X135269356Y-131157844D01*
X135208174Y-131121154D01*
X135146540Y-131105563D01*
X135084933Y-131111066D01*
X135023836Y-131137658D01*
X134963729Y-131185333D01*
X134905092Y-131254087D01*
X134859086Y-131317263D01*
X134832265Y-131251197D01*
X134813508Y-131206950D01*
X134789265Y-131159103D01*
X134765301Y-131126856D01*
X134738544Y-131107356D01*
X134705923Y-131097749D01*
X134664368Y-131095181D01*
X134633296Y-131097245D01*
X134596718Y-131109602D01*
X134567474Y-131136120D01*
X134540579Y-131180223D01*
X134527717Y-131207218D01*
X134513890Y-131240453D01*
X134499627Y-131279776D01*
X134484318Y-131327267D01*
X134467354Y-131385005D01*
X134448125Y-131455070D01*
X134426024Y-131539543D01*
X134400440Y-131640503D01*
X134370764Y-131760030D01*
X134354885Y-131823720D01*
X134332588Y-131910899D01*
X134310954Y-131993056D01*
X134290835Y-132067077D01*
X134273081Y-132129846D01*
X134258543Y-132178249D01*
X134248073Y-132209170D01*
X134236735Y-132238140D01*
X134224123Y-132267422D01*
X134215243Y-132281506D01*
X134208047Y-132283249D01*
X134200484Y-132275509D01*
X134193876Y-132265424D01*
X134182834Y-132243811D01*
X134170778Y-132213941D01*
X134157182Y-132174044D01*
X134141519Y-132122350D01*
X134123260Y-132057090D01*
X134101880Y-131976493D01*
X134076851Y-131878789D01*
X134047647Y-131762209D01*
X134020042Y-131651755D01*
X133989837Y-131533323D01*
X133963179Y-131432873D01*
X133939407Y-131348940D01*
X133917859Y-131280060D01*
X133897872Y-131224768D01*
X133878784Y-131181601D01*
X133859933Y-131149092D01*
X133840657Y-131125779D01*
X133820293Y-131110195D01*
X133798180Y-131100878D01*
X133773654Y-131096361D01*
X133746055Y-131095181D01*
X133713531Y-131097441D01*
X133676687Y-131109330D01*
X133646244Y-131133898D01*
X133619094Y-131173911D01*
X133592132Y-131232134D01*
X133558131Y-131315293D01*
X133511596Y-131253388D01*
X133494352Y-131231154D01*
X133442246Y-131173833D01*
X133391843Y-131134924D01*
X133340632Y-131112784D01*
X133286103Y-131105769D01*
X133267595Y-131106579D01*
X133211443Y-131119965D01*
X133156772Y-131150696D01*
X133101855Y-131199941D01*
X133044964Y-131268867D01*
X133006618Y-131320794D01*
X132997414Y-131293182D01*
X132995450Y-131285278D01*
X132995773Y-131267794D01*
X133002678Y-131244076D01*
X133017521Y-131210102D01*
X133041657Y-131161847D01*
X133050180Y-131145584D01*
X133137049Y-131004568D01*
X133239741Y-130876861D01*
X133356884Y-130763509D01*
X133487107Y-130665559D01*
X133629038Y-130584057D01*
X133781308Y-130520048D01*
X133942544Y-130474578D01*
X133980542Y-130467785D01*
X134056666Y-130459509D01*
X134143518Y-130454996D01*
X134234783Y-130454247D01*
X134324149Y-130457260D01*
G36*
X134324149Y-130457260D02*
G01*
X134405303Y-130464038D01*
X134471931Y-130474578D01*
X134510933Y-130483646D01*
X134669555Y-130533589D01*
X134819356Y-130601970D01*
X134958844Y-130687635D01*
X135086528Y-130789429D01*
X135200914Y-130906199D01*
X135300513Y-131036790D01*
X135383830Y-131180048D01*
X135401385Y-131216473D01*
X135414955Y-131250165D01*
X135419909Y-131273716D01*
X135417595Y-131291577D01*
X135413658Y-131301850D01*
X135407890Y-131306918D01*
X135398465Y-131301205D01*
X135382403Y-131282631D01*
X135356723Y-131249116D01*
X135329604Y-131215639D01*
X135269356Y-131157844D01*
X135208174Y-131121154D01*
X135146540Y-131105563D01*
X135084933Y-131111066D01*
X135023836Y-131137658D01*
X134963729Y-131185333D01*
X134905092Y-131254087D01*
X134859086Y-131317263D01*
X134832265Y-131251197D01*
X134813508Y-131206950D01*
X134789265Y-131159103D01*
X134765301Y-131126856D01*
X134738544Y-131107356D01*
X134705923Y-131097749D01*
X134664368Y-131095181D01*
X134633296Y-131097245D01*
X134596718Y-131109602D01*
X134567474Y-131136120D01*
X134540579Y-131180223D01*
X134527717Y-131207218D01*
X134513890Y-131240453D01*
X134499627Y-131279776D01*
X134484318Y-131327267D01*
X134467354Y-131385005D01*
X134448125Y-131455070D01*
X134426024Y-131539543D01*
X134400440Y-131640503D01*
X134370764Y-131760030D01*
X134354885Y-131823720D01*
X134332588Y-131910899D01*
X134310954Y-131993056D01*
X134290835Y-132067077D01*
X134273081Y-132129846D01*
X134258543Y-132178249D01*
X134248073Y-132209170D01*
X134236735Y-132238140D01*
X134224123Y-132267422D01*
X134215243Y-132281506D01*
X134208047Y-132283249D01*
X134200484Y-132275509D01*
X134193876Y-132265424D01*
X134182834Y-132243811D01*
X134170778Y-132213941D01*
X134157182Y-132174044D01*
X134141519Y-132122350D01*
X134123260Y-132057090D01*
X134101880Y-131976493D01*
X134076851Y-131878789D01*
X134047647Y-131762209D01*
X134020042Y-131651755D01*
X133989837Y-131533323D01*
X133963179Y-131432873D01*
X133939407Y-131348940D01*
X133917859Y-131280060D01*
X133897872Y-131224768D01*
X133878784Y-131181601D01*
X133859933Y-131149092D01*
X133840657Y-131125779D01*
X133820293Y-131110195D01*
X133798180Y-131100878D01*
X133773654Y-131096361D01*
X133746055Y-131095181D01*
X133713531Y-131097441D01*
X133676687Y-131109330D01*
X133646244Y-131133898D01*
X133619094Y-131173911D01*
X133592132Y-131232134D01*
X133558131Y-131315293D01*
X133511596Y-131253388D01*
X133494352Y-131231154D01*
X133442246Y-131173833D01*
X133391843Y-131134924D01*
X133340632Y-131112784D01*
X133286103Y-131105769D01*
X133267595Y-131106579D01*
X133211443Y-131119965D01*
X133156772Y-131150696D01*
X133101855Y-131199941D01*
X133044964Y-131268867D01*
X133006618Y-131320794D01*
X132997414Y-131293182D01*
X132995450Y-131285278D01*
X132995773Y-131267794D01*
X133002678Y-131244076D01*
X133017521Y-131210102D01*
X133041657Y-131161847D01*
X133050180Y-131145584D01*
X133137049Y-131004568D01*
X133239741Y-130876861D01*
X133356884Y-130763509D01*
X133487107Y-130665559D01*
X133629038Y-130584057D01*
X133781308Y-130520048D01*
X133942544Y-130474578D01*
X133980542Y-130467785D01*
X134056666Y-130459509D01*
X134143518Y-130454996D01*
X134234783Y-130454247D01*
X134324149Y-130457260D01*
G37*
X135481735Y-131552598D02*
X135491208Y-131568841D01*
X135502798Y-131595806D01*
X135507752Y-131612491D01*
X135515046Y-131658406D01*
X135519170Y-131717786D01*
X135520111Y-131785686D01*
X135517860Y-131857161D01*
X135512402Y-131927267D01*
X135503728Y-131991059D01*
X135465753Y-132148733D01*
X135407906Y-132301860D01*
X135331597Y-132447107D01*
X135238068Y-132582113D01*
X135128560Y-132704518D01*
X135095619Y-132735882D01*
X134966427Y-132840593D01*
X134825827Y-132927713D01*
X134674749Y-132996797D01*
X134514123Y-133047401D01*
X134344878Y-133079081D01*
X134307154Y-133081811D01*
X134249372Y-133082327D01*
X134181767Y-133080380D01*
X134110281Y-133076320D01*
X134040856Y-133070493D01*
X133979434Y-133063247D01*
X133931956Y-133054929D01*
X133880437Y-133042228D01*
X133720826Y-132989181D01*
X133571618Y-132918362D01*
X133433941Y-132830787D01*
X133308923Y-132727473D01*
X133197691Y-132609437D01*
X133101374Y-132477695D01*
X133021101Y-132333264D01*
X132957998Y-132177160D01*
X132923408Y-132052410D01*
X132901472Y-131914163D01*
X132894357Y-131765694D01*
X132894796Y-131710322D01*
X132896600Y-131667707D01*
X132900377Y-131636887D01*
X132906732Y-131613043D01*
X132916271Y-131591357D01*
X132923304Y-131578221D01*
X132935713Y-131558573D01*
X132942588Y-131552805D01*
X132943443Y-131554759D01*
X132948777Y-131572891D01*
X132957950Y-131607415D01*
X132970178Y-131655278D01*
X132984675Y-131713430D01*
X133000659Y-131778820D01*
X133011641Y-131823955D01*
X133041840Y-131945095D01*
X133068851Y-132047499D01*
X133093407Y-132132685D01*
X133116241Y-132202168D01*
X133138086Y-132257466D01*
X133159676Y-132300095D01*
X133181742Y-132331573D01*
X133205019Y-132353415D01*
X133230240Y-132367139D01*
X133258137Y-132374261D01*
X133289444Y-132376298D01*
X133306745Y-132375363D01*
X133335280Y-132368484D01*
X133361472Y-132353698D01*
X133385987Y-132329566D01*
X133409494Y-132294649D01*
X133432658Y-132247509D01*
X133456147Y-132186706D01*
X133480627Y-132110801D01*
X133506766Y-132018356D01*
X133535229Y-131907933D01*
X133566685Y-131778090D01*
X133570494Y-131762075D01*
X133585736Y-131699286D01*
X133599558Y-131644313D01*
X133611121Y-131600359D01*
X133619589Y-131570630D01*
X133624125Y-131558327D01*
X133626845Y-131560103D01*
X133637858Y-131576861D01*
X133655708Y-131608755D01*
X133679034Y-131653232D01*
X133706478Y-131707739D01*
X133736680Y-131769719D01*
X133776749Y-131852439D01*
X133828514Y-131956133D01*
X133874423Y-132043441D01*
X133915699Y-132116278D01*
X133953570Y-132176559D01*
X133989261Y-132226201D01*
X134023997Y-132267117D01*
X134059005Y-132301225D01*
X134095510Y-132330438D01*
X134111600Y-132341598D01*
X134163356Y-132368415D01*
X134212211Y-132377366D01*
X134261005Y-132368066D01*
X134312580Y-132340127D01*
X134369778Y-132293165D01*
X134408661Y-132250722D01*
X134455708Y-132186109D01*
X134508343Y-132101630D01*
X134566635Y-131997165D01*
X134630656Y-131872595D01*
X134700475Y-131727799D01*
X134726838Y-131672288D01*
X134750608Y-131623480D01*
X134770023Y-131584907D01*
X134783574Y-131559567D01*
X134789754Y-131550454D01*
X134789811Y-131550462D01*
X134794136Y-131560778D01*
X134802322Y-131588450D01*
X134813515Y-131630286D01*
X134826859Y-131683094D01*
X134841500Y-131743680D01*
X134868863Y-131857085D01*
X134898721Y-131974444D01*
X134925928Y-132073396D01*
X134950928Y-132155292D01*
X134974168Y-132221482D01*
X134996091Y-132273317D01*
X135017144Y-132312149D01*
X135037772Y-132339328D01*
X135053760Y-132355389D01*
X135073567Y-132369211D01*
X135097341Y-132375078D01*
X135133665Y-132376298D01*
X135160299Y-132375804D01*
X135187128Y-132371755D01*
X135207233Y-132360825D01*
X135229169Y-132339740D01*
X135242743Y-132323208D01*
X135261393Y-132292848D01*
X135280421Y-132252223D01*
X135300426Y-132199577D01*
X135322008Y-132133155D01*
X135345768Y-132051201D01*
X135372307Y-131951960D01*
X135402224Y-131833676D01*
X135404042Y-131826346D01*
X135422485Y-131752986D01*
X135439492Y-131687076D01*
X135454352Y-131631242D01*
X135466352Y-131588110D01*
X135474783Y-131560306D01*
X135478932Y-131550454D01*
X135481735Y-131552598D01*
G36*
X135481735Y-131552598D02*
G01*
X135491208Y-131568841D01*
X135502798Y-131595806D01*
X135507752Y-131612491D01*
X135515046Y-131658406D01*
X135519170Y-131717786D01*
X135520111Y-131785686D01*
X135517860Y-131857161D01*
X135512402Y-131927267D01*
X135503728Y-131991059D01*
X135465753Y-132148733D01*
X135407906Y-132301860D01*
X135331597Y-132447107D01*
X135238068Y-132582113D01*
X135128560Y-132704518D01*
X135095619Y-132735882D01*
X134966427Y-132840593D01*
X134825827Y-132927713D01*
X134674749Y-132996797D01*
X134514123Y-133047401D01*
X134344878Y-133079081D01*
X134307154Y-133081811D01*
X134249372Y-133082327D01*
X134181767Y-133080380D01*
X134110281Y-133076320D01*
X134040856Y-133070493D01*
X133979434Y-133063247D01*
X133931956Y-133054929D01*
X133880437Y-133042228D01*
X133720826Y-132989181D01*
X133571618Y-132918362D01*
X133433941Y-132830787D01*
X133308923Y-132727473D01*
X133197691Y-132609437D01*
X133101374Y-132477695D01*
X133021101Y-132333264D01*
X132957998Y-132177160D01*
X132923408Y-132052410D01*
X132901472Y-131914163D01*
X132894357Y-131765694D01*
X132894796Y-131710322D01*
X132896600Y-131667707D01*
X132900377Y-131636887D01*
X132906732Y-131613043D01*
X132916271Y-131591357D01*
X132923304Y-131578221D01*
X132935713Y-131558573D01*
X132942588Y-131552805D01*
X132943443Y-131554759D01*
X132948777Y-131572891D01*
X132957950Y-131607415D01*
X132970178Y-131655278D01*
X132984675Y-131713430D01*
X133000659Y-131778820D01*
X133011641Y-131823955D01*
X133041840Y-131945095D01*
X133068851Y-132047499D01*
X133093407Y-132132685D01*
X133116241Y-132202168D01*
X133138086Y-132257466D01*
X133159676Y-132300095D01*
X133181742Y-132331573D01*
X133205019Y-132353415D01*
X133230240Y-132367139D01*
X133258137Y-132374261D01*
X133289444Y-132376298D01*
X133306745Y-132375363D01*
X133335280Y-132368484D01*
X133361472Y-132353698D01*
X133385987Y-132329566D01*
X133409494Y-132294649D01*
X133432658Y-132247509D01*
X133456147Y-132186706D01*
X133480627Y-132110801D01*
X133506766Y-132018356D01*
X133535229Y-131907933D01*
X133566685Y-131778090D01*
X133570494Y-131762075D01*
X133585736Y-131699286D01*
X133599558Y-131644313D01*
X133611121Y-131600359D01*
X133619589Y-131570630D01*
X133624125Y-131558327D01*
X133626845Y-131560103D01*
X133637858Y-131576861D01*
X133655708Y-131608755D01*
X133679034Y-131653232D01*
X133706478Y-131707739D01*
X133736680Y-131769719D01*
X133776749Y-131852439D01*
X133828514Y-131956133D01*
X133874423Y-132043441D01*
X133915699Y-132116278D01*
X133953570Y-132176559D01*
X133989261Y-132226201D01*
X134023997Y-132267117D01*
X134059005Y-132301225D01*
X134095510Y-132330438D01*
X134111600Y-132341598D01*
X134163356Y-132368415D01*
X134212211Y-132377366D01*
X134261005Y-132368066D01*
X134312580Y-132340127D01*
X134369778Y-132293165D01*
X134408661Y-132250722D01*
X134455708Y-132186109D01*
X134508343Y-132101630D01*
X134566635Y-131997165D01*
X134630656Y-131872595D01*
X134700475Y-131727799D01*
X134726838Y-131672288D01*
X134750608Y-131623480D01*
X134770023Y-131584907D01*
X134783574Y-131559567D01*
X134789754Y-131550454D01*
X134789811Y-131550462D01*
X134794136Y-131560778D01*
X134802322Y-131588450D01*
X134813515Y-131630286D01*
X134826859Y-131683094D01*
X134841500Y-131743680D01*
X134868863Y-131857085D01*
X134898721Y-131974444D01*
X134925928Y-132073396D01*
X134950928Y-132155292D01*
X134974168Y-132221482D01*
X134996091Y-132273317D01*
X135017144Y-132312149D01*
X135037772Y-132339328D01*
X135053760Y-132355389D01*
X135073567Y-132369211D01*
X135097341Y-132375078D01*
X135133665Y-132376298D01*
X135160299Y-132375804D01*
X135187128Y-132371755D01*
X135207233Y-132360825D01*
X135229169Y-132339740D01*
X135242743Y-132323208D01*
X135261393Y-132292848D01*
X135280421Y-132252223D01*
X135300426Y-132199577D01*
X135322008Y-132133155D01*
X135345768Y-132051201D01*
X135372307Y-131951960D01*
X135402224Y-131833676D01*
X135404042Y-131826346D01*
X135422485Y-131752986D01*
X135439492Y-131687076D01*
X135454352Y-131631242D01*
X135466352Y-131588110D01*
X135474783Y-131560306D01*
X135478932Y-131550454D01*
X135481735Y-131552598D01*
G37*
D12*
%TO.C,TP3*%
X145214000Y-136832000D02*
X145214000Y-133932000D01*
X145214000Y-133932000D02*
X142314000Y-133932000D01*
X142314000Y-136832000D02*
X145214000Y-136832000D01*
X142314000Y-133932000D02*
X142314000Y-136832000D01*
%TO.C,JP1*%
X134617000Y-117119000D02*
X134617000Y-117719000D01*
X135317000Y-118419000D02*
X136717000Y-118419000D01*
X136717000Y-116419000D02*
X135317000Y-116419000D01*
X137417000Y-117719000D02*
X137417000Y-117119000D01*
X135317000Y-116419000D02*
G75*
G03*
X134617000Y-117119000I-1J-699999D01*
G01*
X134617000Y-117719000D02*
G75*
G03*
X135317000Y-118419000I699999J-1D01*
G01*
X137417000Y-117119000D02*
G75*
G03*
X136717000Y-116419000I-700000J0D01*
G01*
X136717000Y-118419000D02*
G75*
G03*
X137417000Y-117719000I0J700000D01*
G01*
%TO.C,JP3*%
X137275000Y-112568000D02*
X137275000Y-111968000D01*
X136575000Y-111268000D02*
X135175000Y-111268000D01*
X135175000Y-113268000D02*
X136575000Y-113268000D01*
X134475000Y-111968000D02*
X134475000Y-112568000D01*
X136575000Y-113268000D02*
G75*
G03*
X137275000Y-112568000I1J699999D01*
G01*
X137275000Y-111968000D02*
G75*
G03*
X136575000Y-111268000I-699999J1D01*
G01*
X134475000Y-112568000D02*
G75*
G03*
X135175000Y-113268000I700000J0D01*
G01*
X135175000Y-111268000D02*
G75*
G03*
X134475000Y-111968000I0J-700000D01*
G01*
%TD*%
M02*
