%TF.GenerationSoftware,KiCad,Pcbnew,7.0.1*%
%TF.CreationDate,2024-08-13T13:22:24+02:00*%
%TF.ProjectId,wpt_receiver,7770745f-7265-4636-9569-7665722e6b69,rev?*%
%TF.SameCoordinates,Original*%
%TF.FileFunction,Copper,L2,Bot*%
%TF.FilePolarity,Positive*%
%FSLAX46Y46*%
G04 Gerber Fmt 4.6, Leading zero omitted, Abs format (unit mm)*
G04 Created by KiCad (PCBNEW 7.0.1) date 2024-08-13 13:22:24*
%MOMM*%
%LPD*%
G01*
G04 APERTURE LIST*
G04 Aperture macros list*
%AMFreePoly0*
4,1,19,0.500000,-0.750000,0.000000,-0.750000,0.000000,-0.744911,-0.071157,-0.744911,-0.207708,-0.704816,-0.327430,-0.627875,-0.420627,-0.520320,-0.479746,-0.390866,-0.500000,-0.250000,-0.500000,0.250000,-0.479746,0.390866,-0.420627,0.520320,-0.327430,0.627875,-0.207708,0.704816,-0.071157,0.744911,0.000000,0.744911,0.000000,0.750000,0.500000,0.750000,0.500000,-0.750000,0.500000,-0.750000,
$1*%
%AMFreePoly1*
4,1,19,0.000000,0.744911,0.071157,0.744911,0.207708,0.704816,0.327430,0.627875,0.420627,0.520320,0.479746,0.390866,0.500000,0.250000,0.500000,-0.250000,0.479746,-0.390866,0.420627,-0.520320,0.327430,-0.627875,0.207708,-0.704816,0.071157,-0.744911,0.000000,-0.744911,0.000000,-0.750000,-0.500000,-0.750000,-0.500000,0.750000,0.000000,0.750000,0.000000,0.744911,0.000000,0.744911,
$1*%
G04 Aperture macros list end*
%TA.AperFunction,ComponentPad*%
%ADD10R,2.500000X2.500000*%
%TD*%
%TA.AperFunction,SMDPad,CuDef*%
%ADD11FreePoly0,0.000000*%
%TD*%
%TA.AperFunction,SMDPad,CuDef*%
%ADD12FreePoly1,0.000000*%
%TD*%
%TA.AperFunction,SMDPad,CuDef*%
%ADD13FreePoly0,270.000000*%
%TD*%
%TA.AperFunction,SMDPad,CuDef*%
%ADD14FreePoly1,270.000000*%
%TD*%
%TA.AperFunction,ComponentPad*%
%ADD15C,2.000000*%
%TD*%
%TA.AperFunction,SMDPad,CuDef*%
%ADD16R,2.500000X2.500000*%
%TD*%
%TA.AperFunction,SMDPad,CuDef*%
%ADD17FreePoly0,180.000000*%
%TD*%
%TA.AperFunction,SMDPad,CuDef*%
%ADD18FreePoly1,180.000000*%
%TD*%
%TA.AperFunction,ViaPad*%
%ADD19C,0.800000*%
%TD*%
%TA.AperFunction,Conductor*%
%ADD20C,0.250000*%
%TD*%
%TA.AperFunction,Conductor*%
%ADD21C,0.254000*%
%TD*%
%TA.AperFunction,Conductor*%
%ADD22C,0.200000*%
%TD*%
%TA.AperFunction,Conductor*%
%ADD23C,0.508000*%
%TD*%
G04 APERTURE END LIST*
D10*
%TO.P,TP1,1,1*%
%TO.N,/receiver/COIL+*%
X126492000Y-123190000D03*
%TD*%
%TO.P,TP5,1,1*%
%TO.N,/mcu/SCL*%
X155829000Y-117856000D03*
%TD*%
%TO.P,TP4,1,1*%
%TO.N,/mcu/SDA*%
X155829000Y-121412000D03*
%TD*%
%TO.P,TP10,1,1*%
%TO.N,GND*%
X155829000Y-106172000D03*
%TD*%
%TO.P,TP11,1,1*%
%TO.N,GND*%
X133604000Y-106172000D03*
%TD*%
%TO.P,TP6,1,1*%
%TO.N,/power/VOUT*%
X152273000Y-106172000D03*
%TD*%
%TO.P,TP8,1,1*%
%TO.N,/receiver/VRECT*%
X155829000Y-124968000D03*
%TD*%
%TO.P,TP2,1,1*%
%TO.N,/receiver/COIL-*%
X126492000Y-131064000D03*
%TD*%
%TO.P,TP7,1,1*%
%TO.N,/mcu/SUBSYS_COMM_TX*%
X130048000Y-106172000D03*
%TD*%
%TO.P,TP9,1,1*%
%TO.N,/mcu/SUBSYS_COMM_RX*%
X126492000Y-106172000D03*
%TD*%
D11*
%TO.P,JP5,1,A*%
%TO.N,/receiver/VRECT*%
X141844000Y-126746000D03*
D12*
%TO.P,JP5,2,B*%
%TO.N,/power/VRECT*%
X143144000Y-126746000D03*
%TD*%
D11*
%TO.P,JP2,1,A*%
%TO.N,Net-(JP1-A)*%
X135367000Y-114808000D03*
D12*
%TO.P,JP2,2,B*%
%TO.N,/mcu/IN+*%
X136667000Y-114808000D03*
%TD*%
D11*
%TO.P,JP6,1,A*%
%TO.N,/mcu/3V3*%
X148271472Y-108712000D03*
D12*
%TO.P,JP6,2,B*%
%TO.N,/power/VOUT*%
X149571472Y-108712000D03*
%TD*%
D13*
%TO.P,JP4,1,A*%
%TO.N,Net-(JP4-A)*%
X133096000Y-116302000D03*
D14*
%TO.P,JP4,2,B*%
%TO.N,/receiver/COIL-*%
X133096000Y-117602000D03*
%TD*%
D15*
%TO.P,C2,1,-*%
%TO.N,GND*%
X138366000Y-106426000D03*
%TO.P,C2,2,+*%
%TO.N,Net-(C2-+)*%
X143666000Y-106426000D03*
%TD*%
D16*
%TO.P,TP3,1,1*%
%TO.N,/mcu/MOD*%
X143764000Y-135382000D03*
%TD*%
D11*
%TO.P,JP1,1,A*%
%TO.N,Net-(JP1-A)*%
X135367000Y-117419000D03*
D12*
%TO.P,JP1,2,B*%
%TO.N,Net-(JP1-B)*%
X136667000Y-117419000D03*
%TD*%
D17*
%TO.P,JP3,1,A*%
%TO.N,Net-(JP3-A)*%
X136525000Y-112268000D03*
D18*
%TO.P,JP3,2,B*%
%TO.N,/mcu/IN+*%
X135225000Y-112268000D03*
%TD*%
D19*
%TO.N,/mcu/3V3*%
X126111000Y-116332000D03*
X145288000Y-107823000D03*
X141946052Y-111720052D03*
X146685000Y-110998000D03*
X127127000Y-108458000D03*
X139328000Y-113538000D03*
X139227500Y-117590000D03*
X140611932Y-121278092D03*
X142240000Y-122282500D03*
X144012851Y-108843646D03*
%TO.N,Net-(C2-+)*%
X141986000Y-118364000D03*
%TO.N,/mcu/IN+*%
X132588000Y-126256500D03*
%TO.N,/receiver/COIL-*%
X133096000Y-128397000D03*
%TO.N,/receiver/VRECT*%
X142367000Y-128397000D03*
X141478000Y-128524000D03*
X146304000Y-125095000D03*
%TO.N,/mcu/3V3_POT*%
X143078200Y-115289500D03*
X148082000Y-117221000D03*
%TO.N,/power/VSENSE*%
X146304000Y-130937000D03*
X144526000Y-130937000D03*
X146050000Y-127889000D03*
X145415000Y-130937000D03*
X145161000Y-127889000D03*
%TO.N,/power/3V5*%
X154269500Y-135163971D03*
X154305000Y-132424000D03*
%TO.N,/mcu/NRST*%
X130302000Y-114910500D03*
X140843000Y-108204000D03*
%TO.N,/mcu/WAKEUP*%
X130015500Y-116713500D03*
X130723500Y-124695500D03*
%TO.N,Net-(JP1-A)*%
X134051696Y-119966965D03*
%TO.N,Net-(JP1-B)*%
X135029297Y-120175056D03*
%TO.N,GND*%
X150368000Y-128270000D03*
X151892000Y-126492000D03*
X134453667Y-115826496D03*
X140733000Y-132588000D03*
X143002000Y-104394000D03*
X137668000Y-104394000D03*
X151003000Y-116078000D03*
X128016000Y-120904000D03*
X151892000Y-134747000D03*
X132842000Y-112141000D03*
X153162000Y-116078000D03*
X146939000Y-108195370D03*
X143002000Y-132588000D03*
X151765000Y-137160000D03*
X153543000Y-119888000D03*
X148844000Y-124968000D03*
X148232246Y-134349500D03*
X157988000Y-107188000D03*
X157861000Y-134112000D03*
X155194000Y-137160000D03*
X157988000Y-106172000D03*
X144526000Y-104394000D03*
X128270000Y-109474000D03*
X156752500Y-115316000D03*
X147708572Y-113856328D03*
X124206000Y-132588000D03*
X124460000Y-111633000D03*
X147320000Y-119634000D03*
X124460000Y-112522000D03*
X139700000Y-108331000D03*
X156591000Y-135763000D03*
X142748000Y-117620500D03*
X135128000Y-134072000D03*
X144399000Y-113538000D03*
X146558000Y-115697000D03*
X136652000Y-123698000D03*
X141224000Y-123571000D03*
X145162800Y-109855000D03*
X150241000Y-112014000D03*
X127762000Y-137668000D03*
X124206000Y-124968000D03*
X157988000Y-109474000D03*
X157988000Y-112014000D03*
X144272000Y-132334000D03*
X131572000Y-132334000D03*
X137541000Y-109728000D03*
X156752500Y-113792000D03*
X144780000Y-137668000D03*
X141143966Y-112695966D03*
X153416000Y-124714000D03*
X140943500Y-119380000D03*
X134747000Y-109347000D03*
X142875000Y-121031000D03*
X138176000Y-133350000D03*
X143764000Y-133531998D03*
X135636000Y-105156000D03*
X135636000Y-106172000D03*
X141986000Y-132588000D03*
X145796000Y-122665500D03*
X138684000Y-120523000D03*
X137160000Y-119253000D03*
X140081000Y-125347000D03*
X150241000Y-111125000D03*
X132842000Y-123952000D03*
X129540000Y-124968000D03*
X147455319Y-124087319D03*
X150241000Y-110236000D03*
X126000500Y-117856000D03*
X133350000Y-120744498D03*
X140208000Y-137668000D03*
X124206000Y-120650000D03*
X129540000Y-132334000D03*
X124206000Y-129540000D03*
X127508000Y-114300000D03*
X139192000Y-104394000D03*
X153543000Y-122174000D03*
X133096000Y-137668000D03*
X148844000Y-130810000D03*
%TO.N,Net-(JP3-A)*%
X136398000Y-111125000D03*
%TO.N,Net-(JP4-A)*%
X133065320Y-119786395D03*
%TO.N,/power/VRECT*%
X144145000Y-128905000D03*
X144047687Y-128003277D03*
%TO.N,/mcu/MOD*%
X140081000Y-134620000D03*
X136107845Y-108966000D03*
X143764000Y-135382000D03*
X138684000Y-125730000D03*
X140081000Y-128637000D03*
%TO.N,/mcu/LED*%
X141334500Y-120523000D03*
X142637500Y-119731500D03*
%TO.N,/mcu/SDA*%
X144907000Y-117348000D03*
X142003000Y-115714000D03*
%TO.N,/mcu/I2C_EN*%
X150194000Y-118364000D03*
X143891000Y-118491000D03*
%TO.N,/mcu/SCL*%
X151280828Y-117856484D03*
X151892000Y-120523000D03*
%TO.N,/mcu/SUBSYS_COMM_TX*%
X130015500Y-118712506D03*
%TO.N,/mcu/SUBSYS_COMM_RX*%
X129580000Y-120744498D03*
%TO.N,/mcu/OUTPUT_EN*%
X140208000Y-106807000D03*
X149606000Y-106553000D03*
X137287000Y-108585000D03*
X135509000Y-110617000D03*
X145237358Y-106724734D03*
%TO.N,/mcu/CHG_EN*%
X152146000Y-113030000D03*
X143891000Y-112522000D03*
%TO.N,/mcu/POWER_ALRT*%
X128649891Y-122622074D03*
X153416000Y-123317000D03*
X132731000Y-122682000D03*
X130015500Y-117713003D03*
%TD*%
D20*
%TO.N,/mcu/3V3*%
X141235592Y-121278092D02*
X140611932Y-121278092D01*
D21*
X145288000Y-107823000D02*
X145033497Y-107823000D01*
D20*
X126111000Y-109474000D02*
X126111000Y-116332000D01*
X140501948Y-111720052D02*
X141946052Y-111720052D01*
X139328000Y-113538000D02*
X139328000Y-112894000D01*
X127127000Y-108458000D02*
X126111000Y-109474000D01*
X139227500Y-117720000D02*
X139227500Y-113638500D01*
X139227500Y-113638500D02*
X139328000Y-113538000D01*
D21*
X145033497Y-107823000D02*
X144012851Y-108843646D01*
X146685000Y-110998000D02*
X146685000Y-110298472D01*
D20*
X139328000Y-112894000D02*
X140501948Y-111720052D01*
X139218500Y-117729000D02*
X139227500Y-117720000D01*
X142240000Y-122282500D02*
X141235592Y-121278092D01*
D21*
X146685000Y-110298472D02*
X148271472Y-108712000D01*
D20*
%TO.N,Net-(C2-+)*%
X141986000Y-118364000D02*
X141351000Y-117729000D01*
X141351000Y-117729000D02*
X141351000Y-113411000D01*
X141351000Y-113411000D02*
X142762700Y-111999300D01*
X142762700Y-111999300D02*
X142762700Y-107329300D01*
X142762700Y-107329300D02*
X143666000Y-106426000D01*
%TO.N,/mcu/IN+*%
X132588000Y-126256500D02*
X131752000Y-125420500D01*
X131982000Y-115511000D02*
X135225000Y-112268000D01*
X135225000Y-112574382D02*
X135225000Y-112268000D01*
X131982000Y-122046484D02*
X131982000Y-115511000D01*
X131752000Y-122276484D02*
X131982000Y-122046484D01*
X131752000Y-125420500D02*
X131752000Y-122276484D01*
X136667000Y-114016382D02*
X135225000Y-112574382D01*
X136667000Y-114808000D02*
X136667000Y-114016382D01*
D22*
%TO.N,/receiver/COIL-*%
X133096000Y-128397000D02*
X133223000Y-128270000D01*
X132104000Y-122422288D02*
X132334000Y-122192288D01*
X133223000Y-128270000D02*
X133223000Y-126004788D01*
X132104000Y-124885788D02*
X132104000Y-122422288D01*
X132334000Y-118364000D02*
X133096000Y-117602000D01*
X132334000Y-122192288D02*
X132334000Y-118364000D01*
X133223000Y-126004788D02*
X132104000Y-124885788D01*
D23*
%TO.N,/receiver/VRECT*%
X141478000Y-128524000D02*
X141844000Y-128158000D01*
D20*
X146939000Y-125730000D02*
X155067000Y-125730000D01*
D23*
X141844000Y-128158000D02*
X141844000Y-126746000D01*
D20*
X155067000Y-125730000D02*
X155829000Y-124968000D01*
X142240000Y-128524000D02*
X142367000Y-128397000D01*
X146304000Y-125095000D02*
X146939000Y-125730000D01*
X141478000Y-128524000D02*
X142240000Y-128524000D01*
%TO.N,/mcu/3V3_POT*%
X148082000Y-117221000D02*
X148082000Y-116078000D01*
X143322700Y-115045000D02*
X143078200Y-115289500D01*
X148082000Y-116078000D02*
X147049000Y-115045000D01*
X147049000Y-115045000D02*
X143322700Y-115045000D01*
D21*
%TO.N,/power/VOUT*%
X149571472Y-108712000D02*
X149733000Y-108712000D01*
X149733000Y-108712000D02*
X152273000Y-106172000D01*
D23*
%TO.N,/power/VSENSE*%
X145161000Y-130683000D02*
X145415000Y-130937000D01*
X145161000Y-127889000D02*
X145161000Y-130683000D01*
X145161000Y-130302000D02*
X144526000Y-130937000D01*
X145161000Y-127889000D02*
X145161000Y-130302000D01*
X146050000Y-130683000D02*
X146304000Y-130937000D01*
X146050000Y-127889000D02*
X146050000Y-130683000D01*
D20*
%TO.N,/power/3V5*%
X154305000Y-135128471D02*
X154269500Y-135163971D01*
X154305000Y-132424000D02*
X154305000Y-135128471D01*
%TO.N,/mcu/NRST*%
X130302000Y-114910500D02*
X130302000Y-112776000D01*
X130302000Y-112776000D02*
X135329000Y-107749000D01*
D21*
X141478000Y-107569000D02*
X141478000Y-106299000D01*
X140843000Y-108204000D02*
X141478000Y-107569000D01*
D20*
X140843000Y-108204000D02*
X140699000Y-108060000D01*
D21*
X137471000Y-105099000D02*
X136290000Y-106280000D01*
X136290000Y-106280000D02*
X136290000Y-106788000D01*
X141478000Y-106299000D02*
X140278000Y-105099000D01*
X140278000Y-105099000D02*
X137471000Y-105099000D01*
X136290000Y-106788000D02*
X135329000Y-107749000D01*
D20*
%TO.N,/mcu/WAKEUP*%
X130723500Y-124695500D02*
X130683000Y-124655000D01*
X130683000Y-119500232D02*
X131044500Y-119138732D01*
X131044500Y-119138732D02*
X131044500Y-117742500D01*
X131044500Y-117742500D02*
X130015500Y-116713500D01*
X130683000Y-124655000D02*
X130683000Y-119500232D01*
D21*
%TO.N,Net-(JP1-A)*%
X135367000Y-117419000D02*
X135367000Y-114808000D01*
D20*
X134051696Y-119966965D02*
X134051696Y-118734304D01*
X134051696Y-118734304D02*
X135367000Y-117419000D01*
%TO.N,Net-(JP1-B)*%
X136667000Y-118537353D02*
X136667000Y-117419000D01*
X135029297Y-120175056D02*
X136667000Y-118537353D01*
%TO.N,GND*%
X142748000Y-117620500D02*
X144257432Y-117620500D01*
X149081000Y-118000000D02*
X151003000Y-116078000D01*
D21*
X143291500Y-120614500D02*
X143291500Y-119415500D01*
X143291500Y-119415500D02*
X142953500Y-119077500D01*
D20*
X146558000Y-116619068D02*
X146558000Y-115697000D01*
X144257432Y-117620500D02*
X144746932Y-118110000D01*
X131572000Y-132334000D02*
X131375000Y-132137000D01*
X145067068Y-118110000D02*
X146558000Y-116619068D01*
D21*
X142875000Y-121031000D02*
X143291500Y-120614500D01*
D20*
X147938932Y-118000000D02*
X149081000Y-118000000D01*
X144746932Y-118110000D02*
X145067068Y-118110000D01*
D21*
X141246000Y-119077500D02*
X140943500Y-119380000D01*
D20*
X131445000Y-119271391D02*
X131445000Y-113538000D01*
X131375000Y-132137000D02*
X131375000Y-119341391D01*
X146558000Y-116619068D02*
X147938932Y-118000000D01*
D21*
X142953500Y-119077500D02*
X141246000Y-119077500D01*
D20*
X131445000Y-113538000D02*
X132842000Y-112141000D01*
X131375000Y-119341391D02*
X131445000Y-119271391D01*
%TO.N,Net-(JP3-A)*%
X136525000Y-112268000D02*
X136525000Y-111252000D01*
X136525000Y-111252000D02*
X136398000Y-111125000D01*
%TO.N,Net-(JP4-A)*%
X134239000Y-116840000D02*
X133701000Y-116302000D01*
X133065320Y-119030522D02*
X134239000Y-117856842D01*
X133065320Y-119786395D02*
X133065320Y-119030522D01*
X134239000Y-117856842D02*
X134239000Y-116840000D01*
X133701000Y-116302000D02*
X133096000Y-116302000D01*
D23*
%TO.N,/power/VRECT*%
X144047687Y-128003277D02*
X144047687Y-128807687D01*
X144047687Y-128807687D02*
X144145000Y-128905000D01*
X143144000Y-126746000D02*
X143144000Y-127099590D01*
X143144000Y-127099590D02*
X144047687Y-128003277D01*
D20*
%TO.N,/mcu/MOD*%
X140081000Y-128637000D02*
X140081000Y-134620000D01*
X136107845Y-109912777D02*
X137922000Y-111726932D01*
X136107845Y-108966000D02*
X136107845Y-109912777D01*
X137922000Y-111726932D02*
X137922000Y-124968000D01*
X137922000Y-124968000D02*
X138684000Y-125730000D01*
%TO.N,/mcu/LED*%
X141334500Y-120523000D02*
X141846000Y-120523000D01*
X142637500Y-119731500D02*
X141846000Y-120523000D01*
%TO.N,/mcu/SDA*%
X144907000Y-117221000D02*
X144907000Y-117348000D01*
X142230500Y-115941500D02*
X143627500Y-115941500D01*
X142003000Y-115714000D02*
X142230500Y-115941500D01*
X143627500Y-115941500D02*
X144907000Y-117221000D01*
%TO.N,/mcu/I2C_EN*%
X150067000Y-118491000D02*
X150194000Y-118364000D01*
X143891000Y-118491000D02*
X150067000Y-118491000D01*
%TO.N,/mcu/SCL*%
X151280828Y-117856484D02*
X151280828Y-119911828D01*
X151280828Y-119911828D02*
X151892000Y-120523000D01*
%TO.N,/mcu/SUBSYS_COMM_TX*%
X129286000Y-109913227D02*
X129299000Y-109900227D01*
X129299000Y-109900227D02*
X129299000Y-108445841D01*
X129299000Y-108445841D02*
X129286000Y-108432841D01*
X129286000Y-108432841D02*
X129286000Y-106934000D01*
X129286000Y-117983006D02*
X129286000Y-109913227D01*
X129286000Y-106934000D02*
X130048000Y-106172000D01*
X130015500Y-118712506D02*
X129286000Y-117983006D01*
%TO.N,/mcu/SUBSYS_COMM_RX*%
X128905000Y-109761068D02*
X128922000Y-109744068D01*
X128922000Y-108602000D02*
X126492000Y-106172000D01*
X128922000Y-109744068D02*
X128922000Y-108602000D01*
X129580000Y-120744498D02*
X128905000Y-120069498D01*
X128905000Y-120069498D02*
X128905000Y-109761068D01*
D21*
%TO.N,/mcu/OUTPUT_EN*%
X138925300Y-108089700D02*
X140208000Y-106807000D01*
X137287000Y-108585000D02*
X137782300Y-108089700D01*
X145409092Y-106553000D02*
X149606000Y-106553000D01*
X137782300Y-108089700D02*
X138925300Y-108089700D01*
X145237358Y-106724734D02*
X145409092Y-106553000D01*
D20*
%TO.N,/mcu/CHG_EN*%
X144255000Y-112886000D02*
X143891000Y-112522000D01*
X152002000Y-112886000D02*
X144255000Y-112886000D01*
X152146000Y-113030000D02*
X152002000Y-112886000D01*
%TO.N,/mcu/POWER_ALRT*%
X153416000Y-123317000D02*
X143033068Y-123317000D01*
X136431000Y-126382000D02*
X132731000Y-122682000D01*
X143033068Y-123317000D02*
X139968068Y-126382000D01*
X130015500Y-117713003D02*
X130667500Y-118365003D01*
X130302000Y-120969965D02*
X128649891Y-122622074D01*
X139968068Y-126382000D02*
X136431000Y-126382000D01*
X130667500Y-118365003D02*
X130667500Y-118982574D01*
X130667500Y-118982574D02*
X130302000Y-119348074D01*
X130302000Y-119348074D02*
X130302000Y-120969965D01*
%TD*%
%TA.AperFunction,Conductor*%
%TO.N,GND*%
G36*
X141041596Y-111983272D02*
G01*
X141083311Y-112013580D01*
X141109092Y-112058234D01*
X141118872Y-112088336D01*
X141213518Y-112252268D01*
X141340181Y-112392941D01*
X141493319Y-112504202D01*
X141524310Y-112518000D01*
X141610382Y-112556322D01*
X141657325Y-112592833D01*
X141681870Y-112647004D01*
X141678368Y-112706372D01*
X141647627Y-112757282D01*
X141198676Y-113206233D01*
X141179893Y-113221648D01*
X141168957Y-113228957D01*
X141168956Y-113228958D01*
X141119933Y-113302326D01*
X141107369Y-113317634D01*
X141105810Y-113349373D01*
X141093551Y-113410997D01*
X141096117Y-113423893D01*
X141098500Y-113448087D01*
X141098500Y-115698366D01*
X141097821Y-115711326D01*
X141097539Y-115714000D01*
X141097821Y-115716674D01*
X141098500Y-115729634D01*
X141098500Y-117691913D01*
X141096117Y-117716104D01*
X141095538Y-117719015D01*
X141093551Y-117729000D01*
X141104347Y-117783266D01*
X141104347Y-117783267D01*
X141113149Y-117827519D01*
X141113149Y-117827520D01*
X141113150Y-117827521D01*
X141147234Y-117878533D01*
X141166962Y-117930432D01*
X141162062Y-117985739D01*
X141100326Y-118175742D01*
X141080540Y-118363999D01*
X141100326Y-118552257D01*
X141158820Y-118732284D01*
X141253466Y-118896216D01*
X141380129Y-119036889D01*
X141533269Y-119148151D01*
X141706191Y-119225142D01*
X141706193Y-119225142D01*
X141706197Y-119225144D01*
X141710847Y-119226132D01*
X141771204Y-119258222D01*
X141805386Y-119317422D01*
X141803001Y-119385740D01*
X141751825Y-119543245D01*
X141751021Y-119550898D01*
X141725413Y-119614277D01*
X141670111Y-119654455D01*
X141601921Y-119659223D01*
X141429149Y-119622500D01*
X141429146Y-119622500D01*
X141239854Y-119622500D01*
X141239852Y-119622500D01*
X141054697Y-119661855D01*
X140881769Y-119738848D01*
X140728629Y-119850110D01*
X140601966Y-119990783D01*
X140507320Y-120154715D01*
X140450915Y-120328313D01*
X140415957Y-120382144D01*
X140358767Y-120411285D01*
X140332128Y-120416947D01*
X140159201Y-120493940D01*
X140006061Y-120605202D01*
X139879398Y-120745875D01*
X139784752Y-120909807D01*
X139726258Y-121089834D01*
X139706472Y-121278092D01*
X139726258Y-121466349D01*
X139784752Y-121646376D01*
X139879398Y-121810308D01*
X140006061Y-121950981D01*
X140159201Y-122062243D01*
X140332129Y-122139236D01*
X140517284Y-122178592D01*
X140517286Y-122178592D01*
X140706578Y-122178592D01*
X140706580Y-122178592D01*
X140842115Y-122149783D01*
X140891735Y-122139236D01*
X141064662Y-122062243D01*
X141156598Y-121995447D01*
X141208803Y-121973503D01*
X141265323Y-121977058D01*
X141314367Y-122005374D01*
X141345706Y-122052543D01*
X141352804Y-122108727D01*
X141334540Y-122282499D01*
X141354326Y-122470757D01*
X141412820Y-122650784D01*
X141507466Y-122814716D01*
X141634129Y-122955389D01*
X141787269Y-123066651D01*
X141960197Y-123143644D01*
X142145352Y-123183000D01*
X142145354Y-123183000D01*
X142334646Y-123183000D01*
X142334647Y-123183000D01*
X142461244Y-123156091D01*
X142519803Y-123143644D01*
X142519803Y-123143643D01*
X142528816Y-123141728D01*
X142591678Y-123144692D01*
X142644989Y-123178134D01*
X142675018Y-123233440D01*
X142674029Y-123296364D01*
X142642278Y-123350699D01*
X139899798Y-126093181D01*
X139859570Y-126120061D01*
X139812117Y-126129500D01*
X139671708Y-126129500D01*
X139615413Y-126115985D01*
X139571390Y-126078386D01*
X139549235Y-126024898D01*
X139553777Y-125967183D01*
X139569673Y-125918259D01*
X139569672Y-125918259D01*
X139569674Y-125918256D01*
X139589460Y-125730000D01*
X139569674Y-125541744D01*
X139522197Y-125395626D01*
X139511179Y-125361715D01*
X139416533Y-125197783D01*
X139289870Y-125057110D01*
X139136730Y-124945848D01*
X138963802Y-124868855D01*
X138778648Y-124829500D01*
X138778646Y-124829500D01*
X138589354Y-124829500D01*
X138589352Y-124829500D01*
X138404199Y-124868854D01*
X138348935Y-124893460D01*
X138288771Y-124903798D01*
X138230965Y-124884175D01*
X138189527Y-124839348D01*
X138174500Y-124780180D01*
X138174500Y-118029925D01*
X138191113Y-117967925D01*
X138236500Y-117922538D01*
X138298500Y-117905925D01*
X138360500Y-117922538D01*
X138405887Y-117967925D01*
X138494966Y-118122216D01*
X138621629Y-118262889D01*
X138774769Y-118374151D01*
X138947697Y-118451144D01*
X139132852Y-118490500D01*
X139132854Y-118490500D01*
X139322146Y-118490500D01*
X139322148Y-118490500D01*
X139445584Y-118464262D01*
X139507303Y-118451144D01*
X139680230Y-118374151D01*
X139819142Y-118273226D01*
X139833370Y-118262889D01*
X139867695Y-118224768D01*
X139960033Y-118122216D01*
X140054679Y-117958284D01*
X140113174Y-117778256D01*
X140132960Y-117590000D01*
X140113174Y-117401744D01*
X140054679Y-117221716D01*
X140054679Y-117221715D01*
X139960033Y-117057783D01*
X139833370Y-116917110D01*
X139680230Y-116805848D01*
X139553564Y-116749452D01*
X139514802Y-116722310D01*
X139489029Y-116682624D01*
X139480000Y-116636173D01*
X139480000Y-114526723D01*
X139492550Y-114472365D01*
X139527658Y-114429010D01*
X139578219Y-114405433D01*
X139601661Y-114400449D01*
X139607803Y-114399144D01*
X139780730Y-114322151D01*
X139780729Y-114322151D01*
X139933870Y-114210889D01*
X140060533Y-114070216D01*
X140155179Y-113906284D01*
X140191631Y-113794097D01*
X140213674Y-113726256D01*
X140233460Y-113538000D01*
X140213674Y-113349744D01*
X140163358Y-113194888D01*
X140155179Y-113169715D01*
X140060533Y-113005783D01*
X139933870Y-112865111D01*
X139923965Y-112857914D01*
X139888662Y-112818184D01*
X139873234Y-112767325D01*
X139880517Y-112714678D01*
X139909168Y-112669919D01*
X140570217Y-112008871D01*
X140610446Y-111981991D01*
X140657899Y-111972552D01*
X140991161Y-111972552D01*
X141041596Y-111983272D01*
G37*
%TD.AperFunction*%
%TA.AperFunction,Conductor*%
G36*
X137615491Y-118277817D02*
G01*
X137655170Y-118322309D01*
X137669500Y-118380176D01*
X137669500Y-124930913D01*
X137667117Y-124955107D01*
X137664551Y-124968000D01*
X137676786Y-125029500D01*
X137676786Y-125029501D01*
X137684149Y-125066519D01*
X137684149Y-125066520D01*
X137684150Y-125066521D01*
X137739957Y-125150043D01*
X137750891Y-125157349D01*
X137769680Y-125172769D01*
X137828056Y-125231145D01*
X137860949Y-125289879D01*
X137858306Y-125357144D01*
X137798326Y-125541742D01*
X137778540Y-125729999D01*
X137798326Y-125918259D01*
X137814223Y-125967183D01*
X137818765Y-126024898D01*
X137796610Y-126078386D01*
X137752587Y-126115985D01*
X137696292Y-126129500D01*
X136586951Y-126129500D01*
X136539498Y-126120061D01*
X136499270Y-126093181D01*
X133586943Y-123180854D01*
X133554050Y-123122120D01*
X133556693Y-123054854D01*
X133558176Y-123050288D01*
X133558179Y-123050284D01*
X133616674Y-122870256D01*
X133636460Y-122682000D01*
X133616674Y-122493744D01*
X133558179Y-122313716D01*
X133558179Y-122313715D01*
X133463533Y-122149783D01*
X133336870Y-122009110D01*
X133183730Y-121897848D01*
X133010802Y-121820855D01*
X132825648Y-121781500D01*
X132825646Y-121781500D01*
X132685500Y-121781500D01*
X132623500Y-121764887D01*
X132578113Y-121719500D01*
X132561500Y-121657500D01*
X132561500Y-120738744D01*
X132576527Y-120679576D01*
X132617965Y-120634749D01*
X132675771Y-120615126D01*
X132735935Y-120625464D01*
X132785519Y-120647540D01*
X132970672Y-120686895D01*
X132970674Y-120686895D01*
X133159966Y-120686895D01*
X133159968Y-120686895D01*
X133345114Y-120647541D01*
X133345114Y-120647540D01*
X133345123Y-120647539D01*
X133348713Y-120645940D01*
X133412111Y-120635896D01*
X133472039Y-120658899D01*
X133598965Y-120751116D01*
X133771893Y-120828109D01*
X133957048Y-120867465D01*
X133957050Y-120867465D01*
X134146342Y-120867465D01*
X134327500Y-120828959D01*
X134379057Y-120828959D01*
X134426159Y-120849929D01*
X134576567Y-120959207D01*
X134576568Y-120959207D01*
X134576569Y-120959208D01*
X134749494Y-121036200D01*
X134934649Y-121075556D01*
X134934651Y-121075556D01*
X135123943Y-121075556D01*
X135123945Y-121075556D01*
X135247380Y-121049318D01*
X135309100Y-121036200D01*
X135482027Y-120959207D01*
X135550021Y-120909807D01*
X135635167Y-120847945D01*
X135653028Y-120828109D01*
X135761830Y-120707272D01*
X135856476Y-120543340D01*
X135914971Y-120363312D01*
X135934757Y-120175056D01*
X135914971Y-119986800D01*
X135856476Y-119806772D01*
X135856475Y-119806771D01*
X135854990Y-119802199D01*
X135852347Y-119734934D01*
X135885238Y-119676202D01*
X136819322Y-118742118D01*
X136838102Y-118726705D01*
X136849043Y-118719396D01*
X136870386Y-118687452D01*
X136900066Y-118656417D01*
X136938550Y-118637367D01*
X137019300Y-118613658D01*
X137150216Y-118553871D01*
X137271170Y-118476139D01*
X137328927Y-118432903D01*
X137379943Y-118381887D01*
X137451785Y-118298974D01*
X137500511Y-118264625D01*
X137559635Y-118256984D01*
X137615491Y-118277817D01*
G37*
%TD.AperFunction*%
%TA.AperFunction,Conductor*%
G36*
X138453681Y-106160128D02*
G01*
X138631871Y-106338318D01*
X138663965Y-106393905D01*
X138663965Y-106458093D01*
X138631871Y-106513680D01*
X137494739Y-107650812D01*
X137442277Y-107682024D01*
X137394679Y-107683895D01*
X137394679Y-107684500D01*
X137192352Y-107684500D01*
X137007197Y-107723855D01*
X136834269Y-107800848D01*
X136681129Y-107912110D01*
X136554464Y-108052785D01*
X136552262Y-108056601D01*
X136510586Y-108099758D01*
X136453526Y-108118298D01*
X136394442Y-108107880D01*
X136387648Y-108104855D01*
X136202493Y-108065500D01*
X136202491Y-108065500D01*
X136013199Y-108065500D01*
X136013197Y-108065500D01*
X135828042Y-108104855D01*
X135655114Y-108181848D01*
X135501974Y-108293110D01*
X135375311Y-108433783D01*
X135280665Y-108597715D01*
X135222171Y-108777742D01*
X135202385Y-108965999D01*
X135222171Y-109154257D01*
X135280665Y-109334284D01*
X135375311Y-109498216D01*
X135402841Y-109528791D01*
X135431981Y-109585982D01*
X135428622Y-109650081D01*
X135393663Y-109703913D01*
X135336472Y-109733053D01*
X135229197Y-109755855D01*
X135056269Y-109832848D01*
X134903129Y-109944110D01*
X134776466Y-110084783D01*
X134681820Y-110248715D01*
X134623326Y-110428742D01*
X134603540Y-110617000D01*
X134623326Y-110805257D01*
X134681820Y-110985284D01*
X134701189Y-111018831D01*
X134717786Y-111078863D01*
X134703103Y-111139391D01*
X134660843Y-111185145D01*
X134620830Y-111210860D01*
X134563072Y-111254097D01*
X134512055Y-111305114D01*
X134417905Y-111413770D01*
X134340095Y-111534846D01*
X134280368Y-111665628D01*
X134255156Y-111733226D01*
X134239819Y-111803724D01*
X134219357Y-111946039D01*
X134214210Y-112017999D01*
X134219037Y-112085473D01*
X134219353Y-112094320D01*
X134219353Y-112441680D01*
X134219037Y-112450527D01*
X134214210Y-112518000D01*
X134219357Y-112589960D01*
X134239819Y-112732275D01*
X134247444Y-112767325D01*
X134252136Y-112788893D01*
X134254696Y-112800657D01*
X134252507Y-112861951D01*
X134221211Y-112914698D01*
X131829676Y-115306233D01*
X131810893Y-115321648D01*
X131799957Y-115328957D01*
X131799956Y-115328958D01*
X131750933Y-115402326D01*
X131738369Y-115417634D01*
X131736810Y-115449373D01*
X131724551Y-115510997D01*
X131727117Y-115523893D01*
X131729500Y-115548087D01*
X131729500Y-121890532D01*
X131720061Y-121937985D01*
X131693181Y-121978214D01*
X131599674Y-122071720D01*
X131580892Y-122087133D01*
X131570255Y-122094242D01*
X131569956Y-122094442D01*
X131520933Y-122167810D01*
X131508369Y-122183118D01*
X131506810Y-122214857D01*
X131494551Y-122276481D01*
X131497117Y-122289377D01*
X131499500Y-122313571D01*
X131499500Y-123902854D01*
X131481227Y-123967644D01*
X131431795Y-124013339D01*
X131365771Y-124026472D01*
X131302615Y-124003172D01*
X131176230Y-123911348D01*
X131009064Y-123836920D01*
X130970302Y-123809778D01*
X130944529Y-123770092D01*
X130935500Y-123723641D01*
X130935500Y-119656183D01*
X130944939Y-119608731D01*
X130971816Y-119568504D01*
X131196828Y-119343491D01*
X131215608Y-119328080D01*
X131226543Y-119320775D01*
X131282350Y-119237253D01*
X131284759Y-119225144D01*
X131301948Y-119138732D01*
X131299382Y-119125836D01*
X131297000Y-119101645D01*
X131297000Y-117779587D01*
X131299383Y-117755393D01*
X131301948Y-117742498D01*
X131284733Y-117655959D01*
X131284131Y-117649851D01*
X131282350Y-117643981D01*
X131282350Y-117643980D01*
X131282350Y-117643979D01*
X131226543Y-117560457D01*
X131215609Y-117553151D01*
X131196819Y-117537730D01*
X130871443Y-117212354D01*
X130838550Y-117153620D01*
X130841193Y-117086354D01*
X130842676Y-117081788D01*
X130842679Y-117081784D01*
X130901174Y-116901756D01*
X130920960Y-116713500D01*
X130901174Y-116525244D01*
X130862136Y-116405097D01*
X130842679Y-116345215D01*
X130748033Y-116181283D01*
X130621370Y-116040610D01*
X130550553Y-115989159D01*
X130510158Y-115939276D01*
X130500117Y-115875879D01*
X130523120Y-115815955D01*
X130573003Y-115775561D01*
X130581798Y-115771644D01*
X130581803Y-115771644D01*
X130754730Y-115694651D01*
X130754730Y-115694650D01*
X130754732Y-115694650D01*
X130907870Y-115583389D01*
X130939871Y-115547849D01*
X131034533Y-115442716D01*
X131129179Y-115278784D01*
X131187674Y-115098756D01*
X131207460Y-114910500D01*
X131187674Y-114722244D01*
X131134308Y-114558000D01*
X131129179Y-114542215D01*
X131034533Y-114378283D01*
X130907870Y-114237610D01*
X130754730Y-114126348D01*
X130628064Y-114069952D01*
X130589302Y-114042810D01*
X130563529Y-114003124D01*
X130554500Y-113956673D01*
X130554500Y-112931951D01*
X130563939Y-112884498D01*
X130590819Y-112844270D01*
X131806678Y-111628411D01*
X135474073Y-107961014D01*
X135489849Y-107948068D01*
X135491230Y-107946686D01*
X135491234Y-107946684D01*
X136443604Y-106994312D01*
X136462390Y-106978895D01*
X136473484Y-106971484D01*
X136475918Y-106967840D01*
X136475920Y-106967839D01*
X136487682Y-106950235D01*
X136487684Y-106950234D01*
X136529734Y-106887301D01*
X136531439Y-106878730D01*
X136544500Y-106813067D01*
X136546881Y-106801097D01*
X136546882Y-106801088D01*
X136549485Y-106788000D01*
X136546882Y-106774912D01*
X136544500Y-106750723D01*
X136544500Y-106436780D01*
X136553939Y-106389328D01*
X136580818Y-106349100D01*
X136593641Y-106336277D01*
X136653920Y-106275997D01*
X136705232Y-106245133D01*
X136765032Y-106241916D01*
X136819366Y-106267099D01*
X136855560Y-106314810D01*
X136865174Y-106373919D01*
X136860859Y-106426000D01*
X136881386Y-106673732D01*
X136942413Y-106914721D01*
X137042268Y-107142370D01*
X137142563Y-107295882D01*
X137142564Y-107295882D01*
X138278319Y-106160128D01*
X138333906Y-106128034D01*
X138398094Y-106128034D01*
X138453681Y-106160128D01*
G37*
%TD.AperFunction*%
%TA.AperFunction,Conductor*%
G36*
X146940502Y-115306939D02*
G01*
X146980730Y-115333819D01*
X147793181Y-116146269D01*
X147820061Y-116186497D01*
X147829500Y-116233950D01*
X147829500Y-116267173D01*
X147820471Y-116313624D01*
X147794698Y-116353310D01*
X147755936Y-116380452D01*
X147629269Y-116436848D01*
X147476129Y-116548110D01*
X147349466Y-116688783D01*
X147254820Y-116852715D01*
X147196326Y-117032742D01*
X147176540Y-117220999D01*
X147196326Y-117409257D01*
X147254820Y-117589284D01*
X147349466Y-117753216D01*
X147476129Y-117893889D01*
X147639813Y-118012812D01*
X147637800Y-118015582D01*
X147671828Y-118043732D01*
X147693760Y-118106715D01*
X147679894Y-118171949D01*
X147634240Y-118220565D01*
X147570005Y-118238500D01*
X145594987Y-118238500D01*
X145535250Y-118223162D01*
X145490291Y-118180944D01*
X145471232Y-118122288D01*
X145482787Y-118061706D01*
X145506666Y-118032839D01*
X145504150Y-118030574D01*
X145639533Y-117880216D01*
X145734179Y-117716284D01*
X145742358Y-117691112D01*
X145792674Y-117536256D01*
X145812460Y-117348000D01*
X145792674Y-117159744D01*
X145739256Y-116995340D01*
X145734179Y-116979715D01*
X145639533Y-116815783D01*
X145512870Y-116675110D01*
X145359730Y-116563848D01*
X145186802Y-116486855D01*
X145001648Y-116447500D01*
X145001646Y-116447500D01*
X144812354Y-116447500D01*
X144812352Y-116447500D01*
X144614449Y-116489565D01*
X144613993Y-116487422D01*
X144589468Y-116492854D01*
X144540864Y-116483840D01*
X144499643Y-116456554D01*
X143897804Y-115854715D01*
X143868963Y-115809444D01*
X143861957Y-115756225D01*
X143878097Y-115705035D01*
X143905379Y-115657784D01*
X143963874Y-115477756D01*
X143971149Y-115408536D01*
X143991668Y-115352160D01*
X144036254Y-115312015D01*
X144094469Y-115297500D01*
X146893049Y-115297500D01*
X146940502Y-115306939D01*
G37*
%TD.AperFunction*%
%TA.AperFunction,Conductor*%
G36*
X143519002Y-116203439D02*
G01*
X143559230Y-116230319D01*
X144096288Y-116767377D01*
X144125129Y-116812647D01*
X144132135Y-116865864D01*
X144115996Y-116917056D01*
X144079820Y-116979717D01*
X144021326Y-117159742D01*
X144004034Y-117324267D01*
X144001540Y-117348000D01*
X144012632Y-117453540D01*
X144000763Y-117520858D01*
X143955022Y-117571658D01*
X143889312Y-117590500D01*
X143796352Y-117590500D01*
X143611197Y-117629855D01*
X143438269Y-117706848D01*
X143285129Y-117818110D01*
X143158466Y-117958784D01*
X143069097Y-118113576D01*
X143030330Y-118154858D01*
X142977251Y-118174598D01*
X142920930Y-118168679D01*
X142873115Y-118138334D01*
X142843779Y-118089893D01*
X142834620Y-118061706D01*
X142813179Y-117995716D01*
X142775915Y-117931173D01*
X142718533Y-117831783D01*
X142591870Y-117691110D01*
X142438730Y-117579848D01*
X142265802Y-117502855D01*
X142080648Y-117463500D01*
X142080646Y-117463500D01*
X141891354Y-117463500D01*
X141891352Y-117463500D01*
X141753281Y-117492848D01*
X141698553Y-117492132D01*
X141649464Y-117467924D01*
X141615579Y-117424941D01*
X141603500Y-117371558D01*
X141603500Y-116702829D01*
X141615579Y-116649446D01*
X141649464Y-116606463D01*
X141698553Y-116582255D01*
X141753281Y-116581539D01*
X141908352Y-116614500D01*
X141908354Y-116614500D01*
X142097646Y-116614500D01*
X142097648Y-116614500D01*
X142249348Y-116582255D01*
X142282803Y-116575144D01*
X142455730Y-116498151D01*
X142471278Y-116486855D01*
X142608870Y-116386889D01*
X142744254Y-116236531D01*
X142746936Y-116238945D01*
X142775278Y-116210609D01*
X142837272Y-116194000D01*
X143471549Y-116194000D01*
X143519002Y-116203439D01*
G37*
%TD.AperFunction*%
%TA.AperFunction,Conductor*%
G36*
X134646521Y-113341649D02*
G01*
X134741784Y-113402871D01*
X134741787Y-113402872D01*
X134741788Y-113402873D01*
X134864063Y-113458714D01*
X134914408Y-113500788D01*
X134936236Y-113562662D01*
X134923436Y-113627013D01*
X134879591Y-113675823D01*
X134837478Y-113702888D01*
X134762823Y-113750865D01*
X134705072Y-113794097D01*
X134654055Y-113845114D01*
X134559905Y-113953770D01*
X134482095Y-114074846D01*
X134422368Y-114205628D01*
X134397156Y-114273226D01*
X134381819Y-114343724D01*
X134361357Y-114486039D01*
X134356210Y-114557999D01*
X134361037Y-114625473D01*
X134361353Y-114634320D01*
X134361353Y-114981680D01*
X134361037Y-114990527D01*
X134356210Y-115058000D01*
X134361357Y-115129960D01*
X134381819Y-115272275D01*
X134397156Y-115342773D01*
X134422368Y-115410371D01*
X134474213Y-115523893D01*
X134482096Y-115541155D01*
X134557902Y-115659112D01*
X134559905Y-115662229D01*
X134641352Y-115756225D01*
X134654057Y-115770887D01*
X134705073Y-115821903D01*
X134762830Y-115865139D01*
X134883784Y-115942871D01*
X134952380Y-115974198D01*
X135010424Y-116000706D01*
X135063228Y-116046461D01*
X135082912Y-116113500D01*
X135063228Y-116180539D01*
X135010424Y-116226294D01*
X134883786Y-116284128D01*
X134762823Y-116361865D01*
X134705072Y-116405097D01*
X134654055Y-116456114D01*
X134569360Y-116553859D01*
X134520635Y-116588208D01*
X134461512Y-116595849D01*
X134405656Y-116575016D01*
X134365977Y-116530524D01*
X134351647Y-116472657D01*
X134351647Y-116230112D01*
X134351098Y-116226294D01*
X134331165Y-116087655D01*
X134290658Y-115949700D01*
X134230871Y-115818784D01*
X134153139Y-115697830D01*
X134109903Y-115640073D01*
X134058887Y-115589057D01*
X134052345Y-115583388D01*
X133950229Y-115494905D01*
X133923546Y-115477757D01*
X133829155Y-115417096D01*
X133829153Y-115417095D01*
X133698371Y-115357368D01*
X133630773Y-115332156D01*
X133560275Y-115316819D01*
X133417960Y-115296357D01*
X133346000Y-115291210D01*
X133282606Y-115295745D01*
X133278525Y-115296037D01*
X133269680Y-115296353D01*
X132922320Y-115296353D01*
X132913474Y-115296037D01*
X132901177Y-115295157D01*
X132848870Y-115291416D01*
X132783406Y-115266999D01*
X132741535Y-115211065D01*
X132736551Y-115141374D01*
X132770034Y-115080053D01*
X134491804Y-113358283D01*
X134538926Y-113328786D01*
X134594204Y-113322843D01*
X134646521Y-113341649D01*
G37*
%TD.AperFunction*%
%TA.AperFunction,Conductor*%
G36*
X156086471Y-103396745D02*
G01*
X156194441Y-103402809D01*
X156367793Y-103413323D01*
X156381019Y-103414843D01*
X156508874Y-103436566D01*
X156510265Y-103436812D01*
X156659510Y-103464162D01*
X156659679Y-103464193D01*
X156671655Y-103467008D01*
X156801579Y-103504438D01*
X156804054Y-103505180D01*
X156943655Y-103548681D01*
X156954197Y-103552498D01*
X157081213Y-103605109D01*
X157084615Y-103606579D01*
X157215839Y-103665637D01*
X157224905Y-103670173D01*
X157346281Y-103737254D01*
X157350361Y-103739614D01*
X157472565Y-103813487D01*
X157480120Y-103818441D01*
X157593720Y-103899043D01*
X157598406Y-103902538D01*
X157710344Y-103990235D01*
X157716490Y-103995380D01*
X157820492Y-104088320D01*
X157825546Y-104093098D01*
X157925962Y-104193512D01*
X157930741Y-104198566D01*
X158023689Y-104302573D01*
X158028834Y-104308719D01*
X158116549Y-104420676D01*
X158120041Y-104425359D01*
X158157852Y-104478647D01*
X158200606Y-104538902D01*
X158205593Y-104546507D01*
X158279436Y-104668655D01*
X158281847Y-104672824D01*
X158348900Y-104794144D01*
X158353448Y-104803233D01*
X158412483Y-104934399D01*
X158413968Y-104937837D01*
X158466583Y-105064854D01*
X158470408Y-105075417D01*
X158513888Y-105214943D01*
X158514656Y-105217506D01*
X158552080Y-105347400D01*
X158554895Y-105359375D01*
X158582254Y-105508652D01*
X158582534Y-105510233D01*
X158604241Y-105637979D01*
X158605767Y-105651263D01*
X158616683Y-105831671D01*
X158616714Y-105832204D01*
X158622305Y-105931711D01*
X158622500Y-105938667D01*
X158622500Y-135868724D01*
X158622305Y-135875680D01*
X158615793Y-135991574D01*
X158615763Y-135992089D01*
X158605878Y-136155860D01*
X158604351Y-136169161D01*
X158581233Y-136305214D01*
X158580953Y-136306796D01*
X158555132Y-136447678D01*
X158552317Y-136459654D01*
X158513371Y-136594828D01*
X158512603Y-136597390D01*
X158470784Y-136731586D01*
X158466959Y-136742150D01*
X158412696Y-136873143D01*
X158411211Y-136876580D01*
X158353993Y-137003707D01*
X158349445Y-137012796D01*
X158280590Y-137137377D01*
X158278179Y-137141547D01*
X158206338Y-137260382D01*
X158201351Y-137267987D01*
X158118823Y-137384296D01*
X158115304Y-137389013D01*
X158029822Y-137498120D01*
X158024671Y-137504274D01*
X157929549Y-137610713D01*
X157924770Y-137615767D01*
X157826824Y-137713711D01*
X157821771Y-137718489D01*
X157765020Y-137769205D01*
X157715353Y-137813590D01*
X157715347Y-137813595D01*
X157709192Y-137818747D01*
X157600067Y-137904239D01*
X157595349Y-137907757D01*
X157479047Y-137990276D01*
X157471442Y-137995263D01*
X157352607Y-138067100D01*
X157348439Y-138069511D01*
X157223858Y-138138364D01*
X157214769Y-138142911D01*
X157087595Y-138200148D01*
X157084154Y-138201635D01*
X156953203Y-138255875D01*
X156942643Y-138259698D01*
X156808480Y-138301506D01*
X156805916Y-138302275D01*
X156670699Y-138341229D01*
X156658725Y-138344044D01*
X156517841Y-138369863D01*
X156516259Y-138370142D01*
X156380187Y-138393262D01*
X156366897Y-138394788D01*
X156208101Y-138404386D01*
X156207575Y-138404417D01*
X156092214Y-138410897D01*
X156085861Y-138411254D01*
X156078909Y-138411449D01*
X126150590Y-138411449D01*
X126143632Y-138411254D01*
X126138028Y-138410939D01*
X126027468Y-138404725D01*
X126026955Y-138404695D01*
X125863200Y-138394810D01*
X125849898Y-138393282D01*
X125713907Y-138370172D01*
X125712325Y-138369893D01*
X125571390Y-138344060D01*
X125559415Y-138341245D01*
X125424192Y-138302284D01*
X125421630Y-138301516D01*
X125382019Y-138289171D01*
X125287481Y-138259709D01*
X125276927Y-138255888D01*
X125145917Y-138201618D01*
X125142479Y-138200132D01*
X125015374Y-138142923D01*
X125006285Y-138138376D01*
X124881689Y-138069511D01*
X124877520Y-138067100D01*
X124758685Y-137995259D01*
X124751081Y-137990272D01*
X124634755Y-137907731D01*
X124630075Y-137904241D01*
X124575148Y-137861207D01*
X124520945Y-137818740D01*
X124514792Y-137813590D01*
X124465136Y-137769214D01*
X124408376Y-137718488D01*
X124403328Y-137713716D01*
X124354336Y-137664723D01*
X124305346Y-137615732D01*
X124300590Y-137610702D01*
X124205470Y-137504261D01*
X124200323Y-137498111D01*
X124114844Y-137389004D01*
X124111325Y-137384286D01*
X124028788Y-137267960D01*
X124023809Y-137260366D01*
X123951968Y-137141525D01*
X123949557Y-137137357D01*
X123946872Y-137132499D01*
X123880706Y-137012781D01*
X123876160Y-137003694D01*
X123818946Y-136876571D01*
X123817469Y-136873155D01*
X123763182Y-136742095D01*
X123759373Y-136731572D01*
X123743261Y-136679869D01*
X142013500Y-136679869D01*
X142019909Y-136739484D01*
X142045056Y-136806907D01*
X142070204Y-136874331D01*
X142156454Y-136989546D01*
X142271669Y-137075796D01*
X142406517Y-137126091D01*
X142466127Y-137132500D01*
X145061872Y-137132499D01*
X145121483Y-137126091D01*
X145256331Y-137075796D01*
X145371546Y-136989546D01*
X145457796Y-136874331D01*
X145508091Y-136739483D01*
X145514500Y-136679873D01*
X145514499Y-135163970D01*
X153364040Y-135163970D01*
X153383826Y-135352228D01*
X153442320Y-135532255D01*
X153536966Y-135696187D01*
X153663629Y-135836860D01*
X153816769Y-135948122D01*
X153989697Y-136025115D01*
X154174852Y-136064471D01*
X154174854Y-136064471D01*
X154364146Y-136064471D01*
X154364148Y-136064471D01*
X154487584Y-136038233D01*
X154549303Y-136025115D01*
X154722230Y-135948122D01*
X154722229Y-135948122D01*
X154875370Y-135836860D01*
X155002033Y-135696187D01*
X155096679Y-135532255D01*
X155113286Y-135481144D01*
X155155174Y-135352227D01*
X155174960Y-135163971D01*
X155155174Y-134975715D01*
X155124832Y-134882334D01*
X155096679Y-134795686D01*
X155002033Y-134631754D01*
X154875370Y-134491081D01*
X154722230Y-134379819D01*
X154631064Y-134339229D01*
X154592302Y-134312087D01*
X154566529Y-134272401D01*
X154557500Y-134225950D01*
X154557500Y-133377827D01*
X154566529Y-133331376D01*
X154592302Y-133291690D01*
X154631064Y-133264548D01*
X154757730Y-133208151D01*
X154910870Y-133096889D01*
X155037533Y-132956216D01*
X155132179Y-132792284D01*
X155171409Y-132671546D01*
X155190674Y-132612256D01*
X155210460Y-132424000D01*
X155190674Y-132235744D01*
X155132179Y-132055716D01*
X155132179Y-132055715D01*
X155037533Y-131891783D01*
X154910870Y-131751110D01*
X154757730Y-131639848D01*
X154584802Y-131562855D01*
X154399648Y-131523500D01*
X154399646Y-131523500D01*
X154210354Y-131523500D01*
X154210352Y-131523500D01*
X154025197Y-131562855D01*
X153852269Y-131639848D01*
X153699129Y-131751110D01*
X153572466Y-131891783D01*
X153477820Y-132055715D01*
X153419326Y-132235742D01*
X153399540Y-132424000D01*
X153419326Y-132612257D01*
X153477820Y-132792284D01*
X153572466Y-132956216D01*
X153699129Y-133096889D01*
X153852269Y-133208151D01*
X153978936Y-133264548D01*
X154017698Y-133291690D01*
X154043471Y-133331376D01*
X154052500Y-133377827D01*
X154052500Y-134194339D01*
X154043471Y-134240790D01*
X154017698Y-134280477D01*
X153978936Y-134307617D01*
X153942253Y-134323950D01*
X153816767Y-134379820D01*
X153663629Y-134491081D01*
X153536966Y-134631754D01*
X153442320Y-134795686D01*
X153383826Y-134975713D01*
X153364040Y-135163970D01*
X145514499Y-135163970D01*
X145514499Y-134084128D01*
X145508091Y-134024517D01*
X145457796Y-133889669D01*
X145371546Y-133774454D01*
X145256331Y-133688204D01*
X145121483Y-133637909D01*
X145061873Y-133631500D01*
X145061869Y-133631500D01*
X142466130Y-133631500D01*
X142406515Y-133637909D01*
X142271669Y-133688204D01*
X142156454Y-133774454D01*
X142070204Y-133889668D01*
X142019909Y-134024516D01*
X142013500Y-134084130D01*
X142013500Y-136679869D01*
X123743261Y-136679869D01*
X123717551Y-136597364D01*
X123716828Y-136594955D01*
X123677840Y-136459629D01*
X123675028Y-136447667D01*
X123649185Y-136306657D01*
X123648932Y-136305224D01*
X123625801Y-136169101D01*
X123624280Y-136155852D01*
X123614783Y-135998892D01*
X123614752Y-135998359D01*
X123607797Y-135874548D01*
X123607602Y-135867593D01*
X123607602Y-132361869D01*
X124741500Y-132361869D01*
X124747909Y-132421484D01*
X124773056Y-132488906D01*
X124798204Y-132556331D01*
X124884454Y-132671546D01*
X124999669Y-132757796D01*
X125134517Y-132808091D01*
X125194127Y-132814500D01*
X127789872Y-132814499D01*
X127849483Y-132808091D01*
X127984331Y-132757796D01*
X128099546Y-132671546D01*
X128185796Y-132556331D01*
X128236091Y-132421483D01*
X128242500Y-132361873D01*
X128242499Y-129766128D01*
X128236091Y-129706517D01*
X128185796Y-129571669D01*
X128099546Y-129456454D01*
X127984331Y-129370204D01*
X127849483Y-129319909D01*
X127789873Y-129313500D01*
X127789869Y-129313500D01*
X125194130Y-129313500D01*
X125134515Y-129319909D01*
X124999669Y-129370204D01*
X124884454Y-129456454D01*
X124798204Y-129571668D01*
X124747909Y-129706516D01*
X124741500Y-129766130D01*
X124741500Y-132361869D01*
X123607602Y-132361869D01*
X123607602Y-124487869D01*
X124741500Y-124487869D01*
X124747909Y-124547484D01*
X124753616Y-124562784D01*
X124798204Y-124682331D01*
X124884454Y-124797546D01*
X124999669Y-124883796D01*
X125134517Y-124934091D01*
X125194127Y-124940500D01*
X127789872Y-124940499D01*
X127849483Y-124934091D01*
X127984331Y-124883796D01*
X128099546Y-124797546D01*
X128185796Y-124682331D01*
X128236091Y-124547483D01*
X128242500Y-124487873D01*
X128242499Y-123609224D01*
X128254578Y-123555842D01*
X128288463Y-123512859D01*
X128337552Y-123488651D01*
X128392280Y-123487935D01*
X128397845Y-123489117D01*
X128555243Y-123522574D01*
X128555245Y-123522574D01*
X128744537Y-123522574D01*
X128744539Y-123522574D01*
X128867975Y-123496336D01*
X128929694Y-123483218D01*
X129102621Y-123406225D01*
X129165620Y-123360454D01*
X129255761Y-123294963D01*
X129382424Y-123154290D01*
X129477070Y-122990358D01*
X129488432Y-122955389D01*
X129535565Y-122810330D01*
X129555351Y-122622074D01*
X129535565Y-122433818D01*
X129477070Y-122253790D01*
X129477069Y-122253789D01*
X129475584Y-122249217D01*
X129472941Y-122181952D01*
X129505832Y-122123220D01*
X130218818Y-121410235D01*
X130268182Y-121379985D01*
X130325898Y-121375443D01*
X130379385Y-121397598D01*
X130416985Y-121441621D01*
X130430500Y-121497916D01*
X130430500Y-123759706D01*
X130421471Y-123806157D01*
X130395698Y-123845844D01*
X130356936Y-123872984D01*
X130334674Y-123882896D01*
X130270767Y-123911349D01*
X130117629Y-124022610D01*
X129990966Y-124163283D01*
X129896320Y-124327215D01*
X129837826Y-124507242D01*
X129818040Y-124695499D01*
X129837826Y-124883757D01*
X129896320Y-125063784D01*
X129990966Y-125227716D01*
X130117629Y-125368389D01*
X130270769Y-125479651D01*
X130443697Y-125556644D01*
X130628852Y-125596000D01*
X130628854Y-125596000D01*
X130818146Y-125596000D01*
X130818148Y-125596000D01*
X130941584Y-125569762D01*
X131003303Y-125556644D01*
X131176230Y-125479651D01*
X131307926Y-125383968D01*
X131365027Y-125361296D01*
X131426004Y-125368816D01*
X131475886Y-125404684D01*
X131502428Y-125460093D01*
X131505458Y-125475327D01*
X131508805Y-125492149D01*
X131508805Y-125492151D01*
X131514149Y-125519019D01*
X131514149Y-125519020D01*
X131514150Y-125519021D01*
X131569957Y-125602543D01*
X131580891Y-125609849D01*
X131599680Y-125625269D01*
X131732056Y-125757645D01*
X131764949Y-125816379D01*
X131762306Y-125883644D01*
X131702326Y-126068242D01*
X131682540Y-126256500D01*
X131702326Y-126444757D01*
X131760820Y-126624784D01*
X131855466Y-126788716D01*
X131982129Y-126929389D01*
X132135269Y-127040651D01*
X132308197Y-127117644D01*
X132493352Y-127157000D01*
X132493354Y-127157000D01*
X132682646Y-127157000D01*
X132682649Y-127157000D01*
X132845720Y-127122339D01*
X132900448Y-127123055D01*
X132949536Y-127147263D01*
X132983421Y-127190246D01*
X132995500Y-127243629D01*
X132995500Y-127397331D01*
X132982950Y-127451689D01*
X132947842Y-127495045D01*
X132897280Y-127518621D01*
X132816197Y-127535855D01*
X132643269Y-127612848D01*
X132490129Y-127724110D01*
X132363466Y-127864783D01*
X132268820Y-128028715D01*
X132210326Y-128208742D01*
X132190540Y-128396999D01*
X132210326Y-128585257D01*
X132268820Y-128765284D01*
X132363466Y-128929216D01*
X132490129Y-129069889D01*
X132643269Y-129181151D01*
X132816197Y-129258144D01*
X133001352Y-129297500D01*
X133001354Y-129297500D01*
X133190646Y-129297500D01*
X133190648Y-129297500D01*
X133370952Y-129259175D01*
X133375803Y-129258144D01*
X133548730Y-129181151D01*
X133701871Y-129069888D01*
X133828533Y-128929216D01*
X133923179Y-128765284D01*
X133981674Y-128585256D01*
X134001460Y-128397000D01*
X133981674Y-128208744D01*
X133923179Y-128028716D01*
X133923179Y-128028715D01*
X133828533Y-127864783D01*
X133701870Y-127724110D01*
X133548730Y-127612849D01*
X133524063Y-127601866D01*
X133485301Y-127574724D01*
X133459529Y-127535038D01*
X133450500Y-127488587D01*
X133450500Y-126535717D01*
X133456569Y-126497399D01*
X133468613Y-126460331D01*
X133473674Y-126444756D01*
X133493460Y-126256500D01*
X133473674Y-126068244D01*
X133458224Y-126020696D01*
X133452326Y-125975890D01*
X133452719Y-125968404D01*
X133445298Y-125949073D01*
X133439774Y-125930422D01*
X133437189Y-125918259D01*
X133435474Y-125910188D01*
X133434249Y-125908503D01*
X133418805Y-125880057D01*
X133418060Y-125878115D01*
X133408989Y-125869044D01*
X133389283Y-125843362D01*
X133320534Y-125724285D01*
X133193870Y-125583611D01*
X133040729Y-125472348D01*
X133010465Y-125458873D01*
X132973222Y-125433276D01*
X132367819Y-124827873D01*
X132340939Y-124787645D01*
X132331500Y-124740192D01*
X132331500Y-123670829D01*
X132343579Y-123617446D01*
X132377464Y-123574463D01*
X132426553Y-123550255D01*
X132481281Y-123549539D01*
X132636352Y-123582500D01*
X132636354Y-123582500D01*
X132825646Y-123582500D01*
X132825648Y-123582500D01*
X133010801Y-123543145D01*
X133023633Y-123537431D01*
X133088115Y-123508721D01*
X133136384Y-123498020D01*
X133185000Y-123507030D01*
X133226231Y-123534320D01*
X136226229Y-126534318D01*
X136241651Y-126553109D01*
X136248957Y-126564044D01*
X136322324Y-126613065D01*
X136327066Y-126616957D01*
X136332477Y-126619848D01*
X136332478Y-126619849D01*
X136332479Y-126619850D01*
X136357283Y-126624784D01*
X136430998Y-126639448D01*
X136430999Y-126639447D01*
X136431000Y-126639448D01*
X136443895Y-126636882D01*
X136468087Y-126634500D01*
X139930981Y-126634500D01*
X139955172Y-126636882D01*
X139968068Y-126639448D01*
X140051282Y-126622894D01*
X140051284Y-126622894D01*
X140061486Y-126620864D01*
X140066589Y-126619850D01*
X140150111Y-126564043D01*
X140157416Y-126553108D01*
X140172832Y-126534323D01*
X140696079Y-126011076D01*
X140753953Y-125978394D01*
X140820390Y-125980292D01*
X140876304Y-126016225D01*
X140905629Y-126075870D01*
X140899942Y-126142091D01*
X140874156Y-126211226D01*
X140858819Y-126281724D01*
X140838357Y-126424039D01*
X140833210Y-126495999D01*
X140838037Y-126563473D01*
X140838353Y-126572320D01*
X140838353Y-126919680D01*
X140838037Y-126928527D01*
X140833210Y-126996000D01*
X140838357Y-127067960D01*
X140858819Y-127210275D01*
X140874156Y-127280773D01*
X140899368Y-127348371D01*
X140953114Y-127466056D01*
X140959096Y-127479155D01*
X140984459Y-127518621D01*
X141031054Y-127591125D01*
X141050463Y-127649907D01*
X141039037Y-127710747D01*
X140999623Y-127758482D01*
X140872129Y-127851110D01*
X140812065Y-127917819D01*
X140762325Y-127951369D01*
X140702657Y-127957640D01*
X140647030Y-127935165D01*
X140533730Y-127852848D01*
X140360802Y-127775855D01*
X140175648Y-127736500D01*
X140175646Y-127736500D01*
X139986354Y-127736500D01*
X139986352Y-127736500D01*
X139801197Y-127775855D01*
X139628269Y-127852848D01*
X139475129Y-127964110D01*
X139348466Y-128104783D01*
X139253820Y-128268715D01*
X139195326Y-128448742D01*
X139175540Y-128637000D01*
X139195326Y-128825257D01*
X139253820Y-129005284D01*
X139348466Y-129169216D01*
X139475129Y-129309889D01*
X139628269Y-129421151D01*
X139754936Y-129477548D01*
X139793698Y-129504690D01*
X139819471Y-129544376D01*
X139828500Y-129590827D01*
X139828500Y-133666173D01*
X139819471Y-133712624D01*
X139793698Y-133752310D01*
X139754936Y-133779452D01*
X139628269Y-133835848D01*
X139475129Y-133947110D01*
X139348466Y-134087783D01*
X139253820Y-134251715D01*
X139195326Y-134431742D01*
X139189089Y-134491083D01*
X139175540Y-134620000D01*
X139185433Y-134714128D01*
X139195326Y-134808257D01*
X139253820Y-134988284D01*
X139348466Y-135152216D01*
X139475129Y-135292889D01*
X139628269Y-135404151D01*
X139801197Y-135481144D01*
X139986352Y-135520500D01*
X139986354Y-135520500D01*
X140175646Y-135520500D01*
X140175648Y-135520500D01*
X140299083Y-135494262D01*
X140360803Y-135481144D01*
X140533730Y-135404151D01*
X140686871Y-135292888D01*
X140813533Y-135152216D01*
X140908179Y-134988284D01*
X140966674Y-134808256D01*
X140986460Y-134620000D01*
X140966674Y-134431744D01*
X140908179Y-134251716D01*
X140908179Y-134251715D01*
X140813533Y-134087783D01*
X140686870Y-133947110D01*
X140533730Y-133835848D01*
X140407064Y-133779452D01*
X140368302Y-133752310D01*
X140342529Y-133712624D01*
X140333500Y-133666173D01*
X140333500Y-129590827D01*
X140342529Y-129544376D01*
X140368302Y-129504690D01*
X140407064Y-129477548D01*
X140533730Y-129421151D01*
X140533729Y-129421151D01*
X140686871Y-129309888D01*
X140746936Y-129243178D01*
X140796673Y-129209630D01*
X140856341Y-129203359D01*
X140911969Y-129225834D01*
X141025269Y-129308151D01*
X141198197Y-129385144D01*
X141383352Y-129424500D01*
X141383354Y-129424500D01*
X141572646Y-129424500D01*
X141572648Y-129424500D01*
X141696084Y-129398262D01*
X141757803Y-129385144D01*
X141930730Y-129308151D01*
X141974939Y-129276030D01*
X142034875Y-129253027D01*
X142073652Y-129259175D01*
X142074448Y-129255435D01*
X142272352Y-129297500D01*
X142272354Y-129297500D01*
X142461646Y-129297500D01*
X142461648Y-129297500D01*
X142641952Y-129259175D01*
X142646803Y-129258144D01*
X142819730Y-129181151D01*
X142972871Y-129069888D01*
X143040826Y-128994415D01*
X143087327Y-128962097D01*
X143143350Y-128953824D01*
X143197209Y-128971323D01*
X143237671Y-129010945D01*
X143256296Y-129064425D01*
X143259326Y-129093257D01*
X143317820Y-129273284D01*
X143412466Y-129437216D01*
X143539129Y-129577888D01*
X143666047Y-129670099D01*
X143698875Y-129705603D01*
X143715627Y-129750964D01*
X143713755Y-129799284D01*
X143706455Y-129829776D01*
X143535652Y-131110798D01*
X143536995Y-131253821D01*
X143547467Y-131322489D01*
X143588816Y-131459409D01*
X143666858Y-131579266D01*
X143712616Y-131631530D01*
X143821105Y-131724727D01*
X143821106Y-131724727D01*
X143821108Y-131724729D01*
X143951361Y-131783811D01*
X144018044Y-131803267D01*
X144159630Y-131823500D01*
X144352457Y-131823500D01*
X144378238Y-131826210D01*
X144431353Y-131837500D01*
X144431354Y-131837500D01*
X144620646Y-131837500D01*
X144620647Y-131837500D01*
X144673762Y-131826210D01*
X144699543Y-131823500D01*
X145241457Y-131823500D01*
X145267238Y-131826210D01*
X145320353Y-131837500D01*
X145320354Y-131837500D01*
X145509646Y-131837500D01*
X145509647Y-131837500D01*
X145562762Y-131826210D01*
X145588543Y-131823500D01*
X146130457Y-131823500D01*
X146156238Y-131826210D01*
X146209353Y-131837500D01*
X146209354Y-131837500D01*
X146398646Y-131837500D01*
X146398647Y-131837500D01*
X146451762Y-131826210D01*
X146477543Y-131823500D01*
X146679455Y-131823500D01*
X146679458Y-131823500D01*
X146815702Y-131804794D01*
X146821158Y-131803267D01*
X146880068Y-131786780D01*
X146929879Y-131765168D01*
X147006225Y-131732046D01*
X147112962Y-131645337D01*
X147158627Y-131596527D01*
X147238048Y-131484255D01*
X147284269Y-131354732D01*
X147297962Y-131289309D01*
X147307563Y-131152127D01*
X147202199Y-129571668D01*
X147070096Y-127590125D01*
X147045989Y-127466057D01*
X147041271Y-127451689D01*
X147026796Y-127407602D01*
X146972657Y-127293377D01*
X146891871Y-127196156D01*
X146846942Y-127154123D01*
X146744569Y-127079988D01*
X146627005Y-127033568D01*
X146627000Y-127033566D01*
X146567406Y-127018304D01*
X146441992Y-127002500D01*
X146223543Y-127002500D01*
X146197762Y-126999790D01*
X146144647Y-126988500D01*
X146144646Y-126988500D01*
X145955354Y-126988500D01*
X145955353Y-126988500D01*
X145902238Y-126999790D01*
X145876457Y-127002500D01*
X145334543Y-127002500D01*
X145308762Y-126999790D01*
X145255647Y-126988500D01*
X145255646Y-126988500D01*
X145066354Y-126988500D01*
X145048687Y-126992254D01*
X145001279Y-127002331D01*
X144990075Y-127004180D01*
X144886273Y-127016465D01*
X144829975Y-127029981D01*
X144718485Y-127071112D01*
X144619679Y-127137132D01*
X144575202Y-127175121D01*
X144512463Y-127203548D01*
X144444235Y-127194111D01*
X144327487Y-127142131D01*
X144252685Y-127126232D01*
X144199819Y-127100810D01*
X144164554Y-127053932D01*
X144156251Y-127004787D01*
X144155422Y-127004847D01*
X144154805Y-126996229D01*
X144154782Y-126996092D01*
X144154789Y-126996000D01*
X144149962Y-126928525D01*
X144149647Y-126919680D01*
X144149647Y-126572320D01*
X144149963Y-126563473D01*
X144150704Y-126553109D01*
X144154789Y-126496000D01*
X144149642Y-126424038D01*
X144129180Y-126281723D01*
X144113844Y-126211227D01*
X144088632Y-126143630D01*
X144028904Y-126012845D01*
X143951097Y-125891774D01*
X143944052Y-125883644D01*
X143856944Y-125783114D01*
X143805927Y-125732097D01*
X143748176Y-125688865D01*
X143748170Y-125688861D01*
X143627216Y-125611129D01*
X143566960Y-125583611D01*
X143496299Y-125551341D01*
X143358346Y-125510835D01*
X143228387Y-125492150D01*
X143215889Y-125490353D01*
X142644000Y-125490353D01*
X142643998Y-125490353D01*
X142510185Y-125507970D01*
X142477815Y-125507970D01*
X142344002Y-125490353D01*
X142344000Y-125490353D01*
X141772111Y-125490353D01*
X141759613Y-125492150D01*
X141629653Y-125510835D01*
X141483191Y-125553840D01*
X141482255Y-125550655D01*
X141431177Y-125558334D01*
X141368609Y-125531322D01*
X141329765Y-125475327D01*
X141326377Y-125407262D01*
X141359467Y-125347689D01*
X143101337Y-123605819D01*
X143141566Y-123578939D01*
X143189019Y-123569500D01*
X152461109Y-123569500D01*
X152511544Y-123580220D01*
X152553259Y-123610528D01*
X152579040Y-123655182D01*
X152588820Y-123685284D01*
X152683466Y-123849216D01*
X152810129Y-123989889D01*
X152963269Y-124101151D01*
X153136197Y-124178144D01*
X153321352Y-124217500D01*
X153321354Y-124217500D01*
X153510646Y-124217500D01*
X153510648Y-124217500D01*
X153634083Y-124191262D01*
X153695803Y-124178144D01*
X153868730Y-124101151D01*
X153881612Y-124091791D01*
X153944770Y-124068490D01*
X154010794Y-124081623D01*
X154060227Y-124127318D01*
X154078500Y-124192108D01*
X154078501Y-125353500D01*
X154061888Y-125415500D01*
X154016501Y-125460887D01*
X153954501Y-125477500D01*
X147297231Y-125477500D01*
X147240936Y-125463985D01*
X147196913Y-125426385D01*
X147174758Y-125372897D01*
X147179299Y-125315184D01*
X147189674Y-125283256D01*
X147209460Y-125095000D01*
X147189674Y-124906744D01*
X147131179Y-124726716D01*
X147131179Y-124726715D01*
X147036533Y-124562783D01*
X146909870Y-124422110D01*
X146756730Y-124310848D01*
X146583802Y-124233855D01*
X146398648Y-124194500D01*
X146398646Y-124194500D01*
X146209354Y-124194500D01*
X146209352Y-124194500D01*
X146024197Y-124233855D01*
X145851269Y-124310848D01*
X145698129Y-124422110D01*
X145571466Y-124562783D01*
X145476820Y-124726715D01*
X145418326Y-124906742D01*
X145398540Y-125094999D01*
X145418326Y-125283257D01*
X145476820Y-125463284D01*
X145571466Y-125627216D01*
X145698129Y-125767889D01*
X145851269Y-125879151D01*
X146024197Y-125956144D01*
X146209352Y-125995500D01*
X146209354Y-125995500D01*
X146398646Y-125995500D01*
X146398648Y-125995500D01*
X146583800Y-125956145D01*
X146583801Y-125956144D01*
X146583803Y-125956144D01*
X146664858Y-125920055D01*
X146725828Y-125909784D01*
X146784178Y-125930231D01*
X146840479Y-125967850D01*
X146843265Y-125968404D01*
X146855784Y-125970894D01*
X146855785Y-125970894D01*
X146939000Y-125987448D01*
X146951895Y-125984882D01*
X146976087Y-125982500D01*
X153954501Y-125982500D01*
X154016501Y-125999113D01*
X154061888Y-126044500D01*
X154078501Y-126106500D01*
X154078501Y-126265872D01*
X154084909Y-126325483D01*
X154135204Y-126460331D01*
X154221454Y-126575546D01*
X154336669Y-126661796D01*
X154471517Y-126712091D01*
X154531127Y-126718500D01*
X157126872Y-126718499D01*
X157186483Y-126712091D01*
X157321331Y-126661796D01*
X157436546Y-126575546D01*
X157522796Y-126460331D01*
X157573091Y-126325483D01*
X157579500Y-126265873D01*
X157579499Y-123670128D01*
X157573091Y-123610517D01*
X157522796Y-123475669D01*
X157436546Y-123360454D01*
X157436544Y-123360453D01*
X157436544Y-123360452D01*
X157384192Y-123321262D01*
X157341451Y-123289265D01*
X157304878Y-123245505D01*
X157291762Y-123190000D01*
X157304878Y-123134495D01*
X157341451Y-123090734D01*
X157436546Y-123019546D01*
X157522796Y-122904331D01*
X157573091Y-122769483D01*
X157579500Y-122709873D01*
X157579499Y-120114128D01*
X157573091Y-120054517D01*
X157522796Y-119919669D01*
X157436546Y-119804454D01*
X157341450Y-119733265D01*
X157304878Y-119689503D01*
X157291762Y-119633998D01*
X157304878Y-119578494D01*
X157341446Y-119534737D01*
X157436546Y-119463546D01*
X157522796Y-119348331D01*
X157573091Y-119213483D01*
X157579500Y-119153873D01*
X157579499Y-116558128D01*
X157573091Y-116498517D01*
X157522796Y-116363669D01*
X157436546Y-116248454D01*
X157321331Y-116162204D01*
X157186483Y-116111909D01*
X157126873Y-116105500D01*
X157126869Y-116105500D01*
X154531130Y-116105500D01*
X154471515Y-116111909D01*
X154336669Y-116162204D01*
X154221454Y-116248454D01*
X154135204Y-116363668D01*
X154084909Y-116498515D01*
X154084909Y-116498517D01*
X154082036Y-116525244D01*
X154078500Y-116558130D01*
X154078500Y-119153869D01*
X154084909Y-119213484D01*
X154102239Y-119259948D01*
X154135204Y-119348331D01*
X154221454Y-119463546D01*
X154316548Y-119534733D01*
X154353121Y-119578494D01*
X154366237Y-119633998D01*
X154353121Y-119689503D01*
X154316548Y-119733265D01*
X154221455Y-119804451D01*
X154135204Y-119919668D01*
X154084909Y-120054516D01*
X154078500Y-120114131D01*
X154078500Y-122441891D01*
X154060228Y-122506680D01*
X154010795Y-122552375D01*
X153944772Y-122565509D01*
X153881616Y-122542210D01*
X153868730Y-122532848D01*
X153695802Y-122455855D01*
X153510648Y-122416500D01*
X153510646Y-122416500D01*
X153321354Y-122416500D01*
X153321352Y-122416500D01*
X153136197Y-122455855D01*
X152963269Y-122532848D01*
X152810129Y-122644110D01*
X152683466Y-122784783D01*
X152588820Y-122948715D01*
X152579040Y-122978818D01*
X152553259Y-123023472D01*
X152511544Y-123053780D01*
X152461109Y-123064500D01*
X143070154Y-123064500D01*
X143045963Y-123062117D01*
X143033067Y-123059552D01*
X143008876Y-123054740D01*
X143009372Y-123052243D01*
X142995526Y-123051485D01*
X142943382Y-123019192D01*
X142913094Y-122965859D01*
X142912071Y-122904533D01*
X142940565Y-122850220D01*
X142941814Y-122848832D01*
X142972533Y-122814716D01*
X143067179Y-122650784D01*
X143125674Y-122470756D01*
X143145460Y-122282500D01*
X143125674Y-122094244D01*
X143079125Y-121950981D01*
X143067179Y-121914215D01*
X142972533Y-121750283D01*
X142845870Y-121609610D01*
X142692730Y-121498348D01*
X142519802Y-121421355D01*
X142334648Y-121382000D01*
X142334646Y-121382000D01*
X142145354Y-121382000D01*
X142145351Y-121382000D01*
X142057908Y-121400586D01*
X141996287Y-121398003D01*
X141943533Y-121366054D01*
X141912696Y-121312641D01*
X141911404Y-121250980D01*
X141939978Y-121196323D01*
X141940367Y-121195890D01*
X141940371Y-121195888D01*
X142067033Y-121055216D01*
X142161679Y-120891284D01*
X142169418Y-120867465D01*
X142220174Y-120711257D01*
X142220978Y-120703608D01*
X142246584Y-120640226D01*
X142301888Y-120600044D01*
X142370080Y-120595276D01*
X142542852Y-120632000D01*
X142542854Y-120632000D01*
X142732146Y-120632000D01*
X142732148Y-120632000D01*
X142904920Y-120595276D01*
X142917303Y-120592644D01*
X143090230Y-120515651D01*
X143243371Y-120404388D01*
X143370033Y-120263716D01*
X143464679Y-120099784D01*
X143523174Y-119919756D01*
X143542960Y-119731500D01*
X143523174Y-119543244D01*
X143516313Y-119522130D01*
X143512953Y-119458033D01*
X143542093Y-119400842D01*
X143595925Y-119365882D01*
X143660025Y-119362523D01*
X143796352Y-119391500D01*
X143796354Y-119391500D01*
X143985646Y-119391500D01*
X143985648Y-119391500D01*
X144138383Y-119359035D01*
X144170803Y-119352144D01*
X144343730Y-119275151D01*
X144412559Y-119225144D01*
X144496870Y-119163889D01*
X144505889Y-119153873D01*
X144623533Y-119023216D01*
X144718179Y-118859284D01*
X144718179Y-118859283D01*
X144727960Y-118829182D01*
X144753741Y-118784528D01*
X144795456Y-118754220D01*
X144845891Y-118743500D01*
X149301705Y-118743500D01*
X149363705Y-118760113D01*
X149409092Y-118805500D01*
X149461466Y-118896216D01*
X149588129Y-119036889D01*
X149741269Y-119148151D01*
X149914197Y-119225144D01*
X150099352Y-119264500D01*
X150099354Y-119264500D01*
X150288646Y-119264500D01*
X150288648Y-119264500D01*
X150469159Y-119226131D01*
X150473803Y-119225144D01*
X150646730Y-119148151D01*
X150677440Y-119125839D01*
X150799870Y-119036889D01*
X150812178Y-119023220D01*
X150861105Y-118989969D01*
X150919869Y-118983170D01*
X150975096Y-119004369D01*
X151014217Y-119048743D01*
X151028328Y-119106192D01*
X151028328Y-119874741D01*
X151025945Y-119898935D01*
X151023380Y-119911828D01*
X151035877Y-119974651D01*
X151042978Y-120010349D01*
X151056571Y-120030693D01*
X151077401Y-120095510D01*
X151065922Y-120141370D01*
X151068848Y-120142321D01*
X151006326Y-120334742D01*
X150986540Y-120523000D01*
X151006326Y-120711257D01*
X151064820Y-120891284D01*
X151159466Y-121055216D01*
X151286129Y-121195889D01*
X151439269Y-121307151D01*
X151612197Y-121384144D01*
X151797352Y-121423500D01*
X151797354Y-121423500D01*
X151986646Y-121423500D01*
X151986648Y-121423500D01*
X152110084Y-121397262D01*
X152171803Y-121384144D01*
X152344730Y-121307151D01*
X152344730Y-121307150D01*
X152497870Y-121195889D01*
X152624533Y-121055216D01*
X152719179Y-120891284D01*
X152747355Y-120804568D01*
X152777674Y-120711256D01*
X152797460Y-120523000D01*
X152777674Y-120334744D01*
X152725788Y-120175056D01*
X152719179Y-120154715D01*
X152624533Y-119990783D01*
X152497870Y-119850110D01*
X152344730Y-119738848D01*
X152171802Y-119661855D01*
X151986648Y-119622500D01*
X151986646Y-119622500D01*
X151797354Y-119622500D01*
X151797352Y-119622500D01*
X151683109Y-119646783D01*
X151628381Y-119646067D01*
X151579292Y-119621859D01*
X151545407Y-119578876D01*
X151533328Y-119525493D01*
X151533328Y-118810311D01*
X151542357Y-118763860D01*
X151568130Y-118724174D01*
X151606892Y-118697032D01*
X151733558Y-118640635D01*
X151886698Y-118529373D01*
X151931347Y-118479786D01*
X152013361Y-118388700D01*
X152108007Y-118224768D01*
X152166502Y-118044740D01*
X152186288Y-117856484D01*
X152166502Y-117668228D01*
X152126907Y-117546367D01*
X152108007Y-117488199D01*
X152013361Y-117324267D01*
X151886698Y-117183594D01*
X151733558Y-117072332D01*
X151560630Y-116995339D01*
X151375476Y-116955984D01*
X151375474Y-116955984D01*
X151186182Y-116955984D01*
X151186180Y-116955984D01*
X151001025Y-116995339D01*
X150828097Y-117072332D01*
X150674957Y-117183594D01*
X150548294Y-117324268D01*
X150493360Y-117419417D01*
X150458858Y-117457735D01*
X150411754Y-117478707D01*
X150360192Y-117478707D01*
X150288648Y-117463500D01*
X150288646Y-117463500D01*
X150099354Y-117463500D01*
X150099352Y-117463500D01*
X149914197Y-117502855D01*
X149741269Y-117579848D01*
X149588129Y-117691110D01*
X149461466Y-117831783D01*
X149366820Y-117995715D01*
X149315775Y-118152818D01*
X149289994Y-118197472D01*
X149248279Y-118227780D01*
X149197844Y-118238500D01*
X148593995Y-118238500D01*
X148529760Y-118220565D01*
X148484106Y-118171949D01*
X148470240Y-118106715D01*
X148492172Y-118043732D01*
X148526199Y-118015582D01*
X148524187Y-118012812D01*
X148687870Y-117893889D01*
X148701699Y-117878531D01*
X148814533Y-117753216D01*
X148909179Y-117589284D01*
X148967674Y-117409256D01*
X148987460Y-117221000D01*
X148967674Y-117032744D01*
X148930102Y-116917110D01*
X148909179Y-116852715D01*
X148814533Y-116688783D01*
X148687870Y-116548110D01*
X148534730Y-116436848D01*
X148408064Y-116380452D01*
X148369302Y-116353310D01*
X148343529Y-116313624D01*
X148334500Y-116267173D01*
X148334500Y-116115087D01*
X148336883Y-116090893D01*
X148337527Y-116087655D01*
X148339448Y-116078000D01*
X148333165Y-116046417D01*
X148322233Y-115991459D01*
X148321631Y-115985351D01*
X148319850Y-115979481D01*
X148319850Y-115979480D01*
X148319850Y-115979479D01*
X148264043Y-115895957D01*
X148253106Y-115888649D01*
X148234316Y-115873228D01*
X147253769Y-114892680D01*
X147238347Y-114873889D01*
X147231043Y-114862957D01*
X147231041Y-114862956D01*
X147231041Y-114862955D01*
X147147522Y-114807150D01*
X147132214Y-114804105D01*
X147120371Y-114801749D01*
X147049001Y-114787551D01*
X147039545Y-114789432D01*
X147036104Y-114790117D01*
X147011913Y-114792500D01*
X143897650Y-114792500D01*
X143847215Y-114781780D01*
X143805500Y-114751472D01*
X143684070Y-114616610D01*
X143530930Y-114505348D01*
X143358002Y-114428355D01*
X143172848Y-114389000D01*
X143172846Y-114389000D01*
X142983554Y-114389000D01*
X142983552Y-114389000D01*
X142798397Y-114428355D01*
X142625469Y-114505348D01*
X142472329Y-114616610D01*
X142345665Y-114757286D01*
X142334690Y-114776294D01*
X142300188Y-114814609D01*
X142253086Y-114835580D01*
X142201526Y-114835579D01*
X142097649Y-114813500D01*
X142097646Y-114813500D01*
X141908354Y-114813500D01*
X141908352Y-114813500D01*
X141753281Y-114846461D01*
X141698553Y-114845745D01*
X141649464Y-114821537D01*
X141615579Y-114778554D01*
X141603500Y-114725171D01*
X141603500Y-113566951D01*
X141612939Y-113519498D01*
X141639819Y-113479270D01*
X141924201Y-113194888D01*
X142783561Y-112335526D01*
X142835400Y-112304501D01*
X142895749Y-112301655D01*
X142950280Y-112327665D01*
X142986048Y-112376356D01*
X142994560Y-112436169D01*
X142985540Y-112522000D01*
X142990743Y-112571500D01*
X143005326Y-112710257D01*
X143063820Y-112890284D01*
X143158466Y-113054216D01*
X143285129Y-113194889D01*
X143438269Y-113306151D01*
X143611197Y-113383144D01*
X143796352Y-113422500D01*
X143796354Y-113422500D01*
X143985646Y-113422500D01*
X143985648Y-113422500D01*
X144109083Y-113396262D01*
X144170803Y-113383144D01*
X144343730Y-113306151D01*
X144496871Y-113194888D01*
X144510700Y-113179528D01*
X144552415Y-113149221D01*
X144602851Y-113138500D01*
X151144320Y-113138500D01*
X151194755Y-113149220D01*
X151236470Y-113179528D01*
X151262251Y-113224182D01*
X151318820Y-113398284D01*
X151413466Y-113562216D01*
X151540129Y-113702889D01*
X151693269Y-113814151D01*
X151866197Y-113891144D01*
X152051352Y-113930500D01*
X152051354Y-113930500D01*
X152240646Y-113930500D01*
X152240648Y-113930500D01*
X152364084Y-113904262D01*
X152425803Y-113891144D01*
X152598730Y-113814151D01*
X152751871Y-113702888D01*
X152878533Y-113562216D01*
X152973179Y-113398284D01*
X153031674Y-113218256D01*
X153051460Y-113030000D01*
X153031674Y-112841744D01*
X152990388Y-112714678D01*
X152973179Y-112661715D01*
X152878533Y-112497783D01*
X152751870Y-112357110D01*
X152598730Y-112245848D01*
X152425802Y-112168855D01*
X152240648Y-112129500D01*
X152240646Y-112129500D01*
X152051354Y-112129500D01*
X152051352Y-112129500D01*
X151866197Y-112168855D01*
X151693269Y-112245848D01*
X151540129Y-112357110D01*
X151413466Y-112497783D01*
X151370907Y-112571500D01*
X151325520Y-112616887D01*
X151263520Y-112633500D01*
X144919829Y-112633500D01*
X144861614Y-112618985D01*
X144817028Y-112578840D01*
X144796508Y-112522461D01*
X144796460Y-112522000D01*
X144776674Y-112333744D01*
X144746332Y-112240363D01*
X144718179Y-112153715D01*
X144623533Y-111989783D01*
X144496870Y-111849110D01*
X144343730Y-111737848D01*
X144170802Y-111660855D01*
X143985648Y-111621500D01*
X143985646Y-111621500D01*
X143796354Y-111621500D01*
X143796352Y-111621500D01*
X143611197Y-111660855D01*
X143438269Y-111737848D01*
X143285129Y-111849110D01*
X143231350Y-111908839D01*
X143182423Y-111942090D01*
X143123659Y-111948889D01*
X143068431Y-111927689D01*
X143029311Y-111883316D01*
X143015200Y-111825867D01*
X143015200Y-110634524D01*
X143033083Y-110570374D01*
X143081574Y-110524727D01*
X143146687Y-110510750D01*
X143209639Y-110532473D01*
X143311271Y-110602625D01*
X143469261Y-110662543D01*
X143594915Y-110677800D01*
X143679084Y-110677800D01*
X143679085Y-110677800D01*
X143804739Y-110662543D01*
X143962729Y-110602625D01*
X144101789Y-110506639D01*
X144213838Y-110380162D01*
X144292362Y-110230546D01*
X144332800Y-110066485D01*
X144332800Y-109897515D01*
X144310856Y-109808489D01*
X144310321Y-109751409D01*
X144335414Y-109700135D01*
X144380816Y-109665536D01*
X144465581Y-109627797D01*
X144465581Y-109627796D01*
X144465585Y-109627795D01*
X144618721Y-109516535D01*
X144623627Y-109511087D01*
X144745384Y-109375862D01*
X144840030Y-109211930D01*
X144898525Y-109031902D01*
X144918311Y-108843646D01*
X144916949Y-108830690D01*
X144924506Y-108773294D01*
X144957297Y-108725581D01*
X145008176Y-108697956D01*
X145066050Y-108696441D01*
X145073178Y-108697956D01*
X145193353Y-108723500D01*
X145193354Y-108723500D01*
X145382646Y-108723500D01*
X145382648Y-108723500D01*
X145509950Y-108696441D01*
X145567803Y-108684144D01*
X145740730Y-108607151D01*
X145893871Y-108495888D01*
X146020533Y-108355216D01*
X146115179Y-108191284D01*
X146173674Y-108011256D01*
X146193460Y-107823000D01*
X146173674Y-107634744D01*
X146121435Y-107473970D01*
X146115179Y-107454715D01*
X146021240Y-107292009D01*
X146004627Y-107230008D01*
X146021241Y-107168008D01*
X146033670Y-107146481D01*
X146064537Y-107093018D01*
X146123032Y-106912990D01*
X146123032Y-106912988D01*
X146127059Y-106900595D01*
X146128776Y-106901152D01*
X146142967Y-106862161D01*
X146187554Y-106822015D01*
X146245769Y-106807500D01*
X148651759Y-106807500D01*
X148702195Y-106818220D01*
X148743909Y-106848528D01*
X148769690Y-106893183D01*
X148778820Y-106921283D01*
X148873466Y-107085216D01*
X148980358Y-107203930D01*
X149000129Y-107225888D01*
X149024088Y-107243295D01*
X149028169Y-107246260D01*
X149066062Y-107290862D01*
X149079278Y-107347876D01*
X149064873Y-107404601D01*
X149026055Y-107448401D01*
X148971472Y-107469518D01*
X148937659Y-107473970D01*
X148905287Y-107473970D01*
X148771474Y-107456353D01*
X148771472Y-107456353D01*
X148199583Y-107456353D01*
X148152097Y-107463180D01*
X148057125Y-107476835D01*
X147919172Y-107517341D01*
X147788258Y-107577128D01*
X147788256Y-107577129D01*
X147761903Y-107594065D01*
X147667295Y-107654865D01*
X147609544Y-107698097D01*
X147558527Y-107749114D01*
X147464377Y-107857770D01*
X147386567Y-107978846D01*
X147326840Y-108109628D01*
X147301628Y-108177226D01*
X147286291Y-108247724D01*
X147265829Y-108390039D01*
X147260682Y-108461999D01*
X147265509Y-108529473D01*
X147265825Y-108538320D01*
X147265825Y-108885680D01*
X147265509Y-108894527D01*
X147260682Y-108962000D01*
X147265829Y-109033960D01*
X147286291Y-109176279D01*
X147300662Y-109242335D01*
X147298473Y-109303628D01*
X147267177Y-109356375D01*
X146534669Y-110088883D01*
X146506156Y-110110175D01*
X146472771Y-110122492D01*
X146405197Y-110136856D01*
X146232267Y-110213849D01*
X146079129Y-110325110D01*
X145952466Y-110465783D01*
X145857820Y-110629715D01*
X145799326Y-110809742D01*
X145779540Y-110998000D01*
X145799326Y-111186257D01*
X145857820Y-111366284D01*
X145952466Y-111530216D01*
X146079129Y-111670889D01*
X146232269Y-111782151D01*
X146405197Y-111859144D01*
X146590352Y-111898500D01*
X146590354Y-111898500D01*
X146779646Y-111898500D01*
X146779648Y-111898500D01*
X146903083Y-111872262D01*
X146964803Y-111859144D01*
X147137730Y-111782151D01*
X147145178Y-111776740D01*
X147290870Y-111670889D01*
X147417533Y-111530216D01*
X147512179Y-111366284D01*
X147562679Y-111210861D01*
X147570674Y-111186256D01*
X147590460Y-110998000D01*
X147570674Y-110809744D01*
X147522845Y-110662542D01*
X147512179Y-110629715D01*
X147417533Y-110465783D01*
X147290871Y-110325112D01*
X147250443Y-110295739D01*
X147215139Y-110256010D01*
X147199711Y-110205150D01*
X147206993Y-110152502D01*
X147235646Y-110107742D01*
X147539998Y-109803390D01*
X147587120Y-109773893D01*
X147642397Y-109767950D01*
X147694715Y-109786757D01*
X147766437Y-109832849D01*
X147788256Y-109846871D01*
X147919172Y-109906658D01*
X148057127Y-109947165D01*
X148199583Y-109967647D01*
X148771472Y-109967647D01*
X148771473Y-109967647D01*
X148797886Y-109964169D01*
X148902343Y-109950417D01*
X148902344Y-109950416D01*
X148905286Y-109950029D01*
X148937658Y-109950029D01*
X148940599Y-109950416D01*
X148940601Y-109950417D01*
X149045057Y-109964169D01*
X149071471Y-109967647D01*
X149071472Y-109967647D01*
X149643360Y-109967647D01*
X149643361Y-109967647D01*
X149785817Y-109947165D01*
X149923772Y-109906658D01*
X150054688Y-109846871D01*
X150175642Y-109769139D01*
X150233399Y-109725903D01*
X150284415Y-109674887D01*
X150378569Y-109566226D01*
X150456376Y-109445155D01*
X150516104Y-109314370D01*
X150541316Y-109246773D01*
X150556652Y-109176277D01*
X150577114Y-109033962D01*
X150582261Y-108962000D01*
X150577434Y-108894525D01*
X150577119Y-108885680D01*
X150577119Y-108538320D01*
X150577435Y-108529473D01*
X150582261Y-108461999D01*
X150578946Y-108415655D01*
X150577114Y-108390038D01*
X150565553Y-108309632D01*
X150570636Y-108252828D01*
X150600608Y-108204308D01*
X150849468Y-107955448D01*
X150895895Y-107926194D01*
X150950403Y-107919842D01*
X150957143Y-107920566D01*
X150975127Y-107922500D01*
X153570872Y-107922499D01*
X153630483Y-107916091D01*
X153765331Y-107865796D01*
X153880546Y-107779546D01*
X153952046Y-107684033D01*
X153995807Y-107647461D01*
X154051312Y-107634345D01*
X154106817Y-107647461D01*
X154150579Y-107684035D01*
X154221809Y-107779187D01*
X154336910Y-107865352D01*
X154471624Y-107915597D01*
X154531176Y-107922000D01*
X155579000Y-107922000D01*
X155579000Y-106422000D01*
X156079000Y-106422000D01*
X156079000Y-107922000D01*
X157126824Y-107922000D01*
X157186375Y-107915597D01*
X157321089Y-107865352D01*
X157436188Y-107779188D01*
X157522352Y-107664089D01*
X157572597Y-107529375D01*
X157579000Y-107469824D01*
X157579000Y-106422000D01*
X156079000Y-106422000D01*
X155579000Y-106422000D01*
X155579000Y-104422000D01*
X156079000Y-104422000D01*
X156079000Y-105922000D01*
X157579000Y-105922000D01*
X157579000Y-104874176D01*
X157572597Y-104814624D01*
X157522352Y-104679910D01*
X157436188Y-104564811D01*
X157321089Y-104478647D01*
X157186375Y-104428402D01*
X157126824Y-104422000D01*
X156079000Y-104422000D01*
X155579000Y-104422000D01*
X154531176Y-104422000D01*
X154471624Y-104428402D01*
X154336910Y-104478647D01*
X154221810Y-104564811D01*
X154150579Y-104659965D01*
X154106816Y-104696538D01*
X154051312Y-104709654D01*
X153995808Y-104696538D01*
X153952046Y-104659966D01*
X153880546Y-104564454D01*
X153765331Y-104478204D01*
X153630483Y-104427909D01*
X153570873Y-104421500D01*
X153570869Y-104421500D01*
X150975130Y-104421500D01*
X150915515Y-104427909D01*
X150780669Y-104478204D01*
X150665454Y-104564454D01*
X150579204Y-104679668D01*
X150533117Y-104803233D01*
X150528909Y-104814517D01*
X150525686Y-104844500D01*
X150522500Y-104874131D01*
X150522500Y-105902069D01*
X150508389Y-105959518D01*
X150469269Y-106003891D01*
X150414041Y-106025091D01*
X150355277Y-106018292D01*
X150306350Y-105985041D01*
X150211870Y-105880110D01*
X150058730Y-105768848D01*
X149885802Y-105691855D01*
X149700648Y-105652500D01*
X149700646Y-105652500D01*
X149511354Y-105652500D01*
X149511352Y-105652500D01*
X149326197Y-105691855D01*
X149153269Y-105768848D01*
X149000129Y-105880110D01*
X148873466Y-106020783D01*
X148778820Y-106184716D01*
X148769690Y-106212817D01*
X148743909Y-106257472D01*
X148702195Y-106287780D01*
X148651759Y-106298500D01*
X146102671Y-106298500D01*
X146040671Y-106281887D01*
X145995284Y-106236500D01*
X145969891Y-106192518D01*
X145969890Y-106192516D01*
X145843228Y-106051844D01*
X145690088Y-105940582D01*
X145517160Y-105863589D01*
X145332006Y-105824234D01*
X145332004Y-105824234D01*
X145142712Y-105824234D01*
X145129680Y-105824234D01*
X145129680Y-105822766D01*
X145092024Y-105822071D01*
X145042194Y-105796505D01*
X145008696Y-105751622D01*
X144996868Y-105724657D01*
X144990173Y-105709393D01*
X144854164Y-105501215D01*
X144685744Y-105318262D01*
X144574451Y-105231639D01*
X144489514Y-105165529D01*
X144489510Y-105165526D01*
X144489509Y-105165526D01*
X144270810Y-105047172D01*
X144270806Y-105047170D01*
X144270805Y-105047170D01*
X144035615Y-104966429D01*
X143790335Y-104925500D01*
X143541665Y-104925500D01*
X143296384Y-104966429D01*
X143061194Y-105047170D01*
X143061190Y-105047171D01*
X143061190Y-105047172D01*
X143008998Y-105075417D01*
X142842485Y-105165529D01*
X142646259Y-105318259D01*
X142646256Y-105318261D01*
X142646256Y-105318262D01*
X142477836Y-105501215D01*
X142449020Y-105545322D01*
X142341825Y-105709395D01*
X142266158Y-105881900D01*
X142241937Y-105937119D01*
X142205167Y-106082319D01*
X142180891Y-106178183D01*
X142160356Y-106426000D01*
X142180891Y-106673816D01*
X142180891Y-106673819D01*
X142180892Y-106673821D01*
X142241937Y-106914881D01*
X142276781Y-106994317D01*
X142341825Y-107142604D01*
X142341827Y-107142607D01*
X142477836Y-107350785D01*
X142477838Y-107350787D01*
X142483456Y-107359386D01*
X142483184Y-107359563D01*
X142501717Y-107389249D01*
X142510200Y-107434326D01*
X142510200Y-110794564D01*
X142495173Y-110853732D01*
X142453735Y-110898559D01*
X142395928Y-110918182D01*
X142335764Y-110907843D01*
X142225854Y-110858907D01*
X142040700Y-110819552D01*
X142040698Y-110819552D01*
X141851406Y-110819552D01*
X141851404Y-110819552D01*
X141666249Y-110858907D01*
X141493321Y-110935900D01*
X141340181Y-111047162D01*
X141213518Y-111187835D01*
X141118872Y-111351767D01*
X141109092Y-111381870D01*
X141083311Y-111426524D01*
X141041596Y-111456832D01*
X140991161Y-111467552D01*
X140539034Y-111467552D01*
X140514842Y-111465169D01*
X140501949Y-111462604D01*
X140501948Y-111462604D01*
X140489053Y-111465169D01*
X140398277Y-111483225D01*
X140388131Y-111492422D01*
X140319906Y-111538008D01*
X140319905Y-111538009D01*
X140312596Y-111548945D01*
X140297181Y-111567728D01*
X139251778Y-112613131D01*
X139223265Y-112634423D01*
X139189878Y-112646740D01*
X139048197Y-112676855D01*
X138875269Y-112753848D01*
X138722129Y-112865110D01*
X138595466Y-113005783D01*
X138500820Y-113169715D01*
X138442326Y-113349742D01*
X138422540Y-113538000D01*
X138442326Y-113726257D01*
X138500820Y-113906284D01*
X138595466Y-114070216D01*
X138722129Y-114210889D01*
X138875269Y-114322151D01*
X138901436Y-114333802D01*
X138940198Y-114360944D01*
X138965971Y-114400630D01*
X138975000Y-114447081D01*
X138975000Y-116636173D01*
X138965971Y-116682624D01*
X138940198Y-116722310D01*
X138901436Y-116749452D01*
X138774769Y-116805848D01*
X138621629Y-116917110D01*
X138494966Y-117057783D01*
X138405887Y-117212075D01*
X138360500Y-117257462D01*
X138298500Y-117274075D01*
X138236500Y-117257462D01*
X138191113Y-117212075D01*
X138174500Y-117150075D01*
X138174500Y-113544118D01*
X138176082Y-113537999D01*
X138174500Y-113531882D01*
X138174500Y-111776740D01*
X138188703Y-111719114D01*
X138228060Y-111674690D01*
X138283553Y-111653644D01*
X138342471Y-111660798D01*
X138342624Y-111660856D01*
X138389261Y-111678543D01*
X138514915Y-111693800D01*
X138599084Y-111693800D01*
X138599085Y-111693800D01*
X138724739Y-111678543D01*
X138882729Y-111618625D01*
X139021789Y-111522639D01*
X139133838Y-111396162D01*
X139212362Y-111246546D01*
X139252800Y-111082485D01*
X139252800Y-110913515D01*
X139229640Y-110819552D01*
X139212362Y-110749453D01*
X139133837Y-110599836D01*
X139021790Y-110473361D01*
X138882729Y-110377374D01*
X138724739Y-110317457D01*
X138724738Y-110317456D01*
X138599085Y-110302200D01*
X138514915Y-110302200D01*
X138452088Y-110309828D01*
X138389260Y-110317457D01*
X138231270Y-110377374D01*
X138092209Y-110473361D01*
X137980162Y-110599836D01*
X137901637Y-110749453D01*
X137861200Y-110913515D01*
X137861200Y-111009682D01*
X137847685Y-111065977D01*
X137810085Y-111110000D01*
X137756598Y-111132155D01*
X137698882Y-111127613D01*
X137649519Y-111097363D01*
X137229956Y-110677800D01*
X136509449Y-109957292D01*
X136478707Y-109906382D01*
X136475206Y-109847014D01*
X136499751Y-109792843D01*
X136546695Y-109756331D01*
X136554728Y-109752753D01*
X136560575Y-109750151D01*
X136560575Y-109750150D01*
X136560577Y-109750150D01*
X136713715Y-109638889D01*
X136723704Y-109627795D01*
X136840378Y-109498216D01*
X136842579Y-109494402D01*
X136884257Y-109451242D01*
X136941319Y-109432701D01*
X137000407Y-109443121D01*
X137007199Y-109446145D01*
X137192352Y-109485500D01*
X137192354Y-109485500D01*
X137381646Y-109485500D01*
X137381648Y-109485500D01*
X137514031Y-109457361D01*
X137566803Y-109446144D01*
X137739730Y-109369151D01*
X137799653Y-109325614D01*
X137847981Y-109304387D01*
X137900759Y-109305185D01*
X137948423Y-109327861D01*
X137969737Y-109353281D01*
X137970177Y-109352892D01*
X138092209Y-109490638D01*
X138231270Y-109586625D01*
X138291188Y-109609348D01*
X138389261Y-109646543D01*
X138514915Y-109661800D01*
X138599084Y-109661800D01*
X138599085Y-109661800D01*
X138724739Y-109646543D01*
X138882729Y-109586625D01*
X139021789Y-109490639D01*
X139133838Y-109364162D01*
X139212362Y-109214546D01*
X139252800Y-109050485D01*
X139252800Y-108881515D01*
X139243466Y-108843646D01*
X139212362Y-108717453D01*
X139173100Y-108642646D01*
X139133838Y-108567838D01*
X139054785Y-108478606D01*
X139025109Y-108415655D01*
X139034020Y-108346630D01*
X139078713Y-108293278D01*
X139105137Y-108275622D01*
X139105140Y-108275618D01*
X139108784Y-108273184D01*
X139116195Y-108262090D01*
X139131612Y-108243304D01*
X139714727Y-107660188D01*
X139755954Y-107632901D01*
X139804570Y-107623891D01*
X139852841Y-107634593D01*
X139940104Y-107673446D01*
X139939525Y-107674746D01*
X139986739Y-107699850D01*
X140020919Y-107759050D01*
X140018533Y-107827367D01*
X139957326Y-108015742D01*
X139942869Y-108153293D01*
X139937540Y-108204000D01*
X139942185Y-108248197D01*
X139957326Y-108392257D01*
X140015820Y-108572284D01*
X140110466Y-108736216D01*
X140237129Y-108876889D01*
X140390269Y-108988151D01*
X140563197Y-109065144D01*
X140748352Y-109104500D01*
X140748354Y-109104500D01*
X140937646Y-109104500D01*
X140937648Y-109104500D01*
X141061084Y-109078262D01*
X141122803Y-109065144D01*
X141295730Y-108988151D01*
X141436770Y-108885680D01*
X141448870Y-108876889D01*
X141490319Y-108830856D01*
X141575533Y-108736216D01*
X141670179Y-108572284D01*
X141728674Y-108392256D01*
X141748460Y-108204000D01*
X141728674Y-108015744D01*
X141670179Y-107835716D01*
X141670175Y-107835709D01*
X141667723Y-107828162D01*
X141662823Y-107772853D01*
X141682551Y-107720954D01*
X141717734Y-107668301D01*
X141732500Y-107594067D01*
X141737486Y-107569000D01*
X141734882Y-107555907D01*
X141732500Y-107531718D01*
X141732500Y-106336277D01*
X141734882Y-106312088D01*
X141737485Y-106299000D01*
X141734882Y-106285912D01*
X141734880Y-106285900D01*
X141731140Y-106267099D01*
X141726771Y-106245133D01*
X141717735Y-106199701D01*
X141717734Y-106199699D01*
X141707723Y-106184716D01*
X141675684Y-106136766D01*
X141675681Y-106136763D01*
X141668898Y-106126611D01*
X141668898Y-106126610D01*
X141668896Y-106126608D01*
X141661484Y-106115516D01*
X141650390Y-106108103D01*
X141631600Y-106092682D01*
X140484317Y-104945399D01*
X140468896Y-104926608D01*
X140461484Y-104915516D01*
X140450390Y-104908103D01*
X140450388Y-104908101D01*
X140440235Y-104901317D01*
X140440234Y-104901316D01*
X140377301Y-104859266D01*
X140278000Y-104839514D01*
X140277999Y-104839514D01*
X140264907Y-104842118D01*
X140240718Y-104844500D01*
X137508277Y-104844500D01*
X137484088Y-104842118D01*
X137471000Y-104839514D01*
X137457912Y-104842118D01*
X137457910Y-104842118D01*
X137445934Y-104844500D01*
X137445933Y-104844500D01*
X137401650Y-104853307D01*
X137366550Y-104860289D01*
X137356404Y-104869485D01*
X137308766Y-104901316D01*
X137308762Y-104901319D01*
X137308760Y-104901320D01*
X137287515Y-104915515D01*
X137280101Y-104926611D01*
X137264682Y-104945398D01*
X136136398Y-106073682D01*
X136117611Y-106089101D01*
X136106515Y-106096515D01*
X136094192Y-106114956D01*
X136094192Y-106114959D01*
X136092319Y-106117762D01*
X136092316Y-106117766D01*
X136079621Y-106136766D01*
X136050266Y-106180698D01*
X136050265Y-106180699D01*
X136050266Y-106180699D01*
X136031310Y-106276001D01*
X136030514Y-106280001D01*
X136033118Y-106293093D01*
X136035500Y-106317282D01*
X136035500Y-106631220D01*
X136026061Y-106678673D01*
X135999181Y-106718901D01*
X135565681Y-107152401D01*
X135516318Y-107182651D01*
X135458602Y-107187193D01*
X135405115Y-107165038D01*
X135367515Y-107121015D01*
X135354000Y-107064720D01*
X135354000Y-106422000D01*
X133854000Y-106422000D01*
X133854000Y-107922000D01*
X134499548Y-107922000D01*
X134555843Y-107935515D01*
X134599866Y-107973115D01*
X134622021Y-108026602D01*
X134617479Y-108084318D01*
X134587229Y-108133681D01*
X130149676Y-112571233D01*
X130130893Y-112586648D01*
X130119957Y-112593957D01*
X130119956Y-112593958D01*
X130070933Y-112667326D01*
X130058369Y-112682634D01*
X130056810Y-112714373D01*
X130044551Y-112775997D01*
X130047117Y-112788893D01*
X130049500Y-112813087D01*
X130049500Y-113956673D01*
X130040471Y-114003124D01*
X130014698Y-114042810D01*
X129975936Y-114069952D01*
X129849269Y-114126348D01*
X129735385Y-114209090D01*
X129672229Y-114232390D01*
X129606205Y-114219257D01*
X129556773Y-114173562D01*
X129538500Y-114108772D01*
X129538500Y-110002667D01*
X129540883Y-109978474D01*
X129556448Y-109900227D01*
X129555909Y-109897516D01*
X129553882Y-109887331D01*
X129551500Y-109863140D01*
X129551500Y-108482928D01*
X129553883Y-108458734D01*
X129556448Y-108445839D01*
X129540883Y-108367595D01*
X129538500Y-108343402D01*
X129538500Y-108046500D01*
X129555113Y-107984500D01*
X129600500Y-107939113D01*
X129662500Y-107922500D01*
X131345828Y-107922499D01*
X131345872Y-107922499D01*
X131405483Y-107916091D01*
X131540331Y-107865796D01*
X131655546Y-107779546D01*
X131727046Y-107684033D01*
X131770807Y-107647461D01*
X131826312Y-107634345D01*
X131881817Y-107647461D01*
X131925579Y-107684035D01*
X131996809Y-107779187D01*
X132111910Y-107865352D01*
X132246624Y-107915597D01*
X132306176Y-107922000D01*
X133354000Y-107922000D01*
X133354000Y-104422000D01*
X133854000Y-104422000D01*
X133854000Y-105922000D01*
X135354000Y-105922000D01*
X135354000Y-104874176D01*
X135347597Y-104814624D01*
X135297352Y-104679910D01*
X135211188Y-104564811D01*
X135096089Y-104478647D01*
X134961375Y-104428402D01*
X134901824Y-104422000D01*
X133854000Y-104422000D01*
X133354000Y-104422000D01*
X132306176Y-104422000D01*
X132246624Y-104428402D01*
X132111910Y-104478647D01*
X131996810Y-104564811D01*
X131925579Y-104659965D01*
X131881816Y-104696538D01*
X131826312Y-104709654D01*
X131770808Y-104696538D01*
X131727046Y-104659966D01*
X131655546Y-104564454D01*
X131540331Y-104478204D01*
X131405483Y-104427909D01*
X131345873Y-104421500D01*
X131345869Y-104421500D01*
X128750130Y-104421500D01*
X128690515Y-104427909D01*
X128555669Y-104478204D01*
X128440453Y-104564454D01*
X128369267Y-104659548D01*
X128325504Y-104696121D01*
X128270000Y-104709237D01*
X128214496Y-104696121D01*
X128170733Y-104659548D01*
X128099546Y-104564454D01*
X127984331Y-104478204D01*
X127849483Y-104427909D01*
X127789873Y-104421500D01*
X127789869Y-104421500D01*
X125194130Y-104421500D01*
X125134515Y-104427909D01*
X124999669Y-104478204D01*
X124884454Y-104564454D01*
X124798204Y-104679668D01*
X124752117Y-104803233D01*
X124747909Y-104814517D01*
X124744942Y-104842118D01*
X124741500Y-104874130D01*
X124741500Y-107469869D01*
X124747909Y-107529484D01*
X124771997Y-107594067D01*
X124798204Y-107664331D01*
X124884454Y-107779546D01*
X124999669Y-107865796D01*
X125134517Y-107916091D01*
X125194127Y-107922500D01*
X126183481Y-107922499D01*
X126239776Y-107936014D01*
X126283799Y-107973613D01*
X126305954Y-108027101D01*
X126301412Y-108084817D01*
X126241326Y-108269742D01*
X126224288Y-108431853D01*
X126221540Y-108458000D01*
X126222876Y-108470715D01*
X126241326Y-108646259D01*
X126301305Y-108830856D01*
X126303948Y-108898121D01*
X126271055Y-108956854D01*
X125958676Y-109269233D01*
X125939893Y-109284648D01*
X125928957Y-109291957D01*
X125928956Y-109291958D01*
X125879933Y-109365326D01*
X125867369Y-109380634D01*
X125865810Y-109412373D01*
X125853551Y-109473997D01*
X125856117Y-109486893D01*
X125858500Y-109511087D01*
X125858500Y-115378173D01*
X125849471Y-115424624D01*
X125823698Y-115464310D01*
X125784936Y-115491452D01*
X125658269Y-115547848D01*
X125505129Y-115659110D01*
X125378466Y-115799783D01*
X125283820Y-115963715D01*
X125225326Y-116143742D01*
X125216227Y-116230319D01*
X125205540Y-116332000D01*
X125210632Y-116380452D01*
X125225326Y-116520257D01*
X125283820Y-116700284D01*
X125378466Y-116864216D01*
X125505129Y-117004889D01*
X125658269Y-117116151D01*
X125831197Y-117193144D01*
X126016352Y-117232500D01*
X126016354Y-117232500D01*
X126205646Y-117232500D01*
X126205648Y-117232500D01*
X126329084Y-117206262D01*
X126390803Y-117193144D01*
X126563730Y-117116151D01*
X126644067Y-117057783D01*
X126716870Y-117004889D01*
X126795956Y-116917056D01*
X126843533Y-116864216D01*
X126938179Y-116700284D01*
X126996674Y-116520256D01*
X127016460Y-116332000D01*
X126996674Y-116143744D01*
X126950198Y-116000706D01*
X126938179Y-115963715D01*
X126843533Y-115799783D01*
X126716870Y-115659110D01*
X126563730Y-115547848D01*
X126437064Y-115491452D01*
X126398302Y-115464310D01*
X126372529Y-115424624D01*
X126363500Y-115378173D01*
X126363500Y-109629951D01*
X126372939Y-109582498D01*
X126399819Y-109542270D01*
X126631768Y-109310320D01*
X126672998Y-109283030D01*
X126721614Y-109274020D01*
X126769884Y-109284721D01*
X126807591Y-109301510D01*
X126847199Y-109319145D01*
X127032352Y-109358500D01*
X127032354Y-109358500D01*
X127221646Y-109358500D01*
X127221648Y-109358500D01*
X127365792Y-109327861D01*
X127406803Y-109319144D01*
X127579730Y-109242151D01*
X127621326Y-109211930D01*
X127732870Y-109130889D01*
X127859533Y-108990216D01*
X127954179Y-108826284D01*
X127969951Y-108777742D01*
X128012674Y-108646256D01*
X128032460Y-108458000D01*
X128023438Y-108372166D01*
X128031951Y-108312358D01*
X128067718Y-108263667D01*
X128122249Y-108237656D01*
X128182599Y-108240502D01*
X128234440Y-108271529D01*
X128633181Y-108670270D01*
X128660061Y-108710498D01*
X128669500Y-108757951D01*
X128669500Y-109638521D01*
X128667118Y-109662705D01*
X128664598Y-109675377D01*
X128664598Y-109675379D01*
X128647551Y-109761067D01*
X128650117Y-109773961D01*
X128652500Y-109798155D01*
X128652500Y-120032411D01*
X128650117Y-120056605D01*
X128647551Y-120069498D01*
X128661849Y-120141370D01*
X128663502Y-120149678D01*
X128667150Y-120168019D01*
X128722957Y-120251541D01*
X128736661Y-120272050D01*
X128735912Y-120272549D01*
X128739592Y-120276380D01*
X128756982Y-120326577D01*
X128751770Y-120379446D01*
X128694326Y-120556240D01*
X128674540Y-120744498D01*
X128694326Y-120932755D01*
X128752820Y-121112782D01*
X128847466Y-121276714D01*
X128974129Y-121417387D01*
X129127267Y-121528648D01*
X129141626Y-121535041D01*
X129188570Y-121571553D01*
X129213115Y-121625724D01*
X129209613Y-121685092D01*
X129178872Y-121736002D01*
X129145121Y-121769753D01*
X129103891Y-121797043D01*
X129055275Y-121806053D01*
X129007004Y-121795351D01*
X128929693Y-121760929D01*
X128744539Y-121721574D01*
X128744537Y-121721574D01*
X128555245Y-121721574D01*
X128555243Y-121721574D01*
X128370087Y-121760929D01*
X128352788Y-121768631D01*
X128286852Y-121778377D01*
X128225395Y-121752577D01*
X128186175Y-121698684D01*
X128185797Y-121697671D01*
X128185795Y-121697668D01*
X128099546Y-121582454D01*
X127984331Y-121496204D01*
X127849483Y-121445909D01*
X127789873Y-121439500D01*
X127789869Y-121439500D01*
X125194130Y-121439500D01*
X125134515Y-121445909D01*
X124999669Y-121496204D01*
X124884454Y-121582454D01*
X124798204Y-121697668D01*
X124752258Y-121820855D01*
X124747909Y-121832517D01*
X124741672Y-121890532D01*
X124741500Y-121892130D01*
X124741500Y-124487869D01*
X123607602Y-124487869D01*
X123607602Y-105939534D01*
X123607797Y-105932580D01*
X123610744Y-105880112D01*
X123613866Y-105824541D01*
X123624379Y-105651263D01*
X123625897Y-105638046D01*
X123647653Y-105510008D01*
X123647841Y-105508943D01*
X123675261Y-105359333D01*
X123678063Y-105347418D01*
X123715522Y-105217397D01*
X123716223Y-105215062D01*
X123759744Y-105075401D01*
X123763550Y-105064887D01*
X123816190Y-104937805D01*
X123817631Y-104934468D01*
X123876714Y-104803192D01*
X123881223Y-104794180D01*
X123948333Y-104672754D01*
X123950662Y-104668727D01*
X124024567Y-104546474D01*
X124029505Y-104538943D01*
X124110114Y-104425335D01*
X124113585Y-104420681D01*
X124201322Y-104308692D01*
X124206427Y-104302594D01*
X124299404Y-104198551D01*
X124304123Y-104193559D01*
X124404634Y-104093046D01*
X124409583Y-104088366D01*
X124513678Y-103995339D01*
X124519755Y-103990252D01*
X124631773Y-103902490D01*
X124636373Y-103899059D01*
X124750006Y-103818430D01*
X124757516Y-103813504D01*
X124879801Y-103739577D01*
X124883799Y-103737265D01*
X125005234Y-103670147D01*
X125014271Y-103665626D01*
X125145536Y-103606545D01*
X125148798Y-103605135D01*
X125275945Y-103552465D01*
X125286449Y-103548662D01*
X125426069Y-103505151D01*
X125428424Y-103504444D01*
X125558472Y-103466973D01*
X125570422Y-103464165D01*
X125719950Y-103436757D01*
X125721075Y-103436559D01*
X125849062Y-103414809D01*
X125862281Y-103413289D01*
X126042904Y-103402356D01*
X126137368Y-103397048D01*
X126142747Y-103396746D01*
X126149703Y-103396551D01*
X156079521Y-103396551D01*
X156086471Y-103396745D01*
G37*
%TD.AperFunction*%
%TD*%
%TA.AperFunction,Conductor*%
%TO.N,/power/VSENSE*%
G36*
X146501594Y-127523264D02*
G01*
X146546523Y-127565297D01*
X146565716Y-127623751D01*
X146603569Y-128191532D01*
X146803183Y-131185752D01*
X146789490Y-131251175D01*
X146743825Y-131299985D01*
X146679458Y-131318000D01*
X144159630Y-131318000D01*
X144092947Y-131298544D01*
X144047190Y-131246281D01*
X144036718Y-131177612D01*
X144207522Y-129896584D01*
X144224216Y-129848990D01*
X144258483Y-129811982D01*
X144304648Y-129791683D01*
X144424803Y-129766144D01*
X144597730Y-129689151D01*
X144750871Y-129577888D01*
X144877533Y-129437216D01*
X144972179Y-129273284D01*
X145030674Y-129093256D01*
X145050460Y-128905000D01*
X145030674Y-128716744D01*
X144972179Y-128536716D01*
X144972179Y-128536715D01*
X144903176Y-128417199D01*
X144887242Y-128368160D01*
X144892631Y-128316883D01*
X144933361Y-128191533D01*
X144953147Y-128003277D01*
X144933361Y-127815021D01*
X144886344Y-127670318D01*
X144881802Y-127612602D01*
X144903957Y-127559115D01*
X144947980Y-127521515D01*
X145004275Y-127508000D01*
X146441992Y-127508000D01*
X146501594Y-127523264D01*
G37*
%TD.AperFunction*%
%TD*%
M02*
