%TF.GenerationSoftware,KiCad,Pcbnew,7.0.1*%
%TF.CreationDate,2024-08-13T13:22:24+02:00*%
%TF.ProjectId,wpt_receiver,7770745f-7265-4636-9569-7665722e6b69,rev?*%
%TF.SameCoordinates,Original*%
%TF.FileFunction,Paste,Top*%
%TF.FilePolarity,Positive*%
%FSLAX46Y46*%
G04 Gerber Fmt 4.6, Leading zero omitted, Abs format (unit mm)*
G04 Created by KiCad (PCBNEW 7.0.1) date 2024-08-13 13:22:24*
%MOMM*%
%LPD*%
G01*
G04 APERTURE LIST*
G04 Aperture macros list*
%AMRoundRect*
0 Rectangle with rounded corners*
0 $1 Rounding radius*
0 $2 $3 $4 $5 $6 $7 $8 $9 X,Y pos of 4 corners*
0 Add a 4 corners polygon primitive as box body*
4,1,4,$2,$3,$4,$5,$6,$7,$8,$9,$2,$3,0*
0 Add four circle primitives for the rounded corners*
1,1,$1+$1,$2,$3*
1,1,$1+$1,$4,$5*
1,1,$1+$1,$6,$7*
1,1,$1+$1,$8,$9*
0 Add four rect primitives between the rounded corners*
20,1,$1+$1,$2,$3,$4,$5,0*
20,1,$1+$1,$4,$5,$6,$7,0*
20,1,$1+$1,$6,$7,$8,$9,0*
20,1,$1+$1,$8,$9,$2,$3,0*%
G04 Aperture macros list end*
%ADD10RoundRect,0.237500X-0.237500X0.300000X-0.237500X-0.300000X0.237500X-0.300000X0.237500X0.300000X0*%
%ADD11RoundRect,0.237500X-0.250000X-0.237500X0.250000X-0.237500X0.250000X0.237500X-0.250000X0.237500X0*%
%ADD12RoundRect,0.237500X0.237500X-0.300000X0.237500X0.300000X-0.237500X0.300000X-0.237500X-0.300000X0*%
%ADD13RoundRect,0.237500X-0.300000X-0.237500X0.300000X-0.237500X0.300000X0.237500X-0.300000X0.237500X0*%
%ADD14RoundRect,0.150000X0.587500X0.150000X-0.587500X0.150000X-0.587500X-0.150000X0.587500X-0.150000X0*%
%ADD15RoundRect,0.237500X0.300000X0.237500X-0.300000X0.237500X-0.300000X-0.237500X0.300000X-0.237500X0*%
%ADD16RoundRect,0.237500X-0.237500X0.250000X-0.237500X-0.250000X0.237500X-0.250000X0.237500X0.250000X0*%
%ADD17RoundRect,0.150000X-0.150000X-0.200000X0.150000X-0.200000X0.150000X0.200000X-0.150000X0.200000X0*%
%ADD18RoundRect,0.250000X0.625000X-0.400000X0.625000X0.400000X-0.625000X0.400000X-0.625000X-0.400000X0*%
%ADD19R,0.431800X0.431800*%
%ADD20RoundRect,0.237500X0.237500X-0.250000X0.237500X0.250000X-0.237500X0.250000X-0.237500X-0.250000X0*%
%ADD21RoundRect,0.232500X-0.232500X-0.232500X0.232500X-0.232500X0.232500X0.232500X-0.232500X0.232500X0*%
%ADD22RoundRect,0.062500X-0.375000X-0.062500X0.375000X-0.062500X0.375000X0.062500X-0.375000X0.062500X0*%
%ADD23RoundRect,0.062500X-0.062500X-0.375000X0.062500X-0.375000X0.062500X0.375000X-0.062500X0.375000X0*%
%ADD24R,3.700000X0.980000*%
%ADD25RoundRect,0.237500X0.250000X0.237500X-0.250000X0.237500X-0.250000X-0.237500X0.250000X-0.237500X0*%
%ADD26RoundRect,0.250000X-0.250000X0.250000X-0.250000X-0.250000X0.250000X-0.250000X0.250000X0.250000X0*%
%ADD27R,0.240000X0.599999*%
%ADD28R,0.599999X0.240000*%
%ADD29R,0.700001X0.850001*%
%ADD30RoundRect,0.250000X-0.325000X-0.450000X0.325000X-0.450000X0.325000X0.450000X-0.325000X0.450000X0*%
%ADD31R,0.660400X0.254000*%
%ADD32R,1.092200X2.743200*%
%ADD33R,3.400000X0.980000*%
%ADD34RoundRect,0.250000X-0.337500X-0.475000X0.337500X-0.475000X0.337500X0.475000X-0.337500X0.475000X0*%
%ADD35RoundRect,0.250000X-0.475000X0.337500X-0.475000X-0.337500X0.475000X-0.337500X0.475000X0.337500X0*%
%ADD36R,1.900000X1.100000*%
%ADD37R,0.812800X0.254000*%
%ADD38R,0.254000X0.812800*%
%ADD39R,1.828800X1.828800*%
%ADD40R,0.900000X1.000000*%
G04 APERTURE END LIST*
%TO.C,U11*%
G36*
X152546106Y-123686108D02*
G01*
X151745891Y-123686108D01*
X151745891Y-123455890D01*
X152546106Y-123455890D01*
X152546106Y-123686108D01*
G37*
G36*
X152546106Y-123186106D02*
G01*
X151745891Y-123186106D01*
X151745891Y-122955891D01*
X152546106Y-122955891D01*
X152546106Y-123186106D01*
G37*
G36*
X152546106Y-122686107D02*
G01*
X151745891Y-122686107D01*
X151745891Y-122455892D01*
X152546106Y-122455892D01*
X152546106Y-122686107D01*
G37*
G36*
X152546106Y-122186108D02*
G01*
X151745891Y-122186108D01*
X151745891Y-121955890D01*
X152546106Y-121955890D01*
X152546106Y-122186108D01*
G37*
G36*
X151536296Y-124696106D02*
G01*
X151306080Y-124696106D01*
X151306080Y-123895891D01*
X151536296Y-123895891D01*
X151536296Y-124696106D01*
G37*
G36*
X151536296Y-121746107D02*
G01*
X151306080Y-121746107D01*
X151306080Y-120945892D01*
X151536296Y-120945892D01*
X151536296Y-121746107D01*
G37*
G36*
X151036170Y-124696106D02*
G01*
X150805954Y-124696106D01*
X150805954Y-123895891D01*
X151036170Y-123895891D01*
X151036170Y-124696106D01*
G37*
G36*
X151036170Y-121746107D02*
G01*
X150805954Y-121746107D01*
X150805954Y-120945892D01*
X151036170Y-120945892D01*
X151036170Y-121746107D01*
G37*
G36*
X150536044Y-124696106D02*
G01*
X150305828Y-124696106D01*
X150305828Y-123895891D01*
X150536044Y-123895891D01*
X150536044Y-124696106D01*
G37*
G36*
X150536044Y-121746107D02*
G01*
X150305828Y-121746107D01*
X150305828Y-120945892D01*
X150536044Y-120945892D01*
X150536044Y-121746107D01*
G37*
G36*
X150035918Y-124696106D02*
G01*
X149805702Y-124696106D01*
X149805702Y-123895891D01*
X150035918Y-123895891D01*
X150035918Y-124696106D01*
G37*
G36*
X150035918Y-121746107D02*
G01*
X149805702Y-121746107D01*
X149805702Y-120945892D01*
X150035918Y-120945892D01*
X150035918Y-121746107D01*
G37*
G36*
X149596107Y-123686108D02*
G01*
X148795892Y-123686108D01*
X148795892Y-123455890D01*
X149596107Y-123455890D01*
X149596107Y-123686108D01*
G37*
G36*
X149596107Y-123186106D02*
G01*
X148795892Y-123186106D01*
X148795892Y-122955891D01*
X149596107Y-122955891D01*
X149596107Y-123186106D01*
G37*
G36*
X149596107Y-122686107D02*
G01*
X148795892Y-122686107D01*
X148795892Y-122455892D01*
X149596107Y-122455892D01*
X149596107Y-122686107D01*
G37*
G36*
X149596107Y-122186108D02*
G01*
X148795892Y-122186108D01*
X148795892Y-121955890D01*
X149596107Y-121955890D01*
X149596107Y-122186108D01*
G37*
G36*
X151446069Y-123596069D02*
G01*
X151164699Y-123596069D01*
X151164699Y-123456120D01*
X151306120Y-123314699D01*
X151446069Y-123314699D01*
X151446069Y-123596069D01*
G37*
G36*
X151446069Y-122327299D02*
G01*
X151306120Y-122327299D01*
X151164699Y-122185878D01*
X151164699Y-122045929D01*
X151446069Y-122045929D01*
X151446069Y-122327299D01*
G37*
G36*
X150177299Y-123456120D02*
G01*
X150177299Y-123596069D01*
X149895929Y-123596069D01*
X149895929Y-123314699D01*
X150035878Y-123314699D01*
X150177299Y-123456120D01*
G37*
G36*
X150177299Y-122185878D02*
G01*
X150035878Y-122327299D01*
X149895929Y-122327299D01*
X149895929Y-122045929D01*
X150177299Y-122045929D01*
X150177299Y-122185878D01*
G37*
G36*
X151446069Y-123114699D02*
G01*
X151306120Y-123114699D01*
X151164699Y-122973278D01*
X151164699Y-122668720D01*
X151306120Y-122527299D01*
X151446069Y-122527299D01*
X151446069Y-123114699D01*
G37*
G36*
X150964699Y-123456120D02*
G01*
X150964699Y-123596069D01*
X150377299Y-123596069D01*
X150377299Y-123456120D01*
X150518720Y-123314699D01*
X150823278Y-123314699D01*
X150964699Y-123456120D01*
G37*
G36*
X150964699Y-122185878D02*
G01*
X150823278Y-122327299D01*
X150518720Y-122327299D01*
X150377299Y-122185878D01*
X150377299Y-122045929D01*
X150964699Y-122045929D01*
X150964699Y-122185878D01*
G37*
G36*
X150177299Y-122668720D02*
G01*
X150177299Y-122973278D01*
X150035878Y-123114699D01*
X149895929Y-123114699D01*
X149895929Y-122527299D01*
X150035878Y-122527299D01*
X150177299Y-122668720D01*
G37*
G36*
X150964699Y-122668720D02*
G01*
X150964699Y-122973278D01*
X150823278Y-123114699D01*
X150518720Y-123114699D01*
X150377299Y-122973278D01*
X150377299Y-122668720D01*
X150518720Y-122527299D01*
X150823278Y-122527299D01*
X150964699Y-122668720D01*
G37*
%TO.C,U8*%
G36*
X150322755Y-132379961D02*
G01*
X150332135Y-132382806D01*
X150340779Y-132387426D01*
X150348355Y-132393644D01*
X150354573Y-132401221D01*
X150359194Y-132409865D01*
X150362038Y-132419245D01*
X150362998Y-132428998D01*
X150362998Y-133049000D01*
X150362038Y-133058756D01*
X150359194Y-133068136D01*
X150354573Y-133076780D01*
X150348355Y-133084356D01*
X150340779Y-133090574D01*
X150332135Y-133095195D01*
X150322755Y-133098039D01*
X150312999Y-133099000D01*
X150163001Y-133099000D01*
X150153245Y-133098039D01*
X150143865Y-133095195D01*
X150135221Y-133090574D01*
X150127645Y-133084356D01*
X150121427Y-133076780D01*
X150116806Y-133068136D01*
X150113962Y-133058756D01*
X150113002Y-133049000D01*
X150113002Y-132428998D01*
X150113962Y-132419245D01*
X150116806Y-132409865D01*
X150121427Y-132401221D01*
X150127645Y-132393644D01*
X150135221Y-132387426D01*
X150143865Y-132382806D01*
X150153245Y-132379961D01*
X150163001Y-132378998D01*
X150312999Y-132378998D01*
X150322755Y-132379961D01*
G37*
G36*
X149822756Y-132204460D02*
G01*
X149832136Y-132207305D01*
X149840780Y-132211927D01*
X149848356Y-132218145D01*
X149854574Y-132225722D01*
X149859195Y-132234366D01*
X149862039Y-132243746D01*
X149863002Y-132253500D01*
X149863002Y-132728500D01*
X149862039Y-132738254D01*
X149859195Y-132747634D01*
X149854574Y-132756277D01*
X149848356Y-132763854D01*
X149840780Y-132770072D01*
X149832136Y-132774695D01*
X149822756Y-132777540D01*
X149813002Y-132778500D01*
X149663002Y-132778500D01*
X149653246Y-132777540D01*
X149643866Y-132774695D01*
X149635222Y-132770072D01*
X149627646Y-132763854D01*
X149621428Y-132756277D01*
X149616807Y-132747634D01*
X149613963Y-132738254D01*
X149613003Y-132728500D01*
X149613003Y-132253500D01*
X149613963Y-132243746D01*
X149616807Y-132234366D01*
X149621428Y-132225722D01*
X149627646Y-132218145D01*
X149635222Y-132211927D01*
X149643866Y-132207305D01*
X149653246Y-132204460D01*
X149663002Y-132203500D01*
X149813002Y-132203500D01*
X149822756Y-132204460D01*
G37*
G36*
X150822754Y-132204460D02*
G01*
X150832134Y-132207305D01*
X150840778Y-132211927D01*
X150848354Y-132218145D01*
X150854572Y-132225722D01*
X150859193Y-132234366D01*
X150862037Y-132243746D01*
X150862997Y-132253500D01*
X150862997Y-132728500D01*
X150862037Y-132738254D01*
X150859193Y-132747634D01*
X150854572Y-132756277D01*
X150848354Y-132763854D01*
X150840778Y-132770072D01*
X150832134Y-132774695D01*
X150822754Y-132777540D01*
X150812998Y-132778500D01*
X150662998Y-132778500D01*
X150653244Y-132777540D01*
X150643864Y-132774695D01*
X150635220Y-132770072D01*
X150627644Y-132763854D01*
X150621426Y-132756277D01*
X150616805Y-132747634D01*
X150613961Y-132738254D01*
X150612998Y-132728500D01*
X150612998Y-132253500D01*
X150613961Y-132243746D01*
X150616805Y-132234366D01*
X150621426Y-132225722D01*
X150627644Y-132218145D01*
X150635220Y-132211927D01*
X150643864Y-132207305D01*
X150653244Y-132204460D01*
X150662998Y-132203500D01*
X150812998Y-132203500D01*
X150822754Y-132204460D01*
G37*
G36*
X149097756Y-131979959D02*
G01*
X149107136Y-131982804D01*
X149115780Y-131987427D01*
X149123357Y-131993645D01*
X149129574Y-132001222D01*
X149134195Y-132009865D01*
X149137040Y-132019246D01*
X149138000Y-132028999D01*
X149138000Y-132679000D01*
X149137040Y-132688754D01*
X149134195Y-132698134D01*
X149129574Y-132706778D01*
X149123357Y-132714355D01*
X149115780Y-132720573D01*
X149107136Y-132725195D01*
X149097756Y-132728040D01*
X149088000Y-132729000D01*
X148938000Y-132729000D01*
X148928246Y-132728040D01*
X148918866Y-132725195D01*
X148910223Y-132720573D01*
X148902646Y-132714355D01*
X148896428Y-132706778D01*
X148891808Y-132698134D01*
X148888963Y-132688754D01*
X148888000Y-132679000D01*
X148888000Y-132028999D01*
X148888963Y-132019246D01*
X148891808Y-132009865D01*
X148896428Y-132001222D01*
X148902646Y-131993645D01*
X148910223Y-131987427D01*
X148918866Y-131982804D01*
X148928246Y-131979959D01*
X148938000Y-131978999D01*
X149088000Y-131978999D01*
X149097756Y-131979959D01*
G37*
G36*
X151547754Y-131979959D02*
G01*
X151557134Y-131982804D01*
X151565777Y-131987427D01*
X151573354Y-131993645D01*
X151579572Y-132001222D01*
X151584192Y-132009865D01*
X151587037Y-132019246D01*
X151588000Y-132028999D01*
X151588000Y-132679000D01*
X151587037Y-132688754D01*
X151584192Y-132698134D01*
X151579572Y-132706778D01*
X151573354Y-132714355D01*
X151565777Y-132720573D01*
X151557134Y-132725195D01*
X151547754Y-132728040D01*
X151538000Y-132729000D01*
X151388000Y-132729000D01*
X151378244Y-132728040D01*
X151368864Y-132725195D01*
X151360220Y-132720573D01*
X151352643Y-132714355D01*
X151346426Y-132706778D01*
X151341805Y-132698134D01*
X151338960Y-132688754D01*
X151338000Y-132679000D01*
X151338000Y-132028999D01*
X151338960Y-132019246D01*
X151341805Y-132009865D01*
X151346426Y-132001222D01*
X151352643Y-131993645D01*
X151360220Y-131987427D01*
X151368864Y-131982804D01*
X151378244Y-131979959D01*
X151388000Y-131978999D01*
X151538000Y-131978999D01*
X151547754Y-131979959D01*
G37*
G36*
X151897753Y-132479963D02*
G01*
X151907133Y-132482808D01*
X151915777Y-132487429D01*
X151923354Y-132493646D01*
X151929571Y-132501223D01*
X151934194Y-132509867D01*
X151937039Y-132519247D01*
X151937999Y-132529001D01*
X151937999Y-132679000D01*
X151937039Y-132688757D01*
X151934194Y-132698137D01*
X151929571Y-132706780D01*
X151923354Y-132714357D01*
X151915777Y-132720575D01*
X151907133Y-132725195D01*
X151897753Y-132728040D01*
X151887999Y-132729000D01*
X151388000Y-132729000D01*
X151378247Y-132728040D01*
X151368866Y-132725195D01*
X151360223Y-132720575D01*
X151352646Y-132714357D01*
X151346428Y-132706780D01*
X151341805Y-132698137D01*
X151338960Y-132688757D01*
X151338000Y-132679000D01*
X151338000Y-132529001D01*
X151338960Y-132519247D01*
X151341805Y-132509867D01*
X151346428Y-132501223D01*
X151352646Y-132493646D01*
X151360223Y-132487429D01*
X151368866Y-132482808D01*
X151378247Y-132479963D01*
X151388000Y-132479001D01*
X151887999Y-132479001D01*
X151897753Y-132479963D01*
G37*
G36*
X149097753Y-132479963D02*
G01*
X149107134Y-132482808D01*
X149115777Y-132487429D01*
X149123354Y-132493646D01*
X149129572Y-132501223D01*
X149134195Y-132509867D01*
X149137040Y-132519247D01*
X149138000Y-132529001D01*
X149138000Y-132679000D01*
X149137040Y-132688757D01*
X149134195Y-132698137D01*
X149129572Y-132706780D01*
X149123354Y-132714357D01*
X149115777Y-132720575D01*
X149107134Y-132725195D01*
X149097753Y-132728040D01*
X149088000Y-132729000D01*
X148588001Y-132729000D01*
X148578247Y-132728040D01*
X148568867Y-132725195D01*
X148560223Y-132720575D01*
X148552646Y-132714357D01*
X148546429Y-132706780D01*
X148541806Y-132698137D01*
X148538961Y-132688757D01*
X148538001Y-132679000D01*
X148538001Y-132529001D01*
X148538961Y-132519247D01*
X148541806Y-132509867D01*
X148546429Y-132501223D01*
X148552646Y-132493646D01*
X148560223Y-132487429D01*
X148568867Y-132482808D01*
X148578247Y-132479963D01*
X148588001Y-132479001D01*
X149088000Y-132479001D01*
X149097753Y-132479963D01*
G37*
G36*
X150322755Y-131459960D02*
G01*
X150332135Y-131462805D01*
X150340779Y-131467425D01*
X150348355Y-131473643D01*
X150354573Y-131481220D01*
X150359194Y-131489864D01*
X150362038Y-131499244D01*
X150362998Y-131508998D01*
X150362998Y-132128999D01*
X150362038Y-132138755D01*
X150359194Y-132148135D01*
X150354573Y-132156779D01*
X150348355Y-132164356D01*
X150340779Y-132170574D01*
X150332135Y-132175194D01*
X150322755Y-132178039D01*
X150312999Y-132178999D01*
X150163001Y-132178999D01*
X150153245Y-132178039D01*
X150143865Y-132175194D01*
X150135221Y-132170574D01*
X150127645Y-132164356D01*
X150121427Y-132156779D01*
X150116806Y-132148135D01*
X150113962Y-132138755D01*
X150113002Y-132128999D01*
X150113002Y-131508998D01*
X150113962Y-131499244D01*
X150116806Y-131489864D01*
X150121427Y-131481220D01*
X150127645Y-131473643D01*
X150135221Y-131467425D01*
X150143865Y-131462805D01*
X150153245Y-131459960D01*
X150163001Y-131458998D01*
X150312999Y-131458998D01*
X150322755Y-131459960D01*
G37*
G36*
X151897753Y-131979959D02*
G01*
X151907133Y-131982804D01*
X151915777Y-131987424D01*
X151923354Y-131993642D01*
X151929571Y-132001219D01*
X151934194Y-132009863D01*
X151937039Y-132019243D01*
X151937999Y-132028999D01*
X151937999Y-132178999D01*
X151937039Y-132188752D01*
X151934194Y-132198133D01*
X151929571Y-132206776D01*
X151923354Y-132214353D01*
X151915777Y-132220571D01*
X151907133Y-132225191D01*
X151897753Y-132228036D01*
X151887999Y-132228999D01*
X151388000Y-132228999D01*
X151378247Y-132228036D01*
X151368866Y-132225191D01*
X151360223Y-132220571D01*
X151352646Y-132214353D01*
X151346428Y-132206776D01*
X151341805Y-132198133D01*
X151338960Y-132188752D01*
X151338000Y-132178999D01*
X151338000Y-132028999D01*
X151338960Y-132019243D01*
X151341805Y-132009863D01*
X151346428Y-132001219D01*
X151352646Y-131993642D01*
X151360223Y-131987424D01*
X151368866Y-131982804D01*
X151378247Y-131979959D01*
X151388000Y-131978999D01*
X151887999Y-131978999D01*
X151897753Y-131979959D01*
G37*
G36*
X149097753Y-131979959D02*
G01*
X149107134Y-131982804D01*
X149115777Y-131987424D01*
X149123354Y-131993642D01*
X149129572Y-132001219D01*
X149134195Y-132009863D01*
X149137040Y-132019243D01*
X149138000Y-132028999D01*
X149138000Y-132178999D01*
X149137040Y-132188752D01*
X149134195Y-132198133D01*
X149129572Y-132206776D01*
X149123354Y-132214353D01*
X149115777Y-132220571D01*
X149107134Y-132225191D01*
X149097753Y-132228036D01*
X149088000Y-132228999D01*
X148588001Y-132228999D01*
X148578247Y-132228036D01*
X148568867Y-132225191D01*
X148560223Y-132220571D01*
X148552646Y-132214353D01*
X148546429Y-132206776D01*
X148541806Y-132198133D01*
X148538961Y-132188752D01*
X148538001Y-132178999D01*
X148538001Y-132028999D01*
X148538961Y-132019243D01*
X148541806Y-132009863D01*
X148546429Y-132001219D01*
X148552646Y-131993642D01*
X148560223Y-131987424D01*
X148568867Y-131982804D01*
X148578247Y-131979959D01*
X148588001Y-131978999D01*
X149088000Y-131978999D01*
X149097753Y-131979959D01*
G37*
G36*
X149822756Y-131429460D02*
G01*
X149832136Y-131432305D01*
X149840780Y-131436928D01*
X149848356Y-131443146D01*
X149854574Y-131450722D01*
X149859195Y-131459366D01*
X149862039Y-131468746D01*
X149863002Y-131478500D01*
X149863002Y-131953500D01*
X149862039Y-131963254D01*
X149859195Y-131972634D01*
X149854574Y-131981278D01*
X149848356Y-131988854D01*
X149840780Y-131995072D01*
X149832136Y-131999695D01*
X149822756Y-132002540D01*
X149813002Y-132003500D01*
X149663002Y-132003500D01*
X149653246Y-132002540D01*
X149643866Y-131999695D01*
X149635222Y-131995072D01*
X149627646Y-131988854D01*
X149621428Y-131981278D01*
X149616807Y-131972634D01*
X149613963Y-131963254D01*
X149613003Y-131953500D01*
X149613003Y-131478500D01*
X149613963Y-131468746D01*
X149616807Y-131459366D01*
X149621428Y-131450722D01*
X149627646Y-131443146D01*
X149635222Y-131436928D01*
X149643866Y-131432305D01*
X149653246Y-131429460D01*
X149663002Y-131428500D01*
X149813002Y-131428500D01*
X149822756Y-131429460D01*
G37*
G36*
X150822754Y-131429460D02*
G01*
X150832134Y-131432305D01*
X150840778Y-131436928D01*
X150848354Y-131443146D01*
X150854572Y-131450722D01*
X150859193Y-131459366D01*
X150862037Y-131468746D01*
X150862997Y-131478500D01*
X150862997Y-131953500D01*
X150862037Y-131963254D01*
X150859193Y-131972634D01*
X150854572Y-131981278D01*
X150848354Y-131988854D01*
X150840778Y-131995072D01*
X150832134Y-131999695D01*
X150822754Y-132002540D01*
X150812998Y-132003500D01*
X150662998Y-132003500D01*
X150653244Y-132002540D01*
X150643864Y-131999695D01*
X150635220Y-131995072D01*
X150627644Y-131988854D01*
X150621426Y-131981278D01*
X150616805Y-131972634D01*
X150613961Y-131963254D01*
X150612998Y-131953500D01*
X150612998Y-131478500D01*
X150613961Y-131468746D01*
X150616805Y-131459366D01*
X150621426Y-131450722D01*
X150627644Y-131443146D01*
X150635220Y-131436928D01*
X150643864Y-131432305D01*
X150653244Y-131429460D01*
X150662998Y-131428500D01*
X150812998Y-131428500D01*
X150822754Y-131429460D01*
G37*
%TO.C,U9*%
G36*
X150699800Y-112408411D02*
G01*
X149807600Y-112408411D01*
X149807600Y-111236811D01*
X150699800Y-111236811D01*
X150699800Y-112408411D01*
G37*
G36*
X150699800Y-111036811D02*
G01*
X149807600Y-111036811D01*
X149807600Y-109865211D01*
X150699800Y-109865211D01*
X150699800Y-111036811D01*
G37*
%TO.C,U1*%
G36*
X146461772Y-107759500D02*
G01*
X146233172Y-107759500D01*
X146233172Y-107556300D01*
X146029972Y-107556300D01*
X146029972Y-107327700D01*
X146461772Y-107327700D01*
X146461772Y-107759500D01*
G37*
%TD*%
D10*
%TO.C,C17*%
X141478000Y-129774000D03*
X141478000Y-131499000D03*
%TD*%
D11*
%TO.C,R15*%
X146706000Y-135913001D03*
X148531000Y-135913001D03*
%TD*%
D12*
%TO.C,C31*%
X145948400Y-111619370D03*
X145948400Y-109894370D03*
%TD*%
D10*
%TO.C,C21*%
X143078200Y-113564500D03*
X143078200Y-115289500D03*
%TD*%
D13*
%TO.C,C40*%
X139218500Y-117729000D03*
X140943500Y-117729000D03*
%TD*%
%TO.C,C38*%
X139218500Y-119380000D03*
X140943500Y-119380000D03*
%TD*%
D14*
%TO.C,Q2*%
X140051000Y-135570000D03*
X140051000Y-133670000D03*
X138176000Y-134620000D03*
%TD*%
D15*
%TO.C,C37*%
X128878500Y-117856000D03*
X127153500Y-117856000D03*
%TD*%
D13*
%TO.C,C45*%
X147092500Y-126365000D03*
X148817500Y-126365000D03*
%TD*%
D16*
%TO.C,R25*%
X150241000Y-114212370D03*
X150241000Y-116037370D03*
%TD*%
%TO.C,R14*%
X151765000Y-114212370D03*
X151765000Y-116037370D03*
%TD*%
D17*
%TO.C,D11*%
X144679500Y-122936000D03*
X143279500Y-122936000D03*
%TD*%
D13*
%TO.C,C33*%
X154539300Y-113817486D03*
X156264300Y-113817486D03*
%TD*%
D18*
%TO.C,R28*%
X145134250Y-129491500D03*
X145134250Y-126391500D03*
%TD*%
D11*
%TO.C,R1*%
X142978500Y-119253000D03*
X144803500Y-119253000D03*
%TD*%
D19*
%TO.C,U12*%
X148409700Y-106908600D03*
X147806500Y-106908600D03*
X147806500Y-107518200D03*
X148409700Y-107518200D03*
%TD*%
D10*
%TO.C,C44*%
X135237000Y-121935000D03*
X135237000Y-123660000D03*
%TD*%
D20*
%TO.C,R11*%
X141986000Y-135429000D03*
X141986000Y-133604000D03*
%TD*%
D21*
%TO.C,U10*%
X133318500Y-114662000D03*
X133318500Y-115812000D03*
X133318500Y-116962000D03*
X134468500Y-114662000D03*
X134468500Y-115812000D03*
X134468500Y-116962000D03*
X135618500Y-114662000D03*
X135618500Y-115812000D03*
X135618500Y-116962000D03*
D22*
X132031000Y-114062000D03*
X132031000Y-114562000D03*
X132031000Y-115062000D03*
X132031000Y-115562000D03*
X132031000Y-116062000D03*
X132031000Y-116562000D03*
X132031000Y-117062000D03*
X132031000Y-117562000D03*
D23*
X132718500Y-118249500D03*
X133218500Y-118249500D03*
X133718500Y-118249500D03*
X134218500Y-118249500D03*
X134718500Y-118249500D03*
X135218500Y-118249500D03*
X135718500Y-118249500D03*
X136218500Y-118249500D03*
D22*
X136906000Y-117562000D03*
X136906000Y-117062000D03*
X136906000Y-116562000D03*
X136906000Y-116062000D03*
X136906000Y-115562000D03*
X136906000Y-115062000D03*
X136906000Y-114562000D03*
X136906000Y-114062000D03*
D23*
X136218500Y-113374500D03*
X135718500Y-113374500D03*
X135218500Y-113374500D03*
X134718500Y-113374500D03*
X134218500Y-113374500D03*
X133718500Y-113374500D03*
X133218500Y-113374500D03*
X132718500Y-113374500D03*
%TD*%
D15*
%TO.C,C22*%
X148117972Y-105511600D03*
X146392972Y-105511600D03*
%TD*%
D24*
%TO.C,L5*%
X155301300Y-109584486D03*
X155301300Y-111954486D03*
%TD*%
D10*
%TO.C,C27*%
X156588000Y-132424000D03*
X156588000Y-134149000D03*
%TD*%
D25*
%TO.C,R31*%
X152019000Y-117602000D03*
X150194000Y-117602000D03*
%TD*%
D26*
%TO.C,D1*%
X134112000Y-127254000D03*
X134112000Y-129754000D03*
%TD*%
D13*
%TO.C,C19*%
X134165000Y-125476000D03*
X135890000Y-125476000D03*
%TD*%
%TO.C,FB1*%
X127153500Y-116332000D03*
X128878500Y-116332000D03*
%TD*%
D27*
%TO.C,U8*%
X149487999Y-134029000D03*
X149987998Y-134029000D03*
X150488000Y-134029000D03*
X150987998Y-134029000D03*
D28*
X151638000Y-133604000D03*
X151638000Y-133104001D03*
D29*
X151638000Y-132354000D03*
X151638000Y-132354000D03*
X148838000Y-132354000D03*
X148838000Y-132354000D03*
D28*
X148838000Y-133104001D03*
X148838000Y-133604000D03*
%TD*%
D14*
%TO.C,Q1*%
X140051000Y-127950000D03*
X140051000Y-126050000D03*
X138176000Y-127000000D03*
%TD*%
D15*
%TO.C,C26*%
X147261000Y-132118001D03*
X145536000Y-132118001D03*
%TD*%
D12*
%TO.C,C42*%
X125832500Y-114489000D03*
X125832500Y-112764000D03*
%TD*%
D13*
%TO.C,C34*%
X154539300Y-115341486D03*
X156264300Y-115341486D03*
%TD*%
%TO.C,C43*%
X139328000Y-113538000D03*
X141053000Y-113538000D03*
%TD*%
D11*
%TO.C,R23*%
X153357000Y-135913001D03*
X155182000Y-135913001D03*
%TD*%
D30*
%TO.C,D4*%
X142880500Y-121031000D03*
X144930500Y-121031000D03*
%TD*%
D12*
%TO.C,C41*%
X132062500Y-110729000D03*
X132062500Y-109004000D03*
%TD*%
D31*
%TO.C,U9*%
X151282400Y-112387126D03*
X151282400Y-111887000D03*
X151282400Y-111386874D03*
X151282400Y-110886748D03*
X151282400Y-110386622D03*
X151282400Y-109886496D03*
X149225000Y-109886496D03*
X149225000Y-110386622D03*
X149225000Y-110886748D03*
X149225000Y-111386874D03*
X149225000Y-111887000D03*
X149225000Y-112387126D03*
D32*
X150253700Y-111136811D03*
%TD*%
D33*
%TO.C,L4*%
X154940000Y-127974000D03*
X154940000Y-130344000D03*
%TD*%
D26*
%TO.C,D3*%
X136144000Y-127254000D03*
X136144000Y-129754000D03*
%TD*%
D10*
%TO.C,C18*%
X139954000Y-129774000D03*
X139954000Y-131499000D03*
%TD*%
D11*
%TO.C,R33*%
X147042500Y-129439500D03*
X148867500Y-129439500D03*
%TD*%
D26*
%TO.C,D8*%
X138176000Y-129560000D03*
X138176000Y-132060000D03*
%TD*%
D34*
%TO.C,C4*%
X129497000Y-126746000D03*
X131572000Y-126746000D03*
%TD*%
D10*
%TO.C,C46*%
X147114999Y-121565500D03*
X147114999Y-123290500D03*
%TD*%
D35*
%TO.C,C15*%
X129794000Y-133858000D03*
X129794000Y-135933000D03*
%TD*%
D11*
%TO.C,R13*%
X143005000Y-124460000D03*
X144830000Y-124460000D03*
%TD*%
D10*
%TO.C,C39*%
X125832500Y-109462000D03*
X125832500Y-111187000D03*
%TD*%
D13*
%TO.C,C20*%
X133911000Y-135890000D03*
X135636000Y-135890000D03*
%TD*%
D19*
%TO.C,U1*%
X146245872Y-107543600D03*
X146849072Y-107543600D03*
X146849072Y-106934000D03*
X146245872Y-106934000D03*
%TD*%
D26*
%TO.C,D5*%
X136144000Y-131572000D03*
X136144000Y-134072000D03*
%TD*%
D12*
%TO.C,C32*%
X147412400Y-111619370D03*
X147412400Y-109894370D03*
%TD*%
D25*
%TO.C,R30*%
X152019000Y-119126000D03*
X150194000Y-119126000D03*
%TD*%
D36*
%TO.C,Y1*%
X128760500Y-110732000D03*
X128760500Y-113232000D03*
%TD*%
D25*
%TO.C,R34*%
X148867500Y-127915500D03*
X147042500Y-127915500D03*
%TD*%
D34*
%TO.C,C6*%
X129497000Y-130810000D03*
X131572000Y-130810000D03*
%TD*%
%TO.C,C5*%
X129497000Y-128778000D03*
X131572000Y-128778000D03*
%TD*%
D20*
%TO.C,R2*%
X139573000Y-123594500D03*
X139573000Y-121769500D03*
%TD*%
D37*
%TO.C,U6*%
X148005800Y-116447001D03*
X148005800Y-115947000D03*
X148005800Y-115447000D03*
X148005800Y-114946999D03*
D38*
X147308001Y-114249200D03*
X146808000Y-114249200D03*
X146308000Y-114249200D03*
X145807999Y-114249200D03*
D37*
X145110200Y-114946999D03*
X145110200Y-115447000D03*
X145110200Y-115947000D03*
X145110200Y-116447001D03*
D38*
X145807999Y-117144800D03*
X146308000Y-117144800D03*
X146808000Y-117144800D03*
X147308001Y-117144800D03*
D39*
X146558000Y-115697000D03*
%TD*%
D35*
%TO.C,C14*%
X131826000Y-133858000D03*
X131826000Y-135933000D03*
%TD*%
D11*
%TO.C,R32*%
X127103500Y-119380000D03*
X128928500Y-119380000D03*
%TD*%
D40*
%TO.C,SW1*%
X129631000Y-121844000D03*
X133731000Y-121844000D03*
X129631000Y-123444000D03*
X133731000Y-123444000D03*
%TD*%
D26*
%TO.C,D2*%
X134112000Y-131572000D03*
X134112000Y-134072000D03*
%TD*%
D10*
%TO.C,C16*%
X143002000Y-129774000D03*
X143002000Y-131499000D03*
%TD*%
%TO.C,C28*%
X155094000Y-132424000D03*
X155094000Y-134149000D03*
%TD*%
D13*
%TO.C,C29*%
X150058000Y-135913001D03*
X151783000Y-135913001D03*
%TD*%
D16*
%TO.C,R29*%
X133586500Y-108942500D03*
X133586500Y-110767500D03*
%TD*%
%TO.C,R3*%
X138049000Y-121793000D03*
X138049000Y-123618000D03*
%TD*%
%TO.C,R22*%
X153380000Y-132342001D03*
X153380000Y-134167001D03*
%TD*%
D15*
%TO.C,C25*%
X147261000Y-133612001D03*
X145536000Y-133612001D03*
%TD*%
M02*
