<svg version="1.1" xmlns="http://www.w3.org/2000/svg" xmlns:xlink="http://www.w3.org/1999/xlink" stroke-linecap="round" stroke-linejoin="round" stroke-width="0" fill-rule="evenodd" clip-rule="evenodd" id="w9GuU51OyqfE5PXrtbF__bottom" viewBox="74948.051 -105899.949 62701.898000000016 20791.898" width="62.701898000000014mm" height="20.791898mm" class="w-100 h-100"><defs><style>.w9GuU51OyqfE5PXrtbF__fr4 {color: #666666;}
.w9GuU51OyqfE5PXrtbF__cu {color: #cccccc;}
.w9GuU51OyqfE5PXrtbF__cf {color: #cc9933;}
.w9GuU51OyqfE5PXrtbF__sm {color: #141414; opacity: 0.75;}
.w9GuU51OyqfE5PXrtbF__ss {color: #ffffff;}
.w9GuU51OyqfE5PXrtbF__sp {color: #999999;}
.w9GuU51OyqfE5PXrtbF__out {color: #000000;}</style><circle cx="0" cy="0" r="400" id="fHOHO1IYpS3qfY7SVkvl_pad-10"/><circle cx="0" cy="0" r="200" id="_ycw10fBZE9VnkaO3UzE_pad-1"/><g id="w9GuU51OyqfE5PXrtbF__bottom_copper"><use xlink:href="#fHOHO1IYpS3qfY7SVkvl_pad-10" x="104394" y="-85852"/><use xlink:href="#fHOHO1IYpS3qfY7SVkvl_pad-10" x="106680" y="-89408"/><use xlink:href="#fHOHO1IYpS3qfY7SVkvl_pad-10" x="107950" y="-103794.5"/><use xlink:href="#fHOHO1IYpS3qfY7SVkvl_pad-10" x="114808" y="-104902"/><use xlink:href="#fHOHO1IYpS3qfY7SVkvl_pad-10" x="98044" y="-87122"/><use xlink:href="#fHOHO1IYpS3qfY7SVkvl_pad-10" x="103632" y="-100838"/><use xlink:href="#fHOHO1IYpS3qfY7SVkvl_pad-10" x="133472" y="-89662"/><use xlink:href="#fHOHO1IYpS3qfY7SVkvl_pad-10" x="130556" y="-100838"/><use xlink:href="#fHOHO1IYpS3qfY7SVkvl_pad-10" x="104902" y="-99822"/><use xlink:href="#fHOHO1IYpS3qfY7SVkvl_pad-10" x="111252" y="-98298"/><use xlink:href="#fHOHO1IYpS3qfY7SVkvl_pad-10" x="123698" y="-101854"/><use xlink:href="#fHOHO1IYpS3qfY7SVkvl_pad-10" x="83820" y="-103886"/><use xlink:href="#fHOHO1IYpS3qfY7SVkvl_pad-10" x="99568" y="-86360"/><use xlink:href="#fHOHO1IYpS3qfY7SVkvl_pad-10" x="119554.5" y="-102616"/><use xlink:href="#fHOHO1IYpS3qfY7SVkvl_pad-10" x="81534" y="-93726"/><use xlink:href="#fHOHO1IYpS3qfY7SVkvl_pad-10" x="87884" y="-91948"/><use xlink:href="#fHOHO1IYpS3qfY7SVkvl_pad-10" x="81026" y="-85852"/><use xlink:href="#fHOHO1IYpS3qfY7SVkvl_pad-10" x="120623.5" y="-99314"/><use xlink:href="#fHOHO1IYpS3qfY7SVkvl_pad-10" x="129540" y="-105410"/><use xlink:href="#fHOHO1IYpS3qfY7SVkvl_pad-10" x="102870" y="-98298"/><use xlink:href="#fHOHO1IYpS3qfY7SVkvl_pad-10" x="86360" y="-85852"/><use xlink:href="#fHOHO1IYpS3qfY7SVkvl_pad-10" x="119607.5" y="-97536"/><use xlink:href="#fHOHO1IYpS3qfY7SVkvl_pad-10" x="98044" y="-92964"/><use xlink:href="#fHOHO1IYpS3qfY7SVkvl_pad-10" x="119607.5" y="-98552"/><use xlink:href="#fHOHO1IYpS3qfY7SVkvl_pad-10" x="116559.5" y="-89916"/><use xlink:href="#fHOHO1IYpS3qfY7SVkvl_pad-10" x="106145.5" y="-90678"/><use xlink:href="#fHOHO1IYpS3qfY7SVkvl_pad-10" x="118110" y="-99568"/><use xlink:href="#fHOHO1IYpS3qfY7SVkvl_pad-10" x="136012" y="-89662"/><use xlink:href="#fHOHO1IYpS3qfY7SVkvl_pad-10" x="119554.5" y="-100584"/><use xlink:href="#fHOHO1IYpS3qfY7SVkvl_pad-10" x="119607.5" y="-99568"/><use xlink:href="#fHOHO1IYpS3qfY7SVkvl_pad-10" x="102870" y="-96774"/><use xlink:href="#fHOHO1IYpS3qfY7SVkvl_pad-10" x="98044" y="-103632"/><use xlink:href="#fHOHO1IYpS3qfY7SVkvl_pad-10" x="106172" y="-100838"/><use xlink:href="#fHOHO1IYpS3qfY7SVkvl_pad-10" x="104140" y="-89471.5"/><use xlink:href="#fHOHO1IYpS3qfY7SVkvl_pad-10" x="114808" y="-99822"/><use xlink:href="#fHOHO1IYpS3qfY7SVkvl_pad-10" x="102870" y="-100076"/><use xlink:href="#fHOHO1IYpS3qfY7SVkvl_pad-10" x="120623.5" y="-98298"/><use xlink:href="#fHOHO1IYpS3qfY7SVkvl_pad-10" x="113870" y="-96624.5"/><use xlink:href="#fHOHO1IYpS3qfY7SVkvl_pad-10" x="79756" y="-91948"/><use xlink:href="#fHOHO1IYpS3qfY7SVkvl_pad-10" x="129286" y="-97282"/><use xlink:href="#fHOHO1IYpS3qfY7SVkvl_pad-10" x="109728" y="-103794.5"/><use xlink:href="#fHOHO1IYpS3qfY7SVkvl_pad-10" x="111012.5" y="-99482"/><use xlink:href="#fHOHO1IYpS3qfY7SVkvl_pad-10" x="81026" y="-90170"/><use xlink:href="#fHOHO1IYpS3qfY7SVkvl_pad-10" x="78740" y="-99568"/><use xlink:href="#fHOHO1IYpS3qfY7SVkvl_pad-10" x="83566" y="-85598"/><use xlink:href="#fHOHO1IYpS3qfY7SVkvl_pad-10" x="119554.5" y="-101600"/><use xlink:href="#fHOHO1IYpS3qfY7SVkvl_pad-10" x="123417.5" y="-86360"/><use xlink:href="#fHOHO1IYpS3qfY7SVkvl_pad-10" x="90678" y="-86360"/><use xlink:href="#fHOHO1IYpS3qfY7SVkvl_pad-10" x="85698.5" y="-98552"/><use xlink:href="#fHOHO1IYpS3qfY7SVkvl_pad-10" x="127254" y="-96266"/><use xlink:href="#fHOHO1IYpS3qfY7SVkvl_pad-10" x="125984" y="-99568"/><use xlink:href="#fHOHO1IYpS3qfY7SVkvl_pad-10" x="136906" y="-88392"/><use xlink:href="#fHOHO1IYpS3qfY7SVkvl_pad-10" x="136906" y="-87376"/><use xlink:href="#fHOHO1IYpS3qfY7SVkvl_pad-10" x="120597" y="-100330"/><use xlink:href="#fHOHO1IYpS3qfY7SVkvl_pad-10" x="121666" y="-103632"/><use xlink:href="#fHOHO1IYpS3qfY7SVkvl_pad-10" x="127254" y="-101600"/><use xlink:href="#fHOHO1IYpS3qfY7SVkvl_pad-10" x="99568" y="-92456"/><use xlink:href="#fHOHO1IYpS3qfY7SVkvl_pad-10" x="134742" y="-89662"/><use xlink:href="#fHOHO1IYpS3qfY7SVkvl_pad-10" x="116078" y="-104140"/><use xlink:href="#fHOHO1IYpS3qfY7SVkvl_pad-10" x="111266.5" y="-103684"/><use xlink:href="#fHOHO1IYpS3qfY7SVkvl_pad-10" x="84544.5" y="-92964"/><use xlink:href="#fHOHO1IYpS3qfY7SVkvl_pad-10" x="83095.5" y="-92964"/><path d="M 109057.5 -104902 107950 -103794.5 M 114808 -104902 109057.5 -104902 M 116078 -104140 111722.5 -104140 111266.5 -103684" fill="none" stroke-width="200"/><path d="M 84544.5 -92964 83095.5 -92964" fill="none" stroke-width="250"/><path d="M 135113.419 -85108.745 135225.619 -85115.049 135394.298 -85125.256 135407.548 -85126.778 135539.73 -85149.239 135540.902 -85149.446 135686.139 -85176.064 135698.103 -85178.877 135830.691 -85217.076 135833.181 -85217.822 135970.094 -85260.487 135980.628 -85264.302 136109.66 -85317.751 136113.048 -85319.214 136242.234 -85377.357 136251.302 -85381.894 136374.32 -85449.885 136378.402 -85452.245 136498.958 -85525.125 136506.498 -85530.069 136621.506 -85611.672 136626.148 -85615.135 136734.138 -85699.74 136736.694 -85701.743 136742.83 -85706.879 136848.082 -85800.938 136853.116 -85805.698 136952.3 -85904.882 136957.063 -85909.919 137051.113 -86015.161 137056.255 -86021.304 137142.854 -86131.837 137146.337 -86136.507 137227.921 -86251.488 137232.883 -86259.054 137305.724 -86379.547 137305.733 -86379.562 137308.133 -86383.712 137326.662 -86417.237 137376.097 -86506.682 137380.644 -86515.771 137438.773 -86644.925 137440.258 -86648.363 137493.691 -86777.357 137497.516 -86787.919 137540.154 -86924.743 137540.922 -86927.307 137579.121 -87059.895 137581.936 -87071.869 137608.512 -87216.874 137608.792 -87218.456 137631.218 -87350.436 137632.744 -87363.718 137642.948 -87532.347 137642.979 -87532.882 137649.254 -87644.58 137649.449 -87651.535 137649.449 -103356.465 137649.254 -103363.42 137642.979 -103475.116 137642.948 -103475.651 137632.744 -103644.28 137631.218 -103657.562 137608.792 -103789.542 137608.512 -103791.124 137581.936 -103936.129 137579.121 -103948.103 137540.922 -104080.691 137540.154 -104083.255 137497.516 -104220.079 137493.691 -104230.641 137440.258 -104359.635 137438.773 -104363.073 137380.644 -104492.227 137376.097 -104501.316 137308.144 -104624.267 137305.733 -104628.436 137232.891 -104748.931 137227.903 -104756.537 137146.362 -104871.457 137142.843 -104876.175 137056.255 -104986.694 137051.105 -104992.847 136957.079 -105098.062 136952.3 -105103.116 136853.116 -105202.3 136848.062 -105207.079 136742.847 -105301.105 136736.694 -105306.255 136626.175 -105392.843 136621.457 -105396.362 136506.537 -105477.903 136498.931 -105482.891 136378.436 -105555.733 136374.267 -105558.144 136251.316 -105626.097 136242.227 -105630.644 136113.073 -105688.773 136109.635 -105690.258 135980.641 -105743.691 135970.079 -105747.516 135833.255 -105790.154 135830.691 -105790.922 135698.103 -105829.121 135686.129 -105831.936 135541.124 -105858.512 135539.542 -105858.792 135407.562 -105881.218 135394.28 -105882.744 135225.651 -105892.948 135225.116 -105892.979 135113.42 -105899.254 135106.465 -105899.449 115348.784 -105899.449 115289.047 -105884.111 115244.087 -105841.891 115225.029 -105783.235 115236.585 -105722.652 115275.899 -105675.131 115413.87 -105574.889 115472.126 -105510.19 115540.533 -105434.216 115635.179 -105270.284 115693.008 -105092.304 115724.801 -105041.425 115776.76 -105011.427 115836.72 -105009.333 115983.352 -105040.5 115983.354 -105040.5 116172.646 -105040.5 116172.648 -105040.5 116319.276 -105009.333 116357.803 -105001.144 116530.73 -104924.151 116596.801 -104876.148 116683.87 -104812.889 116810.533 -104672.216 116905.179 -104508.284 116918.467 -104467.388 116963.674 -104328.256 116983.46 -104140 116963.674 -103951.744 116905.179 -103771.716 116905.179 -103771.715 116810.533 -103607.783 116683.87 -103467.11 116530.73 -103355.848 116357.802 -103278.855 116172.648 -103239.5 116172.646 -103239.5 115983.354 -103239.5 115983.352 -103239.5 115798.197 -103278.855 115625.269 -103355.848 115472.128 -103467.111 115443.89 -103498.473 115402.176 -103528.78 115351.741 -103539.5 112256.482 -103539.5 112206.047 -103528.78 112164.332 -103498.472 112138.551 -103453.818 112129.582 -103426.215 112093.679 -103315.716 112093.679 -103315.715 111999.033 -103151.783 111872.37 -103011.11 111719.23 -102899.848 111546.302 -102822.855 111361.148 -102783.5 111361.146 -102783.5 111171.854 -102783.5 111171.852 -102783.5 110986.697 -102822.855 110813.769 -102899.848 110660.629 -103011.11 110533.966 -103151.783 110439.32 -103315.715 110380.826 -103495.742 110361.04 -103683.999 110380.826 -103872.257 110439.32 -104052.284 110475.818 -104115.5 110492.431 -104177.5 110475.818 -104239.5 110430.431 -104284.887 110368.431 -104301.5 109357.597 -104301.5 109310.144 -104292.061 109269.916 -104265.181 108891.934 -103887.199 108862.725 -103840.902 108858.746 -103807.259 108856.822 -103807.462 108855.105 -103791.124 108835.674 -103606.244 108790.467 -103467.111 108777.179 -103426.215 108682.533 -103262.283 108555.87 -103121.61 108402.73 -103010.348 108229.802 -102933.355 108044.648 -102894 108044.646 -102894 107855.354 -102894 107855.352 -102894 107670.197 -102933.355 107497.269 -103010.348 107344.129 -103121.61 107217.466 -103262.283 107122.82 -103426.215 107064.326 -103606.242 107044.54 -103794.5 107064.326 -103982.757 107122.82 -104162.784 107217.466 -104326.716 107344.129 -104467.389 107497.269 -104578.651 107670.197 -104655.644 107855.352 -104695 107855.354 -104695 107949.903 -104695 107997.356 -104704.439 108037.584 -104731.319 108599.299 -105293.034 108609.994 -105305.229 108629.217 -105330.282 108748.211 -105421.588 108753.13 -105425.902 108754.657 -105426.534 108754.658 -105426.535 108754.659 -105426.536 108900.738 -105487.044 109057.5 -105507.683 109088.808 -105503.56 109104.994 -105502.5 114081.741 -105502.5 114132.176 -105513.22 114173.89 -105543.527 114202.128 -105574.888 114340.101 -105675.131 114379.415 -105722.652 114390.971 -105783.235 114371.913 -105841.891 114326.953 -105884.111 114267.216 -105899.449 77491.535 -105899.449 77484.58 -105899.254 77372.882 -105892.979 77372.347 -105892.948 77203.718 -105882.744 77190.436 -105881.218 77058.456 -105858.792 77056.874 -105858.512 76911.869 -105831.936 76899.895 -105829.121 76767.307 -105790.922 76764.743 -105790.154 76627.919 -105747.516 76617.357 -105743.691 76488.363 -105690.258 76484.925 -105688.773 76355.771 -105630.644 76346.682 -105626.097 76254.027 -105574.888 76223.712 -105558.133 76219.562 -105555.733 76199.371 -105543.527 76099.054 -105482.883 76091.488 -105477.921 75976.507 -105396.337 75971.837 -105392.854 75911.109 -105345.276 75861.304 -105306.255 75855.161 -105301.113 75749.919 -105207.063 75744.882 -105202.3 75645.698 -105103.116 75640.938 -105098.082 75546.88 -104992.832 75541.743 -104986.694 75492.743 -104924.151 75455.135 -104876.148 75451.672 -104871.506 75370.069 -104756.498 75365.125 -104748.958 75292.245 -104628.402 75289.885 -104624.32 75221.894 -104501.302 75217.354 -104492.227 75159.225 -104363.073 75157.74 -104359.635 75104.302 -104230.628 75100.487 -104220.094 75057.822 -104083.181 75057.076 -104080.691 75018.877 -103948.103 75016.064 -103936.139 74989.446 -103790.902 74989.239 -103789.73 74966.778 -103657.548 74965.256 -103644.298 74955.049 -103475.619 74948.745 -103363.419 74948.551 -103356.467 74948.551 -92963.999 82190.04 -92963.999 82209.826 -93152.257 82268.32 -93332.284 82362.966 -93496.216 82489.629 -93636.889 82642.769 -93748.151 82815.697 -93825.144 83000.852 -93864.5 83000.854 -93864.5 83190.146 -93864.5 83190.148 -93864.5 83313.584 -93838.262 83375.303 -93825.144 83548.23 -93748.151 83701.371 -93636.888 83707.098 -93630.526 83748.812 -93600.22 83799.247 -93589.5 83840.753 -93589.5 83891.188 -93600.22 83932.901 -93630.526 83938.629 -93636.888 84091.77 -93748.151 84091.771 -93748.151 84091.772 -93748.152 84264.697 -93825.144 84449.852 -93864.5 84449.854 -93864.5 84639.146 -93864.5 84639.148 -93864.5 84762.584 -93838.262 84824.303 -93825.144 84997.23 -93748.151 85150.371 -93636.888 85277.033 -93496.216 85371.679 -93332.284 85430.174 -93152.256 85449.96 -92964 85430.174 -92775.744 85371.679 -92595.716 85371.679 -92595.715 85277.033 -92431.783 85150.37 -92291.11 84997.23 -92179.848 84824.302 -92102.855 84639.148 -92063.5 84639.146 -92063.5 84449.854 -92063.5 84449.852 -92063.5 84264.697 -92102.855 84091.772 -92179.847 83989.675 -92254.024 83938.629 -92291.112 83932.901 -92297.473 83891.188 -92327.78 83840.753 -92338.5 83799.247 -92338.5 83748.812 -92327.78 83707.098 -92297.473 83701.371 -92291.112 83548.23 -92179.849 83548.229 -92179.848 83548.227 -92179.847 83375.302 -92102.855 83190.148 -92063.5 83190.146 -92063.5 83000.854 -92063.5 83000.852 -92063.5 82815.697 -92102.855 82642.769 -92179.848 82489.629 -92291.11 82362.966 -92431.783 82268.32 -92595.715 82209.826 -92775.742 82190.04 -92963.999 74948.551 -92963.999 74948.551 -87651.53 74948.746 -87644.579 74948.824 -87643.174 74955.04 -87532.501 74965.251 -87363.689 74966.77 -87350.467 74989.224 -87218.308 74989.424 -87217.173 75016.061 -87071.824 75018.865 -87059.895 75057.07 -86927.281 75057.823 -86924.774 75057.833 -86924.743 75100.477 -86787.891 75104.28 -86777.388 75157.769 -86648.252 75159.17 -86645.01 75217.36 -86515.716 75221.871 -86506.702 75289.862 -86383.681 75292.238 -86379.573 75365.113 -86259.023 75370.044 -86251.503 75451.685 -86136.441 75455.105 -86131.857 75541.746 -86021.268 75546.845 -86015.176 75640.941 -85909.882 75645.65 -85904.901 75744.901 -85805.65 75749.882 -85800.941 75855.176 -85706.845 75861.272 -85701.743 75971.857 -85615.105 75976.441 -85611.685 76091.503 -85530.044 76099.023 -85525.113 76219.573 -85452.238 76223.697 -85449.854 76346.702 -85381.871 76355.716 -85377.36 76485.01 -85319.17 76488.252 -85317.769 76617.388 -85264.28 76627.891 -85260.477 76764.803 -85217.814 76767.281 -85217.071 76899.895 -85178.865 76911.824 -85176.061 77057.173 -85149.424 77058.308 -85149.224 77190.467 -85126.77 77203.689 -85125.251 77372.501 -85115.04 77484.578 -85108.746 77491.53 -85108.551 135106.467 -85108.551 135113.419 -85108.745"/></g><g id="w9GuU51OyqfE5PXrtbF__bottom_silkscreen"><path d="M 130540.19 -88793.619 130540.19 -89507.904 130587.809 -89650.761 130683.047 -89746 130825.904 -89793.619 130921.142 -89793.619 M 129921.142 -89793.619 130016.38 -89746 130063.999 -89698.38 130111.618 -89603.142 130111.618 -89317.428 130063.999 -89222.19 130016.38 -89174.571 129921.142 -89126.952 129778.285 -89126.952 129683.047 -89174.571 129635.428 -89222.19 129587.809 -89317.428 129587.809 -89603.142 129635.428 -89698.38 129683.047 -89746 129778.285 -89793.619 129921.142 -89793.619 M 129159.237 -89126.952 129159.237 -89793.619 M 129159.237 -89222.19 129111.618 -89174.571 129016.38 -89126.952 128873.523 -89126.952 128778.285 -89174.571 128730.666 -89269.809 128730.666 -89793.619 M 127825.904 -89793.619 127825.904 -89269.809 127873.523 -89174.571 127968.761 -89126.952 128159.237 -89126.952 128254.475 -89174.571 M 127825.904 -89746 127921.142 -89793.619 128159.237 -89793.619 128254.475 -89746 128302.094 -89650.761 128302.094 -89555.523 128254.475 -89460.285 128159.237 -89412.666 127921.142 -89412.666 127825.904 -89365.047 M 126016.38 -89698.38 126063.999 -89746 126206.856 -89793.619 126302.094 -89793.619 126444.951 -89746 126540.189 -89650.761 126587.808 -89555.523 126635.427 -89365.047 126635.427 -89222.19 126587.808 -89031.714 126540.189 -88936.476 126444.951 -88841.238 126302.094 -88793.619 126206.856 -88793.619 126063.999 -88841.238 126016.38 -88888.857 M 125159.237 -89793.619 125159.237 -89269.809 125206.856 -89174.571 125302.094 -89126.952 125492.57 -89126.952 125587.808 -89174.571 M 125159.237 -89746 125254.475 -89793.619 125492.57 -89793.619 125587.808 -89746 125635.427 -89650.761 125635.427 -89555.523 125587.808 -89460.285 125492.57 -89412.666 125254.475 -89412.666 125159.237 -89365.047 M 124683.046 -89126.952 124683.046 -90126.952 M 124683.046 -89174.571 124587.808 -89126.952 124397.332 -89126.952 124302.094 -89174.571 124254.475 -89222.19 124206.856 -89317.428 124206.856 -89603.142 124254.475 -89698.38 124302.094 -89746 124397.332 -89793.619 124587.808 -89793.619 124683.046 -89746 M 123778.284 -89126.952 123778.284 -90126.952 M 123778.284 -89174.571 123683.046 -89126.952 123492.57 -89126.952 123397.332 -89174.571 123349.713 -89222.19 123302.094 -89317.428 123302.094 -89603.142 123349.713 -89698.38 123397.332 -89746 123492.57 -89793.619 123683.046 -89793.619 123778.284 -89746 M 122492.57 -89746 122587.808 -89793.619 122778.284 -89793.619 122873.522 -89746 122921.141 -89650.761 122921.141 -89269.809 122873.522 -89174.571 122778.284 -89126.952 122587.808 -89126.952 122492.57 -89174.571 122444.951 -89269.809 122444.951 -89365.047 122921.141 -89460.285 M 121873.522 -89793.619 121968.76 -89746 122016.379 -89650.761 122016.379 -88793.619 M 121349.712 -89793.619 121444.95 -89746 121492.569 -89650.761 121492.569 -88793.619 M 120587.807 -89746 120683.045 -89793.619 120873.521 -89793.619 120968.759 -89746 121016.378 -89650.761 121016.378 -89269.809 120968.759 -89174.571 120873.521 -89126.952 120683.045 -89126.952 120587.807 -89174.571 120540.188 -89269.809 120540.188 -89365.047 121016.378 -89460.285" fill="none" stroke-width="100"/><path d="M 83774.619 -86479.142 83298.428 -86145.809 M 83774.619 -85907.714 82774.619 -85907.714 82774.619 -86288.666 82822.238 -86383.904 82869.857 -86431.523 82965.095 -86479.142 83107.952 -86479.142 83203.19 -86431.523 83250.809 -86383.904 83298.428 -86288.666 83298.428 -85907.714 M 83774.619 -87431.523 83774.619 -86860.095 M 83774.619 -87145.809 82774.619 -87145.809 82917.476 -87050.571 83012.714 -86955.333 83060.333 -86860.095 M 83107.952 -88288.666 83774.619 -88288.666 M 82727 -88050.571 83441.285 -87812.476 83441.285 -88431.523 M 88346.619 -86479.142 87870.428 -86145.809 M 88346.619 -85907.714 87346.619 -85907.714 87346.619 -86288.666 87394.238 -86383.904 87441.857 -86431.523 87537.095 -86479.142 87679.952 -86479.142 87775.19 -86431.523 87822.809 -86383.904 87870.428 -86288.666 87870.428 -85907.714 M 88346.619 -87431.523 88346.619 -86860.095 M 88346.619 -87145.809 87346.619 -87145.809 87489.476 -87050.571 87584.714 -86955.333 87632.333 -86860.095 M 87346.619 -88336.285 87346.619 -87860.095 87822.809 -87812.476 87775.19 -87860.095 87727.571 -87955.333 87727.571 -88193.428 87775.19 -88288.666 87822.809 -88336.285 87918.047 -88383.904 88156.142 -88383.904 88251.38 -88336.285 88299 -88288.666 88346.619 -88193.428 88346.619 -87955.333 88299 -87860.095 88251.38 -87812.476 M 85298.619 -86479.142 84822.428 -86145.809 M 85298.619 -85907.714 84298.619 -85907.714 84298.619 -86288.666 84346.238 -86383.904 84393.857 -86431.523 84489.095 -86479.142 84631.952 -86479.142 84727.19 -86431.523 84774.809 -86383.904 84822.428 -86288.666 84822.428 -85907.714 M 85298.619 -87431.523 85298.619 -86860.095 M 85298.619 -87145.809 84298.619 -87145.809 84441.476 -87050.571 84536.714 -86955.333 84584.333 -86860.095 M 84298.619 -87764.857 84298.619 -88383.904 84679.571 -88050.571 84679.571 -88193.428 84727.19 -88288.666 84774.809 -88336.285 84870.047 -88383.904 85108.142 -88383.904 85203.38 -88336.285 85251 -88288.666 85298.619 -88193.428 85298.619 -87907.714 85251 -87812.476 85203.38 -87764.857 M 82155.38 -86479.142 82203 -86431.523 82250.619 -86288.666 82250.619 -86193.428 82203 -86050.571 82107.761 -85955.333 82012.523 -85907.714 81822.047 -85860.095 81679.19 -85860.095 81488.714 -85907.714 81393.476 -85955.333 81298.238 -86050.571 81250.619 -86193.428 81250.619 -86288.666 81298.238 -86431.523 81345.857 -86479.142 M 81345.857 -86860.095 81298.238 -86907.714 81250.619 -87002.952 81250.619 -87241.047 81298.238 -87336.285 81345.857 -87383.904 81441.095 -87431.523 81536.333 -87431.523 81679.19 -87383.904 82250.619 -86812.476 82250.619 -87431.523 M 81250.619 -88050.571 81250.619 -88145.809 81298.238 -88241.047 81345.857 -88288.666 81441.095 -88336.285 81631.571 -88383.904 81869.666 -88383.904 82060.142 -88336.285 82155.38 -88288.666 82203 -88241.047 82250.619 -88145.809 82250.619 -88050.571 82203 -87955.333 82155.38 -87907.714 82060.142 -87860.095 81869.666 -87812.476 81631.571 -87812.476 81441.095 -87860.095 81345.857 -87907.714 81298.238 -87955.333 81250.619 -88050.571 M 86727.38 -86479.142 86775 -86431.523 86822.619 -86288.666 86822.619 -86193.428 86775 -86050.571 86679.761 -85955.333 86584.523 -85907.714 86394.047 -85860.095 86251.19 -85860.095 86060.714 -85907.714 85965.476 -85955.333 85870.238 -86050.571 85822.619 -86193.428 85822.619 -86288.666 85870.238 -86431.523 85917.857 -86479.142 M 85917.857 -86860.095 85870.238 -86907.714 85822.619 -87002.952 85822.619 -87241.047 85870.238 -87336.285 85917.857 -87383.904 86013.095 -87431.523 86108.333 -87431.523 86251.19 -87383.904 86822.619 -86812.476 86822.619 -87431.523 M 86155.952 -88288.666 86822.619 -88288.666 M 85775 -88050.571 86489.285 -87812.476 86489.285 -88431.523 M 89775.38 -86479.142 89823 -86431.523 89870.619 -86288.666 89870.619 -86193.428 89823 -86050.571 89727.761 -85955.333 89632.523 -85907.714 89442.047 -85860.095 89299.19 -85860.095 89108.714 -85907.714 89013.476 -85955.333 88918.238 -86050.571 88870.619 -86193.428 88870.619 -86288.666 88918.238 -86431.523 88965.857 -86479.142 M 88965.857 -86860.095 88918.238 -86907.714 88870.619 -87002.952 88870.619 -87241.047 88918.238 -87336.285 88965.857 -87383.904 89061.095 -87431.523 89156.333 -87431.523 89299.19 -87383.904 89870.619 -86812.476 89870.619 -87431.523 M 89870.619 -88383.904 89870.619 -87812.476 M 89870.619 -88098.19 88870.619 -88098.19 89013.476 -88002.952 89108.714 -87907.714 89156.333 -87812.476" fill="none" stroke-width="150"/></g><g id="w9GuU51OyqfE5PXrtbF__bottom_soldermask"><path d="M 133848.92 -88641.469 133858.958 -88658.887 133867.277 -88677.234 133879.902 -88709.248 133895.565 -88753.88 133911.584 -88803.356 133917.505 -88822.807 133946.683 -88920.736 133811.949 -89198.672 133751.812 -89321.059 133699.07 -89424.78 133653.192 -89510.807 133613.649 -89580.112 133579.911 -89633.666 133558.512 -89663.543 133545.973 -89678.714 133543.519 -89677.197 133546.464 -89667.188 133565.49 -89606.183 133588.084 -89526.689 133613.645 -89430.979 133641.568 -89321.323 133671.25 -89199.995 133678.528 -89169.564 133705.357 -89059.741 133731.383 -88958.683 133756.036 -88868.321 133778.747 -88790.585 133798.95 -88727.405 133816.075 -88680.712 133829.553 -88652.437 133831.732 -88649.201 133841.048 -88639.19 133848.92 -88641.469" fill="none" stroke-width="10"/><path d="M 133848.92 -88641.469 133858.958 -88658.887 133867.277 -88677.234 133879.902 -88709.248 133895.565 -88753.88 133911.584 -88803.356 133917.505 -88822.807 133946.683 -88920.736 133811.949 -89198.672 133751.812 -89321.059 133699.07 -89424.78 133653.192 -89510.807 133613.649 -89580.112 133579.911 -89633.666 133558.512 -89663.543 133545.973 -89678.714 133543.519 -89677.197 133546.464 -89667.188 133565.49 -89606.183 133588.084 -89526.689 133613.645 -89430.979 133641.568 -89321.323 133671.25 -89199.995 133678.528 -89169.564 133705.357 -89059.741 133731.383 -88958.683 133756.036 -88868.321 133778.747 -88790.585 133798.95 -88727.405 133816.075 -88680.712 133829.553 -88652.437 133831.732 -88649.201 133841.048 -88639.19 133848.92 -88641.469"/><path d="M 132924.977 -88643.299 132926.441 -88645.471 132939.281 -88669.44 132954.132 -88706.094 132971.305 -88756.524 132991.115 -88821.822 133013.873 -88903.079 133039.891 -89001.387 133069.484 -89117.838 133102.962 -89253.522 133116.448 -89309.032 133134.093 -89380.494 133151.891 -89450.018 133168.658 -89513.17 133183.212 -89565.516 133194.372 -89602.623 133196.199 -89608.136 133207.871 -89643.95 133215.537 -89670.445 133217.808 -89682.741 133217.531 -89683.07 133209.745 -89675.117 133194.318 -89654.746 133182.626 -89638.072 133160.543 -89603.126 133132.625 -89554.866 133100.201 -89495.965 133064.6 -89429.096 133027.153 -89356.932 132989.188 -89282.146 132952.035 -89207.411 132917.024 -89135.399 132885.484 -89068.785 132858.744 -89010.24 132838.135 -88962.438 132824.985 -88928.052 132820.612 -88910.218 132823.913 -88892.057 132832.703 -88859.166 132845.313 -88816.745 132860.072 -88769.992 132875.311 -88724.106 132889.361 -88684.286 132900.552 -88655.732 132905.633 -88645.471 132915.477 -88634.914 132924.977 -88643.299" fill="none" stroke-width="10"/><path d="M 132924.977 -88643.299 132926.441 -88645.471 132939.281 -88669.44 132954.132 -88706.094 132971.305 -88756.524 132991.115 -88821.822 133013.873 -88903.079 133039.891 -89001.387 133069.484 -89117.838 133102.962 -89253.522 133116.448 -89309.032 133134.093 -89380.494 133151.891 -89450.018 133168.658 -89513.17 133183.212 -89565.516 133194.372 -89602.623 133196.199 -89608.136 133207.871 -89643.95 133215.537 -89670.445 133217.808 -89682.741 133217.531 -89683.07 133209.745 -89675.117 133194.318 -89654.746 133182.626 -89638.072 133160.543 -89603.126 133132.625 -89554.866 133100.201 -89495.965 133064.6 -89429.096 133027.153 -89356.932 132989.188 -89282.146 132952.035 -89207.411 132917.024 -89135.399 132885.484 -89068.785 132858.744 -89010.24 132838.135 -88962.438 132824.985 -88928.052 132820.612 -88910.218 132823.913 -88892.057 132832.703 -88859.166 132845.313 -88816.745 132860.072 -88769.992 132875.311 -88724.106 132889.361 -88684.286 132900.552 -88655.732 132905.633 -88645.471 132915.477 -88634.914 132924.977 -88643.299"/><path d="M 134357.349 -88596.281 134385.772 -88613.601 134422.9 -88646.044 134463.915 -88690.616 134503.157 -88740.547 134534.964 -88789.066 134539.923 -88797.98 134559.9 -88835.24 134488.269 -89129.455 134453.935 -89268.836 134423.65 -89388.229 134397.203 -89488.39 134374.384 -89570.072 134354.981 -89634.032 134338.784 -89681.022 134325.617 -89711.732 134305.523 -89750.9 134284.176 -89709.044 134272.282 -89683.142 134259.566 -89649.922 134245.507 -89607.546 134229.583 -89554.178 134211.275 -89487.981 134190.062 -89407.118 134165.422 -89309.752 134136.835 -89194.048 134128.437 -89159.689 134048.537 -88832.181 134076.491 -88789.118 134131.543 -88710.034 134181.756 -88650.603 134228.286 -88610.169 134272.291 -88588.075 134314.926 -88583.664 134357.349 -88596.281" fill="none" stroke-width="10"/><path d="M 134357.349 -88596.281 134385.772 -88613.601 134422.9 -88646.044 134463.915 -88690.616 134503.157 -88740.547 134534.964 -88789.066 134539.923 -88797.98 134559.9 -88835.24 134488.269 -89129.455 134453.935 -89268.836 134423.65 -89388.229 134397.203 -89488.39 134374.384 -89570.072 134354.981 -89634.032 134338.784 -89681.022 134325.617 -89711.732 134305.523 -89750.9 134284.176 -89709.044 134272.282 -89683.142 134259.566 -89649.922 134245.507 -89607.546 134229.583 -89554.178 134211.275 -89487.981 134190.062 -89407.118 134165.422 -89309.752 134136.835 -89194.048 134128.437 -89159.689 134048.537 -88832.181 134076.491 -88789.118 134131.543 -88710.034 134181.756 -88650.603 134228.286 -88610.169 134272.291 -88588.075 134314.926 -88583.664 134357.349 -88596.281"/><path d="M 133445.482 -87909.996 133532.334 -87914.509 133608.458 -87922.785 133646.456 -87929.578 133807.692 -87975.048 133959.962 -88039.057 134101.893 -88120.559 134232.116 -88218.509 134349.259 -88331.861 134451.951 -88459.568 134538.82 -88600.584 134547.343 -88616.847 134571.479 -88665.102 134586.322 -88699.076 134593.227 -88722.794 134593.55 -88740.278 134591.586 -88748.182 134582.382 -88775.794 134544.036 -88723.867 134487.145 -88654.941 134432.228 -88605.696 134377.557 -88574.965 134321.405 -88561.579 134302.897 -88560.769 134248.368 -88567.784 134197.157 -88589.924 134146.754 -88628.833 134094.648 -88686.154 134077.404 -88708.388 134030.869 -88770.293 133996.868 -88687.134 133969.906 -88628.911 133942.756 -88588.898 133912.313 -88564.33 133875.469 -88552.441 133842.945 -88550.181 133815.346 -88551.361 133790.82 -88555.878 133768.707 -88565.195 133748.343 -88580.779 133729.067 -88604.092 133710.216 -88636.601 133691.128 -88679.768 133671.141 -88735.06 133649.593 -88803.94 133625.821 -88887.873 133599.163 -88988.323 133568.958 -89106.755 133541.353 -89217.209 133512.149 -89333.789 133487.12 -89431.493 133465.74 -89512.09 133447.481 -89577.35 133431.818 -89629.044 133418.222 -89668.941 133406.166 -89698.811 133395.124 -89720.424 133388.516 -89730.509 133380.953 -89738.249 133373.757 -89736.506 133364.877 -89722.422 133352.265 -89693.14 133340.927 -89664.17 133330.457 -89633.249 133315.919 -89584.846 133298.165 -89522.077 133278.046 -89448.056 133256.412 -89365.899 133234.115 -89278.72 133218.236 -89215.03 133188.56 -89095.503 133162.976 -88994.543 133140.875 -88910.07 133121.646 -88840.005 133104.682 -88782.267 133089.373 -88734.776 133075.11 -88695.453 133061.283 -88662.218 133048.421 -88635.223 133021.526 -88591.12 132992.282 -88564.602 132955.704 -88552.245 132924.632 -88550.181 132883.077 -88552.749 132850.456 -88562.356 132823.699 -88581.856 132799.735 -88614.103 132775.492 -88661.95 132756.735 -88706.197 132729.914 -88772.263 132683.908 -88709.087 132625.271 -88640.333 132565.164 -88592.658 132504.067 -88566.066 132442.46 -88560.563 132380.826 -88576.154 132319.644 -88612.844 132259.396 -88670.639 132232.277 -88704.116 132206.597 -88737.631 132190.535 -88756.205 132181.11 -88761.918 132175.342 -88756.85 132171.405 -88746.577 132169.091 -88728.716 132174.045 -88705.165 132187.615 -88671.473 132205.17 -88635.048 132288.487 -88491.79 132388.086 -88361.199 132502.472 -88244.429 132630.156 -88142.635 132769.644 -88056.97 132919.445 -87988.589 133078.067 -87938.646 133117.069 -87929.578 133183.697 -87919.038 133264.851 -87912.26 133354.217 -87909.247 133445.482 -87909.996" fill="none" stroke-width="10"/><path d="M 133445.482 -87909.996 133532.334 -87914.509 133608.458 -87922.785 133646.456 -87929.578 133807.692 -87975.048 133959.962 -88039.057 134101.893 -88120.559 134232.116 -88218.509 134349.259 -88331.861 134451.951 -88459.568 134538.82 -88600.584 134547.343 -88616.847 134571.479 -88665.102 134586.322 -88699.076 134593.227 -88722.794 134593.55 -88740.278 134591.586 -88748.182 134582.382 -88775.794 134544.036 -88723.867 134487.145 -88654.941 134432.228 -88605.696 134377.557 -88574.965 134321.405 -88561.579 134302.897 -88560.769 134248.368 -88567.784 134197.157 -88589.924 134146.754 -88628.833 134094.648 -88686.154 134077.404 -88708.388 134030.869 -88770.293 133996.868 -88687.134 133969.906 -88628.911 133942.756 -88588.898 133912.313 -88564.33 133875.469 -88552.441 133842.945 -88550.181 133815.346 -88551.361 133790.82 -88555.878 133768.707 -88565.195 133748.343 -88580.779 133729.067 -88604.092 133710.216 -88636.601 133691.128 -88679.768 133671.141 -88735.06 133649.593 -88803.94 133625.821 -88887.873 133599.163 -88988.323 133568.958 -89106.755 133541.353 -89217.209 133512.149 -89333.789 133487.12 -89431.493 133465.74 -89512.09 133447.481 -89577.35 133431.818 -89629.044 133418.222 -89668.941 133406.166 -89698.811 133395.124 -89720.424 133388.516 -89730.509 133380.953 -89738.249 133373.757 -89736.506 133364.877 -89722.422 133352.265 -89693.14 133340.927 -89664.17 133330.457 -89633.249 133315.919 -89584.846 133298.165 -89522.077 133278.046 -89448.056 133256.412 -89365.899 133234.115 -89278.72 133218.236 -89215.03 133188.56 -89095.503 133162.976 -88994.543 133140.875 -88910.07 133121.646 -88840.005 133104.682 -88782.267 133089.373 -88734.776 133075.11 -88695.453 133061.283 -88662.218 133048.421 -88635.223 133021.526 -88591.12 132992.282 -88564.602 132955.704 -88552.245 132924.632 -88550.181 132883.077 -88552.749 132850.456 -88562.356 132823.699 -88581.856 132799.735 -88614.103 132775.492 -88661.95 132756.735 -88706.197 132729.914 -88772.263 132683.908 -88709.087 132625.271 -88640.333 132565.164 -88592.658 132504.067 -88566.066 132442.46 -88560.563 132380.826 -88576.154 132319.644 -88612.844 132259.396 -88670.639 132232.277 -88704.116 132206.597 -88737.631 132190.535 -88756.205 132181.11 -88761.918 132175.342 -88756.85 132171.405 -88746.577 132169.091 -88728.716 132174.045 -88705.165 132187.615 -88671.473 132205.17 -88635.048 132288.487 -88491.79 132388.086 -88361.199 132502.472 -88244.429 132630.156 -88142.635 132769.644 -88056.97 132919.445 -87988.589 133078.067 -87938.646 133117.069 -87929.578 133183.697 -87919.038 133264.851 -87912.26 133354.217 -87909.247 133445.482 -87909.996"/><path d="M 132481.347 -88585.462 132523.832 -88605.758 132570.485 -88644.58 132590.16 -88664.731 132623.487 -88703.375 132657.172 -88747.157 132676.312 -88774.969 132713.008 -88832.333 132619.74 -89207.41 132586.35 -89339.796 132556.983 -89452.126 132531.434 -89545.092 132509.494 -89619.386 132490.957 -89675.7 132475.616 -89714.726 132463.265 -89737.156 132460.484 -89740.389 132450.892 -89737.641 132437.432 -89717.298 132429.41 -89700.22 132411.063 -89652.043 132390.024 -89586.649 132366.076 -89503.261 132339.003 -89401.104 132308.588 -89279.4 132285.973 -89185.446 132268.55 -89112.643 132251.861 -89043.858 132236.803 -88982.718 132224.273 -88932.847 132215.17 -88897.871 132211.823 -88885.873 132196.798 -88835.112 132235.371 -88774.813 132269.665 -88726.091 132308.348 -88678.941 132347.175 -88637.98 132381.903 -88607.826 132398.89 -88596.901 132440.532 -88582.805 132481.347 -88585.462" fill="none" stroke-width="10"/><path d="M 132481.347 -88585.462 132523.832 -88605.758 132570.485 -88644.58 132590.16 -88664.731 132623.487 -88703.375 132657.172 -88747.157 132676.312 -88774.969 132713.008 -88832.333 132619.74 -89207.41 132586.35 -89339.796 132556.983 -89452.126 132531.434 -89545.092 132509.494 -89619.386 132490.957 -89675.7 132475.616 -89714.726 132463.265 -89737.156 132460.484 -89740.389 132450.892 -89737.641 132437.432 -89717.298 132429.41 -89700.22 132411.063 -89652.043 132390.024 -89586.649 132366.076 -89503.261 132339.003 -89401.104 132308.588 -89279.4 132285.973 -89185.446 132268.55 -89112.643 132251.861 -89043.858 132236.803 -88982.718 132224.273 -88932.847 132215.17 -88897.871 132211.823 -88885.873 132196.798 -88835.112 132235.371 -88774.813 132269.665 -88726.091 132308.348 -88678.941 132347.175 -88637.98 132381.903 -88607.826 132398.89 -88596.901 132440.532 -88582.805 132481.347 -88585.462"/><path d="M 132805.426 -89014.567 132818.977 -89039.907 132838.392 -89078.48 132862.162 -89127.288 132888.525 -89182.799 132958.344 -89327.595 133022.365 -89452.165 133080.657 -89556.63 133133.292 -89641.109 133180.339 -89705.722 133219.222 -89748.165 133276.42 -89795.127 133327.995 -89823.066 133376.789 -89832.366 133425.644 -89823.415 133477.4 -89796.598 133493.49 -89785.438 133529.995 -89756.225 133565.003 -89722.117 133599.739 -89681.201 133635.43 -89631.559 133673.301 -89571.278 133714.577 -89498.441 133760.486 -89411.133 133812.251 -89307.439 133852.32 -89224.719 133882.522 -89162.739 133909.966 -89108.232 133933.292 -89063.755 133951.142 -89031.861 133962.155 -89015.103 133964.875 -89013.327 133969.411 -89025.63 133977.879 -89055.359 133989.442 -89099.313 134003.264 -89154.286 134018.506 -89217.075 134022.315 -89233.09 134053.771 -89362.933 134082.234 -89473.356 134108.373 -89565.801 134132.853 -89641.706 134156.342 -89702.509 134179.506 -89749.649 134203.013 -89784.566 134227.528 -89808.698 134253.72 -89823.484 134282.255 -89830.363 134299.556 -89831.298 134330.863 -89829.261 134358.76 -89822.139 134383.981 -89808.415 134407.258 -89786.573 134429.324 -89755.095 134450.914 -89712.466 134472.759 -89657.168 134495.593 -89587.685 134520.149 -89502.499 134547.16 -89400.095 134577.359 -89278.955 134588.341 -89233.82 134604.325 -89168.43 134618.822 -89110.278 134631.05 -89062.415 134640.223 -89027.891 134645.557 -89009.759 134646.412 -89007.805 134653.287 -89013.573 134665.696 -89033.221 134672.729 -89046.357 134682.268 -89068.043 134688.623 -89091.887 134692.4 -89122.707 134694.204 -89165.322 134694.643 -89220.694 134687.528 -89369.163 134665.592 -89507.41 134631.002 -89632.16 134567.899 -89788.264 134487.626 -89932.695 134391.309 -90064.437 134280.077 -90182.473 134155.059 -90285.787 134017.382 -90373.362 133868.174 -90444.181 133708.563 -90497.228 133657.044 -90509.929 133609.566 -90518.247 133548.144 -90525.493 133478.719 -90531.32 133407.233 -90535.38 133339.628 -90537.327 133281.846 -90536.811 133244.122 -90534.081 133074.877 -90502.401 132914.251 -90451.797 132763.173 -90382.713 132622.573 -90295.593 132493.381 -90190.882 132460.44 -90159.518 132350.932 -90037.113 132257.403 -89902.107 132181.094 -89756.86 132123.247 -89603.733 132085.272 -89446.059 132076.598 -89382.267 132071.14 -89312.161 132068.889 -89240.686 132069.83 -89172.786 132073.954 -89113.406 132081.248 -89067.491 132086.202 -89050.806 132097.792 -89023.841 132107.265 -89007.598 132110.068 -89005.454 132114.217 -89015.306 132122.648 -89043.11 132134.648 -89086.242 132149.508 -89142.076 132166.515 -89207.986 132184.958 -89281.346 132186.776 -89288.676 132216.693 -89406.96 132243.232 -89506.201 132266.992 -89588.155 132288.574 -89654.577 132308.579 -89707.223 132327.607 -89747.848 132346.257 -89778.208 132359.831 -89794.74 132381.767 -89815.825 132401.872 -89826.755 132428.701 -89830.804 132455.335 -89831.298 132491.659 -89830.078 132515.433 -89824.211 132535.24 -89810.389 132551.228 -89794.328 132571.856 -89767.149 132592.909 -89728.317 132614.832 -89676.482 132638.072 -89610.292 132663.072 -89528.396 132690.279 -89429.444 132720.137 -89312.085 132747.5 -89198.68 132762.141 -89138.094 132775.485 -89085.286 132786.678 -89043.45 132794.864 -89015.778 132799.189 -89005.462 132799.246 -89005.454 132805.426 -89014.567" fill="none" stroke-width="10"/><path d="M 132805.426 -89014.567 132818.977 -89039.907 132838.392 -89078.48 132862.162 -89127.288 132888.525 -89182.799 132958.344 -89327.595 133022.365 -89452.165 133080.657 -89556.63 133133.292 -89641.109 133180.339 -89705.722 133219.222 -89748.165 133276.42 -89795.127 133327.995 -89823.066 133376.789 -89832.366 133425.644 -89823.415 133477.4 -89796.598 133493.49 -89785.438 133529.995 -89756.225 133565.003 -89722.117 133599.739 -89681.201 133635.43 -89631.559 133673.301 -89571.278 133714.577 -89498.441 133760.486 -89411.133 133812.251 -89307.439 133852.32 -89224.719 133882.522 -89162.739 133909.966 -89108.232 133933.292 -89063.755 133951.142 -89031.861 133962.155 -89015.103 133964.875 -89013.327 133969.411 -89025.63 133977.879 -89055.359 133989.442 -89099.313 134003.264 -89154.286 134018.506 -89217.075 134022.315 -89233.09 134053.771 -89362.933 134082.234 -89473.356 134108.373 -89565.801 134132.853 -89641.706 134156.342 -89702.509 134179.506 -89749.649 134203.013 -89784.566 134227.528 -89808.698 134253.72 -89823.484 134282.255 -89830.363 134299.556 -89831.298 134330.863 -89829.261 134358.76 -89822.139 134383.981 -89808.415 134407.258 -89786.573 134429.324 -89755.095 134450.914 -89712.466 134472.759 -89657.168 134495.593 -89587.685 134520.149 -89502.499 134547.16 -89400.095 134577.359 -89278.955 134588.341 -89233.82 134604.325 -89168.43 134618.822 -89110.278 134631.05 -89062.415 134640.223 -89027.891 134645.557 -89009.759 134646.412 -89007.805 134653.287 -89013.573 134665.696 -89033.221 134672.729 -89046.357 134682.268 -89068.043 134688.623 -89091.887 134692.4 -89122.707 134694.204 -89165.322 134694.643 -89220.694 134687.528 -89369.163 134665.592 -89507.41 134631.002 -89632.16 134567.899 -89788.264 134487.626 -89932.695 134391.309 -90064.437 134280.077 -90182.473 134155.059 -90285.787 134017.382 -90373.362 133868.174 -90444.181 133708.563 -90497.228 133657.044 -90509.929 133609.566 -90518.247 133548.144 -90525.493 133478.719 -90531.32 133407.233 -90535.38 133339.628 -90537.327 133281.846 -90536.811 133244.122 -90534.081 133074.877 -90502.401 132914.251 -90451.797 132763.173 -90382.713 132622.573 -90295.593 132493.381 -90190.882 132460.44 -90159.518 132350.932 -90037.113 132257.403 -89902.107 132181.094 -89756.86 132123.247 -89603.733 132085.272 -89446.059 132076.598 -89382.267 132071.14 -89312.161 132068.889 -89240.686 132069.83 -89172.786 132073.954 -89113.406 132081.248 -89067.491 132086.202 -89050.806 132097.792 -89023.841 132107.265 -89007.598 132110.068 -89005.454 132114.217 -89015.306 132122.648 -89043.11 132134.648 -89086.242 132149.508 -89142.076 132166.515 -89207.986 132184.958 -89281.346 132186.776 -89288.676 132216.693 -89406.96 132243.232 -89506.201 132266.992 -89588.155 132288.574 -89654.577 132308.579 -89707.223 132327.607 -89747.848 132346.257 -89778.208 132359.831 -89794.74 132381.767 -89815.825 132401.872 -89826.755 132428.701 -89830.804 132455.335 -89831.298 132491.659 -89830.078 132515.433 -89824.211 132535.24 -89810.389 132551.228 -89794.328 132571.856 -89767.149 132592.909 -89728.317 132614.832 -89676.482 132638.072 -89610.292 132663.072 -89528.396 132690.279 -89429.444 132720.137 -89312.085 132747.5 -89198.68 132762.141 -89138.094 132775.485 -89085.286 132786.678 -89043.45 132794.864 -89015.778 132799.189 -89005.462 132799.246 -89005.454 132805.426 -89014.567"/></g><g id="w9GuU51OyqfE5PXrtbF__bottom_drill1"><use xlink:href="#_ycw10fBZE9VnkaO3UzE_pad-1" x="78740" y="-99568"/><use xlink:href="#_ycw10fBZE9VnkaO3UzE_pad-1" x="79756" y="-91948"/><use xlink:href="#_ycw10fBZE9VnkaO3UzE_pad-1" x="81026" y="-85852"/><use xlink:href="#_ycw10fBZE9VnkaO3UzE_pad-1" x="81026" y="-90170"/><use xlink:href="#_ycw10fBZE9VnkaO3UzE_pad-1" x="81534" y="-93726"/><use xlink:href="#_ycw10fBZE9VnkaO3UzE_pad-1" x="83096" y="-92964"/><use xlink:href="#_ycw10fBZE9VnkaO3UzE_pad-1" x="83566" y="-85598"/><use xlink:href="#_ycw10fBZE9VnkaO3UzE_pad-1" x="83820" y="-103886"/><use xlink:href="#_ycw10fBZE9VnkaO3UzE_pad-1" x="84544" y="-92964"/><use xlink:href="#_ycw10fBZE9VnkaO3UzE_pad-1" x="85698" y="-98552"/><use xlink:href="#_ycw10fBZE9VnkaO3UzE_pad-1" x="86360" y="-85852"/><use xlink:href="#_ycw10fBZE9VnkaO3UzE_pad-1" x="87884" y="-91948"/><use xlink:href="#_ycw10fBZE9VnkaO3UzE_pad-1" x="90678" y="-86360"/><use xlink:href="#_ycw10fBZE9VnkaO3UzE_pad-1" x="98044" y="-87122"/><use xlink:href="#_ycw10fBZE9VnkaO3UzE_pad-1" x="98044" y="-92964"/><use xlink:href="#_ycw10fBZE9VnkaO3UzE_pad-1" x="98044" y="-103632"/><use xlink:href="#_ycw10fBZE9VnkaO3UzE_pad-1" x="99568" y="-86360"/><use xlink:href="#_ycw10fBZE9VnkaO3UzE_pad-1" x="99568" y="-92456"/><use xlink:href="#_ycw10fBZE9VnkaO3UzE_pad-1" x="102870" y="-96774"/><use xlink:href="#_ycw10fBZE9VnkaO3UzE_pad-1" x="102870" y="-98298"/><use xlink:href="#_ycw10fBZE9VnkaO3UzE_pad-1" x="102870" y="-100076"/><use xlink:href="#_ycw10fBZE9VnkaO3UzE_pad-1" x="103632" y="-100838"/><use xlink:href="#_ycw10fBZE9VnkaO3UzE_pad-1" x="104140" y="-89471"/><use xlink:href="#_ycw10fBZE9VnkaO3UzE_pad-1" x="104394" y="-85852"/><use xlink:href="#_ycw10fBZE9VnkaO3UzE_pad-1" x="104902" y="-99822"/><use xlink:href="#_ycw10fBZE9VnkaO3UzE_pad-1" x="106145" y="-90678"/><use xlink:href="#_ycw10fBZE9VnkaO3UzE_pad-1" x="106172" y="-100838"/><use xlink:href="#_ycw10fBZE9VnkaO3UzE_pad-1" x="106680" y="-89408"/><use xlink:href="#_ycw10fBZE9VnkaO3UzE_pad-1" x="107950" y="-103794"/><use xlink:href="#_ycw10fBZE9VnkaO3UzE_pad-1" x="109728" y="-103794"/><use xlink:href="#_ycw10fBZE9VnkaO3UzE_pad-1" x="111012" y="-99482"/><use xlink:href="#_ycw10fBZE9VnkaO3UzE_pad-1" x="111252" y="-98298"/><use xlink:href="#_ycw10fBZE9VnkaO3UzE_pad-1" x="111266" y="-103684"/><use xlink:href="#_ycw10fBZE9VnkaO3UzE_pad-1" x="113870" y="-96624"/><use xlink:href="#_ycw10fBZE9VnkaO3UzE_pad-1" x="114808" y="-99822"/><use xlink:href="#_ycw10fBZE9VnkaO3UzE_pad-1" x="114808" y="-104902"/><use xlink:href="#_ycw10fBZE9VnkaO3UzE_pad-1" x="116078" y="-104140"/><use xlink:href="#_ycw10fBZE9VnkaO3UzE_pad-1" x="116559" y="-89916"/><use xlink:href="#_ycw10fBZE9VnkaO3UzE_pad-1" x="118110" y="-99568"/><use xlink:href="#_ycw10fBZE9VnkaO3UzE_pad-1" x="119554" y="-100584"/><use xlink:href="#_ycw10fBZE9VnkaO3UzE_pad-1" x="119554" y="-101600"/><use xlink:href="#_ycw10fBZE9VnkaO3UzE_pad-1" x="119554" y="-102616"/><use xlink:href="#_ycw10fBZE9VnkaO3UzE_pad-1" x="119607" y="-97536"/><use xlink:href="#_ycw10fBZE9VnkaO3UzE_pad-1" x="119607" y="-98552"/><use xlink:href="#_ycw10fBZE9VnkaO3UzE_pad-1" x="119607" y="-99568"/><use xlink:href="#_ycw10fBZE9VnkaO3UzE_pad-1" x="120597" y="-100330"/><use xlink:href="#_ycw10fBZE9VnkaO3UzE_pad-1" x="120623" y="-98298"/><use xlink:href="#_ycw10fBZE9VnkaO3UzE_pad-1" x="120623" y="-99314"/><use xlink:href="#_ycw10fBZE9VnkaO3UzE_pad-1" x="121666" y="-103632"/><use xlink:href="#_ycw10fBZE9VnkaO3UzE_pad-1" x="123417" y="-86360"/><use xlink:href="#_ycw10fBZE9VnkaO3UzE_pad-1" x="123698" y="-101854"/><use xlink:href="#_ycw10fBZE9VnkaO3UzE_pad-1" x="125984" y="-99568"/><use xlink:href="#_ycw10fBZE9VnkaO3UzE_pad-1" x="127254" y="-96266"/><use xlink:href="#_ycw10fBZE9VnkaO3UzE_pad-1" x="127254" y="-101600"/><use xlink:href="#_ycw10fBZE9VnkaO3UzE_pad-1" x="129286" y="-97282"/><use xlink:href="#_ycw10fBZE9VnkaO3UzE_pad-1" x="129540" y="-105410"/><use xlink:href="#_ycw10fBZE9VnkaO3UzE_pad-1" x="130556" y="-100838"/><use xlink:href="#_ycw10fBZE9VnkaO3UzE_pad-1" x="133472" y="-89662"/><use xlink:href="#_ycw10fBZE9VnkaO3UzE_pad-1" x="134742" y="-89662"/><use xlink:href="#_ycw10fBZE9VnkaO3UzE_pad-1" x="136012" y="-89662"/><use xlink:href="#_ycw10fBZE9VnkaO3UzE_pad-1" x="136906" y="-87376"/><use xlink:href="#_ycw10fBZE9VnkaO3UzE_pad-1" x="136906" y="-88392"/></g><clipPath id="w9GuU51OyqfE5PXrtbF__bottom_outline"><path d="M 77488.051 -85108.051 A 2539.999 2539.999 0 0 1 74948.051 -87648.051 L 74948.051 -103359.949 A 2540.0490005 2540.0490005 0 0 1 77488.051 -105899.949 L 135109.949 -105899.949 A 2540.0490005 2540.0490005 0 0 1 137649.949 -103359.949 L 137649.949 -87648.051 A 2540.0490005 2540.0490005 0 0 1 135109.949 -85108.051 L 77488.051 -85108.051" fill="none" stroke-width="100"/></clipPath><mask id="w9GuU51OyqfE5PXrtbF__bottom_mech-mask"><g fill="#000" stroke="#000"><rect x="74948.051" y="-105899.949" width="62701.898" height="20791.898" fill="#fff"/><use xlink:href="#w9GuU51OyqfE5PXrtbF__bottom_drill1"/></g></mask><mask id="w9GuU51OyqfE5PXrtbF__bottom_cf-mask"><g fill="#fff" stroke="#fff"><use xlink:href="#w9GuU51OyqfE5PXrtbF__bottom_soldermask"/></g></mask><mask id="w9GuU51OyqfE5PXrtbF__bottom_sm-mask"><g fill="#000" stroke="#000"><rect x="74948.051" y="-105899.949" width="62701.898" height="20791.898" fill="#fff"/><use xlink:href="#w9GuU51OyqfE5PXrtbF__bottom_soldermask"/></g></mask></defs><g transform="translate(0,-191008) scale(1,-1)"><g mask="url(#w9GuU51OyqfE5PXrtbF__bottom_mech-mask)" clip-path="url(#w9GuU51OyqfE5PXrtbF__bottom_outline)" transform="translate(212598.00000000003,0) scale(-1,1)"><rect x="74948.051" y="-105899.949" width="62701.898" height="20791.898" fill="currentColor" class="w9GuU51OyqfE5PXrtbF__fr4"/><use xlink:href="#w9GuU51OyqfE5PXrtbF__bottom_copper" fill="currentColor" stroke="currentColor" class="w9GuU51OyqfE5PXrtbF__cu"/><use xlink:href="#w9GuU51OyqfE5PXrtbF__bottom_copper" fill="currentColor" stroke="currentColor" class="w9GuU51OyqfE5PXrtbF__cf" mask="url(#w9GuU51OyqfE5PXrtbF__bottom_cf-mask)"/><g mask="url(#w9GuU51OyqfE5PXrtbF__bottom_sm-mask)"><rect x="74948.051" y="-105899.949" width="62701.898" height="20791.898" fill="currentColor" class="w9GuU51OyqfE5PXrtbF__sm"/><use xlink:href="#w9GuU51OyqfE5PXrtbF__bottom_silkscreen" fill="currentColor" stroke="currentColor" class="w9GuU51OyqfE5PXrtbF__ss"/></g></g></g></svg>