<svg version="1.1" xmlns="http://www.w3.org/2000/svg" xmlns:xlink="http://www.w3.org/1999/xlink" stroke-linecap="round" stroke-linejoin="round" stroke-width="0" fill-rule="evenodd" width="61.094mm" height="32.652866mm" viewBox="75841.619 -118098.866 61094 32652.866" id="M4-pVwj6mligdCQ8c2bz"><g transform="translate(0,-203544.86599999998) scale(1,-1)" fill="currentColor" stroke="currentColor"><path d="M 81867.257 -117048.866 81867.257 -117858.389 81914.876 -117953.627 81962.495 -118001.247 82057.733 -118048.866 82248.209 -118048.866 82343.447 -118001.247 82391.066 -117953.627 82438.685 -117858.389 82438.685 -117048.866 M 82819.638 -117048.866 83486.304 -117048.866 83057.733 -118048.866" fill="none" stroke-width="100"/><path d="M 108158.619 -90908.094 107158.619 -90908.094 107158.619 -90669.999 107206.238 -90527.142 107301.476 -90431.904 107396.714 -90384.285 107587.19 -90336.666 107730.047 -90336.666 107920.523 -90384.285 108015.761 -90431.904 108111 -90527.142 108158.619 -90669.999 108158.619 -90908.094 M 107158.619 -90003.332 107158.619 -89336.666 108158.619 -89765.237 M 129190.761 -101395.857 129095.523 -101348.238 129000.285 -101253 128857.428 -101110.142 128762.19 -101062.523 128666.952 -101062.523 M 128714.571 -101300.619 128619.333 -101253 128524.095 -101157.761 128476.476 -100967.285 128476.476 -100633.952 128524.095 -100443.476 128619.333 -100348.238 128714.571 -100300.619 128905.047 -100300.619 129000.285 -100348.238 129095.523 -100443.476 129143.142 -100633.952 129143.142 -100967.285 129095.523 -101157.761 129000.285 -101253 128905.047 -101300.619 128714.571 -101300.619 M 129476.476 -100300.619 130095.523 -100300.619 129762.19 -100681.571 129905.047 -100681.571 130000.285 -100729.19 130047.904 -100776.809 130095.523 -100872.047 130095.523 -101110.142 130047.904 -101205.38 130000.285 -101253 129905.047 -101300.619 129619.333 -101300.619 129524.095 -101253 129476.476 -101205.38 M 99147.333 -86727.38 99099.714 -86775 98956.857 -86822.619 98861.619 -86822.619 98718.762 -86775 98623.524 -86679.761 98575.905 -86584.523 98528.286 -86394.047 98528.286 -86251.19 98575.905 -86060.714 98623.524 -85965.476 98718.762 -85870.238 98861.619 -85822.619 98956.857 -85822.619 99099.714 -85870.238 99147.333 -85917.857 M 100099.714 -86822.619 99528.286 -86822.619 M 99814 -86822.619 99814 -85822.619 99718.762 -85965.476 99623.524 -86060.714 99528.286 -86108.333 M 113561.905 -90632.619 113561.905 -89632.619 113800 -89632.619 113942.857 -89680.238 114038.095 -89775.476 114085.714 -89870.714 114133.333 -90061.19 114133.333 -90204.047 114085.714 -90394.523 114038.095 -90489.761 113942.857 -90585 113800 -90632.619 113561.905 -90632.619 M 114990.476 -89965.952 114990.476 -90632.619 M 114752.381 -89585 114514.286 -90299.285 115133.333 -90299.285 M 85965.38 -105036.857 86013 -105084.476 86060.619 -105227.333 86060.619 -105322.571 86013 -105465.428 85917.761 -105560.666 85822.523 -105608.285 85632.047 -105655.904 85489.19 -105655.904 85298.714 -105608.285 85203.476 -105560.666 85108.238 -105465.428 85060.619 -105322.571 85060.619 -105227.333 85108.238 -105084.476 85155.857 -105036.857 M 86060.619 -104084.476 86060.619 -104655.904 M 86060.619 -104370.19 85060.619 -104370.19 85203.476 -104465.428 85298.714 -104560.666 85346.333 -104655.904 M 85060.619 -103227.333 85060.619 -103417.809 85108.238 -103513.047 85155.857 -103560.666 85298.714 -103655.904 85489.19 -103703.523 85870.142 -103703.523 85965.38 -103655.904 86013 -103608.285 86060.619 -103513.047 86060.619 -103322.571 86013 -103227.333 85965.38 -103179.714 85870.142 -103132.095 85632.047 -103132.095 85536.809 -103179.714 85489.19 -103227.333 85441.571 -103322.571 85441.571 -103513.047 85489.19 -103608.285 85536.809 -103655.904 85632.047 -103703.523 M 113492.619 -105036.857 113016.428 -105370.19 M 113492.619 -105608.285 112492.619 -105608.285 112492.619 -105227.333 112540.238 -105132.095 112587.857 -105084.476 112683.095 -105036.857 112825.952 -105036.857 112921.19 -105084.476 112968.809 -105132.095 113016.428 -105227.333 113016.428 -105608.285 M 113492.619 -104084.476 113492.619 -104655.904 M 113492.619 -104370.19 112492.619 -104370.19 112635.476 -104465.428 112730.714 -104560.666 112778.333 -104655.904 M 112492.619 -103465.428 112492.619 -103370.19 112540.238 -103274.952 112587.857 -103227.333 112683.095 -103179.714 112873.571 -103132.095 113111.666 -103132.095 113302.142 -103179.714 113397.38 -103227.333 113445 -103274.952 113492.619 -103370.19 113492.619 -103465.428 113445 -103560.666 113397.38 -103608.285 113302.142 -103655.904 113111.666 -103703.523 112873.571 -103703.523 112683.095 -103655.904 112587.857 -103608.285 112540.238 -103560.666 112492.619 -103465.428 M 84187.38 -105036.857 84235 -105084.476 84282.619 -105227.333 84282.619 -105322.571 84235 -105465.428 84139.761 -105560.666 84044.523 -105608.285 83854.047 -105655.904 83711.19 -105655.904 83520.714 -105608.285 83425.476 -105560.666 83330.238 -105465.428 83282.619 -105322.571 83282.619 -105227.333 83330.238 -105084.476 83377.857 -105036.857 M 84282.619 -104084.476 84282.619 -104655.904 M 84282.619 -104370.19 83282.619 -104370.19 83425.476 -104465.428 83520.714 -104560.666 83568.333 -104655.904 M 83282.619 -103751.142 83282.619 -103084.476 84282.619 -103513.047 M 116419.333 -90029.38 116371.714 -90077 116228.857 -90124.619 116133.619 -90124.619 115990.762 -90077 115895.524 -89981.761 115847.905 -89886.523 115800.286 -89696.047 115800.286 -89553.19 115847.905 -89362.714 115895.524 -89267.476 115990.762 -89172.238 116133.619 -89124.619 116228.857 -89124.619 116371.714 -89172.238 116419.333 -89219.857 M 116895.524 -90124.619 117086 -90124.619 117181.238 -90077 117228.857 -90029.38 117324.095 -89886.523 117371.714 -89696.047 117371.714 -89315.095 117324.095 -89219.857 117276.476 -89172.238 117181.238 -89124.619 116990.762 -89124.619 116895.524 -89172.238 116847.905 -89219.857 116800.286 -89315.095 116800.286 -89553.19 116847.905 -89648.428 116895.524 -89696.047 116990.762 -89743.666 117181.238 -89743.666 117276.476 -89696.047 117324.095 -89648.428 117371.714 -89553.19 M 91051.142 -102475.38 91003.523 -102523 90860.666 -102570.619 90765.428 -102570.619 90622.571 -102523 90527.333 -102427.761 90479.714 -102332.523 90432.095 -102142.047 90432.095 -101999.19 90479.714 -101808.714 90527.333 -101713.476 90622.571 -101618.238 90765.428 -101570.619 90860.666 -101570.619 91003.523 -101618.238 91051.142 -101665.857 M 91432.095 -101665.857 91479.714 -101618.238 91574.952 -101570.619 91813.047 -101570.619 91908.285 -101618.238 91955.904 -101665.857 92003.523 -101761.095 92003.523 -101856.333 91955.904 -101999.19 91384.476 -102570.619 92003.523 -102570.619 M 92336.857 -101570.619 92955.904 -101570.619 92622.571 -101951.571 92765.428 -101951.571 92860.666 -101999.19 92908.285 -102046.809 92955.904 -102142.047 92955.904 -102380.142 92908.285 -102475.38 92860.666 -102523 92765.428 -102570.619 92479.714 -102570.619 92384.476 -102523 92336.857 -102475.38 M 103211.333 -97141.38 103163.714 -97189 103020.857 -97236.619 102925.619 -97236.619 102782.762 -97189 102687.524 -97093.761 102639.905 -96998.523 102592.286 -96808.047 102592.286 -96665.19 102639.905 -96474.714 102687.524 -96379.476 102782.762 -96284.238 102925.619 -96236.619 103020.857 -96236.619 103163.714 -96284.238 103211.333 -96331.857 M 104068.476 -96569.952 104068.476 -97236.619 M 103830.381 -96189 103592.286 -96903.285 104211.333 -96903.285 M 112492.619 -88383.904 112492.619 -87812.476 M 113492.619 -88098.19 112492.619 -88098.19 M 113492.619 -87479.142 112492.619 -87479.142 112492.619 -87098.19 112540.238 -87002.952 112587.857 -86955.333 112683.095 -86907.714 112825.952 -86907.714 112921.19 -86955.333 112968.809 -87002.952 113016.428 -87098.19 113016.428 -87479.142 M 112492.619 -86050.571 112492.619 -86241.047 112540.238 -86336.285 112587.857 -86383.904 112730.714 -86479.142 112921.19 -86526.761 113302.142 -86526.761 113397.38 -86479.142 113445 -86431.523 113492.619 -86336.285 113492.619 -86145.809 113445 -86050.571 113397.38 -86002.952 113302.142 -85955.333 113064.047 -85955.333 112968.809 -86002.952 112921.19 -86050.571 112873.571 -86145.809 112873.571 -86336.285 112921.19 -86431.523 112968.809 -86479.142 113064.047 -86526.761 M 109275.714 -90029.38 109228.095 -90077 109085.238 -90124.619 108990 -90124.619 108847.143 -90077 108751.905 -89981.761 108704.286 -89886.523 108656.667 -89696.047 108656.667 -89553.19 108704.286 -89362.714 108751.905 -89267.476 108847.143 -89172.238 108990 -89124.619 109085.238 -89124.619 109228.095 -89172.238 109275.714 -89219.857 M 109704.286 -89124.619 109704.286 -89934.142 109751.905 -90029.38 109799.524 -90077 109894.762 -90124.619 110085.238 -90124.619 110180.476 -90077 110228.095 -90029.38 110275.714 -89934.142 110275.714 -89124.619 M 111323.333 -90124.619 110990 -89648.428 M 110751.905 -90124.619 110751.905 -89124.619 111132.857 -89124.619 111228.095 -89172.238 111275.714 -89219.857 111323.333 -89315.095 111323.333 -89457.952 111275.714 -89553.19 111228.095 -89600.809 111132.857 -89648.428 110751.905 -89648.428 M 112323.333 -90124.619 111990 -89648.428 M 111751.905 -90124.619 111751.905 -89124.619 112132.857 -89124.619 112228.095 -89172.238 112275.714 -89219.857 112323.333 -89315.095 112323.333 -89457.952 112275.714 -89553.19 112228.095 -89600.809 112132.857 -89648.428 111751.905 -89648.428 M 119721.333 -102983.38 119673.714 -103031 119530.857 -103078.619 119435.619 -103078.619 119292.762 -103031 119197.524 -102935.761 119149.905 -102840.523 119102.286 -102650.047 119102.286 -102507.19 119149.905 -102316.714 119197.524 -102221.476 119292.762 -102126.238 119435.619 -102078.619 119530.857 -102078.619 119673.714 -102126.238 119721.333 -102173.857 M 120054.667 -102078.619 120721.333 -102078.619 120292.762 -103078.619 M 121928.095 -102840.619 122499.523 -102840.619 M 122213.809 -103840.619 122213.809 -102840.619 M 122832.857 -103840.619 122832.857 -102840.619 123213.809 -102840.619 123309.047 -102888.238 123356.666 -102935.857 123404.285 -103031.095 123404.285 -103173.952 123356.666 -103269.19 123309.047 -103316.809 123213.809 -103364.428 122832.857 -103364.428 M 123737.619 -102840.619 124404.285 -102840.619 123975.714 -103840.619 M 122451.905 -104586.809 122785.238 -104586.809 M 122928.095 -105110.619 122451.905 -105110.619 122451.905 -104110.619 122928.095 -104110.619 M 123356.667 -105110.619 123356.667 -104110.619 123928.095 -105110.619 123928.095 -104110.619 M 125595.142 -98919.38 125547.523 -98967 125404.666 -99014.619 125309.428 -99014.619 125166.571 -98967 125071.333 -98871.761 125023.714 -98776.523 124976.095 -98586.047 124976.095 -98443.19 125023.714 -98252.714 125071.333 -98157.476 125166.571 -98062.238 125309.428 -98014.619 125404.666 -98014.619 125547.523 -98062.238 125595.142 -98109.857 M 126547.523 -99014.619 125976.095 -99014.619 M 126261.809 -99014.619 126261.809 -98014.619 126166.571 -98157.476 126071.333 -98252.714 125976.095 -98300.333 M 127499.904 -99014.619 126928.476 -99014.619 M 127214.19 -99014.619 127214.19 -98014.619 127118.952 -98157.476 127023.714 -98252.714 126928.476 -98300.333 M 91813.142 -98665.38 91765.523 -98713 91622.666 -98760.619 91527.428 -98760.619 91384.571 -98713 91289.333 -98617.761 91241.714 -98522.523 91194.095 -98332.047 91194.095 -98189.19 91241.714 -97998.714 91289.333 -97903.476 91384.571 -97808.238 91527.428 -97760.619 91622.666 -97760.619 91765.523 -97808.238 91813.142 -97855.857 M 92194.095 -97855.857 92241.714 -97808.238 92336.952 -97760.619 92575.047 -97760.619 92670.285 -97808.238 92717.904 -97855.857 92765.523 -97951.095 92765.523 -98046.333 92717.904 -98189.19 92146.476 -98760.619 92765.523 -98760.619 M 93146.476 -97855.857 93194.095 -97808.238 93289.333 -97760.619 93527.428 -97760.619 93622.666 -97808.238 93670.285 -97855.857 93717.904 -97951.095 93717.904 -98046.333 93670.285 -98189.19 93098.857 -98760.619 93717.904 -98760.619 M 129548.095 -90648.619 130119.523 -90648.619 M 129833.809 -91648.619 129833.809 -90648.619 M 130452.857 -91648.619 130452.857 -90648.619 130833.809 -90648.619 130929.047 -90696.238 130976.666 -90743.857 131024.285 -90839.095 131024.285 -90981.952 130976.666 -91077.19 130929.047 -91124.809 130833.809 -91172.428 130452.857 -91172.428 M 131405.238 -90743.857 131452.857 -90696.238 131548.095 -90648.619 131786.19 -90648.619 131881.428 -90696.238 131929.047 -90743.857 131976.666 -90839.095 131976.666 -90934.333 131929.047 -91077.19 131357.619 -91648.619 131976.666 -91648.619 M 129667.142 -90378.619 129190.952 -90378.619 129190.952 -89378.619 M 130190.952 -89378.619 130381.428 -89378.619 130476.666 -89426.238 130571.904 -89521.476 130619.523 -89711.952 130619.523 -90045.285 130571.904 -90235.761 130476.666 -90331 130381.428 -90378.619 130190.952 -90378.619 130095.714 -90331 130000.476 -90235.761 129952.857 -90045.285 129952.857 -89711.952 130000.476 -89521.476 130095.714 -89426.238 130190.952 -89378.619 M 131000.476 -90092.904 131476.666 -90092.904 M 130905.238 -90378.619 131238.571 -89378.619 131571.904 -90378.619 M 131905.238 -90378.619 131905.238 -89378.619 132143.333 -89378.619 132286.19 -89426.238 132381.428 -89521.476 132429.047 -89616.714 132476.666 -89807.19 132476.666 -89950.047 132429.047 -90140.523 132381.428 -90235.761 132286.19 -90331 132143.333 -90378.619 131905.238 -90378.619 M 97877.333 -92315.38 97829.714 -92363 97686.857 -92410.619 97591.619 -92410.619 97448.762 -92363 97353.524 -92267.761 97305.905 -92172.523 97258.286 -91982.047 97258.286 -91839.19 97305.905 -91648.714 97353.524 -91553.476 97448.762 -91458.238 97591.619 -91410.619 97686.857 -91410.619 97829.714 -91458.238 97877.333 -91505.857 M 98210.667 -91410.619 98829.714 -91410.619 98496.381 -91791.571 98639.238 -91791.571 98734.476 -91839.19 98782.095 -91886.809 98829.714 -91982.047 98829.714 -92220.142 98782.095 -92315.38 98734.476 -92363 98639.238 -92410.619 98353.524 -92410.619 98258.286 -92363 98210.667 -92315.38" fill="none" stroke-width="150"/><path d="M 119951.333 -98986.026 119346.571 -98986.026 119346.571 -97716.026 M 120314.19 -97836.978 120374.666 -97776.502 120495.619 -97716.026 120798 -97716.026 120918.952 -97776.502 120979.428 -97836.978 121039.905 -97957.93 121039.905 -98078.883 120979.428 -98260.311 120253.714 -98986.026 121039.905 -98986.026" fill="none" stroke-width="254"/><path d="M 103211.333 -100443.38 103163.714 -100491 103020.857 -100538.619 102925.619 -100538.619 102782.762 -100491 102687.524 -100395.761 102639.905 -100300.523 102592.286 -100110.047 102592.286 -99967.19 102639.905 -99776.714 102687.524 -99681.476 102782.762 -99586.238 102925.619 -99538.619 103020.857 -99538.619 103163.714 -99586.238 103211.333 -99633.857 M 104068.476 -99538.619 103878 -99538.619 103782.762 -99586.238 103735.143 -99633.857 103639.905 -99776.714 103592.286 -99967.19 103592.286 -100348.142 103639.905 -100443.38 103687.524 -100491 103782.762 -100538.619 103973.238 -100538.619 104068.476 -100491 104116.095 -100443.38 104163.714 -100348.142 104163.714 -100110.047 104116.095 -100014.809 104068.476 -99967.19 103973.238 -99919.571 103782.762 -99919.571 103687.524 -99967.19 103639.905 -100014.809 103592.286 -100110.047 M 97559.905 -100538.619 97559.905 -99538.619 97798 -99538.619 97940.857 -99586.238 98036.095 -99681.476 98083.714 -99776.714 98131.333 -99967.19 98131.333 -100110.047 98083.714 -100300.523 98036.095 -100395.761 97940.857 -100491 97798 -100538.619 97559.905 -100538.619 M 98512.286 -99633.857 98559.905 -99586.238 98655.143 -99538.619 98893.238 -99538.619 98988.476 -99586.238 99036.095 -99633.857 99083.714 -99729.095 99083.714 -99824.333 99036.095 -99967.19 98464.667 -100538.619 99083.714 -100538.619 M 105110.619 -95416.666 104634.428 -95749.999 M 105110.619 -95988.094 104110.619 -95988.094 104110.619 -95607.142 104158.238 -95511.904 104205.857 -95464.285 104301.095 -95416.666 104443.952 -95416.666 104539.19 -95464.285 104586.809 -95511.904 104634.428 -95607.142 104634.428 -95988.094 M 104110.619 -95083.332 104110.619 -94416.666 105110.619 -94845.237 M 111272.38 -93382.076 111272.38 -93900.171 111302.857 -93961.123 111333.333 -93991.6 111394.285 -94022.076 111516.19 -94022.076 111577.142 -93991.6 111607.619 -93961.123 111638.095 -93900.171 111638.095 -93382.076 M 111881.904 -93382.076 112278.095 -93382.076 112064.761 -93625.885 112156.19 -93625.885 112217.142 -93656.361 112247.618 -93686.838 112278.095 -93747.79 112278.095 -93900.171 112247.618 -93961.123 112217.142 -93991.6 112156.19 -94022.076 111973.333 -94022.076 111912.38 -93991.6 111881.904 -93961.123 M 97559.905 -97998.619 97559.905 -96998.619 97798 -96998.619 97940.857 -97046.238 98036.095 -97141.476 98083.714 -97236.714 98131.333 -97427.19 98131.333 -97570.047 98083.714 -97760.523 98036.095 -97855.761 97940.857 -97951 97798 -97998.619 97559.905 -97998.619 M 99036.095 -96998.619 98559.905 -96998.619 98512.286 -97474.809 98559.905 -97427.19 98655.143 -97379.571 98893.238 -97379.571 98988.476 -97427.19 99036.095 -97474.809 99083.714 -97570.047 99083.714 -97808.142 99036.095 -97903.38 98988.476 -97951 98893.238 -97998.619 98655.143 -97998.619 98559.905 -97951 98512.286 -97903.38" fill="none" stroke-width="150"/><path d="M 79710.619 -99226.666 79710.619 -99702.856 78710.619 -99702.856 M 79710.619 -98369.523 79710.619 -98940.951 M 79710.619 -98655.237 78710.619 -98655.237 78853.476 -98750.475 78948.714 -98845.713 78996.333 -98940.951" fill="none" stroke-width="100"/><path d="M 78345.38 -99917.142 78393 -99964.761 78440.619 -100107.618 78440.619 -100202.856 78393 -100345.713 78297.761 -100440.951 78202.523 -100488.57 78012.047 -100536.189 77869.19 -100536.189 77678.714 -100488.57 77583.476 -100440.951 77488.238 -100345.713 77440.619 -100202.856 77440.619 -100107.618 77488.238 -99964.761 77535.857 -99917.142 M 77440.619 -99298.094 77440.619 -99107.618 77488.238 -99012.38 77583.476 -98917.142 77773.952 -98869.523 78107.285 -98869.523 78297.761 -98917.142 78393 -99012.38 78440.619 -99107.618 78440.619 -99298.094 78393 -99393.332 78297.761 -99488.57 78107.285 -99536.189 77773.952 -99536.189 77583.476 -99488.57 77488.238 -99393.332 77440.619 -99298.094 M 78440.619 -98440.951 77440.619 -98440.951 M 78440.619 -97488.571 78440.619 -97964.761 77440.619 -97964.761 M 92106.761 -105459.857 92011.523 -105412.238 91916.285 -105317 91773.428 -105174.142 91678.19 -105126.523 91582.952 -105126.523 M 91630.571 -105364.619 91535.333 -105317 91440.095 -105221.761 91392.476 -105031.285 91392.476 -104697.952 91440.095 -104507.476 91535.333 -104412.238 91630.571 -104364.619 91821.047 -104364.619 91916.285 -104412.238 92011.523 -104507.476 92059.142 -104697.952 92059.142 -105031.285 92011.523 -105221.761 91916.285 -105317 91821.047 -105364.619 91630.571 -105364.619 M 92963.904 -104364.619 92487.714 -104364.619 92440.095 -104840.809 92487.714 -104793.19 92582.952 -104745.571 92821.047 -104745.571 92916.285 -104793.19 92963.904 -104840.809 93011.523 -104936.047 93011.523 -105174.142 92963.904 -105269.38 92916.285 -105317 92821.047 -105364.619 92582.952 -105364.619 92487.714 -105317 92440.095 -105269.38 M 103211.333 -98919.38 103163.714 -98967 103020.857 -99014.619 102925.619 -99014.619 102782.762 -98967 102687.524 -98871.761 102639.905 -98776.523 102592.286 -98586.047 102592.286 -98443.19 102639.905 -98252.714 102687.524 -98157.476 102782.762 -98062.238 102925.619 -98014.619 103020.857 -98014.619 103163.714 -98062.238 103211.333 -98109.857 M 104116.095 -98014.619 103639.905 -98014.619 103592.286 -98490.809 103639.905 -98443.19 103735.143 -98395.571 103973.238 -98395.571 104068.476 -98443.19 104116.095 -98490.809 104163.714 -98586.047 104163.714 -98824.142 104116.095 -98919.38 104068.476 -98967 103973.238 -99014.619 103735.143 -99014.619 103639.905 -98967 103592.286 -98919.38 M 95258.095 -85568.619 95829.523 -85568.619 M 95543.809 -86568.619 95543.809 -85568.619 M 96162.857 -86568.619 96162.857 -85568.619 96543.809 -85568.619 96639.047 -85616.238 96686.666 -85663.857 96734.285 -85759.095 96734.285 -85901.952 96686.666 -85997.19 96639.047 -86044.809 96543.809 -86092.428 96162.857 -86092.428 M 97591.428 -85901.952 97591.428 -86568.619 M 97353.333 -85521 97115.238 -86235.285 97734.285 -86235.285 M 91416.476 -90378.619 91416.476 -89378.619 91654.571 -89378.619 91797.428 -89426.238 91892.666 -89521.476 91940.285 -89616.714 91987.904 -89807.19 91987.904 -89950.047 91940.285 -90140.523 91892.666 -90235.761 91797.428 -90331 91654.571 -90378.619 91416.476 -90378.619 M 92416.476 -89854.809 92749.809 -89854.809 M 92892.666 -90378.619 92416.476 -90378.619 92416.476 -89378.619 92892.666 -89378.619 M 93321.238 -90378.619 93321.238 -89378.619 93654.571 -90092.904 93987.904 -89378.619 93987.904 -90378.619 M 94654.571 -89378.619 94845.047 -89378.619 94940.285 -89426.238 95035.523 -89521.476 95083.142 -89711.952 95083.142 -90045.285 95035.523 -90235.761 94940.285 -90331 94845.047 -90378.619 94654.571 -90378.619 94559.333 -90331 94464.095 -90235.761 94416.476 -90045.285 94416.476 -89711.952 94464.095 -89521.476 94559.333 -89426.238 94654.571 -89378.619 M 95511.714 -90378.619 95511.714 -89378.619 95749.809 -89378.619 95892.666 -89426.238 95987.904 -89521.476 96035.523 -89616.714 96083.142 -89807.19 96083.142 -89950.047 96035.523 -90140.523 95987.904 -90235.761 95892.666 -90331 95749.809 -90378.619 95511.714 -90378.619 M 132193.38 -100343.357 132241 -100390.976 132288.619 -100533.833 132288.619 -100629.071 132241 -100771.928 132145.761 -100867.166 132050.523 -100914.785 131860.047 -100962.404 131717.19 -100962.404 131526.714 -100914.785 131431.476 -100867.166 131336.238 -100771.928 131288.619 -100629.071 131288.619 -100533.833 131336.238 -100390.976 131383.857 -100343.357 M 132288.619 -99390.976 132288.619 -99962.404 M 132288.619 -99676.69 131288.619 -99676.69 131431.476 -99771.928 131526.714 -99867.166 131574.333 -99962.404 M 132288.619 -98914.785 132288.619 -98724.309 132241 -98629.071 132193.38 -98581.452 132050.523 -98486.214 131860.047 -98438.595 131479.095 -98438.595 131383.857 -98486.214 131336.238 -98533.833 131288.619 -98629.071 131288.619 -98819.547 131336.238 -98914.785 131383.857 -98962.404 131479.095 -99010.023 131717.19 -99010.023 131812.428 -98962.404 131860.047 -98914.785 131907.666 -98819.547 131907.666 -98629.071 131860.047 -98533.833 131812.428 -98486.214 131717.19 -98438.595 M 133358.095 -90648.619 133929.523 -90648.619 M 133643.809 -91648.619 133643.809 -90648.619 M 134262.857 -91648.619 134262.857 -90648.619 134643.809 -90648.619 134739.047 -90696.238 134786.666 -90743.857 134834.285 -90839.095 134834.285 -90981.952 134786.666 -91077.19 134739.047 -91124.809 134643.809 -91172.428 134262.857 -91172.428 M 135167.619 -90648.619 135786.666 -90648.619 135453.333 -91029.571 135596.19 -91029.571 135691.428 -91077.19 135739.047 -91124.809 135786.666 -91220.047 135786.666 -91458.142 135739.047 -91553.38 135691.428 -91601 135596.19 -91648.619 135310.476 -91648.619 135215.238 -91601 135167.619 -91553.38 M 133858.095 -89426.238 133762.857 -89378.619 133620 -89378.619 133477.143 -89426.238 133381.905 -89521.476 133334.286 -89616.714 133286.667 -89807.19 133286.667 -89950.047 133334.286 -90140.523 133381.905 -90235.761 133477.143 -90331 133620 -90378.619 133715.238 -90378.619 133858.095 -90331 133905.714 -90283.38 133905.714 -89950.047 133715.238 -89950.047 M 134334.286 -90378.619 134334.286 -89378.619 134905.714 -90378.619 134905.714 -89378.619 M 135381.905 -90378.619 135381.905 -89378.619 135620 -89378.619 135762.857 -89426.238 135858.095 -89521.476 135905.714 -89616.714 135953.333 -89807.19 135953.333 -89950.047 135905.714 -90140.523 135858.095 -90235.761 135762.857 -90331 135620 -90378.619 135381.905 -90378.619 M 101586.833 -94253.38 101539.214 -94301 101396.357 -94348.619 101301.119 -94348.619 101158.262 -94301 101063.024 -94205.761 101015.405 -94110.523 100967.786 -93920.047 100967.786 -93777.19 101015.405 -93586.714 101063.024 -93491.476 101158.262 -93396.238 101301.119 -93348.619 101396.357 -93348.619 101539.214 -93396.238 101586.833 -93443.857 M 101967.786 -93443.857 102015.405 -93396.238 102110.643 -93348.619 102348.738 -93348.619 102443.976 -93396.238 102491.595 -93443.857 102539.214 -93539.095 102539.214 -93634.333 102491.595 -93777.19 101920.167 -94348.619 102539.214 -94348.619 M 131476.761 -97839.857 131381.523 -97792.238 131286.285 -97697 131143.428 -97554.142 131048.19 -97506.523 130952.952 -97506.523 M 131000.571 -97744.619 130905.333 -97697 130810.095 -97601.761 130762.476 -97411.285 130762.476 -97077.952 130810.095 -96887.476 130905.333 -96792.238 131000.571 -96744.619 131191.047 -96744.619 131286.285 -96792.238 131381.523 -96887.476 131429.142 -97077.952 131429.142 -97411.285 131381.523 -97601.761 131286.285 -97697 131191.047 -97744.619 131000.571 -97744.619 M 132381.523 -97744.619 131810.095 -97744.619 M 132095.809 -97744.619 132095.809 -96744.619 132000.571 -96887.476 131905.333 -96982.714 131810.095 -97030.333 M 127595.333 -88854.619 127262 -88378.428 M 127023.905 -88854.619 127023.905 -87854.619 127404.857 -87854.619 127500.095 -87902.238 127547.714 -87949.857 127595.333 -88045.095 127595.333 -88187.952 127547.714 -88283.19 127500.095 -88330.809 127404.857 -88378.428 127023.905 -88378.428 M 128166.762 -88283.19 128071.524 -88235.571 128023.905 -88187.952 127976.286 -88092.714 127976.286 -88045.095 128023.905 -87949.857 128071.524 -87902.238 128166.762 -87854.619 128357.238 -87854.619 128452.476 -87902.238 128500.095 -87949.857 128547.714 -88045.095 128547.714 -88092.714 128500.095 -88187.952 128452.476 -88235.571 128357.238 -88283.19 128166.762 -88283.19 128071.524 -88330.809 128023.905 -88378.428 127976.286 -88473.666 127976.286 -88664.142 128023.905 -88759.38 128071.524 -88807 128166.762 -88854.619 128357.238 -88854.619 128452.476 -88807 128500.095 -88759.38 128547.714 -88664.142 128547.714 -88473.666 128500.095 -88378.428 128452.476 -88330.809 128357.238 -88283.19 M 85463.142 -99173.38 85415.523 -99221 85272.666 -99268.619 85177.428 -99268.619 85034.571 -99221 84939.333 -99125.761 84891.714 -99030.523 84844.095 -98840.047 84844.095 -98697.19 84891.714 -98506.714 84939.333 -98411.476 85034.571 -98316.238 85177.428 -98268.619 85272.666 -98268.619 85415.523 -98316.238 85463.142 -98363.857 M 86415.523 -99268.619 85844.095 -99268.619 M 86129.809 -99268.619 86129.809 -98268.619 86034.571 -98411.476 85939.333 -98506.714 85844.095 -98554.333 M 87320.285 -98268.619 86844.095 -98268.619 86796.476 -98744.809 86844.095 -98697.19 86939.333 -98649.571 87177.428 -98649.571 87272.666 -98697.19 87320.285 -98744.809 87367.904 -98840.047 87367.904 -99078.142 87320.285 -99173.38 87272.666 -99221 87177.428 -99268.619 86939.333 -99268.619 86844.095 -99221 86796.476 -99173.38 M 81335.714 -93426.619 81335.714 -92426.619 81573.809 -92426.619 81716.666 -92474.238 81811.904 -92569.476 81859.523 -92664.714 81907.142 -92855.19 81907.142 -92998.047 81859.523 -93188.523 81811.904 -93283.761 81716.666 -93379 81573.809 -93426.619 81335.714 -93426.619 M 82859.523 -93426.619 82288.095 -93426.619 M 82573.809 -93426.619 82573.809 -92426.619 82478.571 -92569.476 82383.333 -92664.714 82288.095 -92712.333 M 83811.904 -93426.619 83240.476 -93426.619 M 83526.19 -93426.619 83526.19 -92426.619 83430.952 -92569.476 83335.714 -92664.714 83240.476 -92712.333 M 134778.761 -97839.857 134683.523 -97792.238 134588.285 -97697 134445.428 -97554.142 134350.19 -97506.523 134254.952 -97506.523 M 134302.571 -97744.619 134207.333 -97697 134112.095 -97601.761 134064.476 -97411.285 134064.476 -97077.952 134112.095 -96887.476 134207.333 -96792.238 134302.571 -96744.619 134493.047 -96744.619 134588.285 -96792.238 134683.523 -96887.476 134731.142 -97077.952 134731.142 -97411.285 134683.523 -97601.761 134588.285 -97697 134493.047 -97744.619 134302.571 -97744.619 M 135112.095 -96839.857 135159.714 -96792.238 135254.952 -96744.619 135493.047 -96744.619 135588.285 -96792.238 135635.904 -96839.857 135683.523 -96935.095 135683.523 -97030.333 135635.904 -97173.19 135064.476 -97744.619 135683.523 -97744.619 M 92212.357 -95266.738 92164.738 -95361.976 92069.5 -95457.214 91926.642 -95600.071 91879.023 -95695.309 91879.023 -95790.547 M 92117.119 -95742.928 92069.5 -95838.166 91974.261 -95933.404 91783.785 -95981.023 91450.452 -95981.023 91259.976 -95933.404 91164.738 -95838.166 91117.119 -95742.928 91117.119 -95552.452 91164.738 -95457.214 91259.976 -95361.976 91450.452 -95314.357 91783.785 -95314.357 91974.261 -95361.976 92069.5 -95457.214 92117.119 -95552.452 92117.119 -95742.928 M 91450.452 -94457.214 92117.119 -94457.214 M 91069.5 -94695.309 91783.785 -94933.404 91783.785 -94314.357 M 104696.619 -87138.166 104220.428 -87471.499 M 104696.619 -87709.594 103696.619 -87709.594 103696.619 -87328.642 103744.238 -87233.404 103791.857 -87185.785 103887.095 -87138.166 104029.952 -87138.166 104125.19 -87185.785 104172.809 -87233.404 104220.428 -87328.642 104220.428 -87709.594 M 104696.619 -86661.975 104696.619 -86471.499 104649 -86376.261 104601.38 -86328.642 104458.523 -86233.404 104268.047 -86185.785 103887.095 -86185.785 103791.857 -86233.404 103744.238 -86281.023 103696.619 -86376.261 103696.619 -86566.737 103744.238 -86661.975 103791.857 -86709.594 103887.095 -86757.213 104125.19 -86757.213 104220.428 -86709.594 104268.047 -86661.975 104315.666 -86566.737 104315.666 -86376.261 104268.047 -86281.023 104220.428 -86233.404 104125.19 -86185.785 M 119721.333 -101205.38 119673.714 -101253 119530.857 -101300.619 119435.619 -101300.619 119292.762 -101253 119197.524 -101157.761 119149.905 -101062.523 119102.286 -100872.047 119102.286 -100729.19 119149.905 -100538.714 119197.524 -100443.476 119292.762 -100348.238 119435.619 -100300.619 119530.857 -100300.619 119673.714 -100348.238 119721.333 -100395.857 M 120292.762 -100729.19 120197.524 -100681.571 120149.905 -100633.952 120102.286 -100538.714 120102.286 -100491.095 120149.905 -100395.857 120197.524 -100348.238 120292.762 -100300.619 120483.238 -100300.619 120578.476 -100348.238 120626.095 -100395.857 120673.714 -100491.095 120673.714 -100538.714 120626.095 -100633.952 120578.476 -100681.571 120483.238 -100729.19 120292.762 -100729.19 120197.524 -100776.809 120149.905 -100824.428 120102.286 -100919.666 120102.286 -101110.142 120149.905 -101205.38 120197.524 -101253 120292.762 -101300.619 120483.238 -101300.619 120578.476 -101253 120626.095 -101205.38 120673.714 -101110.142 120673.714 -100919.666 120626.095 -100824.428 120578.476 -100776.809 120483.238 -100729.19 M 135336.619 -104020.857 134860.428 -104354.19 M 135336.619 -104592.285 134336.619 -104592.285 134336.619 -104211.333 134384.238 -104116.095 134431.857 -104068.476 134527.095 -104020.857 134669.952 -104020.857 134765.19 -104068.476 134812.809 -104116.095 134860.428 -104211.333 134860.428 -104592.285 M 135336.619 -103068.476 135336.619 -103639.904 M 135336.619 -103354.19 134336.619 -103354.19 134479.476 -103449.428 134574.714 -103544.666 134622.333 -103639.904 M 134431.857 -102687.523 134384.238 -102639.904 134336.619 -102544.666 134336.619 -102306.571 134384.238 -102211.333 134431.857 -102163.714 134527.095 -102116.095 134622.333 -102116.095 134765.19 -102163.714 135336.619 -102735.142 135336.619 -102116.095 M 97559.905 -99268.619 97559.905 -98268.619 97798 -98268.619 97940.857 -98316.238 98036.095 -98411.476 98083.714 -98506.714 98131.333 -98697.19 98131.333 -98840.047 98083.714 -99030.523 98036.095 -99125.761 97940.857 -99221 97798 -99268.619 97559.905 -99268.619 M 99083.714 -99268.619 98512.286 -99268.619 M 98798 -99268.619 98798 -98268.619 98702.762 -98411.476 98607.524 -98506.714 98512.286 -98554.333 M 105364.619 -105386.094 104364.619 -105386.094 104364.619 -105147.999 104412.238 -105005.142 104507.476 -104909.904 104602.714 -104862.285 104793.19 -104814.666 104936.047 -104814.666 105126.523 -104862.285 105221.761 -104909.904 105317 -105005.142 105364.619 -105147.999 105364.619 -105386.094 M 105364.619 -104338.475 105364.619 -104147.999 105317 -104052.761 105269.38 -104005.142 105126.523 -103909.904 104936.047 -103862.285 104555.095 -103862.285 104459.857 -103909.904 104412.238 -103957.523 104364.619 -104052.761 104364.619 -104243.237 104412.238 -104338.475 104459.857 -104386.094 104555.095 -104433.713 104793.19 -104433.713 104888.428 -104386.094 104936.047 -104338.475 104983.666 -104243.237 104983.666 -104052.761 104936.047 -103957.523 104888.428 -103909.904 104793.19 -103862.285 M 111714.619 -105068.666 111238.428 -105401.999 M 111714.619 -105640.094 110714.619 -105640.094 110714.619 -105259.142 110762.238 -105163.904 110809.857 -105116.285 110905.095 -105068.666 111047.952 -105068.666 111143.19 -105116.285 111190.809 -105163.904 111238.428 -105259.142 111238.428 -105640.094 M 110714.619 -104163.904 110714.619 -104640.094 111190.809 -104687.713 111143.19 -104640.094 111095.571 -104544.856 111095.571 -104306.761 111143.19 -104211.523 111190.809 -104163.904 111286.047 -104116.285 111524.142 -104116.285 111619.38 -104163.904 111667 -104211.523 111714.619 -104306.761 111714.619 -104544.856 111667 -104640.094 111619.38 -104687.713 M 125595.142 -100697.38 125547.523 -100745 125404.666 -100792.619 125309.428 -100792.619 125166.571 -100745 125071.333 -100649.761 125023.714 -100554.523 124976.095 -100364.047 124976.095 -100221.19 125023.714 -100030.714 125071.333 -99935.476 125166.571 -99840.238 125309.428 -99792.619 125404.666 -99792.619 125547.523 -99840.238 125595.142 -99887.857 M 126547.523 -100792.619 125976.095 -100792.619 M 126261.809 -100792.619 126261.809 -99792.619 126166.571 -99935.476 126071.333 -100030.714 125976.095 -100078.333 M 127166.571 -99792.619 127261.809 -99792.619 127357.047 -99840.238 127404.666 -99887.857 127452.285 -99983.095 127499.904 -100173.571 127499.904 -100411.666 127452.285 -100602.142 127404.666 -100697.38 127357.047 -100745 127261.809 -100792.619 127166.571 -100792.619 127071.333 -100745 127023.714 -100697.38 126976.095 -100602.142 126928.476 -100411.666 126928.476 -100173.571 126976.095 -99983.095 127023.714 -99887.857 127071.333 -99840.238 127166.571 -99792.619 M 123785.333 -86822.619 123452 -86346.428 M 123213.905 -86822.619 123213.905 -85822.619 123594.857 -85822.619 123690.095 -85870.238 123737.714 -85917.857 123785.333 -86013.095 123785.333 -86155.952 123737.714 -86251.19 123690.095 -86298.809 123594.857 -86346.428 123213.905 -86346.428 M 124166.286 -85917.857 124213.905 -85870.238 124309.143 -85822.619 124547.238 -85822.619 124642.476 -85870.238 124690.095 -85917.857 124737.714 -86013.095 124737.714 -86108.333 124690.095 -86251.19 124118.667 -86822.619 124737.714 -86822.619 M 117602.095 -93696.619 117602.095 -94506.142 117649.714 -94601.38 117697.333 -94649 117792.571 -94696.619 117983.047 -94696.619 118078.285 -94649 118125.904 -94601.38 118173.523 -94506.142 118173.523 -93696.619 M 118602.095 -93791.857 118649.714 -93744.238 118744.952 -93696.619 118983.047 -93696.619 119078.285 -93744.238 119125.904 -93791.857 119173.523 -93887.095 119173.523 -93982.333 119125.904 -94125.19 118554.476 -94696.619 119173.523 -94696.619 M 114899.993 -99009.499 115138.088 -99009.499 M 115042.85 -99247.594 115138.088 -99009.499 115042.85 -98771.404 M 115328.564 -99152.356 115138.088 -99009.499 115328.564 -98866.642 M 114899.993 -99009.499 115138.088 -99009.499 M 115042.85 -99247.594 115138.088 -99009.499 115042.85 -98771.404 M 115328.564 -99152.356 115138.088 -99009.499 115328.564 -98866.642 M 85463.142 -95617.38 85415.523 -95665 85272.666 -95712.619 85177.428 -95712.619 85034.571 -95665 84939.333 -95569.761 84891.714 -95474.523 84844.095 -95284.047 84844.095 -95141.19 84891.714 -94950.714 84939.333 -94855.476 85034.571 -94760.238 85177.428 -94712.619 85272.666 -94712.619 85415.523 -94760.238 85463.142 -94807.857 M 86415.523 -95712.619 85844.095 -95712.619 M 86129.809 -95712.619 86129.809 -94712.619 86034.571 -94855.476 85939.333 -94950.714 85844.095 -94998.333 M 86748.857 -94712.619 87367.904 -94712.619 87034.571 -95093.571 87177.428 -95093.571 87272.666 -95141.19 87320.285 -95188.809 87367.904 -95284.047 87367.904 -95522.142 87320.285 -95617.38 87272.666 -95665 87177.428 -95712.619 86891.714 -95712.619 86796.476 -95665 86748.857 -95617.38 M 86380.38 -92620.076 86380.38 -93138.171 86410.857 -93199.123 86441.333 -93229.6 86502.285 -93260.076 86624.19 -93260.076 86685.142 -93229.6 86715.619 -93199.123 86746.095 -93138.171 86746.095 -92620.076 M 87355.618 -92620.076 87050.856 -92620.076 87020.38 -92924.838 87050.856 -92894.361 87111.809 -92863.885 87264.19 -92863.885 87325.142 -92894.361 87355.618 -92924.838 87386.095 -92985.79 87386.095 -93138.171 87355.618 -93199.123 87325.142 -93229.6 87264.19 -93260.076 87111.809 -93260.076 87050.856 -93229.6 87020.38 -93199.123 M 108666.619 -105068.666 108190.428 -105401.999 M 108666.619 -105640.094 107666.619 -105640.094 107666.619 -105259.142 107714.238 -105163.904 107761.857 -105116.285 107857.095 -105068.666 107999.952 -105068.666 108095.19 -105116.285 108142.809 -105163.904 108190.428 -105259.142 108190.428 -105640.094 M 107999.952 -104211.523 108666.619 -104211.523 M 107619 -104449.618 108333.285 -104687.713 108333.285 -104068.666 M 110190.619 -105068.666 109714.428 -105401.999 M 110190.619 -105640.094 109190.619 -105640.094 109190.619 -105259.142 109238.238 -105163.904 109285.857 -105116.285 109381.095 -105068.666 109523.952 -105068.666 109619.19 -105116.285 109666.809 -105163.904 109714.428 -105259.142 109714.428 -105640.094 M 109190.619 -104735.332 109190.619 -104116.285 109571.571 -104449.618 109571.571 -104306.761 109619.19 -104211.523 109666.809 -104163.904 109762.047 -104116.285 110000.142 -104116.285 110095.38 -104163.904 110143 -104211.523 110190.619 -104306.761 110190.619 -104592.475 110143 -104687.713 110095.38 -104735.332 M 105015.38 -93352.857 105063 -93400.476 105110.619 -93543.333 105110.619 -93638.571 105063 -93781.428 104967.761 -93876.666 104872.523 -93924.285 104682.047 -93971.904 104539.19 -93971.904 104348.714 -93924.285 104253.476 -93876.666 104158.238 -93781.428 104110.619 -93638.571 104110.619 -93543.333 104158.238 -93400.476 104205.857 -93352.857 M 105110.619 -92400.476 105110.619 -92971.904 M 105110.619 -92686.19 104110.619 -92686.19 104253.476 -92781.428 104348.714 -92876.666 104396.333 -92971.904 M 104205.857 -92019.523 104158.238 -91971.904 104110.619 -91876.666 104110.619 -91638.571 104158.238 -91543.333 104205.857 -91495.714 104301.095 -91448.095 104396.333 -91448.095 104539.19 -91495.714 105110.619 -92067.142 105110.619 -91448.095 M 136860.619 -100343.357 136384.428 -100676.69 M 136860.619 -100914.785 135860.619 -100914.785 135860.619 -100533.833 135908.238 -100438.595 135955.857 -100390.976 136051.095 -100343.357 136193.952 -100343.357 136289.19 -100390.976 136336.809 -100438.595 136384.428 -100533.833 136384.428 -100914.785 M 136860.619 -99390.976 136860.619 -99962.404 M 136860.619 -99676.69 135860.619 -99676.69 136003.476 -99771.928 136098.714 -99867.166 136146.333 -99962.404 M 136860.619 -98438.595 136860.619 -99010.023 M 136860.619 -98724.309 135860.619 -98724.309 136003.476 -98819.547 136098.714 -98914.785 136146.333 -99010.023 M 78454.642 -92156.619 78121.309 -91680.428 M 77883.214 -92156.619 77883.214 -91156.619 78264.166 -91156.619 78359.404 -91204.238 78407.023 -91251.857 78454.642 -91347.095 78454.642 -91489.952 78407.023 -91585.19 78359.404 -91632.809 78264.166 -91680.428 77883.214 -91680.428 M 79407.023 -92156.619 78835.595 -92156.619 M 79121.309 -92156.619 79121.309 -91156.619 79026.071 -91299.476 78930.833 -91394.714 78835.595 -91442.333 M 80264.166 -91156.619 80073.69 -91156.619 79978.452 -91204.238 79930.833 -91251.857 79835.595 -91394.714 79787.976 -91585.19 79787.976 -91966.142 79835.595 -92061.38 79883.214 -92109 79978.452 -92156.619 80168.928 -92156.619 80264.166 -92109 80311.785 -92061.38 80359.404 -91966.142 80359.404 -91728.047 80311.785 -91632.809 80264.166 -91585.19 80168.928 -91537.571 79978.452 -91537.571 79883.214 -91585.19 79835.595 -91632.809 79787.976 -91728.047 M 113561.905 -91902.619 113561.905 -90902.619 113800 -90902.619 113942.857 -90950.238 114038.095 -91045.476 114085.714 -91140.714 114133.333 -91331.19 114133.333 -91474.047 114085.714 -91664.523 114038.095 -91759.761 113942.857 -91855 113800 -91902.619 113561.905 -91902.619 M 114990.476 -90902.619 114800 -90902.619 114704.762 -90950.238 114657.143 -90997.857 114561.905 -91140.714 114514.286 -91331.19 114514.286 -91712.142 114561.905 -91807.38 114609.524 -91855 114704.762 -91902.619 114895.238 -91902.619 114990.476 -91855 115038.095 -91807.38 115085.714 -91712.142 115085.714 -91474.047 115038.095 -91378.809 114990.476 -91331.19 114895.238 -91283.571 114704.762 -91283.571 114609.524 -91331.19 114561.905 -91378.809 114514.286 -91474.047 M 75916.619 -91939.904 75916.619 -91368.476 M 76916.619 -91654.19 75916.619 -91654.19 M 76916.619 -91035.142 75916.619 -91035.142 75916.619 -90654.19 75964.238 -90558.952 76011.857 -90511.333 76107.095 -90463.714 76249.952 -90463.714 76345.19 -90511.333 76392.809 -90558.952 76440.428 -90654.19 76440.428 -91035.142 M 75916.619 -89558.952 75916.619 -90035.142 76392.809 -90082.761 76345.19 -90035.142 76297.571 -89939.904 76297.571 -89701.809 76345.19 -89606.571 76392.809 -89558.952 76488.047 -89511.333 76726.142 -89511.333 76821.38 -89558.952 76869 -89606.571 76916.619 -89701.809 76916.619 -89939.904 76869 -90035.142 76821.38 -90082.761 M 76916.619 -88733.142 75916.619 -88733.142 76630.904 -88399.809 75916.619 -88066.476 76916.619 -88066.476 M 75916.619 -87399.809 75916.619 -87209.333 75964.238 -87114.095 76059.476 -87018.857 76249.952 -86971.238 76583.285 -86971.238 76773.761 -87018.857 76869 -87114.095 76916.619 -87209.333 76916.619 -87399.809 76869 -87495.047 76773.761 -87590.285 76583.285 -87637.904 76249.952 -87637.904 76059.476 -87590.285 75964.238 -87495.047 75916.619 -87399.809 M 76916.619 -86542.666 75916.619 -86542.666 75916.619 -86304.571 75964.238 -86161.714 76059.476 -86066.476 76154.714 -86018.857 76345.19 -85971.238 76488.047 -85971.238 76678.523 -86018.857 76773.761 -86066.476 76869 -86161.714 76916.619 -86304.571 76916.619 -86542.666 M 114254.619 -96329.166 113778.428 -96662.499 M 114254.619 -96900.594 113254.619 -96900.594 113254.619 -96519.642 113302.238 -96424.404 113349.857 -96376.785 113445.095 -96329.166 113587.952 -96329.166 113683.19 -96376.785 113730.809 -96424.404 113778.428 -96519.642 113778.428 -96900.594 M 113254.619 -95472.023 113254.619 -95662.499 113302.238 -95757.737 113349.857 -95805.356 113492.714 -95900.594 113683.19 -95948.213 114064.142 -95948.213 114159.38 -95900.594 114207 -95852.975 114254.619 -95757.737 114254.619 -95567.261 114207 -95472.023 114159.38 -95424.404 114064.142 -95376.785 113826.047 -95376.785 113730.809 -95424.404 113683.19 -95472.023 113635.571 -95567.261 113635.571 -95757.737 113683.19 -95852.975 113730.809 -95900.594 113826.047 -95948.213 M 123785.333 -88600.619 123452 -88124.428 M 123213.905 -88600.619 123213.905 -87600.619 123594.857 -87600.619 123690.095 -87648.238 123737.714 -87695.857 123785.333 -87791.095 123785.333 -87933.952 123737.714 -88029.19 123690.095 -88076.809 123594.857 -88124.428 123213.905 -88124.428 M 124737.714 -88600.619 124166.286 -88600.619 M 124452 -88600.619 124452 -87600.619 124356.762 -87743.476 124261.524 -87838.714 124166.286 -87886.333 M 82409.38 -105036.857 82457 -105084.476 82504.619 -105227.333 82504.619 -105322.571 82457 -105465.428 82361.761 -105560.666 82266.523 -105608.285 82076.047 -105655.904 81933.19 -105655.904 81742.714 -105608.285 81647.476 -105560.666 81552.238 -105465.428 81504.619 -105322.571 81504.619 -105227.333 81552.238 -105084.476 81599.857 -105036.857 M 82504.619 -104084.476 82504.619 -104655.904 M 82504.619 -104370.19 81504.619 -104370.19 81647.476 -104465.428 81742.714 -104560.666 81790.333 -104655.904 M 81933.19 -103513.047 81885.571 -103608.285 81837.952 -103655.904 81742.714 -103703.523 81695.095 -103703.523 81599.857 -103655.904 81552.238 -103608.285 81504.619 -103513.047 81504.619 -103322.571 81552.238 -103227.333 81599.857 -103179.714 81695.095 -103132.095 81742.714 -103132.095 81837.952 -103179.714 81885.571 -103227.333 81933.19 -103322.571 81933.19 -103513.047 81980.809 -103608.285 82028.428 -103655.904 82123.666 -103703.523 82314.142 -103703.523 82409.38 -103655.904 82457 -103608.285 82504.619 -103513.047 82504.619 -103322.571 82457 -103227.333 82409.38 -103179.714 82314.142 -103132.095 82123.666 -103132.095 82028.428 -103179.714 81980.809 -103227.333 81933.19 -103322.571 M 85463.142 -97395.38 85415.523 -97443 85272.666 -97490.619 85177.428 -97490.619 85034.571 -97443 84939.333 -97347.761 84891.714 -97252.523 84844.095 -97062.047 84844.095 -96919.19 84891.714 -96728.714 84939.333 -96633.476 85034.571 -96538.238 85177.428 -96490.619 85272.666 -96490.619 85415.523 -96538.238 85463.142 -96585.857 M 86415.523 -97490.619 85844.095 -97490.619 M 86129.809 -97490.619 86129.809 -96490.619 86034.571 -96633.476 85939.333 -96728.714 85844.095 -96776.333 M 87272.666 -96823.952 87272.666 -97490.619 M 87034.571 -96443 86796.476 -97157.285 87415.523 -97157.285 M 104902.095 -89378.619 104902.095 -90188.142 104949.714 -90283.38 104997.333 -90331 105092.571 -90378.619 105283.047 -90378.619 105378.285 -90331 105425.904 -90283.38 105473.523 -90188.142 105473.523 -89378.619 M 106473.523 -90378.619 105902.095 -90378.619 M 106187.809 -90378.619 106187.809 -89378.619 106092.571 -89521.476 105997.333 -89616.714 105902.095 -89664.333 M 99822 -87346.619 99822 -87584.714 M 99583.905 -87489.476 99822 -87584.714 100060.095 -87489.476 M 99679.143 -87775.19 99822 -87584.714 99964.857 -87775.19 M 100330 -86660.819 100330 -86898.914 M 100091.905 -86803.676 100330 -86898.914 100568.095 -86803.676 M 100187.143 -87089.39 100330 -86898.914 100472.857 -87089.39 M 97559.905 -96728.619 97559.905 -95728.619 97798 -95728.619 97940.857 -95776.238 98036.095 -95871.476 98083.714 -95966.714 98131.333 -96157.19 98131.333 -96300.047 98083.714 -96490.523 98036.095 -96585.761 97940.857 -96681 97798 -96728.619 97559.905 -96728.619 M 98464.667 -95728.619 99083.714 -95728.619 98750.381 -96109.571 98893.238 -96109.571 98988.476 -96157.19 99036.095 -96204.809 99083.714 -96300.047 99083.714 -96538.142 99036.095 -96633.38 98988.476 -96681 98893.238 -96728.619 98607.524 -96728.619 98512.286 -96681 98464.667 -96633.38" fill="none" stroke-width="150"/><path d="M 108402 -88991 108402 -86131 M 106482 -86131 106482 -88991 108402 -88991 M 130481 -101733.5 128806 -101733.5 M 130481 -101733.5 131131 -101733.5 M 130481 -104853.5 129831 -104853.5 M 130481 -104853.5 131131 -104853.5 M 102000.267 -86870 101707.733 -86870 M 102000.267 -85850 101707.733 -85850" fill="none" stroke-width="120"/><path d="M 113622.5 -87376 113622.5 -87376 113622.5 -87376 M 113722.5 -87376 113722.5 -87376 A 50 50 0 0 1 113622.5 -87376 50 50 0 0 1 113722.5 -87376 M 113622.5 -87376 A 50 50 0 0 1 113722.5 -87376" fill="none" stroke-width="200"/><path d="M 86108 -101300.233 86108 -101592.767 M 85088 -101300.233 85088 -101592.767 M 113526 -101495.776 113526 -102005.224 M 112481 -101495.776 112481 -102005.224 M 84330 -101300.233 84330 -101592.767 M 83310 -101300.233 83310 -101592.767 M 115952.5 -92295.267 115952.5 -92002.733 M 116972.5 -92295.267 116972.5 -92002.733 M 89261.733 -100074 89554.267 -100074 M 89261.733 -101094 89554.267 -101094 M 100490.733 -96264 100783.267 -96264 M 100490.733 -97284 100783.267 -97284 M 82789.5 -87409.224 82789.5 -86899.776 M 83834.5 -87409.224 83834.5 -86899.776 M 88406.5 -86970.776 88406.5 -87480.224 M 87361.5 -86970.776 87361.5 -87480.224 M 109040 -85672 111940 -85672 M 109040 -88572 109040 -85672 M 111940 -85672 111940 -88572 109040 -88572 M 117021.733 -102106 117314.267 -102106 M 117021.733 -103126 117314.267 -103126 M 124788 -102436 127688 -102436 M 124788 -105336 124788 -102436 M 127688 -102436 127688 -105336 124788 -105336 M 123182.767 -99062 122890.233 -99062 M 123182.767 -98042 122890.233 -98042 M 89161.233 -97427.25 89453.767 -97427.25 M 89161.233 -98447.25 89453.767 -98447.25 M 129360 -85926 132260 -85926 M 129360 -88826 129360 -85926 M 132260 -85926 132260 -88826 129360 -88826 M 85358.5 -86970.776 85358.5 -87480.224 M 84313.5 -86970.776 84313.5 -87480.224 M 97534 -89554.267 97534 -89261.733 M 98554 -89554.267 98554 -89261.733" fill="none" stroke-width="120"/><path d="M 119603 -90068.5 125803 -90068.5 M 125803 -96568.5 119603 -96568.5" fill="none" stroke-width="127"/><path d="M 100490.733 -99506 100783.267 -99506 M 100490.733 -100526 100783.267 -100526" fill="none" stroke-width="120"/><path d="M 92686.5 -103632 92686.5 -103632 92686.5 -103632 M 92786.5 -103632 92786.5 -103632 A 50 50 0 0 1 92686.5 -103632 50 50 0 0 1 92786.5 -103632 M 92686.5 -103632 A 50 50 0 0 1 92786.5 -103632" fill="none" stroke-width="200"/><path d="M 105664 -96538.224 105664 -96028.776 M 106709 -96538.224 106709 -96028.776" fill="none" stroke-width="120"/><path d="M 107734.5 -97680 107734.5 -94680 M 110734.5 -94680 110734.5 -97680 M 108472.5 -97196 A 254 254 0 0 1 107964.5 -97196 254 254 0 0 1 108472.5 -97196" fill="none" stroke-width="127"/><path d="M 97070.5 -96520 97070.5 -96520 97070.5 -96520 M 96970.5 -96520 96970.5 -96520 A 50 50 0 0 1 97070.5 -96520 50 50 0 0 1 96970.5 -96520 M 97070.5 -96520 A 50 50 0 0 1 96970.5 -96520" fill="none" stroke-width="200"/><path d="M 77040 -104570 77040 -101170 M 80440 -104570 77040 -104570 M 77040 -101170 80440 -101170 80440 -104570 M 77040 -96950 77040 -93550 M 80440 -96950 77040 -96950 M 77040 -93550 80440 -93550 80440 -96950 M 87848 -103299.5 87848 -104974.5 M 87848 -103299.5 87848 -102649.5 M 90968 -103299.5 90968 -103949.5 M 90968 -103299.5 90968 -102649.5 M 100490.733 -97788 100783.267 -97788 M 100490.733 -98808 100783.267 -98808 M 91768 -85672 94668 -85672 M 91768 -88572 91768 -85672 M 94668 -85672 94668 -88572 91768 -88572 M 133860 -99554.233 133860 -99846.767 M 132840 -99554.233 132840 -99846.767 M 81278 -87371.767 81278 -87079.233 M 82298 -87371.767 82298 -87079.233 M 133170 -85926 136070 -85926 M 133170 -88826 133170 -85926 M 136070 -85926 136070 -88826 133170 -88826 M 101899.767 -92966 101607.233 -92966 M 101899.767 -91946 101607.233 -91946 M 85850 -87371.767 85850 -87079.233 M 86870 -87371.767 86870 -87079.233 M 129824 -94820.5 129824 -96495.5 M 129824 -94820.5 129824 -94170.5 M 132944 -94820.5 132944 -95470.5 M 132944 -94820.5 132944 -94170.5 M 126894 -92447.064 126894 -90992.936 M 128714 -92447.064 128714 -90992.936 M 82758.233 -98243 83050.767 -98243 M 82758.233 -99263 83050.767 -99263 M 83400 -89105 81700 -89105 M 83400 -89105 83400 -91765 M 81700 -89105 81700 -91765 M 133380 -94820.5 133380 -96495.5 M 133380 -94820.5 133380 -94170.5 M 136500 -94820.5 136500 -95470.5 M 136500 -94820.5 136500 -94170.5 M 90814.5 -95171.5 90814.5 -93496.5 M 90814.5 -95171.5 90814.5 -95821.5 M 87694.5 -95171.5 87694.5 -94521.5 M 87694.5 -95171.5 87694.5 -95821.5 M 88898 -87371.767 88898 -87079.233 M 89918 -87371.767 89918 -87079.233 M 105141.5 -87226.224 105141.5 -86716.776 M 106186.5 -87226.224 106186.5 -86716.776 M 117074.733 -100328 117367.267 -100328 M 117074.733 -101348 117367.267 -101348 M 132752.5 -103444.724 132752.5 -102935.276 M 133797.5 -103444.724 133797.5 -102935.276" fill="none" stroke-width="120"/><path d="M 97070.5 -100076 97070.5 -100076 97070.5 -100076 M 96970.5 -100076 96970.5 -100076 A 50 50 0 0 1 97070.5 -100076 50 50 0 0 1 96970.5 -100076 M 97070.5 -100076 A 50 50 0 0 1 96970.5 -100076 M 104802 -102938 104802 -102938 M 105002 -102938 105002 -102938" fill="none" stroke-width="200"/><path d="M 104502 -101738 104502 -101338 M 105302 -101738 105302 -101338" fill="none" stroke-width="100"/><path d="M 105002 -102938 A 100 100 0 0 1 104802 -102938 100 100 0 0 1 105002 -102938" fill="none" stroke-width="200"/><path d="M 110744 -102022.724 110744 -101513.276 M 111789 -102022.724 111789 -101513.276 M 123182.767 -100840 122890.233 -100840 M 123182.767 -99820 122890.233 -99820 M 120773.276 -85837.5 121282.724 -85837.5 M 120773.276 -86882.5 121282.724 -86882.5 M 82811.233 -94687 83103.767 -94687 M 82811.233 -95707 83103.767 -95707" fill="none" stroke-width="120"/><path d="M 86298 -89249 89298 -89249 M 89298 -92249 86298 -92249 M 87036 -89733 A 254 254 0 0 1 86528 -89733 254 254 0 0 1 87036 -89733" fill="none" stroke-width="127"/><path d="M 107442 -102022.724 107442 -101513.276 M 108487 -102022.724 108487 -101513.276 M 110265 -101513.276 110265 -102022.724 M 109220 -101513.276 109220 -102022.724 M 105635.5 -92956.767 105635.5 -92664.233 M 106655.5 -92956.767 106655.5 -92664.233 M 134351.5 -99955.224 134351.5 -99445.776 M 135396.5 -99955.224 135396.5 -99445.776 M 78842.776 -89647.5 79352.224 -89647.5 M 78842.776 -90692.5 79352.224 -90692.5" fill="none" stroke-width="120"/><path d="M 112638.5 -90932 112638.5 -90932 112638.5 -90932 M 112538.5 -90932 112538.5 -90932 A 50 50 0 0 1 112638.5 -90932 50 50 0 0 1 112538.5 -90932 M 112638.5 -90932 A 50 50 0 0 1 112538.5 -90932" fill="none" stroke-width="200"/><path d="M 77544 -85926 80444 -85926 M 77544 -88826 77544 -85926 M 80444 -85926 80444 -88826 77544 -88826 M 111719 -96417.224 111719 -95907.776 M 112764 -96417.224 112764 -95907.776 M 121282.724 -88660.5 120773.276 -88660.5 M 121282.724 -87615.5 120773.276 -87615.5 M 82552 -101300.233 82552 -101592.767 M 81532 -101300.233 81532 -101592.767 M 82811.233 -96465 83103.767 -96465 M 82811.233 -97485 83103.767 -97485" fill="none" stroke-width="120"/><path d="M 100888.8 -91097.1 102819.2 -91097.1 M 102819.2 -87845.9 100888.8 -87845.9 M 102819.2 -89786.46 102819.2 -89156.54" fill="none" stroke-width="152.4"/><path d="M 92686.5 -92964 92686.5 -92964 92686.5 -92964 M 92786.5 -92964 92786.5 -92964 A 50 50 0 0 1 92686.5 -92964 50 50 0 0 1 92786.5 -92964 M 92686.5 -92964 A 50 50 0 0 1 92786.5 -92964" fill="none" stroke-width="200"/></g></svg>