<svg version="1.1" xmlns="http://www.w3.org/2000/svg" xmlns:xlink="http://www.w3.org/1999/xlink" stroke-linecap="round" stroke-linejoin="round" stroke-width="0" fill-rule="evenodd" width="58.566mm" height="20.212mm" viewBox="78540 -105610 58566 20212" id="_ycw10fBZE9VnkaO3UzE"><defs><circle cx="0" cy="0" r="200" id="_ycw10fBZE9VnkaO3UzE_pad-1"/></defs><g transform="translate(0,-191008) scale(1,-1)" fill="currentColor" stroke="currentColor"><use xlink:href="#_ycw10fBZE9VnkaO3UzE_pad-1" x="78740" y="-99568"/><use xlink:href="#_ycw10fBZE9VnkaO3UzE_pad-1" x="79756" y="-91948"/><use xlink:href="#_ycw10fBZE9VnkaO3UzE_pad-1" x="81026" y="-85852"/><use xlink:href="#_ycw10fBZE9VnkaO3UzE_pad-1" x="81026" y="-90170"/><use xlink:href="#_ycw10fBZE9VnkaO3UzE_pad-1" x="81534" y="-93726"/><use xlink:href="#_ycw10fBZE9VnkaO3UzE_pad-1" x="83096" y="-92964"/><use xlink:href="#_ycw10fBZE9VnkaO3UzE_pad-1" x="83566" y="-85598"/><use xlink:href="#_ycw10fBZE9VnkaO3UzE_pad-1" x="83820" y="-103886"/><use xlink:href="#_ycw10fBZE9VnkaO3UzE_pad-1" x="84544" y="-92964"/><use xlink:href="#_ycw10fBZE9VnkaO3UzE_pad-1" x="85698" y="-98552"/><use xlink:href="#_ycw10fBZE9VnkaO3UzE_pad-1" x="86360" y="-85852"/><use xlink:href="#_ycw10fBZE9VnkaO3UzE_pad-1" x="87884" y="-91948"/><use xlink:href="#_ycw10fBZE9VnkaO3UzE_pad-1" x="90678" y="-86360"/><use xlink:href="#_ycw10fBZE9VnkaO3UzE_pad-1" x="98044" y="-87122"/><use xlink:href="#_ycw10fBZE9VnkaO3UzE_pad-1" x="98044" y="-92964"/><use xlink:href="#_ycw10fBZE9VnkaO3UzE_pad-1" x="98044" y="-103632"/><use xlink:href="#_ycw10fBZE9VnkaO3UzE_pad-1" x="99568" y="-86360"/><use xlink:href="#_ycw10fBZE9VnkaO3UzE_pad-1" x="99568" y="-92456"/><use xlink:href="#_ycw10fBZE9VnkaO3UzE_pad-1" x="102870" y="-96774"/><use xlink:href="#_ycw10fBZE9VnkaO3UzE_pad-1" x="102870" y="-98298"/><use xlink:href="#_ycw10fBZE9VnkaO3UzE_pad-1" x="102870" y="-100076"/><use xlink:href="#_ycw10fBZE9VnkaO3UzE_pad-1" x="103632" y="-100838"/><use xlink:href="#_ycw10fBZE9VnkaO3UzE_pad-1" x="104140" y="-89471"/><use xlink:href="#_ycw10fBZE9VnkaO3UzE_pad-1" x="104394" y="-85852"/><use xlink:href="#_ycw10fBZE9VnkaO3UzE_pad-1" x="104902" y="-99822"/><use xlink:href="#_ycw10fBZE9VnkaO3UzE_pad-1" x="106145" y="-90678"/><use xlink:href="#_ycw10fBZE9VnkaO3UzE_pad-1" x="106172" y="-100838"/><use xlink:href="#_ycw10fBZE9VnkaO3UzE_pad-1" x="106680" y="-89408"/><use xlink:href="#_ycw10fBZE9VnkaO3UzE_pad-1" x="107950" y="-103794"/><use xlink:href="#_ycw10fBZE9VnkaO3UzE_pad-1" x="109728" y="-103794"/><use xlink:href="#_ycw10fBZE9VnkaO3UzE_pad-1" x="111012" y="-99482"/><use xlink:href="#_ycw10fBZE9VnkaO3UzE_pad-1" x="111252" y="-98298"/><use xlink:href="#_ycw10fBZE9VnkaO3UzE_pad-1" x="111266" y="-103684"/><use xlink:href="#_ycw10fBZE9VnkaO3UzE_pad-1" x="113870" y="-96624"/><use xlink:href="#_ycw10fBZE9VnkaO3UzE_pad-1" x="114808" y="-99822"/><use xlink:href="#_ycw10fBZE9VnkaO3UzE_pad-1" x="114808" y="-104902"/><use xlink:href="#_ycw10fBZE9VnkaO3UzE_pad-1" x="116078" y="-104140"/><use xlink:href="#_ycw10fBZE9VnkaO3UzE_pad-1" x="116559" y="-89916"/><use xlink:href="#_ycw10fBZE9VnkaO3UzE_pad-1" x="118110" y="-99568"/><use xlink:href="#_ycw10fBZE9VnkaO3UzE_pad-1" x="119554" y="-100584"/><use xlink:href="#_ycw10fBZE9VnkaO3UzE_pad-1" x="119554" y="-101600"/><use xlink:href="#_ycw10fBZE9VnkaO3UzE_pad-1" x="119554" y="-102616"/><use xlink:href="#_ycw10fBZE9VnkaO3UzE_pad-1" x="119607" y="-97536"/><use xlink:href="#_ycw10fBZE9VnkaO3UzE_pad-1" x="119607" y="-98552"/><use xlink:href="#_ycw10fBZE9VnkaO3UzE_pad-1" x="119607" y="-99568"/><use xlink:href="#_ycw10fBZE9VnkaO3UzE_pad-1" x="120597" y="-100330"/><use xlink:href="#_ycw10fBZE9VnkaO3UzE_pad-1" x="120623" y="-98298"/><use xlink:href="#_ycw10fBZE9VnkaO3UzE_pad-1" x="120623" y="-99314"/><use xlink:href="#_ycw10fBZE9VnkaO3UzE_pad-1" x="121666" y="-103632"/><use xlink:href="#_ycw10fBZE9VnkaO3UzE_pad-1" x="123417" y="-86360"/><use xlink:href="#_ycw10fBZE9VnkaO3UzE_pad-1" x="123698" y="-101854"/><use xlink:href="#_ycw10fBZE9VnkaO3UzE_pad-1" x="125984" y="-99568"/><use xlink:href="#_ycw10fBZE9VnkaO3UzE_pad-1" x="127254" y="-96266"/><use xlink:href="#_ycw10fBZE9VnkaO3UzE_pad-1" x="127254" y="-101600"/><use xlink:href="#_ycw10fBZE9VnkaO3UzE_pad-1" x="129286" y="-97282"/><use xlink:href="#_ycw10fBZE9VnkaO3UzE_pad-1" x="129540" y="-105410"/><use xlink:href="#_ycw10fBZE9VnkaO3UzE_pad-1" x="130556" y="-100838"/><use xlink:href="#_ycw10fBZE9VnkaO3UzE_pad-1" x="133472" y="-89662"/><use xlink:href="#_ycw10fBZE9VnkaO3UzE_pad-1" x="134742" y="-89662"/><use xlink:href="#_ycw10fBZE9VnkaO3UzE_pad-1" x="136012" y="-89662"/><use xlink:href="#_ycw10fBZE9VnkaO3UzE_pad-1" x="136906" y="-87376"/><use xlink:href="#_ycw10fBZE9VnkaO3UzE_pad-1" x="136906" y="-88392"/></g></svg>