<svg version="1.1" xmlns="http://www.w3.org/2000/svg" xmlns:xlink="http://www.w3.org/1999/xlink" stroke-linecap="round" stroke-linejoin="round" stroke-width="0" fill-rule="evenodd" width="49.795523mm" height="4.391857mm" viewBox="81175.619 -90176.952 49795.523 4391.857" id="rmXiDWkSvf8Vf_ctFW--"><g transform="translate(0,-175962.04700000002) scale(1,-1)" fill="currentColor" stroke="currentColor"><path d="M 130540.19 -88793.619 130540.19 -89507.904 130587.809 -89650.761 130683.047 -89746 130825.904 -89793.619 130921.142 -89793.619 M 129921.142 -89793.619 130016.38 -89746 130063.999 -89698.38 130111.618 -89603.142 130111.618 -89317.428 130063.999 -89222.19 130016.38 -89174.571 129921.142 -89126.952 129778.285 -89126.952 129683.047 -89174.571 129635.428 -89222.19 129587.809 -89317.428 129587.809 -89603.142 129635.428 -89698.38 129683.047 -89746 129778.285 -89793.619 129921.142 -89793.619 M 129159.237 -89126.952 129159.237 -89793.619 M 129159.237 -89222.19 129111.618 -89174.571 129016.38 -89126.952 128873.523 -89126.952 128778.285 -89174.571 128730.666 -89269.809 128730.666 -89793.619 M 127825.904 -89793.619 127825.904 -89269.809 127873.523 -89174.571 127968.761 -89126.952 128159.237 -89126.952 128254.475 -89174.571 M 127825.904 -89746 127921.142 -89793.619 128159.237 -89793.619 128254.475 -89746 128302.094 -89650.761 128302.094 -89555.523 128254.475 -89460.285 128159.237 -89412.666 127921.142 -89412.666 127825.904 -89365.047 M 126016.38 -89698.38 126063.999 -89746 126206.856 -89793.619 126302.094 -89793.619 126444.951 -89746 126540.189 -89650.761 126587.808 -89555.523 126635.427 -89365.047 126635.427 -89222.19 126587.808 -89031.714 126540.189 -88936.476 126444.951 -88841.238 126302.094 -88793.619 126206.856 -88793.619 126063.999 -88841.238 126016.38 -88888.857 M 125159.237 -89793.619 125159.237 -89269.809 125206.856 -89174.571 125302.094 -89126.952 125492.57 -89126.952 125587.808 -89174.571 M 125159.237 -89746 125254.475 -89793.619 125492.57 -89793.619 125587.808 -89746 125635.427 -89650.761 125635.427 -89555.523 125587.808 -89460.285 125492.57 -89412.666 125254.475 -89412.666 125159.237 -89365.047 M 124683.046 -89126.952 124683.046 -90126.952 M 124683.046 -89174.571 124587.808 -89126.952 124397.332 -89126.952 124302.094 -89174.571 124254.475 -89222.19 124206.856 -89317.428 124206.856 -89603.142 124254.475 -89698.38 124302.094 -89746 124397.332 -89793.619 124587.808 -89793.619 124683.046 -89746 M 123778.284 -89126.952 123778.284 -90126.952 M 123778.284 -89174.571 123683.046 -89126.952 123492.57 -89126.952 123397.332 -89174.571 123349.713 -89222.19 123302.094 -89317.428 123302.094 -89603.142 123349.713 -89698.38 123397.332 -89746 123492.57 -89793.619 123683.046 -89793.619 123778.284 -89746 M 122492.57 -89746 122587.808 -89793.619 122778.284 -89793.619 122873.522 -89746 122921.141 -89650.761 122921.141 -89269.809 122873.522 -89174.571 122778.284 -89126.952 122587.808 -89126.952 122492.57 -89174.571 122444.951 -89269.809 122444.951 -89365.047 122921.141 -89460.285 M 121873.522 -89793.619 121968.76 -89746 122016.379 -89650.761 122016.379 -88793.619 M 121349.712 -89793.619 121444.95 -89746 121492.569 -89650.761 121492.569 -88793.619 M 120587.807 -89746 120683.045 -89793.619 120873.521 -89793.619 120968.759 -89746 121016.378 -89650.761 121016.378 -89269.809 120968.759 -89174.571 120873.521 -89126.952 120683.045 -89126.952 120587.807 -89174.571 120540.188 -89269.809 120540.188 -89365.047 121016.378 -89460.285" fill="none" stroke-width="100"/><path d="M 83774.619 -86479.142 83298.428 -86145.809 M 83774.619 -85907.714 82774.619 -85907.714 82774.619 -86288.666 82822.238 -86383.904 82869.857 -86431.523 82965.095 -86479.142 83107.952 -86479.142 83203.19 -86431.523 83250.809 -86383.904 83298.428 -86288.666 83298.428 -85907.714 M 83774.619 -87431.523 83774.619 -86860.095 M 83774.619 -87145.809 82774.619 -87145.809 82917.476 -87050.571 83012.714 -86955.333 83060.333 -86860.095 M 83107.952 -88288.666 83774.619 -88288.666 M 82727 -88050.571 83441.285 -87812.476 83441.285 -88431.523 M 88346.619 -86479.142 87870.428 -86145.809 M 88346.619 -85907.714 87346.619 -85907.714 87346.619 -86288.666 87394.238 -86383.904 87441.857 -86431.523 87537.095 -86479.142 87679.952 -86479.142 87775.19 -86431.523 87822.809 -86383.904 87870.428 -86288.666 87870.428 -85907.714 M 88346.619 -87431.523 88346.619 -86860.095 M 88346.619 -87145.809 87346.619 -87145.809 87489.476 -87050.571 87584.714 -86955.333 87632.333 -86860.095 M 87346.619 -88336.285 87346.619 -87860.095 87822.809 -87812.476 87775.19 -87860.095 87727.571 -87955.333 87727.571 -88193.428 87775.19 -88288.666 87822.809 -88336.285 87918.047 -88383.904 88156.142 -88383.904 88251.38 -88336.285 88299 -88288.666 88346.619 -88193.428 88346.619 -87955.333 88299 -87860.095 88251.38 -87812.476 M 85298.619 -86479.142 84822.428 -86145.809 M 85298.619 -85907.714 84298.619 -85907.714 84298.619 -86288.666 84346.238 -86383.904 84393.857 -86431.523 84489.095 -86479.142 84631.952 -86479.142 84727.19 -86431.523 84774.809 -86383.904 84822.428 -86288.666 84822.428 -85907.714 M 85298.619 -87431.523 85298.619 -86860.095 M 85298.619 -87145.809 84298.619 -87145.809 84441.476 -87050.571 84536.714 -86955.333 84584.333 -86860.095 M 84298.619 -87764.857 84298.619 -88383.904 84679.571 -88050.571 84679.571 -88193.428 84727.19 -88288.666 84774.809 -88336.285 84870.047 -88383.904 85108.142 -88383.904 85203.38 -88336.285 85251 -88288.666 85298.619 -88193.428 85298.619 -87907.714 85251 -87812.476 85203.38 -87764.857 M 82155.38 -86479.142 82203 -86431.523 82250.619 -86288.666 82250.619 -86193.428 82203 -86050.571 82107.761 -85955.333 82012.523 -85907.714 81822.047 -85860.095 81679.19 -85860.095 81488.714 -85907.714 81393.476 -85955.333 81298.238 -86050.571 81250.619 -86193.428 81250.619 -86288.666 81298.238 -86431.523 81345.857 -86479.142 M 81345.857 -86860.095 81298.238 -86907.714 81250.619 -87002.952 81250.619 -87241.047 81298.238 -87336.285 81345.857 -87383.904 81441.095 -87431.523 81536.333 -87431.523 81679.19 -87383.904 82250.619 -86812.476 82250.619 -87431.523 M 81250.619 -88050.571 81250.619 -88145.809 81298.238 -88241.047 81345.857 -88288.666 81441.095 -88336.285 81631.571 -88383.904 81869.666 -88383.904 82060.142 -88336.285 82155.38 -88288.666 82203 -88241.047 82250.619 -88145.809 82250.619 -88050.571 82203 -87955.333 82155.38 -87907.714 82060.142 -87860.095 81869.666 -87812.476 81631.571 -87812.476 81441.095 -87860.095 81345.857 -87907.714 81298.238 -87955.333 81250.619 -88050.571 M 86727.38 -86479.142 86775 -86431.523 86822.619 -86288.666 86822.619 -86193.428 86775 -86050.571 86679.761 -85955.333 86584.523 -85907.714 86394.047 -85860.095 86251.19 -85860.095 86060.714 -85907.714 85965.476 -85955.333 85870.238 -86050.571 85822.619 -86193.428 85822.619 -86288.666 85870.238 -86431.523 85917.857 -86479.142 M 85917.857 -86860.095 85870.238 -86907.714 85822.619 -87002.952 85822.619 -87241.047 85870.238 -87336.285 85917.857 -87383.904 86013.095 -87431.523 86108.333 -87431.523 86251.19 -87383.904 86822.619 -86812.476 86822.619 -87431.523 M 86155.952 -88288.666 86822.619 -88288.666 M 85775 -88050.571 86489.285 -87812.476 86489.285 -88431.523 M 89775.38 -86479.142 89823 -86431.523 89870.619 -86288.666 89870.619 -86193.428 89823 -86050.571 89727.761 -85955.333 89632.523 -85907.714 89442.047 -85860.095 89299.19 -85860.095 89108.714 -85907.714 89013.476 -85955.333 88918.238 -86050.571 88870.619 -86193.428 88870.619 -86288.666 88918.238 -86431.523 88965.857 -86479.142 M 88965.857 -86860.095 88918.238 -86907.714 88870.619 -87002.952 88870.619 -87241.047 88918.238 -87336.285 88965.857 -87383.904 89061.095 -87431.523 89156.333 -87431.523 89299.19 -87383.904 89870.619 -86812.476 89870.619 -87431.523 M 89870.619 -88383.904 89870.619 -87812.476 M 89870.619 -88098.19 88870.619 -88098.19 89013.476 -88002.952 89108.714 -87907.714 89156.333 -87812.476" fill="none" stroke-width="150"/></g></svg>