<svg version="1.1" xmlns="http://www.w3.org/2000/svg" xmlns:xlink="http://www.w3.org/1999/xlink" stroke-linecap="round" stroke-linejoin="round" stroke-width="0" fill-rule="evenodd" width="62.700898mm" height="20.790898000000002mm" viewBox="74948.551 -105899.449 62700.898 20790.898" id="fHOHO1IYpS3qfY7SVkvl"><defs><circle cx="0" cy="0" r="400" id="fHOHO1IYpS3qfY7SVkvl_pad-10"/></defs><g transform="translate(0,-191008) scale(1,-1)" fill="currentColor" stroke="currentColor"><use xlink:href="#fHOHO1IYpS3qfY7SVkvl_pad-10" x="104394" y="-85852"/><use xlink:href="#fHOHO1IYpS3qfY7SVkvl_pad-10" x="106680" y="-89408"/><use xlink:href="#fHOHO1IYpS3qfY7SVkvl_pad-10" x="107950" y="-103794.5"/><use xlink:href="#fHOHO1IYpS3qfY7SVkvl_pad-10" x="114808" y="-104902"/><use xlink:href="#fHOHO1IYpS3qfY7SVkvl_pad-10" x="98044" y="-87122"/><use xlink:href="#fHOHO1IYpS3qfY7SVkvl_pad-10" x="103632" y="-100838"/><use xlink:href="#fHOHO1IYpS3qfY7SVkvl_pad-10" x="133472" y="-89662"/><use xlink:href="#fHOHO1IYpS3qfY7SVkvl_pad-10" x="130556" y="-100838"/><use xlink:href="#fHOHO1IYpS3qfY7SVkvl_pad-10" x="104902" y="-99822"/><use xlink:href="#fHOHO1IYpS3qfY7SVkvl_pad-10" x="111252" y="-98298"/><use xlink:href="#fHOHO1IYpS3qfY7SVkvl_pad-10" x="123698" y="-101854"/><use xlink:href="#fHOHO1IYpS3qfY7SVkvl_pad-10" x="83820" y="-103886"/><use xlink:href="#fHOHO1IYpS3qfY7SVkvl_pad-10" x="99568" y="-86360"/><use xlink:href="#fHOHO1IYpS3qfY7SVkvl_pad-10" x="119554.5" y="-102616"/><use xlink:href="#fHOHO1IYpS3qfY7SVkvl_pad-10" x="81534" y="-93726"/><use xlink:href="#fHOHO1IYpS3qfY7SVkvl_pad-10" x="87884" y="-91948"/><use xlink:href="#fHOHO1IYpS3qfY7SVkvl_pad-10" x="81026" y="-85852"/><use xlink:href="#fHOHO1IYpS3qfY7SVkvl_pad-10" x="120623.5" y="-99314"/><use xlink:href="#fHOHO1IYpS3qfY7SVkvl_pad-10" x="129540" y="-105410"/><use xlink:href="#fHOHO1IYpS3qfY7SVkvl_pad-10" x="102870" y="-98298"/><use xlink:href="#fHOHO1IYpS3qfY7SVkvl_pad-10" x="86360" y="-85852"/><use xlink:href="#fHOHO1IYpS3qfY7SVkvl_pad-10" x="119607.5" y="-97536"/><use xlink:href="#fHOHO1IYpS3qfY7SVkvl_pad-10" x="98044" y="-92964"/><use xlink:href="#fHOHO1IYpS3qfY7SVkvl_pad-10" x="119607.5" y="-98552"/><use xlink:href="#fHOHO1IYpS3qfY7SVkvl_pad-10" x="116559.5" y="-89916"/><use xlink:href="#fHOHO1IYpS3qfY7SVkvl_pad-10" x="106145.5" y="-90678"/><use xlink:href="#fHOHO1IYpS3qfY7SVkvl_pad-10" x="118110" y="-99568"/><use xlink:href="#fHOHO1IYpS3qfY7SVkvl_pad-10" x="136012" y="-89662"/><use xlink:href="#fHOHO1IYpS3qfY7SVkvl_pad-10" x="119554.5" y="-100584"/><use xlink:href="#fHOHO1IYpS3qfY7SVkvl_pad-10" x="119607.5" y="-99568"/><use xlink:href="#fHOHO1IYpS3qfY7SVkvl_pad-10" x="102870" y="-96774"/><use xlink:href="#fHOHO1IYpS3qfY7SVkvl_pad-10" x="98044" y="-103632"/><use xlink:href="#fHOHO1IYpS3qfY7SVkvl_pad-10" x="106172" y="-100838"/><use xlink:href="#fHOHO1IYpS3qfY7SVkvl_pad-10" x="104140" y="-89471.5"/><use xlink:href="#fHOHO1IYpS3qfY7SVkvl_pad-10" x="114808" y="-99822"/><use xlink:href="#fHOHO1IYpS3qfY7SVkvl_pad-10" x="102870" y="-100076"/><use xlink:href="#fHOHO1IYpS3qfY7SVkvl_pad-10" x="120623.5" y="-98298"/><use xlink:href="#fHOHO1IYpS3qfY7SVkvl_pad-10" x="113870" y="-96624.5"/><use xlink:href="#fHOHO1IYpS3qfY7SVkvl_pad-10" x="79756" y="-91948"/><use xlink:href="#fHOHO1IYpS3qfY7SVkvl_pad-10" x="129286" y="-97282"/><use xlink:href="#fHOHO1IYpS3qfY7SVkvl_pad-10" x="109728" y="-103794.5"/><use xlink:href="#fHOHO1IYpS3qfY7SVkvl_pad-10" x="111012.5" y="-99482"/><use xlink:href="#fHOHO1IYpS3qfY7SVkvl_pad-10" x="81026" y="-90170"/><use xlink:href="#fHOHO1IYpS3qfY7SVkvl_pad-10" x="78740" y="-99568"/><use xlink:href="#fHOHO1IYpS3qfY7SVkvl_pad-10" x="83566" y="-85598"/><use xlink:href="#fHOHO1IYpS3qfY7SVkvl_pad-10" x="119554.5" y="-101600"/><use xlink:href="#fHOHO1IYpS3qfY7SVkvl_pad-10" x="123417.5" y="-86360"/><use xlink:href="#fHOHO1IYpS3qfY7SVkvl_pad-10" x="90678" y="-86360"/><use xlink:href="#fHOHO1IYpS3qfY7SVkvl_pad-10" x="85698.5" y="-98552"/><use xlink:href="#fHOHO1IYpS3qfY7SVkvl_pad-10" x="127254" y="-96266"/><use xlink:href="#fHOHO1IYpS3qfY7SVkvl_pad-10" x="125984" y="-99568"/><use xlink:href="#fHOHO1IYpS3qfY7SVkvl_pad-10" x="136906" y="-88392"/><use xlink:href="#fHOHO1IYpS3qfY7SVkvl_pad-10" x="136906" y="-87376"/><use xlink:href="#fHOHO1IYpS3qfY7SVkvl_pad-10" x="120597" y="-100330"/><use xlink:href="#fHOHO1IYpS3qfY7SVkvl_pad-10" x="121666" y="-103632"/><use xlink:href="#fHOHO1IYpS3qfY7SVkvl_pad-10" x="127254" y="-101600"/><use xlink:href="#fHOHO1IYpS3qfY7SVkvl_pad-10" x="99568" y="-92456"/><use xlink:href="#fHOHO1IYpS3qfY7SVkvl_pad-10" x="134742" y="-89662"/><use xlink:href="#fHOHO1IYpS3qfY7SVkvl_pad-10" x="116078" y="-104140"/><use xlink:href="#fHOHO1IYpS3qfY7SVkvl_pad-10" x="111266.5" y="-103684"/><use xlink:href="#fHOHO1IYpS3qfY7SVkvl_pad-10" x="84544.5" y="-92964"/><use xlink:href="#fHOHO1IYpS3qfY7SVkvl_pad-10" x="83095.5" y="-92964"/><path d="M 109057.5 -104902 107950 -103794.5 M 114808 -104902 109057.5 -104902 M 116078 -104140 111722.5 -104140 111266.5 -103684" fill="none" stroke-width="200"/><path d="M 84544.5 -92964 83095.5 -92964" fill="none" stroke-width="250"/><path d="M 135113.419 -85108.745 135225.619 -85115.049 135394.298 -85125.256 135407.548 -85126.778 135539.73 -85149.239 135540.902 -85149.446 135686.139 -85176.064 135698.103 -85178.877 135830.691 -85217.076 135833.181 -85217.822 135970.094 -85260.487 135980.628 -85264.302 136109.66 -85317.751 136113.048 -85319.214 136242.234 -85377.357 136251.302 -85381.894 136374.32 -85449.885 136378.402 -85452.245 136498.958 -85525.125 136506.498 -85530.069 136621.506 -85611.672 136626.148 -85615.135 136734.138 -85699.74 136736.694 -85701.743 136742.83 -85706.879 136848.082 -85800.938 136853.116 -85805.698 136952.3 -85904.882 136957.063 -85909.919 137051.113 -86015.161 137056.255 -86021.304 137142.854 -86131.837 137146.337 -86136.507 137227.921 -86251.488 137232.883 -86259.054 137305.724 -86379.547 137305.733 -86379.562 137308.133 -86383.712 137326.662 -86417.237 137376.097 -86506.682 137380.644 -86515.771 137438.773 -86644.925 137440.258 -86648.363 137493.691 -86777.357 137497.516 -86787.919 137540.154 -86924.743 137540.922 -86927.307 137579.121 -87059.895 137581.936 -87071.869 137608.512 -87216.874 137608.792 -87218.456 137631.218 -87350.436 137632.744 -87363.718 137642.948 -87532.347 137642.979 -87532.882 137649.254 -87644.58 137649.449 -87651.535 137649.449 -103356.465 137649.254 -103363.42 137642.979 -103475.116 137642.948 -103475.651 137632.744 -103644.28 137631.218 -103657.562 137608.792 -103789.542 137608.512 -103791.124 137581.936 -103936.129 137579.121 -103948.103 137540.922 -104080.691 137540.154 -104083.255 137497.516 -104220.079 137493.691 -104230.641 137440.258 -104359.635 137438.773 -104363.073 137380.644 -104492.227 137376.097 -104501.316 137308.144 -104624.267 137305.733 -104628.436 137232.891 -104748.931 137227.903 -104756.537 137146.362 -104871.457 137142.843 -104876.175 137056.255 -104986.694 137051.105 -104992.847 136957.079 -105098.062 136952.3 -105103.116 136853.116 -105202.3 136848.062 -105207.079 136742.847 -105301.105 136736.694 -105306.255 136626.175 -105392.843 136621.457 -105396.362 136506.537 -105477.903 136498.931 -105482.891 136378.436 -105555.733 136374.267 -105558.144 136251.316 -105626.097 136242.227 -105630.644 136113.073 -105688.773 136109.635 -105690.258 135980.641 -105743.691 135970.079 -105747.516 135833.255 -105790.154 135830.691 -105790.922 135698.103 -105829.121 135686.129 -105831.936 135541.124 -105858.512 135539.542 -105858.792 135407.562 -105881.218 135394.28 -105882.744 135225.651 -105892.948 135225.116 -105892.979 135113.42 -105899.254 135106.465 -105899.449 115348.784 -105899.449 115289.047 -105884.111 115244.087 -105841.891 115225.029 -105783.235 115236.585 -105722.652 115275.899 -105675.131 115413.87 -105574.889 115472.126 -105510.19 115540.533 -105434.216 115635.179 -105270.284 115693.008 -105092.304 115724.801 -105041.425 115776.76 -105011.427 115836.72 -105009.333 115983.352 -105040.5 115983.354 -105040.5 116172.646 -105040.5 116172.648 -105040.5 116319.276 -105009.333 116357.803 -105001.144 116530.73 -104924.151 116596.801 -104876.148 116683.87 -104812.889 116810.533 -104672.216 116905.179 -104508.284 116918.467 -104467.388 116963.674 -104328.256 116983.46 -104140 116963.674 -103951.744 116905.179 -103771.716 116905.179 -103771.715 116810.533 -103607.783 116683.87 -103467.11 116530.73 -103355.848 116357.802 -103278.855 116172.648 -103239.5 116172.646 -103239.5 115983.354 -103239.5 115983.352 -103239.5 115798.197 -103278.855 115625.269 -103355.848 115472.128 -103467.111 115443.89 -103498.473 115402.176 -103528.78 115351.741 -103539.5 112256.482 -103539.5 112206.047 -103528.78 112164.332 -103498.472 112138.551 -103453.818 112129.582 -103426.215 112093.679 -103315.716 112093.679 -103315.715 111999.033 -103151.783 111872.37 -103011.11 111719.23 -102899.848 111546.302 -102822.855 111361.148 -102783.5 111361.146 -102783.5 111171.854 -102783.5 111171.852 -102783.5 110986.697 -102822.855 110813.769 -102899.848 110660.629 -103011.11 110533.966 -103151.783 110439.32 -103315.715 110380.826 -103495.742 110361.04 -103683.999 110380.826 -103872.257 110439.32 -104052.284 110475.818 -104115.5 110492.431 -104177.5 110475.818 -104239.5 110430.431 -104284.887 110368.431 -104301.5 109357.597 -104301.5 109310.144 -104292.061 109269.916 -104265.181 108891.934 -103887.199 108862.725 -103840.902 108858.746 -103807.259 108856.822 -103807.462 108855.105 -103791.124 108835.674 -103606.244 108790.467 -103467.111 108777.179 -103426.215 108682.533 -103262.283 108555.87 -103121.61 108402.73 -103010.348 108229.802 -102933.355 108044.648 -102894 108044.646 -102894 107855.354 -102894 107855.352 -102894 107670.197 -102933.355 107497.269 -103010.348 107344.129 -103121.61 107217.466 -103262.283 107122.82 -103426.215 107064.326 -103606.242 107044.54 -103794.5 107064.326 -103982.757 107122.82 -104162.784 107217.466 -104326.716 107344.129 -104467.389 107497.269 -104578.651 107670.197 -104655.644 107855.352 -104695 107855.354 -104695 107949.903 -104695 107997.356 -104704.439 108037.584 -104731.319 108599.299 -105293.034 108609.994 -105305.229 108629.217 -105330.282 108748.211 -105421.588 108753.13 -105425.902 108754.657 -105426.534 108754.658 -105426.535 108754.659 -105426.536 108900.738 -105487.044 109057.5 -105507.683 109088.808 -105503.56 109104.994 -105502.5 114081.741 -105502.5 114132.176 -105513.22 114173.89 -105543.527 114202.128 -105574.888 114340.101 -105675.131 114379.415 -105722.652 114390.971 -105783.235 114371.913 -105841.891 114326.953 -105884.111 114267.216 -105899.449 77491.535 -105899.449 77484.58 -105899.254 77372.882 -105892.979 77372.347 -105892.948 77203.718 -105882.744 77190.436 -105881.218 77058.456 -105858.792 77056.874 -105858.512 76911.869 -105831.936 76899.895 -105829.121 76767.307 -105790.922 76764.743 -105790.154 76627.919 -105747.516 76617.357 -105743.691 76488.363 -105690.258 76484.925 -105688.773 76355.771 -105630.644 76346.682 -105626.097 76254.027 -105574.888 76223.712 -105558.133 76219.562 -105555.733 76199.371 -105543.527 76099.054 -105482.883 76091.488 -105477.921 75976.507 -105396.337 75971.837 -105392.854 75911.109 -105345.276 75861.304 -105306.255 75855.161 -105301.113 75749.919 -105207.063 75744.882 -105202.3 75645.698 -105103.116 75640.938 -105098.082 75546.88 -104992.832 75541.743 -104986.694 75492.743 -104924.151 75455.135 -104876.148 75451.672 -104871.506 75370.069 -104756.498 75365.125 -104748.958 75292.245 -104628.402 75289.885 -104624.32 75221.894 -104501.302 75217.354 -104492.227 75159.225 -104363.073 75157.74 -104359.635 75104.302 -104230.628 75100.487 -104220.094 75057.822 -104083.181 75057.076 -104080.691 75018.877 -103948.103 75016.064 -103936.139 74989.446 -103790.902 74989.239 -103789.73 74966.778 -103657.548 74965.256 -103644.298 74955.049 -103475.619 74948.745 -103363.419 74948.551 -103356.467 74948.551 -92963.999 82190.04 -92963.999 82209.826 -93152.257 82268.32 -93332.284 82362.966 -93496.216 82489.629 -93636.889 82642.769 -93748.151 82815.697 -93825.144 83000.852 -93864.5 83000.854 -93864.5 83190.146 -93864.5 83190.148 -93864.5 83313.584 -93838.262 83375.303 -93825.144 83548.23 -93748.151 83701.371 -93636.888 83707.098 -93630.526 83748.812 -93600.22 83799.247 -93589.5 83840.753 -93589.5 83891.188 -93600.22 83932.901 -93630.526 83938.629 -93636.888 84091.77 -93748.151 84091.771 -93748.151 84091.772 -93748.152 84264.697 -93825.144 84449.852 -93864.5 84449.854 -93864.5 84639.146 -93864.5 84639.148 -93864.5 84762.584 -93838.262 84824.303 -93825.144 84997.23 -93748.151 85150.371 -93636.888 85277.033 -93496.216 85371.679 -93332.284 85430.174 -93152.256 85449.96 -92964 85430.174 -92775.744 85371.679 -92595.716 85371.679 -92595.715 85277.033 -92431.783 85150.37 -92291.11 84997.23 -92179.848 84824.302 -92102.855 84639.148 -92063.5 84639.146 -92063.5 84449.854 -92063.5 84449.852 -92063.5 84264.697 -92102.855 84091.772 -92179.847 83989.675 -92254.024 83938.629 -92291.112 83932.901 -92297.473 83891.188 -92327.78 83840.753 -92338.5 83799.247 -92338.5 83748.812 -92327.78 83707.098 -92297.473 83701.371 -92291.112 83548.23 -92179.849 83548.229 -92179.848 83548.227 -92179.847 83375.302 -92102.855 83190.148 -92063.5 83190.146 -92063.5 83000.854 -92063.5 83000.852 -92063.5 82815.697 -92102.855 82642.769 -92179.848 82489.629 -92291.11 82362.966 -92431.783 82268.32 -92595.715 82209.826 -92775.742 82190.04 -92963.999 74948.551 -92963.999 74948.551 -87651.53 74948.746 -87644.579 74948.824 -87643.174 74955.04 -87532.501 74965.251 -87363.689 74966.77 -87350.467 74989.224 -87218.308 74989.424 -87217.173 75016.061 -87071.824 75018.865 -87059.895 75057.07 -86927.281 75057.823 -86924.774 75057.833 -86924.743 75100.477 -86787.891 75104.28 -86777.388 75157.769 -86648.252 75159.17 -86645.01 75217.36 -86515.716 75221.871 -86506.702 75289.862 -86383.681 75292.238 -86379.573 75365.113 -86259.023 75370.044 -86251.503 75451.685 -86136.441 75455.105 -86131.857 75541.746 -86021.268 75546.845 -86015.176 75640.941 -85909.882 75645.65 -85904.901 75744.901 -85805.65 75749.882 -85800.941 75855.176 -85706.845 75861.272 -85701.743 75971.857 -85615.105 75976.441 -85611.685 76091.503 -85530.044 76099.023 -85525.113 76219.573 -85452.238 76223.697 -85449.854 76346.702 -85381.871 76355.716 -85377.36 76485.01 -85319.17 76488.252 -85317.769 76617.388 -85264.28 76627.891 -85260.477 76764.803 -85217.814 76767.281 -85217.071 76899.895 -85178.865 76911.824 -85176.061 77057.173 -85149.424 77058.308 -85149.224 77190.467 -85126.77 77203.689 -85125.251 77372.501 -85115.04 77484.578 -85108.746 77491.53 -85108.551 135106.467 -85108.551 135113.419 -85108.745"/></g></svg>