<svg version="1.1" xmlns="http://www.w3.org/2000/svg" xmlns:xlink="http://www.w3.org/1999/xlink" stroke-linecap="round" stroke-linejoin="round" stroke-width="0" fill-rule="evenodd" width="2.635754mm" height="2.63808mm" viewBox="132063.889 -90542.327 2635.754 2638.08" id="xpCtg6Wno7ZmO5EGJj-F"><g transform="translate(0,-178446.57400000002) scale(1,-1)" fill="currentColor" stroke="currentColor"><path d="M 133848.92 -88641.469 133858.958 -88658.887 133867.277 -88677.234 133879.902 -88709.248 133895.565 -88753.88 133911.584 -88803.356 133917.505 -88822.807 133946.683 -88920.736 133811.949 -89198.672 133751.812 -89321.059 133699.07 -89424.78 133653.192 -89510.807 133613.649 -89580.112 133579.911 -89633.666 133558.512 -89663.543 133545.973 -89678.714 133543.519 -89677.197 133546.464 -89667.188 133565.49 -89606.183 133588.084 -89526.689 133613.645 -89430.979 133641.568 -89321.323 133671.25 -89199.995 133678.528 -89169.564 133705.357 -89059.741 133731.383 -88958.683 133756.036 -88868.321 133778.747 -88790.585 133798.95 -88727.405 133816.075 -88680.712 133829.553 -88652.437 133831.732 -88649.201 133841.048 -88639.19 133848.92 -88641.469" fill="none" stroke-width="10"/><path d="M 133848.92 -88641.469 133858.958 -88658.887 133867.277 -88677.234 133879.902 -88709.248 133895.565 -88753.88 133911.584 -88803.356 133917.505 -88822.807 133946.683 -88920.736 133811.949 -89198.672 133751.812 -89321.059 133699.07 -89424.78 133653.192 -89510.807 133613.649 -89580.112 133579.911 -89633.666 133558.512 -89663.543 133545.973 -89678.714 133543.519 -89677.197 133546.464 -89667.188 133565.49 -89606.183 133588.084 -89526.689 133613.645 -89430.979 133641.568 -89321.323 133671.25 -89199.995 133678.528 -89169.564 133705.357 -89059.741 133731.383 -88958.683 133756.036 -88868.321 133778.747 -88790.585 133798.95 -88727.405 133816.075 -88680.712 133829.553 -88652.437 133831.732 -88649.201 133841.048 -88639.19 133848.92 -88641.469"/><path d="M 132924.977 -88643.299 132926.441 -88645.471 132939.281 -88669.44 132954.132 -88706.094 132971.305 -88756.524 132991.115 -88821.822 133013.873 -88903.079 133039.891 -89001.387 133069.484 -89117.838 133102.962 -89253.522 133116.448 -89309.032 133134.093 -89380.494 133151.891 -89450.018 133168.658 -89513.17 133183.212 -89565.516 133194.372 -89602.623 133196.199 -89608.136 133207.871 -89643.95 133215.537 -89670.445 133217.808 -89682.741 133217.531 -89683.07 133209.745 -89675.117 133194.318 -89654.746 133182.626 -89638.072 133160.543 -89603.126 133132.625 -89554.866 133100.201 -89495.965 133064.6 -89429.096 133027.153 -89356.932 132989.188 -89282.146 132952.035 -89207.411 132917.024 -89135.399 132885.484 -89068.785 132858.744 -89010.24 132838.135 -88962.438 132824.985 -88928.052 132820.612 -88910.218 132823.913 -88892.057 132832.703 -88859.166 132845.313 -88816.745 132860.072 -88769.992 132875.311 -88724.106 132889.361 -88684.286 132900.552 -88655.732 132905.633 -88645.471 132915.477 -88634.914 132924.977 -88643.299" fill="none" stroke-width="10"/><path d="M 132924.977 -88643.299 132926.441 -88645.471 132939.281 -88669.44 132954.132 -88706.094 132971.305 -88756.524 132991.115 -88821.822 133013.873 -88903.079 133039.891 -89001.387 133069.484 -89117.838 133102.962 -89253.522 133116.448 -89309.032 133134.093 -89380.494 133151.891 -89450.018 133168.658 -89513.17 133183.212 -89565.516 133194.372 -89602.623 133196.199 -89608.136 133207.871 -89643.95 133215.537 -89670.445 133217.808 -89682.741 133217.531 -89683.07 133209.745 -89675.117 133194.318 -89654.746 133182.626 -89638.072 133160.543 -89603.126 133132.625 -89554.866 133100.201 -89495.965 133064.6 -89429.096 133027.153 -89356.932 132989.188 -89282.146 132952.035 -89207.411 132917.024 -89135.399 132885.484 -89068.785 132858.744 -89010.24 132838.135 -88962.438 132824.985 -88928.052 132820.612 -88910.218 132823.913 -88892.057 132832.703 -88859.166 132845.313 -88816.745 132860.072 -88769.992 132875.311 -88724.106 132889.361 -88684.286 132900.552 -88655.732 132905.633 -88645.471 132915.477 -88634.914 132924.977 -88643.299"/><path d="M 134357.349 -88596.281 134385.772 -88613.601 134422.9 -88646.044 134463.915 -88690.616 134503.157 -88740.547 134534.964 -88789.066 134539.923 -88797.98 134559.9 -88835.24 134488.269 -89129.455 134453.935 -89268.836 134423.65 -89388.229 134397.203 -89488.39 134374.384 -89570.072 134354.981 -89634.032 134338.784 -89681.022 134325.617 -89711.732 134305.523 -89750.9 134284.176 -89709.044 134272.282 -89683.142 134259.566 -89649.922 134245.507 -89607.546 134229.583 -89554.178 134211.275 -89487.981 134190.062 -89407.118 134165.422 -89309.752 134136.835 -89194.048 134128.437 -89159.689 134048.537 -88832.181 134076.491 -88789.118 134131.543 -88710.034 134181.756 -88650.603 134228.286 -88610.169 134272.291 -88588.075 134314.926 -88583.664 134357.349 -88596.281" fill="none" stroke-width="10"/><path d="M 134357.349 -88596.281 134385.772 -88613.601 134422.9 -88646.044 134463.915 -88690.616 134503.157 -88740.547 134534.964 -88789.066 134539.923 -88797.98 134559.9 -88835.24 134488.269 -89129.455 134453.935 -89268.836 134423.65 -89388.229 134397.203 -89488.39 134374.384 -89570.072 134354.981 -89634.032 134338.784 -89681.022 134325.617 -89711.732 134305.523 -89750.9 134284.176 -89709.044 134272.282 -89683.142 134259.566 -89649.922 134245.507 -89607.546 134229.583 -89554.178 134211.275 -89487.981 134190.062 -89407.118 134165.422 -89309.752 134136.835 -89194.048 134128.437 -89159.689 134048.537 -88832.181 134076.491 -88789.118 134131.543 -88710.034 134181.756 -88650.603 134228.286 -88610.169 134272.291 -88588.075 134314.926 -88583.664 134357.349 -88596.281"/><path d="M 133445.482 -87909.996 133532.334 -87914.509 133608.458 -87922.785 133646.456 -87929.578 133807.692 -87975.048 133959.962 -88039.057 134101.893 -88120.559 134232.116 -88218.509 134349.259 -88331.861 134451.951 -88459.568 134538.82 -88600.584 134547.343 -88616.847 134571.479 -88665.102 134586.322 -88699.076 134593.227 -88722.794 134593.55 -88740.278 134591.586 -88748.182 134582.382 -88775.794 134544.036 -88723.867 134487.145 -88654.941 134432.228 -88605.696 134377.557 -88574.965 134321.405 -88561.579 134302.897 -88560.769 134248.368 -88567.784 134197.157 -88589.924 134146.754 -88628.833 134094.648 -88686.154 134077.404 -88708.388 134030.869 -88770.293 133996.868 -88687.134 133969.906 -88628.911 133942.756 -88588.898 133912.313 -88564.33 133875.469 -88552.441 133842.945 -88550.181 133815.346 -88551.361 133790.82 -88555.878 133768.707 -88565.195 133748.343 -88580.779 133729.067 -88604.092 133710.216 -88636.601 133691.128 -88679.768 133671.141 -88735.06 133649.593 -88803.94 133625.821 -88887.873 133599.163 -88988.323 133568.958 -89106.755 133541.353 -89217.209 133512.149 -89333.789 133487.12 -89431.493 133465.74 -89512.09 133447.481 -89577.35 133431.818 -89629.044 133418.222 -89668.941 133406.166 -89698.811 133395.124 -89720.424 133388.516 -89730.509 133380.953 -89738.249 133373.757 -89736.506 133364.877 -89722.422 133352.265 -89693.14 133340.927 -89664.17 133330.457 -89633.249 133315.919 -89584.846 133298.165 -89522.077 133278.046 -89448.056 133256.412 -89365.899 133234.115 -89278.72 133218.236 -89215.03 133188.56 -89095.503 133162.976 -88994.543 133140.875 -88910.07 133121.646 -88840.005 133104.682 -88782.267 133089.373 -88734.776 133075.11 -88695.453 133061.283 -88662.218 133048.421 -88635.223 133021.526 -88591.12 132992.282 -88564.602 132955.704 -88552.245 132924.632 -88550.181 132883.077 -88552.749 132850.456 -88562.356 132823.699 -88581.856 132799.735 -88614.103 132775.492 -88661.95 132756.735 -88706.197 132729.914 -88772.263 132683.908 -88709.087 132625.271 -88640.333 132565.164 -88592.658 132504.067 -88566.066 132442.46 -88560.563 132380.826 -88576.154 132319.644 -88612.844 132259.396 -88670.639 132232.277 -88704.116 132206.597 -88737.631 132190.535 -88756.205 132181.11 -88761.918 132175.342 -88756.85 132171.405 -88746.577 132169.091 -88728.716 132174.045 -88705.165 132187.615 -88671.473 132205.17 -88635.048 132288.487 -88491.79 132388.086 -88361.199 132502.472 -88244.429 132630.156 -88142.635 132769.644 -88056.97 132919.445 -87988.589 133078.067 -87938.646 133117.069 -87929.578 133183.697 -87919.038 133264.851 -87912.26 133354.217 -87909.247 133445.482 -87909.996" fill="none" stroke-width="10"/><path d="M 133445.482 -87909.996 133532.334 -87914.509 133608.458 -87922.785 133646.456 -87929.578 133807.692 -87975.048 133959.962 -88039.057 134101.893 -88120.559 134232.116 -88218.509 134349.259 -88331.861 134451.951 -88459.568 134538.82 -88600.584 134547.343 -88616.847 134571.479 -88665.102 134586.322 -88699.076 134593.227 -88722.794 134593.55 -88740.278 134591.586 -88748.182 134582.382 -88775.794 134544.036 -88723.867 134487.145 -88654.941 134432.228 -88605.696 134377.557 -88574.965 134321.405 -88561.579 134302.897 -88560.769 134248.368 -88567.784 134197.157 -88589.924 134146.754 -88628.833 134094.648 -88686.154 134077.404 -88708.388 134030.869 -88770.293 133996.868 -88687.134 133969.906 -88628.911 133942.756 -88588.898 133912.313 -88564.33 133875.469 -88552.441 133842.945 -88550.181 133815.346 -88551.361 133790.82 -88555.878 133768.707 -88565.195 133748.343 -88580.779 133729.067 -88604.092 133710.216 -88636.601 133691.128 -88679.768 133671.141 -88735.06 133649.593 -88803.94 133625.821 -88887.873 133599.163 -88988.323 133568.958 -89106.755 133541.353 -89217.209 133512.149 -89333.789 133487.12 -89431.493 133465.74 -89512.09 133447.481 -89577.35 133431.818 -89629.044 133418.222 -89668.941 133406.166 -89698.811 133395.124 -89720.424 133388.516 -89730.509 133380.953 -89738.249 133373.757 -89736.506 133364.877 -89722.422 133352.265 -89693.14 133340.927 -89664.17 133330.457 -89633.249 133315.919 -89584.846 133298.165 -89522.077 133278.046 -89448.056 133256.412 -89365.899 133234.115 -89278.72 133218.236 -89215.03 133188.56 -89095.503 133162.976 -88994.543 133140.875 -88910.07 133121.646 -88840.005 133104.682 -88782.267 133089.373 -88734.776 133075.11 -88695.453 133061.283 -88662.218 133048.421 -88635.223 133021.526 -88591.12 132992.282 -88564.602 132955.704 -88552.245 132924.632 -88550.181 132883.077 -88552.749 132850.456 -88562.356 132823.699 -88581.856 132799.735 -88614.103 132775.492 -88661.95 132756.735 -88706.197 132729.914 -88772.263 132683.908 -88709.087 132625.271 -88640.333 132565.164 -88592.658 132504.067 -88566.066 132442.46 -88560.563 132380.826 -88576.154 132319.644 -88612.844 132259.396 -88670.639 132232.277 -88704.116 132206.597 -88737.631 132190.535 -88756.205 132181.11 -88761.918 132175.342 -88756.85 132171.405 -88746.577 132169.091 -88728.716 132174.045 -88705.165 132187.615 -88671.473 132205.17 -88635.048 132288.487 -88491.79 132388.086 -88361.199 132502.472 -88244.429 132630.156 -88142.635 132769.644 -88056.97 132919.445 -87988.589 133078.067 -87938.646 133117.069 -87929.578 133183.697 -87919.038 133264.851 -87912.26 133354.217 -87909.247 133445.482 -87909.996"/><path d="M 132481.347 -88585.462 132523.832 -88605.758 132570.485 -88644.58 132590.16 -88664.731 132623.487 -88703.375 132657.172 -88747.157 132676.312 -88774.969 132713.008 -88832.333 132619.74 -89207.41 132586.35 -89339.796 132556.983 -89452.126 132531.434 -89545.092 132509.494 -89619.386 132490.957 -89675.7 132475.616 -89714.726 132463.265 -89737.156 132460.484 -89740.389 132450.892 -89737.641 132437.432 -89717.298 132429.41 -89700.22 132411.063 -89652.043 132390.024 -89586.649 132366.076 -89503.261 132339.003 -89401.104 132308.588 -89279.4 132285.973 -89185.446 132268.55 -89112.643 132251.861 -89043.858 132236.803 -88982.718 132224.273 -88932.847 132215.17 -88897.871 132211.823 -88885.873 132196.798 -88835.112 132235.371 -88774.813 132269.665 -88726.091 132308.348 -88678.941 132347.175 -88637.98 132381.903 -88607.826 132398.89 -88596.901 132440.532 -88582.805 132481.347 -88585.462" fill="none" stroke-width="10"/><path d="M 132481.347 -88585.462 132523.832 -88605.758 132570.485 -88644.58 132590.16 -88664.731 132623.487 -88703.375 132657.172 -88747.157 132676.312 -88774.969 132713.008 -88832.333 132619.74 -89207.41 132586.35 -89339.796 132556.983 -89452.126 132531.434 -89545.092 132509.494 -89619.386 132490.957 -89675.7 132475.616 -89714.726 132463.265 -89737.156 132460.484 -89740.389 132450.892 -89737.641 132437.432 -89717.298 132429.41 -89700.22 132411.063 -89652.043 132390.024 -89586.649 132366.076 -89503.261 132339.003 -89401.104 132308.588 -89279.4 132285.973 -89185.446 132268.55 -89112.643 132251.861 -89043.858 132236.803 -88982.718 132224.273 -88932.847 132215.17 -88897.871 132211.823 -88885.873 132196.798 -88835.112 132235.371 -88774.813 132269.665 -88726.091 132308.348 -88678.941 132347.175 -88637.98 132381.903 -88607.826 132398.89 -88596.901 132440.532 -88582.805 132481.347 -88585.462"/><path d="M 132805.426 -89014.567 132818.977 -89039.907 132838.392 -89078.48 132862.162 -89127.288 132888.525 -89182.799 132958.344 -89327.595 133022.365 -89452.165 133080.657 -89556.63 133133.292 -89641.109 133180.339 -89705.722 133219.222 -89748.165 133276.42 -89795.127 133327.995 -89823.066 133376.789 -89832.366 133425.644 -89823.415 133477.4 -89796.598 133493.49 -89785.438 133529.995 -89756.225 133565.003 -89722.117 133599.739 -89681.201 133635.43 -89631.559 133673.301 -89571.278 133714.577 -89498.441 133760.486 -89411.133 133812.251 -89307.439 133852.32 -89224.719 133882.522 -89162.739 133909.966 -89108.232 133933.292 -89063.755 133951.142 -89031.861 133962.155 -89015.103 133964.875 -89013.327 133969.411 -89025.63 133977.879 -89055.359 133989.442 -89099.313 134003.264 -89154.286 134018.506 -89217.075 134022.315 -89233.09 134053.771 -89362.933 134082.234 -89473.356 134108.373 -89565.801 134132.853 -89641.706 134156.342 -89702.509 134179.506 -89749.649 134203.013 -89784.566 134227.528 -89808.698 134253.72 -89823.484 134282.255 -89830.363 134299.556 -89831.298 134330.863 -89829.261 134358.76 -89822.139 134383.981 -89808.415 134407.258 -89786.573 134429.324 -89755.095 134450.914 -89712.466 134472.759 -89657.168 134495.593 -89587.685 134520.149 -89502.499 134547.16 -89400.095 134577.359 -89278.955 134588.341 -89233.82 134604.325 -89168.43 134618.822 -89110.278 134631.05 -89062.415 134640.223 -89027.891 134645.557 -89009.759 134646.412 -89007.805 134653.287 -89013.573 134665.696 -89033.221 134672.729 -89046.357 134682.268 -89068.043 134688.623 -89091.887 134692.4 -89122.707 134694.204 -89165.322 134694.643 -89220.694 134687.528 -89369.163 134665.592 -89507.41 134631.002 -89632.16 134567.899 -89788.264 134487.626 -89932.695 134391.309 -90064.437 134280.077 -90182.473 134155.059 -90285.787 134017.382 -90373.362 133868.174 -90444.181 133708.563 -90497.228 133657.044 -90509.929 133609.566 -90518.247 133548.144 -90525.493 133478.719 -90531.32 133407.233 -90535.38 133339.628 -90537.327 133281.846 -90536.811 133244.122 -90534.081 133074.877 -90502.401 132914.251 -90451.797 132763.173 -90382.713 132622.573 -90295.593 132493.381 -90190.882 132460.44 -90159.518 132350.932 -90037.113 132257.403 -89902.107 132181.094 -89756.86 132123.247 -89603.733 132085.272 -89446.059 132076.598 -89382.267 132071.14 -89312.161 132068.889 -89240.686 132069.83 -89172.786 132073.954 -89113.406 132081.248 -89067.491 132086.202 -89050.806 132097.792 -89023.841 132107.265 -89007.598 132110.068 -89005.454 132114.217 -89015.306 132122.648 -89043.11 132134.648 -89086.242 132149.508 -89142.076 132166.515 -89207.986 132184.958 -89281.346 132186.776 -89288.676 132216.693 -89406.96 132243.232 -89506.201 132266.992 -89588.155 132288.574 -89654.577 132308.579 -89707.223 132327.607 -89747.848 132346.257 -89778.208 132359.831 -89794.74 132381.767 -89815.825 132401.872 -89826.755 132428.701 -89830.804 132455.335 -89831.298 132491.659 -89830.078 132515.433 -89824.211 132535.24 -89810.389 132551.228 -89794.328 132571.856 -89767.149 132592.909 -89728.317 132614.832 -89676.482 132638.072 -89610.292 132663.072 -89528.396 132690.279 -89429.444 132720.137 -89312.085 132747.5 -89198.68 132762.141 -89138.094 132775.485 -89085.286 132786.678 -89043.45 132794.864 -89015.778 132799.189 -89005.462 132799.246 -89005.454 132805.426 -89014.567" fill="none" stroke-width="10"/><path d="M 132805.426 -89014.567 132818.977 -89039.907 132838.392 -89078.48 132862.162 -89127.288 132888.525 -89182.799 132958.344 -89327.595 133022.365 -89452.165 133080.657 -89556.63 133133.292 -89641.109 133180.339 -89705.722 133219.222 -89748.165 133276.42 -89795.127 133327.995 -89823.066 133376.789 -89832.366 133425.644 -89823.415 133477.4 -89796.598 133493.49 -89785.438 133529.995 -89756.225 133565.003 -89722.117 133599.739 -89681.201 133635.43 -89631.559 133673.301 -89571.278 133714.577 -89498.441 133760.486 -89411.133 133812.251 -89307.439 133852.32 -89224.719 133882.522 -89162.739 133909.966 -89108.232 133933.292 -89063.755 133951.142 -89031.861 133962.155 -89015.103 133964.875 -89013.327 133969.411 -89025.63 133977.879 -89055.359 133989.442 -89099.313 134003.264 -89154.286 134018.506 -89217.075 134022.315 -89233.09 134053.771 -89362.933 134082.234 -89473.356 134108.373 -89565.801 134132.853 -89641.706 134156.342 -89702.509 134179.506 -89749.649 134203.013 -89784.566 134227.528 -89808.698 134253.72 -89823.484 134282.255 -89830.363 134299.556 -89831.298 134330.863 -89829.261 134358.76 -89822.139 134383.981 -89808.415 134407.258 -89786.573 134429.324 -89755.095 134450.914 -89712.466 134472.759 -89657.168 134495.593 -89587.685 134520.149 -89502.499 134547.16 -89400.095 134577.359 -89278.955 134588.341 -89233.82 134604.325 -89168.43 134618.822 -89110.278 134631.05 -89062.415 134640.223 -89027.891 134645.557 -89009.759 134646.412 -89007.805 134653.287 -89013.573 134665.696 -89033.221 134672.729 -89046.357 134682.268 -89068.043 134688.623 -89091.887 134692.4 -89122.707 134694.204 -89165.322 134694.643 -89220.694 134687.528 -89369.163 134665.592 -89507.41 134631.002 -89632.16 134567.899 -89788.264 134487.626 -89932.695 134391.309 -90064.437 134280.077 -90182.473 134155.059 -90285.787 134017.382 -90373.362 133868.174 -90444.181 133708.563 -90497.228 133657.044 -90509.929 133609.566 -90518.247 133548.144 -90525.493 133478.719 -90531.32 133407.233 -90535.38 133339.628 -90537.327 133281.846 -90536.811 133244.122 -90534.081 133074.877 -90502.401 132914.251 -90451.797 132763.173 -90382.713 132622.573 -90295.593 132493.381 -90190.882 132460.44 -90159.518 132350.932 -90037.113 132257.403 -89902.107 132181.094 -89756.86 132123.247 -89603.733 132085.272 -89446.059 132076.598 -89382.267 132071.14 -89312.161 132068.889 -89240.686 132069.83 -89172.786 132073.954 -89113.406 132081.248 -89067.491 132086.202 -89050.806 132097.792 -89023.841 132107.265 -89007.598 132110.068 -89005.454 132114.217 -89015.306 132122.648 -89043.11 132134.648 -89086.242 132149.508 -89142.076 132166.515 -89207.986 132184.958 -89281.346 132186.776 -89288.676 132216.693 -89406.96 132243.232 -89506.201 132266.992 -89588.155 132288.574 -89654.577 132308.579 -89707.223 132327.607 -89747.848 132346.257 -89778.208 132359.831 -89794.74 132381.767 -89815.825 132401.872 -89826.755 132428.701 -89830.804 132455.335 -89831.298 132491.659 -89830.078 132515.433 -89824.211 132535.24 -89810.389 132551.228 -89794.328 132571.856 -89767.149 132592.909 -89728.317 132614.832 -89676.482 132638.072 -89610.292 132663.072 -89528.396 132690.279 -89429.444 132720.137 -89312.085 132747.5 -89198.68 132762.141 -89138.094 132775.485 -89085.286 132786.678 -89043.45 132794.864 -89015.778 132799.189 -89005.462 132799.246 -89005.454 132805.426 -89014.567"/></g></svg>