<svg version="1.1" xmlns="http://www.w3.org/2000/svg" xmlns:xlink="http://www.w3.org/1999/xlink" stroke-linecap="round" stroke-linejoin="round" stroke-width="0" fill-rule="evenodd" width="58.4925mm" height="19.4435mm" viewBox="77697.5 -104974.5 58492.5 19443.5" id="T2sjgspNO-9GveuS-iCy"><defs><g id="T2sjgspNO-9GveuS-iCy_pad-10"><polygon points="450,-325 450,325 -450,325 -450,-325"/><circle cx="450" cy="-325" r="250"/><circle cx="450" cy="325" r="250"/><circle cx="-450" cy="325" r="250"/><circle cx="-450" cy="-325" r="250"/><polygon points="700,-325 700,325 200,325 200,-325"/><polygon points="450,75 -450,75 -450,575 450,575"/><polygon points="-200,325 -200,-325 -700,-325 -700,325"/><polygon points="-450,-575 450,-575 450,-75 -450,-75"/></g><g id="T2sjgspNO-9GveuS-iCy_pad-11"><polygon points="-587.5,-150 587.5,-150 587.5,150 -587.5,150"/><circle cx="-587.5" cy="-150" r="150"/><circle cx="587.5" cy="-150" r="150"/><circle cx="587.5" cy="150" r="150"/><circle cx="-587.5" cy="150" r="150"/><polygon points="-587.5,-300 587.5,-300 587.5,0 -587.5,0"/><polygon points="737.5,-150 737.5,150 437.5,150 437.5,-150"/><polygon points="587.5,0 -587.5,0 -587.5,300 587.5,300"/><polygon points="-437.5,150 -437.5,-150 -737.5,-150 -737.5,150"/></g><g id="T2sjgspNO-9GveuS-iCy_pad-12"><polygon points="300,237.5 -300,237.5 -300,-237.5 300,-237.5"/><circle cx="300" cy="237.5" r="237.5"/><circle cx="-300" cy="237.5" r="237.5"/><circle cx="-300" cy="-237.5" r="237.5"/><circle cx="300" cy="-237.5" r="237.5"/><polygon points="300,0 -300,0 -300,475 300,475"/><polygon points="-62.5,237.5 -62.5,-237.5 -537.5,-237.5 -537.5,237.5"/><polygon points="-300,-475 300,-475 300,0 -300,0"/><polygon points="537.5,-237.5 537.5,237.5 62.5,237.5 62.5,-237.5"/></g><rect x="-1000" y="-550" width="2000" height="1100" id="T2sjgspNO-9GveuS-iCy_pad-13"/><rect x="-400" y="-400" width="800" height="800" id="T2sjgspNO-9GveuS-iCy_pad-14"/><g id="T2sjgspNO-9GveuS-iCy_pad-15"><polygon points="-237.5,300 -237.5,-300 237.5,-300 237.5,300"/><circle cx="-237.5" cy="300" r="237.5"/><circle cx="-237.5" cy="-300" r="237.5"/><circle cx="237.5" cy="-300" r="237.5"/><circle cx="237.5" cy="300" r="237.5"/><polygon points="0,300 0,-300 -475,-300 -475,300"/><polygon points="-237.5,-537.5 237.5,-537.5 237.5,-62.5 -237.5,-62.5"/><polygon points="475,-300 475,300 0,300 0,-300"/><polygon points="237.5,62.5 -237.5,62.5 -237.5,537.5 237.5,537.5"/></g><g id="T2sjgspNO-9GveuS-iCy_pad-16"><polygon points="-237.5,250 -237.5,-250 237.5,-250 237.5,250"/><circle cx="-237.5" cy="250" r="237.5"/><circle cx="-237.5" cy="-250" r="237.5"/><circle cx="237.5" cy="-250" r="237.5"/><circle cx="237.5" cy="250" r="237.5"/><polygon points="0,250 0,-250 -475,-250 -475,250"/><polygon points="-237.5,-487.5 237.5,-487.5 237.5,-12.5 -237.5,-12.5"/><polygon points="475,-250 475,250 0,250 0,-250"/><polygon points="237.5,12.5 -237.5,12.5 -237.5,487.5 237.5,487.5"/></g><g id="T2sjgspNO-9GveuS-iCy_pad-17"><polygon points="237.5,-300 237.5,300 -237.5,300 -237.5,-300"/><circle cx="237.5" cy="-300" r="237.5"/><circle cx="237.5" cy="300" r="237.5"/><circle cx="-237.5" cy="300" r="237.5"/><circle cx="-237.5" cy="-300" r="237.5"/><polygon points="475,-300 475,300 0,300 0,-300"/><polygon points="237.5,62.5 -237.5,62.5 -237.5,537.5 237.5,537.5"/><polygon points="0,300 0,-300 -475,-300 -475,300"/><polygon points="-237.5,-537.5 237.5,-537.5 237.5,-62.5 -237.5,-62.5"/></g><g id="T2sjgspNO-9GveuS-iCy_pad-18"><polygon points="-300,-237.5 300,-237.5 300,237.5 -300,237.5"/><circle cx="-300" cy="-237.5" r="237.5"/><circle cx="300" cy="-237.5" r="237.5"/><circle cx="300" cy="237.5" r="237.5"/><circle cx="-300" cy="237.5" r="237.5"/><polygon points="-300,-475 300,-475 300,0 -300,0"/><polygon points="537.5,-237.5 537.5,237.5 62.5,237.5 62.5,-237.5"/><polygon points="300,0 -300,0 -300,475 300,475"/><polygon points="-62.5,237.5 -62.5,-237.5 -537.5,-237.5 -537.5,237.5"/></g><g id="T2sjgspNO-9GveuS-iCy_pad-19"><polygon points="237.5,-250 237.5,250 -237.5,250 -237.5,-250"/><circle cx="237.5" cy="-250" r="237.5"/><circle cx="237.5" cy="250" r="237.5"/><circle cx="-237.5" cy="250" r="237.5"/><circle cx="-237.5" cy="-250" r="237.5"/><polygon points="475,-250 475,250 0,250 0,-250"/><polygon points="237.5,12.5 -237.5,12.5 -237.5,487.5 237.5,487.5"/><polygon points="0,250 0,-250 -475,-250 -475,250"/><polygon points="-237.5,-487.5 237.5,-487.5 237.5,-12.5 -237.5,-12.5"/></g><rect x="-950" y="-925" width="1900" height="1850" id="T2sjgspNO-9GveuS-iCy_pad-20"/><rect x="-225" y="-725" width="450" height="1450" id="T2sjgspNO-9GveuS-iCy_pad-21"/><g id="T2sjgspNO-9GveuS-iCy_pad-22"><polygon points="150,-587.5 150,587.5 -150,587.5 -150,-587.5"/><circle cx="150" cy="-587.5" r="150"/><circle cx="150" cy="587.5" r="150"/><circle cx="-150" cy="587.5" r="150"/><circle cx="-150" cy="-587.5" r="150"/><polygon points="300,-587.5 300,587.5 0,587.5 0,-587.5"/><polygon points="150,437.5 -150,437.5 -150,737.5 150,737.5"/><polygon points="0,587.5 0,-587.5 -300,-587.5 -300,587.5"/><polygon points="-150,-737.5 150,-737.5 150,-437.5 -150,-437.5"/></g><g id="T2sjgspNO-9GveuS-iCy_pad-23"><polygon points="625,-400 625,400 -625,400 -625,-400"/><circle cx="625" cy="-400" r="250"/><circle cx="625" cy="400" r="250"/><circle cx="-625" cy="400" r="250"/><circle cx="-625" cy="-400" r="250"/><polygon points="875,-400 875,400 375,400 375,-400"/><polygon points="625,150 -625,150 -625,650 625,650"/><polygon points="-375,400 -375,-400 -875,-400 -875,400"/><polygon points="-625,-650 625,-650 625,-150 -625,-150"/></g><g id="T2sjgspNO-9GveuS-iCy_pad-24"><polygon points="-112.5,187.5 -112.5,-187.5 112.5,-187.5 112.5,187.5"/><circle cx="-112.5" cy="187.5" r="112.5"/><circle cx="-112.5" cy="-187.5" r="112.5"/><circle cx="112.5" cy="-187.5" r="112.5"/><circle cx="112.5" cy="187.5" r="112.5"/><polygon points="0,187.5 0,-187.5 -225,-187.5 -225,187.5"/><polygon points="-112.5,-300 112.5,-300 112.5,-75 -112.5,-75"/><polygon points="225,-187.5 225,187.5 0,187.5 0,-187.5"/><polygon points="112.5,75 -112.5,75 -112.5,300 112.5,300"/></g><g id="T2sjgspNO-9GveuS-iCy_pad-25"><polygon points="-150,587.5 -150,-587.5 150,-587.5 150,587.5"/><circle cx="-150" cy="587.5" r="150"/><circle cx="-150" cy="-587.5" r="150"/><circle cx="150" cy="-587.5" r="150"/><circle cx="150" cy="587.5" r="150"/><polygon points="0,587.5 0,-587.5 -300,-587.5 -300,587.5"/><polygon points="-150,-737.5 150,-737.5 150,-437.5 -150,-437.5"/><polygon points="300,-587.5 300,587.5 0,587.5 0,-587.5"/><polygon points="150,437.5 -150,437.5 -150,737.5 150,737.5"/></g><rect x="-350" y="-300" width="700" height="600" id="T2sjgspNO-9GveuS-iCy_pad-26"/><g id="T2sjgspNO-9GveuS-iCy_pad-27"><polygon points="-250,-237.5 250,-237.5 250,237.5 -250,237.5"/><circle cx="-250" cy="-237.5" r="237.5"/><circle cx="250" cy="-237.5" r="237.5"/><circle cx="250" cy="237.5" r="237.5"/><circle cx="-250" cy="237.5" r="237.5"/><polygon points="-250,-475 250,-475 250,0 -250,0"/><polygon points="487.5,-237.5 487.5,237.5 12.5,237.5 12.5,-237.5"/><polygon points="250,0 -250,0 -250,475 250,475"/><polygon points="-12.5,237.5 -12.5,-237.5 -487.5,-237.5 -487.5,237.5"/></g><rect x="-125" y="-312.5" width="250" height="625" id="T2sjgspNO-9GveuS-iCy_pad-28"/><polygon points="300,125 300,-125 300,-750 50,-750 50,-125 -300,-125 -300,125 300,125" id="T2sjgspNO-9GveuS-iCy_pad-29"/><rect x="-125" y="-350" width="250" height="700" id="T2sjgspNO-9GveuS-iCy_pad-30"/><polygon points="475,437.5 475,187.5 125,187.5 125,-437.5 -125,-437.5 -125,437.5 475,437.5" id="T2sjgspNO-9GveuS-iCy_pad-31"/><rect x="-300" y="-125" width="600" height="250" id="T2sjgspNO-9GveuS-iCy_pad-32"/><rect x="-350" y="-125" width="700" height="250" id="T2sjgspNO-9GveuS-iCy_pad-33"/><polygon points="125,437.5 125,-187.5 475,-187.5 475,-437.5 -125,-437.5 -125,437.5 125,437.5" id="T2sjgspNO-9GveuS-iCy_pad-34"/><polygon points="-125,-187.5 -125,437.5 125,437.5 125,-437.5 -475,-437.5 -475,-187.5 -125,-187.5" id="T2sjgspNO-9GveuS-iCy_pad-35"/><rect x="-499.999" y="-499.999" width="999.998" height="999.998" id="T2sjgspNO-9GveuS-iCy_pad-36"/><rect x="-725" y="-225" width="1450" height="450" id="T2sjgspNO-9GveuS-iCy_pad-37"/><g id="T2sjgspNO-9GveuS-iCy_pad-38"><polygon points="250,237.5 -250,237.5 -250,-237.5 250,-237.5"/><circle cx="250" cy="237.5" r="237.5"/><circle cx="-250" cy="237.5" r="237.5"/><circle cx="-250" cy="-237.5" r="237.5"/><circle cx="250" cy="-237.5" r="237.5"/><polygon points="250,0 -250,0 -250,475 250,475"/><polygon points="-12.5,237.5 -12.5,-237.5 -487.5,-237.5 -487.5,237.5"/><polygon points="-250,-475 250,-475 250,0 -250,0"/><polygon points="487.5,-237.5 487.5,237.5 12.5,237.5 12.5,-237.5"/></g><rect x="-787.4" y="-304.8" width="1574.8" height="609.6" id="T2sjgspNO-9GveuS-iCy_pad-39"/></defs><g transform="translate(0,-190505.5) scale(1,-1)" fill="currentColor" stroke="currentColor"><use xlink:href="#T2sjgspNO-9GveuS-iCy_pad-10" x="107442" y="-88156"/><use xlink:href="#T2sjgspNO-9GveuS-iCy_pad-10" x="107442" y="-86106"/><use xlink:href="#T2sjgspNO-9GveuS-iCy_pad-11" x="129543.5" y="-102343.5"/><use xlink:href="#T2sjgspNO-9GveuS-iCy_pad-11" x="129543.5" y="-104243.5"/><use xlink:href="#T2sjgspNO-9GveuS-iCy_pad-11" x="131418.5" y="-103293.5"/><use xlink:href="#T2sjgspNO-9GveuS-iCy_pad-12" x="102716.5" y="-86360"/><use xlink:href="#T2sjgspNO-9GveuS-iCy_pad-12" x="100991.5" y="-86360"/><use xlink:href="#T2sjgspNO-9GveuS-iCy_pad-13" x="115672.5" y="-87376"/><use xlink:href="#T2sjgspNO-9GveuS-iCy_pad-14" x="117572.5" y="-87376"/><use xlink:href="#T2sjgspNO-9GveuS-iCy_pad-15" x="85598" y="-100584"/><use xlink:href="#T2sjgspNO-9GveuS-iCy_pad-15" x="85598" y="-102309"/><use xlink:href="#T2sjgspNO-9GveuS-iCy_pad-16" x="113003.5" y="-100838"/><use xlink:href="#T2sjgspNO-9GveuS-iCy_pad-16" x="113003.5" y="-102663"/><use xlink:href="#T2sjgspNO-9GveuS-iCy_pad-15" x="83820" y="-100584"/><use xlink:href="#T2sjgspNO-9GveuS-iCy_pad-15" x="83820" y="-102309"/><use xlink:href="#T2sjgspNO-9GveuS-iCy_pad-17" x="116462.5" y="-93011.5"/><use xlink:href="#T2sjgspNO-9GveuS-iCy_pad-17" x="116462.5" y="-91286.5"/><use xlink:href="#T2sjgspNO-9GveuS-iCy_pad-18" x="88545.5" y="-100584"/><use xlink:href="#T2sjgspNO-9GveuS-iCy_pad-18" x="90270.5" y="-100584"/><use xlink:href="#T2sjgspNO-9GveuS-iCy_pad-18" x="99774.5" y="-96774"/><use xlink:href="#T2sjgspNO-9GveuS-iCy_pad-18" x="101499.5" y="-96774"/><use xlink:href="#T2sjgspNO-9GveuS-iCy_pad-19" x="83312" y="-88067"/><use xlink:href="#T2sjgspNO-9GveuS-iCy_pad-19" x="83312" y="-86242"/><use xlink:href="#T2sjgspNO-9GveuS-iCy_pad-16" x="87884" y="-86313"/><use xlink:href="#T2sjgspNO-9GveuS-iCy_pad-16" x="87884" y="-88138"/><use xlink:href="#T2sjgspNO-9GveuS-iCy_pad-18" x="116305.5" y="-102616"/><use xlink:href="#T2sjgspNO-9GveuS-iCy_pad-18" x="118030.5" y="-102616"/><use xlink:href="#T2sjgspNO-9GveuS-iCy_pad-12" x="123899" y="-98552"/><use xlink:href="#T2sjgspNO-9GveuS-iCy_pad-12" x="122174" y="-98552"/><use xlink:href="#T2sjgspNO-9GveuS-iCy_pad-18" x="88445" y="-97937.25"/><use xlink:href="#T2sjgspNO-9GveuS-iCy_pad-18" x="90170" y="-97937.25"/><use xlink:href="#T2sjgspNO-9GveuS-iCy_pad-16" x="84836" y="-86313"/><use xlink:href="#T2sjgspNO-9GveuS-iCy_pad-16" x="84836" y="-88138"/><use xlink:href="#T2sjgspNO-9GveuS-iCy_pad-17" x="98044" y="-90270.5"/><use xlink:href="#T2sjgspNO-9GveuS-iCy_pad-17" x="98044" y="-88545.5"/><use xlink:href="#T2sjgspNO-9GveuS-iCy_pad-20" x="120523" y="-93318.5"/><use xlink:href="#T2sjgspNO-9GveuS-iCy_pad-20" x="124883" y="-93318.5"/><use xlink:href="#T2sjgspNO-9GveuS-iCy_pad-18" x="99774.5" y="-100016"/><use xlink:href="#T2sjgspNO-9GveuS-iCy_pad-18" x="101499.5" y="-100016"/><use xlink:href="#T2sjgspNO-9GveuS-iCy_pad-13" x="94736.5" y="-103632"/><use xlink:href="#T2sjgspNO-9GveuS-iCy_pad-14" x="96636.5" y="-103632"/><use xlink:href="#T2sjgspNO-9GveuS-iCy_pad-19" x="106186.5" y="-97196"/><use xlink:href="#T2sjgspNO-9GveuS-iCy_pad-19" x="106186.5" y="-95371"/><use xlink:href="#T2sjgspNO-9GveuS-iCy_pad-21" x="108259.5" y="-98380"/><use xlink:href="#T2sjgspNO-9GveuS-iCy_pad-21" x="108909.5" y="-98380"/><use xlink:href="#T2sjgspNO-9GveuS-iCy_pad-21" x="109559.5" y="-98380"/><use xlink:href="#T2sjgspNO-9GveuS-iCy_pad-21" x="110209.5" y="-98380"/><use xlink:href="#T2sjgspNO-9GveuS-iCy_pad-21" x="110209.5" y="-93980"/><use xlink:href="#T2sjgspNO-9GveuS-iCy_pad-21" x="109559.5" y="-93980"/><use xlink:href="#T2sjgspNO-9GveuS-iCy_pad-21" x="108909.5" y="-93980"/><use xlink:href="#T2sjgspNO-9GveuS-iCy_pad-21" x="108259.5" y="-93980"/><use xlink:href="#T2sjgspNO-9GveuS-iCy_pad-13" x="95020.5" y="-96520"/><use xlink:href="#T2sjgspNO-9GveuS-iCy_pad-14" x="93120.5" y="-96520"/><use xlink:href="#T2sjgspNO-9GveuS-iCy_pad-22" x="88458" y="-104237"/><use xlink:href="#T2sjgspNO-9GveuS-iCy_pad-22" x="90358" y="-104237"/><use xlink:href="#T2sjgspNO-9GveuS-iCy_pad-22" x="89408" y="-102362"/><use xlink:href="#T2sjgspNO-9GveuS-iCy_pad-18" x="99774.5" y="-98298"/><use xlink:href="#T2sjgspNO-9GveuS-iCy_pad-18" x="101499.5" y="-98298"/><use xlink:href="#T2sjgspNO-9GveuS-iCy_pad-15" x="133350" y="-98838"/><use xlink:href="#T2sjgspNO-9GveuS-iCy_pad-15" x="133350" y="-100563"/><use xlink:href="#T2sjgspNO-9GveuS-iCy_pad-17" x="81788" y="-88088"/><use xlink:href="#T2sjgspNO-9GveuS-iCy_pad-17" x="81788" y="-86363"/><use xlink:href="#T2sjgspNO-9GveuS-iCy_pad-12" x="102616" y="-92456"/><use xlink:href="#T2sjgspNO-9GveuS-iCy_pad-12" x="100891" y="-92456"/><use xlink:href="#T2sjgspNO-9GveuS-iCy_pad-17" x="86360" y="-88088"/><use xlink:href="#T2sjgspNO-9GveuS-iCy_pad-17" x="86360" y="-86363"/><use xlink:href="#T2sjgspNO-9GveuS-iCy_pad-22" x="130434" y="-95758"/><use xlink:href="#T2sjgspNO-9GveuS-iCy_pad-22" x="132334" y="-95758"/><use xlink:href="#T2sjgspNO-9GveuS-iCy_pad-22" x="131384" y="-93883"/><use xlink:href="#T2sjgspNO-9GveuS-iCy_pad-23" x="127804" y="-93270"/><use xlink:href="#T2sjgspNO-9GveuS-iCy_pad-23" x="127804" y="-90170"/><use xlink:href="#T2sjgspNO-9GveuS-iCy_pad-18" x="82042" y="-98753"/><use xlink:href="#T2sjgspNO-9GveuS-iCy_pad-18" x="83767" y="-98753"/><use xlink:href="#T2sjgspNO-9GveuS-iCy_pad-24" x="82550" y="-89665"/><use xlink:href="#T2sjgspNO-9GveuS-iCy_pad-24" x="82550" y="-91765"/><use xlink:href="#T2sjgspNO-9GveuS-iCy_pad-22" x="133990" y="-95758"/><use xlink:href="#T2sjgspNO-9GveuS-iCy_pad-22" x="135890" y="-95758"/><use xlink:href="#T2sjgspNO-9GveuS-iCy_pad-22" x="134940" y="-93883"/><use xlink:href="#T2sjgspNO-9GveuS-iCy_pad-25" x="90204.5" y="-94234"/><use xlink:href="#T2sjgspNO-9GveuS-iCy_pad-25" x="88304.5" y="-94234"/><use xlink:href="#T2sjgspNO-9GveuS-iCy_pad-25" x="89254.5" y="-96109"/><use xlink:href="#T2sjgspNO-9GveuS-iCy_pad-17" x="89408" y="-88088"/><use xlink:href="#T2sjgspNO-9GveuS-iCy_pad-17" x="89408" y="-86363"/><use xlink:href="#T2sjgspNO-9GveuS-iCy_pad-19" x="105664" y="-87884"/><use xlink:href="#T2sjgspNO-9GveuS-iCy_pad-19" x="105664" y="-86059"/><use xlink:href="#T2sjgspNO-9GveuS-iCy_pad-18" x="116358.5" y="-100838"/><use xlink:href="#T2sjgspNO-9GveuS-iCy_pad-18" x="118083.5" y="-100838"/><use xlink:href="#T2sjgspNO-9GveuS-iCy_pad-19" x="133275" y="-104102.5"/><use xlink:href="#T2sjgspNO-9GveuS-iCy_pad-19" x="133275" y="-102277.5"/><use xlink:href="#T2sjgspNO-9GveuS-iCy_pad-13" x="95020.5" y="-100076"/><use xlink:href="#T2sjgspNO-9GveuS-iCy_pad-14" x="93120.5" y="-100076"/><use xlink:href="#T2sjgspNO-9GveuS-iCy_pad-26" x="104902" y="-102238"/><use xlink:href="#T2sjgspNO-9GveuS-iCy_pad-26" x="104902" y="-100838"/><use xlink:href="#T2sjgspNO-9GveuS-iCy_pad-19" x="111266.5" y="-102680.5"/><use xlink:href="#T2sjgspNO-9GveuS-iCy_pad-19" x="111266.5" y="-100855.5"/><use xlink:href="#T2sjgspNO-9GveuS-iCy_pad-12" x="123899" y="-100330"/><use xlink:href="#T2sjgspNO-9GveuS-iCy_pad-12" x="122174" y="-100330"/><use xlink:href="#T2sjgspNO-9GveuS-iCy_pad-27" x="120115.5" y="-86360"/><use xlink:href="#T2sjgspNO-9GveuS-iCy_pad-27" x="121940.5" y="-86360"/><use xlink:href="#T2sjgspNO-9GveuS-iCy_pad-28" x="115437.5" y="-98062"/><use xlink:href="#T2sjgspNO-9GveuS-iCy_pad-29" x="115262.5" y="-97624.5"/><use xlink:href="#T2sjgspNO-9GveuS-iCy_pad-30" x="115962.374" y="-98024.5"/><use xlink:href="#T2sjgspNO-9GveuS-iCy_pad-30" x="116462.5" y="-98024.5"/><use xlink:href="#T2sjgspNO-9GveuS-iCy_pad-30" x="116962.5" y="-98024.5"/><use xlink:href="#T2sjgspNO-9GveuS-iCy_pad-31" x="117487.5" y="-97937"/><use xlink:href="#T2sjgspNO-9GveuS-iCy_pad-32" x="117662.5" y="-97624.5"/><use xlink:href="#T2sjgspNO-9GveuS-iCy_pad-33" x="117612.5" y="-97124.5"/><use xlink:href="#T2sjgspNO-9GveuS-iCy_pad-33" x="117612.5" y="-96624.5"/><use xlink:href="#T2sjgspNO-9GveuS-iCy_pad-32" x="117662.5" y="-96124.5"/><use xlink:href="#T2sjgspNO-9GveuS-iCy_pad-34" x="117487.5" y="-95812"/><use xlink:href="#T2sjgspNO-9GveuS-iCy_pad-30" x="116962.5" y="-95724.5"/><use xlink:href="#T2sjgspNO-9GveuS-iCy_pad-30" x="116462.5" y="-95724.5"/><use xlink:href="#T2sjgspNO-9GveuS-iCy_pad-30" x="115962.5" y="-95724.5"/><use xlink:href="#T2sjgspNO-9GveuS-iCy_pad-32" x="115262.5" y="-96124.5"/><use xlink:href="#T2sjgspNO-9GveuS-iCy_pad-35" x="115437.5" y="-95812"/><use xlink:href="#T2sjgspNO-9GveuS-iCy_pad-33" x="115312.5" y="-96624.5"/><use xlink:href="#T2sjgspNO-9GveuS-iCy_pad-33" x="115312.5" y="-97124.5"/><use xlink:href="#T2sjgspNO-9GveuS-iCy_pad-36" x="116462.5" y="-96874.5"/><use xlink:href="#T2sjgspNO-9GveuS-iCy_pad-18" x="82095" y="-95197"/><use xlink:href="#T2sjgspNO-9GveuS-iCy_pad-18" x="83820" y="-95197"/><use xlink:href="#T2sjgspNO-9GveuS-iCy_pad-37" x="85598" y="-89774"/><use xlink:href="#T2sjgspNO-9GveuS-iCy_pad-37" x="85598" y="-90424"/><use xlink:href="#T2sjgspNO-9GveuS-iCy_pad-37" x="85598" y="-91074"/><use xlink:href="#T2sjgspNO-9GveuS-iCy_pad-37" x="85598" y="-91724"/><use xlink:href="#T2sjgspNO-9GveuS-iCy_pad-37" x="89998" y="-91724"/><use xlink:href="#T2sjgspNO-9GveuS-iCy_pad-37" x="89998" y="-91074"/><use xlink:href="#T2sjgspNO-9GveuS-iCy_pad-37" x="89998" y="-90424"/><use xlink:href="#T2sjgspNO-9GveuS-iCy_pad-37" x="89998" y="-89774"/><use xlink:href="#T2sjgspNO-9GveuS-iCy_pad-19" x="107964.5" y="-102680.5"/><use xlink:href="#T2sjgspNO-9GveuS-iCy_pad-19" x="107964.5" y="-100855.5"/><use xlink:href="#T2sjgspNO-9GveuS-iCy_pad-16" x="109742.5" y="-100855.5"/><use xlink:href="#T2sjgspNO-9GveuS-iCy_pad-16" x="109742.5" y="-102680.5"/><use xlink:href="#T2sjgspNO-9GveuS-iCy_pad-17" x="106145.5" y="-93673"/><use xlink:href="#T2sjgspNO-9GveuS-iCy_pad-17" x="106145.5" y="-91948"/><use xlink:href="#T2sjgspNO-9GveuS-iCy_pad-19" x="134874" y="-100613"/><use xlink:href="#T2sjgspNO-9GveuS-iCy_pad-19" x="134874" y="-98788"/><use xlink:href="#T2sjgspNO-9GveuS-iCy_pad-27" x="78185" y="-90170"/><use xlink:href="#T2sjgspNO-9GveuS-iCy_pad-27" x="80010" y="-90170"/><use xlink:href="#T2sjgspNO-9GveuS-iCy_pad-13" x="110588.5" y="-90932"/><use xlink:href="#T2sjgspNO-9GveuS-iCy_pad-14" x="108688.5" y="-90932"/><use xlink:href="#T2sjgspNO-9GveuS-iCy_pad-19" x="112241.5" y="-97075"/><use xlink:href="#T2sjgspNO-9GveuS-iCy_pad-19" x="112241.5" y="-95250"/><use xlink:href="#T2sjgspNO-9GveuS-iCy_pad-38" x="121940.5" y="-88138"/><use xlink:href="#T2sjgspNO-9GveuS-iCy_pad-38" x="120115.5" y="-88138"/><use xlink:href="#T2sjgspNO-9GveuS-iCy_pad-15" x="82042" y="-100584"/><use xlink:href="#T2sjgspNO-9GveuS-iCy_pad-15" x="82042" y="-102309"/><use xlink:href="#T2sjgspNO-9GveuS-iCy_pad-18" x="82095" y="-96975"/><use xlink:href="#T2sjgspNO-9GveuS-iCy_pad-18" x="83820" y="-96975"/><use xlink:href="#T2sjgspNO-9GveuS-iCy_pad-39" x="100584" y="-88519"/><use xlink:href="#T2sjgspNO-9GveuS-iCy_pad-39" x="100584" y="-89471.5"/><use xlink:href="#T2sjgspNO-9GveuS-iCy_pad-39" x="100584" y="-90424"/><use xlink:href="#T2sjgspNO-9GveuS-iCy_pad-39" x="103124" y="-90424"/><use xlink:href="#T2sjgspNO-9GveuS-iCy_pad-39" x="103124" y="-88519"/><use xlink:href="#T2sjgspNO-9GveuS-iCy_pad-13" x="94736.5" y="-92964"/><use xlink:href="#T2sjgspNO-9GveuS-iCy_pad-14" x="96636.5" y="-92964"/></g></svg>