%TF.GenerationSoftware,KiCad,Pcbnew,7.0.1*%
%TF.CreationDate,2024-08-13T13:18:48+02:00*%
%TF.ProjectId,driver_prereg_combined,64726976-6572-45f7-9072-657265675f63,rev?*%
%TF.SameCoordinates,Original*%
%TF.FileFunction,Paste,Top*%
%TF.FilePolarity,Positive*%
%FSLAX46Y46*%
G04 Gerber Fmt 4.6, Leading zero omitted, Abs format (unit mm)*
G04 Created by KiCad (PCBNEW 7.0.1) date 2024-08-13 13:18:48*
%MOMM*%
%LPD*%
G01*
G04 APERTURE LIST*
G04 Aperture macros list*
%AMRoundRect*
0 Rectangle with rounded corners*
0 $1 Rounding radius*
0 $2 $3 $4 $5 $6 $7 $8 $9 X,Y pos of 4 corners*
0 Add a 4 corners polygon primitive as box body*
4,1,4,$2,$3,$4,$5,$6,$7,$8,$9,$2,$3,0*
0 Add four circle primitives for the rounded corners*
1,1,$1+$1,$2,$3*
1,1,$1+$1,$4,$5*
1,1,$1+$1,$6,$7*
1,1,$1+$1,$8,$9*
0 Add four rect primitives between the rounded corners*
20,1,$1+$1,$2,$3,$4,$5,0*
20,1,$1+$1,$4,$5,$6,$7,0*
20,1,$1+$1,$6,$7,$8,$9,0*
20,1,$1+$1,$8,$9,$2,$3,0*%
G04 Aperture macros list end*
%ADD10RoundRect,0.237500X0.250000X0.237500X-0.250000X0.237500X-0.250000X-0.237500X0.250000X-0.237500X0*%
%ADD11RoundRect,0.237500X-0.237500X0.250000X-0.237500X-0.250000X0.237500X-0.250000X0.237500X0.250000X0*%
%ADD12RoundRect,0.237500X0.237500X-0.250000X0.237500X0.250000X-0.237500X0.250000X-0.237500X-0.250000X0*%
%ADD13R,0.249999X0.599999*%
%ADD14R,0.599999X0.249999*%
%ADD15RoundRect,0.150000X0.150000X0.200000X-0.150000X0.200000X-0.150000X-0.200000X0.150000X-0.200000X0*%
%ADD16R,2.980000X12.000000*%
%ADD17RoundRect,0.237500X-0.237500X0.300000X-0.237500X-0.300000X0.237500X-0.300000X0.237500X0.300000X0*%
%ADD18RoundRect,0.237500X0.237500X-0.300000X0.237500X0.300000X-0.237500X0.300000X-0.237500X-0.300000X0*%
%ADD19RoundRect,0.237500X-0.300000X-0.237500X0.300000X-0.237500X0.300000X0.237500X-0.300000X0.237500X0*%
%ADD20RoundRect,0.237500X0.300000X0.237500X-0.300000X0.237500X-0.300000X-0.237500X0.300000X-0.237500X0*%
%ADD21R,0.750000X0.200000*%
%ADD22R,1.800000X2.400000*%
%ADD23RoundRect,0.237500X-0.250000X-0.237500X0.250000X-0.237500X0.250000X0.237500X-0.250000X0.237500X0*%
%ADD24R,0.300000X0.800000*%
%ADD25R,0.800000X0.300000*%
%ADD26R,1.750000X1.750000*%
%ADD27O,0.280000X0.640000*%
%ADD28O,0.248000X0.640000*%
%ADD29O,0.498000X0.270000*%
%ADD30O,0.320000X0.270000*%
%ADD31RoundRect,0.250000X0.475000X-0.337500X0.475000X0.337500X-0.475000X0.337500X-0.475000X-0.337500X0*%
%ADD32RoundRect,0.250000X0.450000X-0.325000X0.450000X0.325000X-0.450000X0.325000X-0.450000X-0.325000X0*%
%ADD33R,0.900000X1.000000*%
%ADD34R,2.250000X2.050000*%
%ADD35R,0.550000X1.600000*%
%ADD36RoundRect,0.250000X-0.450000X0.350000X-0.450000X-0.350000X0.450000X-0.350000X0.450000X0.350000X0*%
%ADD37R,0.249999X0.499999*%
%ADD38R,2.650000X1.000000*%
%ADD39RoundRect,0.232500X-0.232500X0.232500X-0.232500X-0.232500X0.232500X-0.232500X0.232500X0.232500X0*%
%ADD40RoundRect,0.062500X-0.062500X0.375000X-0.062500X-0.375000X0.062500X-0.375000X0.062500X0.375000X0*%
%ADD41RoundRect,0.062500X-0.375000X0.062500X-0.375000X-0.062500X0.375000X-0.062500X0.375000X0.062500X0*%
%ADD42RoundRect,0.130000X0.305000X-0.130000X0.305000X0.130000X-0.305000X0.130000X-0.305000X-0.130000X0*%
%ADD43RoundRect,0.062500X0.062500X-0.350000X0.062500X0.350000X-0.062500X0.350000X-0.062500X-0.350000X0*%
%ADD44RoundRect,0.250000X-0.400000X-0.625000X0.400000X-0.625000X0.400000X0.625000X-0.400000X0.625000X0*%
%ADD45R,1.100000X1.900000*%
%ADD46O,0.326000X0.320000*%
%ADD47O,0.326000X0.776000*%
%ADD48RoundRect,0.125000X-0.125000X-0.125000X0.125000X-0.125000X0.125000X0.125000X-0.125000X0.125000X0*%
%ADD49R,0.299999X0.449999*%
%ADD50R,1.599999X1.000000*%
%ADD51RoundRect,0.250000X0.337500X0.475000X-0.337500X0.475000X-0.337500X-0.475000X0.337500X-0.475000X0*%
%ADD52R,2.500000X3.850000*%
G04 APERTURE END LIST*
%TO.C,U1*%
G36*
X152252762Y-120413435D02*
G01*
X152261908Y-120416209D01*
X152270336Y-120420715D01*
X152277725Y-120426775D01*
X152283785Y-120434164D01*
X152288291Y-120442592D01*
X152291065Y-120451738D01*
X152292002Y-120461248D01*
X152292002Y-121493748D01*
X152291065Y-121503258D01*
X152288291Y-121512404D01*
X152283785Y-121520832D01*
X152277725Y-121528221D01*
X152270336Y-121534281D01*
X152261908Y-121538787D01*
X152252762Y-121541561D01*
X152243252Y-121542498D01*
X151590751Y-121542498D01*
X151581242Y-121541561D01*
X151572095Y-121538787D01*
X151563667Y-121534281D01*
X151556278Y-121528221D01*
X151550218Y-121520832D01*
X151545712Y-121512404D01*
X151542938Y-121503258D01*
X151542001Y-121493748D01*
X151542001Y-120461248D01*
X151542938Y-120451738D01*
X151545712Y-120442592D01*
X151550218Y-120434164D01*
X151556278Y-120426775D01*
X151563667Y-120420715D01*
X151572095Y-120416209D01*
X151581242Y-120413435D01*
X151590751Y-120412498D01*
X152243252Y-120412498D01*
X152252762Y-120413435D01*
G37*
G36*
X153202762Y-120413435D02*
G01*
X153211909Y-120416209D01*
X153220337Y-120420715D01*
X153227726Y-120426775D01*
X153233786Y-120434164D01*
X153238292Y-120442592D01*
X153241066Y-120451738D01*
X153242003Y-120461248D01*
X153242003Y-121493748D01*
X153241066Y-121503258D01*
X153238292Y-121512404D01*
X153233786Y-121520832D01*
X153227726Y-121528221D01*
X153220337Y-121534281D01*
X153211909Y-121538787D01*
X153202762Y-121541561D01*
X153193253Y-121542498D01*
X152540752Y-121542498D01*
X152531242Y-121541561D01*
X152522096Y-121538787D01*
X152513668Y-121534281D01*
X152506279Y-121528221D01*
X152500219Y-121520832D01*
X152495713Y-121512404D01*
X152492939Y-121503258D01*
X152492002Y-121493748D01*
X152492002Y-120461248D01*
X152492939Y-120451738D01*
X152495713Y-120442592D01*
X152500219Y-120434164D01*
X152506279Y-120426775D01*
X152513668Y-120420715D01*
X152522096Y-120416209D01*
X152531242Y-120413435D01*
X152540752Y-120412498D01*
X153193253Y-120412498D01*
X153202762Y-120413435D01*
G37*
G36*
X152254857Y-118898384D02*
G01*
X152263516Y-118901010D01*
X152271494Y-118905275D01*
X152278487Y-118911015D01*
X152284227Y-118918008D01*
X152288492Y-118925986D01*
X152291118Y-118934645D01*
X152292005Y-118943646D01*
X152292005Y-119561349D01*
X152291118Y-119570351D01*
X152288492Y-119579010D01*
X152284227Y-119586988D01*
X152278487Y-119593980D01*
X152271494Y-119599721D01*
X152263516Y-119603985D01*
X152254857Y-119606612D01*
X152245855Y-119607498D01*
X151588153Y-119607498D01*
X151579151Y-119606612D01*
X151570492Y-119603985D01*
X151562514Y-119599721D01*
X151555522Y-119593980D01*
X151549781Y-119586988D01*
X151545517Y-119579010D01*
X151542890Y-119570351D01*
X151542004Y-119561349D01*
X151542004Y-118943646D01*
X151542890Y-118934645D01*
X151545517Y-118925986D01*
X151549781Y-118918008D01*
X151555522Y-118911015D01*
X151562514Y-118905275D01*
X151570492Y-118901010D01*
X151579151Y-118898384D01*
X151588153Y-118897497D01*
X152245855Y-118897497D01*
X152254857Y-118898384D01*
G37*
G36*
X153204853Y-118898384D02*
G01*
X153213512Y-118901010D01*
X153221490Y-118905275D01*
X153228482Y-118911015D01*
X153234223Y-118918008D01*
X153238487Y-118925986D01*
X153241114Y-118934645D01*
X153242000Y-118943646D01*
X153242000Y-119561349D01*
X153241114Y-119570351D01*
X153238487Y-119579010D01*
X153234223Y-119586988D01*
X153228482Y-119593980D01*
X153221490Y-119599721D01*
X153213512Y-119603985D01*
X153204853Y-119606612D01*
X153195851Y-119607498D01*
X152538149Y-119607498D01*
X152529147Y-119606612D01*
X152520488Y-119603985D01*
X152512510Y-119599721D01*
X152505517Y-119593980D01*
X152499777Y-119586988D01*
X152495512Y-119579010D01*
X152492886Y-119570351D01*
X152491999Y-119561349D01*
X152491999Y-118943646D01*
X152492886Y-118934645D01*
X152495512Y-118925986D01*
X152499777Y-118918008D01*
X152505517Y-118911015D01*
X152512510Y-118905275D01*
X152520488Y-118901010D01*
X152529147Y-118898384D01*
X152538149Y-118897497D01*
X153195851Y-118897497D01*
X153204853Y-118898384D01*
G37*
%TO.C,U6*%
G36*
X136093508Y-108549750D02*
G01*
X136093508Y-109399750D01*
X136043508Y-109449750D01*
X134973508Y-109449750D01*
X134923508Y-109399750D01*
X134923508Y-108549750D01*
X134973508Y-108499750D01*
X136043508Y-108499750D01*
X136093508Y-108549750D01*
G37*
G36*
X137463508Y-108549750D02*
G01*
X137463508Y-109399750D01*
X137413508Y-109449750D01*
X136343508Y-109449750D01*
X136293508Y-109399750D01*
X136293508Y-108549750D01*
X136343508Y-108499750D01*
X137413508Y-108499750D01*
X137463508Y-108549750D01*
G37*
%TO.C,U5*%
G36*
X134041002Y-115282505D02*
G01*
X132575003Y-115282505D01*
X132575003Y-114333505D01*
X134041002Y-114333505D01*
X134041002Y-115282505D01*
G37*
%TD*%
D10*
%TO.C,R28*%
X125902004Y-98326000D03*
X124077004Y-98326000D03*
%TD*%
D11*
%TO.C,R18*%
X139036506Y-108191500D03*
X139036506Y-110016500D03*
%TD*%
D12*
%TO.C,R23*%
X170180000Y-93268000D03*
X170180000Y-91443000D03*
%TD*%
D13*
%TO.C,U1*%
X151392001Y-122127496D03*
X151892000Y-122127496D03*
X152391999Y-122127496D03*
X152891998Y-122127496D03*
X153391997Y-122127496D03*
D14*
X153792002Y-121477500D03*
X153792002Y-120977498D03*
X153792002Y-120477499D03*
X153792002Y-119477501D03*
X153792002Y-118977500D03*
D13*
X153391997Y-118327498D03*
X152891998Y-118327498D03*
X152391999Y-118327498D03*
X151892000Y-118327498D03*
X151392001Y-118327498D03*
D14*
X150992002Y-118977500D03*
X150992002Y-120477499D03*
X150992002Y-120977498D03*
X150992002Y-121477500D03*
%TD*%
D15*
%TO.C,D6*%
X174560000Y-94895500D03*
X175960000Y-94895500D03*
%TD*%
D12*
%TO.C,R7*%
X155014504Y-125628500D03*
X155014504Y-123803500D03*
%TD*%
D16*
%TO.C,L1*%
X165570004Y-118469500D03*
X174170004Y-118469500D03*
%TD*%
D17*
%TO.C,C21*%
X128282002Y-108115750D03*
X128282002Y-109840750D03*
%TD*%
%TO.C,C26*%
X135806002Y-114099000D03*
X135806002Y-115824000D03*
%TD*%
D18*
%TO.C,C25*%
X140728002Y-113119000D03*
X140728002Y-111394000D03*
%TD*%
D10*
%TO.C,R10*%
X132901002Y-106337750D03*
X131076002Y-106337750D03*
%TD*%
D19*
%TO.C,C52*%
X162713500Y-94488000D03*
X164438500Y-94488000D03*
%TD*%
D20*
%TO.C,C18*%
X130344500Y-89447000D03*
X128619500Y-89447000D03*
%TD*%
D17*
%TO.C,C5*%
X131330002Y-108115750D03*
X131330002Y-109840750D03*
%TD*%
D19*
%TO.C,C39*%
X135480500Y-88685000D03*
X137205500Y-88685000D03*
%TD*%
D21*
%TO.C,IC2*%
X126483504Y-95229000D03*
X126483504Y-94829000D03*
X126483504Y-94429000D03*
X126483504Y-94029000D03*
X126483504Y-93629000D03*
X126483504Y-93229000D03*
X126483504Y-92829000D03*
X123483504Y-92829000D03*
X123483504Y-93229000D03*
X123483504Y-93629000D03*
X123483504Y-94029000D03*
X123483504Y-94429000D03*
X123483504Y-94829000D03*
X123483504Y-95229000D03*
D22*
X124983504Y-94029000D03*
%TD*%
D17*
%TO.C,C23*%
X137016506Y-104479500D03*
X137016506Y-106204500D03*
%TD*%
D23*
%TO.C,R24*%
X135430500Y-91733000D03*
X137255500Y-91733000D03*
%TD*%
D12*
%TO.C,R31*%
X144907000Y-92456000D03*
X144907000Y-90631000D03*
%TD*%
D18*
%TO.C,C37*%
X171704000Y-93218000D03*
X171704000Y-91493000D03*
%TD*%
D24*
%TO.C,IC1*%
X140100506Y-106686500D03*
X140600506Y-106686500D03*
X141100506Y-106686500D03*
X141600506Y-106686500D03*
D25*
X142350506Y-105936500D03*
X142350506Y-105436500D03*
X142350506Y-104936500D03*
X142350506Y-104436500D03*
D24*
X141600506Y-103686500D03*
X141100506Y-103686500D03*
X140600506Y-103686500D03*
X140100506Y-103686500D03*
D25*
X139350506Y-104436500D03*
X139350506Y-104936500D03*
X139350506Y-105436500D03*
X139350506Y-105936500D03*
D26*
X140850506Y-105186500D03*
%TD*%
D12*
%TO.C,R12*%
X140728002Y-116621500D03*
X140728002Y-114796500D03*
%TD*%
D10*
%TO.C,R29*%
X173101000Y-96520000D03*
X171276000Y-96520000D03*
%TD*%
D27*
%TO.C,Q2*%
X159061002Y-120522498D03*
D28*
X159477002Y-120522488D03*
D29*
X160061002Y-120722498D03*
X160061002Y-120322498D03*
D30*
X160661012Y-120722498D03*
X160661012Y-120322498D03*
%TD*%
D31*
%TO.C,C13*%
X160348504Y-114448500D03*
X160348504Y-112373500D03*
%TD*%
D23*
%TO.C,R3*%
X155543502Y-118618000D03*
X157368502Y-118618000D03*
%TD*%
D17*
%TO.C,C1*%
X154506504Y-112373500D03*
X154506504Y-114098500D03*
%TD*%
D32*
%TO.C,D7*%
X143129000Y-92601000D03*
X143129000Y-90551000D03*
%TD*%
D33*
%TO.C,SW1*%
X149842000Y-91148000D03*
X153942000Y-91148000D03*
X149842000Y-92748000D03*
X153942000Y-92748000D03*
%TD*%
D34*
%TO.C,D5*%
X142358002Y-123945500D03*
X137958002Y-123945500D03*
%TD*%
D35*
%TO.C,L5*%
X133604000Y-94080500D03*
X132154000Y-94080500D03*
%TD*%
D36*
%TO.C,R16*%
X138286506Y-118687500D03*
X138286506Y-120687500D03*
%TD*%
D11*
%TO.C,R9*%
X129552002Y-104559750D03*
X129552002Y-106384750D03*
%TD*%
D12*
%TO.C,R13*%
X134028002Y-119414500D03*
X134028002Y-117589500D03*
%TD*%
D37*
%TO.C,U6*%
X134943508Y-109924748D03*
X135443510Y-109924748D03*
X135943508Y-109924748D03*
X136443508Y-109924748D03*
X136943509Y-109924748D03*
X137443508Y-109924748D03*
X137443508Y-108024749D03*
X136943509Y-108024749D03*
X136443508Y-108024749D03*
X135943508Y-108024749D03*
X135443510Y-108024749D03*
X134943508Y-108024749D03*
D38*
X136193508Y-108974747D03*
%TD*%
D17*
%TO.C,C54*%
X148101999Y-91072999D03*
X148101999Y-92797999D03*
%TD*%
D27*
%TO.C,Q1*%
X159061002Y-118037500D03*
D28*
X159477002Y-118037490D03*
D29*
X160061002Y-118237500D03*
X160061002Y-117837500D03*
D30*
X160661012Y-118237500D03*
X160661012Y-117837500D03*
%TD*%
D39*
%TO.C,U7*%
X158750000Y-96539500D03*
X157600000Y-96539500D03*
X156450000Y-96539500D03*
X158750000Y-97689500D03*
X157600000Y-97689500D03*
X156450000Y-97689500D03*
X158750000Y-98839500D03*
X157600000Y-98839500D03*
X156450000Y-98839500D03*
D40*
X159350000Y-95252000D03*
X158850000Y-95252000D03*
X158350000Y-95252000D03*
X157850000Y-95252000D03*
X157350000Y-95252000D03*
X156850000Y-95252000D03*
X156350000Y-95252000D03*
X155850000Y-95252000D03*
D41*
X155162500Y-95939500D03*
X155162500Y-96439500D03*
X155162500Y-96939500D03*
X155162500Y-97439500D03*
X155162500Y-97939500D03*
X155162500Y-98439500D03*
X155162500Y-98939500D03*
X155162500Y-99439500D03*
D40*
X155850000Y-100127000D03*
X156350000Y-100127000D03*
X156850000Y-100127000D03*
X157350000Y-100127000D03*
X157850000Y-100127000D03*
X158350000Y-100127000D03*
X158850000Y-100127000D03*
X159350000Y-100127000D03*
D41*
X160037500Y-99439500D03*
X160037500Y-98939500D03*
X160037500Y-98439500D03*
X160037500Y-97939500D03*
X160037500Y-97439500D03*
X160037500Y-96939500D03*
X160037500Y-96439500D03*
X160037500Y-95939500D03*
%TD*%
D18*
%TO.C,C30*%
X144140506Y-106073000D03*
X144140506Y-104348000D03*
%TD*%
D19*
%TO.C,C50*%
X159919500Y-103124000D03*
X161644500Y-103124000D03*
%TD*%
D20*
%TO.C,C29*%
X134986502Y-125209500D03*
X133261502Y-125209500D03*
%TD*%
%TO.C,C17*%
X130344500Y-90971000D03*
X128619500Y-90971000D03*
%TD*%
D17*
%TO.C,C20*%
X150377004Y-123856500D03*
X150377004Y-125581500D03*
%TD*%
D42*
%TO.C,U2*%
X132437500Y-90566500D03*
X133437500Y-90566500D03*
X132437500Y-89966500D03*
X133437500Y-89966500D03*
D43*
X131937500Y-91479000D03*
X132437500Y-91479000D03*
X132937500Y-91479000D03*
X133437500Y-91479000D03*
X133937500Y-91479000D03*
X133937500Y-89054000D03*
X133437500Y-89054000D03*
X132937500Y-89054000D03*
X132437500Y-89054000D03*
X131937500Y-89054000D03*
%TD*%
D10*
%TO.C,R17*%
X158138500Y-108458000D03*
X156313500Y-108458000D03*
%TD*%
D44*
%TO.C,R20*%
X145871000Y-112776000D03*
X148971000Y-112776000D03*
%TD*%
D12*
%TO.C,R21*%
X173228000Y-93268000D03*
X173228000Y-91443000D03*
%TD*%
D19*
%TO.C,C27*%
X137479002Y-113195750D03*
X139204002Y-113195750D03*
%TD*%
D12*
%TO.C,R8*%
X156508504Y-125628500D03*
X156508504Y-123803500D03*
%TD*%
D20*
%TO.C,C53*%
X155040500Y-102616000D03*
X153315500Y-102616000D03*
%TD*%
D17*
%TO.C,C19*%
X151871004Y-123856500D03*
X151871004Y-125581500D03*
%TD*%
D19*
%TO.C,C33*%
X133122500Y-112509500D03*
X134847500Y-112509500D03*
%TD*%
D18*
%TO.C,C46*%
X119888000Y-94461500D03*
X119888000Y-92736500D03*
%TD*%
D17*
%TO.C,C28*%
X132854002Y-108115750D03*
X132854002Y-109840750D03*
%TD*%
D19*
%TO.C,C48*%
X159057000Y-88646000D03*
X160782000Y-88646000D03*
%TD*%
D20*
%TO.C,C15*%
X132851002Y-104813750D03*
X131126002Y-104813750D03*
%TD*%
D18*
%TO.C,C24*%
X142252002Y-113219500D03*
X142252002Y-111494500D03*
%TD*%
D10*
%TO.C,R30*%
X152719000Y-89241999D03*
X150894000Y-89241999D03*
%TD*%
%TO.C,R26*%
X125954505Y-96761001D03*
X124129505Y-96761001D03*
%TD*%
D19*
%TO.C,C43*%
X135385000Y-96112500D03*
X137110000Y-96112500D03*
%TD*%
D45*
%TO.C,Y1*%
X162902001Y-91494999D03*
X160402001Y-91494999D03*
%TD*%
D19*
%TO.C,C44*%
X135385000Y-97636500D03*
X137110000Y-97636500D03*
%TD*%
D17*
%TO.C,C32*%
X140064506Y-118720500D03*
X140064506Y-120445500D03*
%TD*%
D46*
%TO.C,Q4*%
X132924002Y-121936500D03*
X132924002Y-122386500D03*
D47*
X133524002Y-122161500D03*
X134124002Y-122161500D03*
X134724002Y-122161500D03*
D46*
X135324002Y-121936500D03*
X135324002Y-122386500D03*
%TD*%
D10*
%TO.C,R1*%
X148986502Y-117474498D03*
X147161502Y-117474498D03*
%TD*%
D42*
%TO.C,U3*%
X132350000Y-97882000D03*
X133350000Y-97882000D03*
X132350000Y-97282000D03*
X133350000Y-97282000D03*
D43*
X131850000Y-98794500D03*
X132350000Y-98794500D03*
X132850000Y-98794500D03*
X133350000Y-98794500D03*
X133850000Y-98794500D03*
X133850000Y-96369500D03*
X133350000Y-96369500D03*
X132850000Y-96369500D03*
X132350000Y-96369500D03*
X131850000Y-96369500D03*
%TD*%
D20*
%TO.C,C47*%
X164184500Y-88646000D03*
X162459500Y-88646000D03*
%TD*%
D48*
%TO.C,D1*%
X147058002Y-119252498D03*
X149258002Y-119252498D03*
%TD*%
D17*
%TO.C,FB2*%
X155956000Y-90937500D03*
X155956000Y-92662500D03*
%TD*%
D18*
%TO.C,C4*%
X153395004Y-125581500D03*
X153395004Y-123856500D03*
%TD*%
D23*
%TO.C,R2*%
X155543502Y-120522498D03*
X157368502Y-120522498D03*
%TD*%
D17*
%TO.C,C34*%
X129806002Y-108115750D03*
X129806002Y-109840750D03*
%TD*%
D49*
%TO.C,U5*%
X133958002Y-113833001D03*
X133308001Y-113833001D03*
X132658002Y-113833001D03*
X132658002Y-115782999D03*
X133308001Y-115782999D03*
X133958002Y-115782999D03*
D50*
X133308001Y-114808000D03*
%TD*%
D10*
%TO.C,R22*%
X173124500Y-94895500D03*
X171299500Y-94895500D03*
%TD*%
D18*
%TO.C,C51*%
X157480000Y-92609500D03*
X157480000Y-90884500D03*
%TD*%
%TO.C,C36*%
X174752000Y-93218000D03*
X174752000Y-91493000D03*
%TD*%
D12*
%TO.C,R14*%
X132504002Y-119414500D03*
X132504002Y-117589500D03*
%TD*%
D20*
%TO.C,C41*%
X130249000Y-98398500D03*
X128524000Y-98398500D03*
%TD*%
D18*
%TO.C,C38*%
X168656000Y-93218000D03*
X168656000Y-91493000D03*
%TD*%
D19*
%TO.C,C14*%
X151429002Y-116204498D03*
X153154002Y-116204498D03*
%TD*%
D17*
%TO.C,C2*%
X152982504Y-112373500D03*
X152982504Y-114098500D03*
%TD*%
D20*
%TO.C,C42*%
X130249000Y-96874500D03*
X128524000Y-96874500D03*
%TD*%
D18*
%TO.C,C45*%
X128240505Y-94829501D03*
X128240505Y-93104501D03*
%TD*%
D31*
%TO.C,C11*%
X156284504Y-114448500D03*
X156284504Y-112373500D03*
%TD*%
D17*
%TO.C,C3*%
X151458504Y-112373500D03*
X151458504Y-114098500D03*
%TD*%
D19*
%TO.C,C49*%
X162713500Y-96165500D03*
X164438500Y-96165500D03*
%TD*%
D12*
%TO.C,R15*%
X139204002Y-116648250D03*
X139204002Y-114823250D03*
%TD*%
D19*
%TO.C,C16*%
X147211502Y-121030498D03*
X148936502Y-121030498D03*
%TD*%
D31*
%TO.C,C12*%
X158278504Y-114448500D03*
X158278504Y-112373500D03*
%TD*%
D17*
%TO.C,C35*%
X143112506Y-118687500D03*
X143112506Y-120412500D03*
%TD*%
D19*
%TO.C,C40*%
X135480500Y-90209000D03*
X137205500Y-90209000D03*
%TD*%
D44*
%TO.C,R27*%
X123388505Y-90665001D03*
X126488505Y-90665001D03*
%TD*%
D23*
%TO.C,R25*%
X135335000Y-99160500D03*
X137160000Y-99160500D03*
%TD*%
D51*
%TO.C,C10*%
X174011500Y-109728000D03*
X171936500Y-109728000D03*
%TD*%
D11*
%TO.C,R11*%
X135492506Y-104448500D03*
X135492506Y-106273500D03*
%TD*%
D35*
%TO.C,L4*%
X133625500Y-86653000D03*
X132175500Y-86653000D03*
%TD*%
D17*
%TO.C,C31*%
X141588506Y-118720500D03*
X141588506Y-120445500D03*
%TD*%
D52*
%TO.C,L6*%
X126226002Y-113655500D03*
X123226002Y-113655500D03*
X123226002Y-123555500D03*
X126226002Y-123555500D03*
%TD*%
D10*
%TO.C,R19*%
X158138500Y-106934000D03*
X156313500Y-106934000D03*
%TD*%
M02*
