%TF.GenerationSoftware,KiCad,Pcbnew,7.0.1*%
%TF.CreationDate,2024-08-13T13:18:48+02:00*%
%TF.ProjectId,driver_prereg_combined,64726976-6572-45f7-9072-657265675f63,rev?*%
%TF.SameCoordinates,Original*%
%TF.FileFunction,Copper,L2,Bot*%
%TF.FilePolarity,Positive*%
%FSLAX46Y46*%
G04 Gerber Fmt 4.6, Leading zero omitted, Abs format (unit mm)*
G04 Created by KiCad (PCBNEW 7.0.1) date 2024-08-13 13:18:48*
%MOMM*%
%LPD*%
G01*
G04 APERTURE LIST*
G04 Aperture macros list*
%AMFreePoly0*
4,1,19,0.500000,-0.750000,0.000000,-0.750000,0.000000,-0.744911,-0.071157,-0.744911,-0.207708,-0.704816,-0.327430,-0.627875,-0.420627,-0.520320,-0.479746,-0.390866,-0.500000,-0.250000,-0.500000,0.250000,-0.479746,0.390866,-0.420627,0.520320,-0.327430,0.627875,-0.207708,0.704816,-0.071157,0.744911,0.000000,0.744911,0.000000,0.750000,0.500000,0.750000,0.500000,-0.750000,0.500000,-0.750000,
$1*%
%AMFreePoly1*
4,1,19,0.000000,0.744911,0.071157,0.744911,0.207708,0.704816,0.327430,0.627875,0.420627,0.520320,0.479746,0.390866,0.500000,0.250000,0.500000,-0.250000,0.479746,-0.390866,0.420627,-0.520320,0.327430,-0.627875,0.207708,-0.704816,0.071157,-0.744911,0.000000,-0.744911,0.000000,-0.750000,-0.500000,-0.750000,-0.500000,0.750000,0.000000,0.750000,0.000000,0.744911,0.000000,0.744911,
$1*%
G04 Aperture macros list end*
%TA.AperFunction,ComponentPad*%
%ADD10R,2.500000X2.500000*%
%TD*%
%TA.AperFunction,SMDPad,CuDef*%
%ADD11R,2.000000X1.200000*%
%TD*%
%TA.AperFunction,SMDPad,CuDef*%
%ADD12FreePoly0,0.000000*%
%TD*%
%TA.AperFunction,SMDPad,CuDef*%
%ADD13FreePoly1,0.000000*%
%TD*%
%TA.AperFunction,SMDPad,CuDef*%
%ADD14R,2.500000X2.500000*%
%TD*%
%TA.AperFunction,SMDPad,CuDef*%
%ADD15FreePoly0,270.000000*%
%TD*%
%TA.AperFunction,SMDPad,CuDef*%
%ADD16FreePoly1,270.000000*%
%TD*%
%TA.AperFunction,ViaPad*%
%ADD17C,0.800000*%
%TD*%
%TA.AperFunction,Conductor*%
%ADD18C,0.508000*%
%TD*%
%TA.AperFunction,Conductor*%
%ADD19C,0.254000*%
%TD*%
%TA.AperFunction,Conductor*%
%ADD20C,0.250000*%
%TD*%
G04 APERTURE END LIST*
D10*
%TO.P,TP3,1,1*%
%TO.N,GND*%
X170688000Y-106172000D03*
%TD*%
%TO.P,TP11,1,1*%
%TO.N,/batt_mgmt/SCL*%
X144018000Y-87122000D03*
%TD*%
%TO.P,TP16,1,1*%
%TO.N,/mcu/LPUART_RX*%
X147574000Y-87122000D03*
%TD*%
D11*
%TO.P,U2,11,GND*%
%TO.N,GND*%
X132937500Y-90266500D03*
%TD*%
D10*
%TO.P,TP9,1,1*%
%TO.N,/batt_mgmt/V_BAT*%
X119708504Y-98612000D03*
%TD*%
%TO.P,TP2,1,1*%
%TO.N,/ask_demod/COIL_IN*%
X170688000Y-101600000D03*
%TD*%
D11*
%TO.P,U3,11,GND*%
%TO.N,GND*%
X132850000Y-97582000D03*
%TD*%
D10*
%TO.P,TP7,1,1*%
%TO.N,/sepic/VIN*%
X119900002Y-108953500D03*
%TD*%
%TO.P,TP12,1,1*%
%TO.N,Net-(IC2-EP)*%
X119732504Y-89274000D03*
%TD*%
%TO.P,TP5,1,1*%
%TO.N,/driver/CLK*%
X146304000Y-124460000D03*
%TD*%
%TO.P,TP6,1,1*%
%TO.N,/mcu/V_SEPIC*%
X149606000Y-107188000D03*
%TD*%
%TO.P,TP8,1,1*%
%TO.N,GND*%
X153162000Y-107188000D03*
%TD*%
%TO.P,TP10,1,1*%
%TO.N,/batt_mgmt/SDA*%
X140462000Y-87122000D03*
%TD*%
%TO.P,TP4,1,1*%
%TO.N,/driver/HS*%
X166878000Y-108966000D03*
%TD*%
D12*
%TO.P,JP2,1,A*%
%TO.N,/mcu/V_SEPIC*%
X149957000Y-110236000D03*
D13*
%TO.P,JP2,2,B*%
%TO.N,/driver/V_SUPPLY*%
X151257000Y-110236000D03*
%TD*%
D14*
%TO.P,TP14,1,1*%
%TO.N,/mcu/USART1_TX*%
X174752000Y-97409000D03*
%TD*%
%TO.P,TP15,1,1*%
%TO.N,/mcu/USART1_RX*%
X174752000Y-93853000D03*
%TD*%
%TO.P,TP13,1,1*%
%TO.N,/mcu/TIM22_CH1_DEBUG*%
X165227000Y-102616000D03*
%TD*%
D15*
%TO.P,JP4,1,A*%
%TO.N,/mcu/LPUART_RX*%
X148209000Y-94854000D03*
D16*
%TO.P,JP4,2,B*%
%TO.N,Net-(JP4-B)*%
X148209000Y-96154000D03*
%TD*%
D17*
%TO.N,GND*%
X146141500Y-121031000D03*
X155014504Y-126365000D03*
X144145000Y-107315000D03*
X131064000Y-114173000D03*
X160020000Y-123317000D03*
X150377004Y-126365000D03*
X174752000Y-108331000D03*
X151765000Y-91313000D03*
X146431000Y-96520000D03*
X154051000Y-100711000D03*
X142621000Y-99695000D03*
X167513000Y-105029000D03*
X148082000Y-110871000D03*
X168402000Y-106807000D03*
X148082000Y-115443000D03*
X150749000Y-102489000D03*
X136652000Y-108966000D03*
X159766000Y-87376000D03*
X130556000Y-107442000D03*
X138557000Y-90170000D03*
X152781000Y-109347000D03*
X137928292Y-108110714D03*
X119888000Y-122809000D03*
X176022000Y-91440000D03*
X160909000Y-123317000D03*
X168402000Y-105918000D03*
X146177000Y-115443000D03*
X157480000Y-89535000D03*
X153670000Y-105029000D03*
X126492000Y-88900000D03*
X161290000Y-93980000D03*
X131064000Y-115951000D03*
X131064000Y-115062000D03*
X165735000Y-96266000D03*
X119888000Y-91567000D03*
X167513000Y-105918000D03*
X169926000Y-114300000D03*
X128651000Y-91948000D03*
X161671000Y-104394000D03*
X153035000Y-110998000D03*
X143764000Y-102362000D03*
X132937500Y-90266500D03*
X125222000Y-120650000D03*
X142240000Y-114554000D03*
X173609000Y-103886000D03*
X127254000Y-120650000D03*
X151871004Y-126365000D03*
X135509000Y-103251000D03*
X143129000Y-117729000D03*
X175895000Y-103886000D03*
X144780000Y-94996000D03*
X146304353Y-101727353D03*
X124968000Y-90678000D03*
X134112000Y-105537000D03*
X128143000Y-101981000D03*
X142113000Y-116586000D03*
X168656000Y-90551000D03*
X161544000Y-87376000D03*
X137033000Y-103251000D03*
X159131000Y-122428000D03*
X170307000Y-109728000D03*
X138557000Y-96139000D03*
X156508504Y-126365000D03*
X173228000Y-89916000D03*
X141605000Y-117729000D03*
X148082000Y-104902000D03*
X152781000Y-105029000D03*
X128651000Y-88138000D03*
X170307000Y-110744000D03*
X152400000Y-120904000D03*
X155486716Y-121754284D03*
X168021000Y-100203000D03*
X165735000Y-93980000D03*
X148082000Y-109474000D03*
X138303000Y-118618000D03*
X124968000Y-88900000D03*
X128524000Y-125222000D03*
X159131000Y-123317000D03*
X127254000Y-98425000D03*
X132080000Y-107866250D03*
X129413000Y-93091000D03*
X141478000Y-126238000D03*
X140768003Y-105103997D03*
X137414000Y-114681000D03*
X128524000Y-123190000D03*
X132842000Y-97536000D03*
X126238000Y-120650000D03*
X128524000Y-96139000D03*
X173355000Y-108331000D03*
X133350000Y-111887000D03*
X146177000Y-108585000D03*
X172902498Y-97409000D03*
X153395004Y-126365000D03*
X119888000Y-118491000D03*
X119888000Y-114554000D03*
X158623000Y-98679000D03*
X169926000Y-121539000D03*
X128270000Y-107188000D03*
X153670000Y-109347000D03*
X160020000Y-122428000D03*
X138303000Y-117729000D03*
X151765000Y-92964000D03*
X167513000Y-106807000D03*
X143144816Y-93813461D03*
X138430000Y-91821000D03*
X144145000Y-99695000D03*
X154559000Y-117348000D03*
X170307000Y-108712000D03*
X138684000Y-106807000D03*
X156591000Y-96774000D03*
X133350000Y-114808000D03*
X152908000Y-101219000D03*
X135509000Y-108966000D03*
X142494000Y-96266000D03*
X164465000Y-91313000D03*
X169926000Y-117602000D03*
X176022000Y-108331000D03*
X140081000Y-117729000D03*
X149987000Y-122301000D03*
X157600000Y-97689500D03*
X131572000Y-101981000D03*
X154426286Y-110992286D03*
X128524000Y-124206000D03*
X146177000Y-110871000D03*
X168402000Y-105029000D03*
X138303000Y-88646000D03*
X146177000Y-106172000D03*
X160909000Y-122428000D03*
X163322000Y-87376000D03*
X174752000Y-103886000D03*
%TO.N,/driver/V_SUPPLY*%
X150495000Y-114046000D03*
%TO.N,/batt_mgmt/5V*%
X145288000Y-101727000D03*
X149352000Y-123698000D03*
X144653000Y-96266000D03*
X135763000Y-112509500D03*
X136017000Y-94488000D03*
%TO.N,/driver/HS*%
X152400000Y-119126000D03*
%TO.N,/mcu/SEPIC_EN*%
X139065000Y-101600000D03*
X147828000Y-99533000D03*
%TO.N,/batt_mgmt/V_BAT*%
X121539000Y-93599000D03*
%TO.N,/mcu/POT_EN*%
X141986000Y-102489000D03*
X138303000Y-105156000D03*
%TO.N,/ask_demod/COMP+*%
X170180000Y-94488000D03*
X155641096Y-93795914D03*
%TO.N,/ask_demod/COMP-*%
X156623500Y-93980000D03*
X168402000Y-94488000D03*
%TO.N,/batt_mgmt/3V3*%
X165897500Y-89789000D03*
X155829000Y-90134500D03*
X162713500Y-96165500D03*
X161689711Y-101152514D03*
X127254000Y-97028000D03*
X168021000Y-89662000D03*
X153924000Y-87376000D03*
X135382000Y-87376000D03*
%TO.N,/mcu/NRST*%
X153162000Y-90932000D03*
X159389121Y-92970899D03*
X171577000Y-89789000D03*
%TO.N,/batt_mgmt/SCL*%
X122809000Y-97028000D03*
X157317500Y-104521000D03*
X140970000Y-98552000D03*
%TO.N,/batt_mgmt/SDA*%
X121977364Y-96473576D03*
X158242000Y-105283000D03*
X140064504Y-99297504D03*
%TO.N,/batt_mgmt/ALRT*%
X120650000Y-96139000D03*
X146014500Y-100273500D03*
%TO.N,/mcu/SWDIO*%
X159247671Y-101705244D03*
X162687000Y-101219000D03*
%TO.N,/mcu/V_SEPIC*%
X150353649Y-113056543D03*
X146177000Y-104394000D03*
%TO.N,/mcu/LPUART_RX*%
X150876000Y-94723500D03*
%TO.N,Net-(JP4-B)*%
X150476311Y-97171500D03*
%TO.N,/sepic/CS*%
X131970965Y-122717500D03*
X134409750Y-120904000D03*
%TO.N,Net-(U7-BOOT0)*%
X165166645Y-97446500D03*
X170053000Y-96393000D03*
%TO.N,/mcu/LED*%
X149552989Y-95435106D03*
X161925000Y-99060000D03*
%TO.N,/mcu/TIM22_CH1_DEBUG*%
X164315599Y-99730500D03*
%TO.N,/mcu/USART1_TX*%
X163621408Y-98931000D03*
%TO.N,/mcu/USART1_RX*%
X164405675Y-98173000D03*
%TO.N,/driver/ENABLE*%
X159004000Y-104394000D03*
X150072297Y-120748097D03*
%TO.N,/batt_mgmt/5V_EN*%
X131375446Y-98768500D03*
X158328500Y-103124000D03*
%TD*%
D18*
%TO.N,/driver/V_SUPPLY*%
X150495000Y-114046000D02*
X151257000Y-113284000D01*
X151257000Y-113284000D02*
X151257000Y-110236000D01*
D19*
%TO.N,/batt_mgmt/5V*%
X144653000Y-96266000D02*
X142875000Y-94488000D01*
X145415000Y-112141000D02*
X145415000Y-101854000D01*
X145415000Y-112522000D02*
X145415000Y-112141000D01*
X135763000Y-112509500D02*
X135775500Y-112522000D01*
X135775500Y-112522000D02*
X145415000Y-112522000D01*
X142875000Y-94488000D02*
X136017000Y-94488000D01*
X146177000Y-122428000D02*
X145415000Y-121666000D01*
X149352000Y-123698000D02*
X148082000Y-122428000D01*
X145415000Y-101854000D02*
X145288000Y-101727000D01*
X148082000Y-122428000D02*
X146177000Y-122428000D01*
X145415000Y-121666000D02*
X145415000Y-112141000D01*
%TO.N,/mcu/SEPIC_EN*%
X146361000Y-101000000D02*
X147828000Y-99533000D01*
X139665000Y-101000000D02*
X146361000Y-101000000D01*
X139065000Y-101600000D02*
X139665000Y-101000000D01*
%TO.N,/batt_mgmt/V_BAT*%
X119708504Y-95429496D02*
X119708504Y-98612000D01*
X121539000Y-93599000D02*
X119708504Y-95429496D01*
%TO.N,/mcu/POT_EN*%
X140843000Y-102489000D02*
X141986000Y-102489000D01*
X138303000Y-105029000D02*
X140843000Y-102489000D01*
X138303000Y-105156000D02*
X138303000Y-105029000D01*
%TO.N,/ask_demod/COMP+*%
X155641096Y-93795914D02*
X155641096Y-94025730D01*
X169418000Y-95250000D02*
X170180000Y-94488000D01*
X156865366Y-95250000D02*
X169418000Y-95250000D01*
X155641096Y-94025730D02*
X156865366Y-95250000D01*
%TO.N,/ask_demod/COMP-*%
X157439500Y-94796000D02*
X168094000Y-94796000D01*
X156623500Y-93980000D02*
X157439500Y-94796000D01*
X168094000Y-94796000D02*
X168402000Y-94488000D01*
%TO.N,/batt_mgmt/3V3*%
X168021000Y-89662000D02*
X166024500Y-89662000D01*
X152093000Y-85545000D02*
X153924000Y-87376000D01*
X161689711Y-101152514D02*
X162814000Y-100028225D01*
X129593000Y-85545000D02*
X152093000Y-85545000D01*
X155829000Y-90134500D02*
X153924000Y-88229500D01*
X162814000Y-100028225D02*
X162814000Y-96266000D01*
X127254000Y-97028000D02*
X127254000Y-87884000D01*
X166024500Y-89662000D02*
X165897500Y-89789000D01*
X162814000Y-96266000D02*
X162713500Y-96165500D01*
X153924000Y-88229500D02*
X153924000Y-87376000D01*
X127254000Y-87884000D02*
X129593000Y-85545000D01*
X135382000Y-85725000D02*
X135382000Y-87376000D01*
%TO.N,/mcu/NRST*%
X168395101Y-92970899D02*
X171577000Y-89789000D01*
X159389121Y-92970899D02*
X168395101Y-92970899D01*
X159389121Y-92970899D02*
X157350222Y-90932000D01*
X157350222Y-90932000D02*
X153162000Y-90932000D01*
%TO.N,/batt_mgmt/SCL*%
X137414001Y-99495000D02*
X124514000Y-99495000D01*
X140970000Y-98552000D02*
X141724947Y-98552000D01*
X141724947Y-98552000D02*
X141924947Y-98352000D01*
X138357001Y-98552000D02*
X137414001Y-99495000D01*
X140970000Y-98552000D02*
X138357001Y-98552000D01*
X122809000Y-97790000D02*
X122809000Y-97028000D01*
X124514000Y-99495000D02*
X122809000Y-97790000D01*
X157317500Y-100668447D02*
X157317500Y-104521000D01*
X155001053Y-98352000D02*
X157317500Y-100668447D01*
X141924947Y-98352000D02*
X155001053Y-98352000D01*
%TO.N,/batt_mgmt/SDA*%
X140064504Y-99297504D02*
X141621496Y-99297504D01*
X141621496Y-99297504D02*
X142113000Y-98806000D01*
X137602053Y-99949000D02*
X123952000Y-99949000D01*
X142113000Y-98806000D02*
X154813000Y-98806000D01*
X121977364Y-97974364D02*
X121977364Y-96473576D01*
X140064504Y-99297504D02*
X138253549Y-99297504D01*
X154813000Y-98806000D02*
X156590500Y-100583500D01*
X138253549Y-99297504D02*
X137602053Y-99949000D01*
X157051366Y-105283000D02*
X158242000Y-105283000D01*
X123952000Y-99949000D02*
X121977364Y-97974364D01*
X156590500Y-104822134D02*
X157051366Y-105283000D01*
X156590500Y-100583500D02*
X156590500Y-104822134D01*
%TO.N,/batt_mgmt/ALRT*%
X146014500Y-100273500D02*
X145742000Y-100546000D01*
X121412000Y-97028000D02*
X120650000Y-96266000D01*
X120650000Y-96266000D02*
X120650000Y-96139000D01*
X145742000Y-100546000D02*
X123906947Y-100546000D01*
X123906947Y-100546000D02*
X121412000Y-98051053D01*
X121412000Y-98051053D02*
X121412000Y-97028000D01*
%TO.N,/mcu/SWDIO*%
X161988948Y-101981000D02*
X162687000Y-101282948D01*
X159523427Y-101981000D02*
X161988948Y-101981000D01*
X159247671Y-101705244D02*
X159523427Y-101981000D01*
X162687000Y-101282948D02*
X162687000Y-101219000D01*
%TO.N,/mcu/V_SEPIC*%
X149957000Y-110236000D02*
X149957000Y-107539000D01*
X149957000Y-107539000D02*
X149606000Y-107188000D01*
D20*
X149606000Y-107188000D02*
X149098000Y-107188000D01*
D18*
X149957000Y-110236000D02*
X149957000Y-112659894D01*
X149957000Y-112659894D02*
X150353649Y-113056543D01*
D20*
X149098000Y-107188000D02*
X146304000Y-104394000D01*
X146304000Y-104394000D02*
X146177000Y-104394000D01*
D19*
%TO.N,/mcu/LPUART_RX*%
X150876000Y-94723500D02*
X150857500Y-94742000D01*
X148321000Y-94742000D02*
X148209000Y-94854000D01*
X150857500Y-94742000D02*
X148321000Y-94742000D01*
%TO.N,Net-(JP4-B)*%
X148224000Y-96154000D02*
X148209000Y-96154000D01*
X149241500Y-97171500D02*
X148224000Y-96154000D01*
X150476311Y-97171500D02*
X149241500Y-97171500D01*
%TO.N,/sepic/CS*%
X132080000Y-122608465D02*
X131970965Y-122717500D01*
X134409750Y-120904000D02*
X132461000Y-120904000D01*
X132080000Y-121285000D02*
X132080000Y-122608465D01*
X132461000Y-120904000D02*
X132080000Y-121285000D01*
%TO.N,Net-(U7-BOOT0)*%
X168648948Y-96520000D02*
X169926000Y-96520000D01*
X165166645Y-97446500D02*
X167722448Y-97446500D01*
X169926000Y-96520000D02*
X170053000Y-96393000D01*
X167722448Y-97446500D02*
X168648948Y-96520000D01*
D20*
%TO.N,/mcu/LED*%
X156583379Y-95504000D02*
X149621883Y-95504000D01*
X149621883Y-95504000D02*
X149552989Y-95435106D01*
X161925000Y-99060000D02*
X158494000Y-95629000D01*
X156708379Y-95629000D02*
X156583379Y-95504000D01*
X158494000Y-95629000D02*
X156708379Y-95629000D01*
D19*
%TO.N,/mcu/TIM22_CH1_DEBUG*%
X164315599Y-99926599D02*
X165227000Y-100838000D01*
X164315599Y-99730500D02*
X164315599Y-99926599D01*
X165227000Y-100838000D02*
X165227000Y-102616000D01*
%TO.N,/mcu/USART1_TX*%
X168275000Y-98298000D02*
X173863000Y-98298000D01*
X167894000Y-98679000D02*
X168275000Y-98298000D01*
X163621408Y-98931000D02*
X163652408Y-98900000D01*
X173863000Y-98298000D02*
X174752000Y-97409000D01*
X164927809Y-98679000D02*
X167894000Y-98679000D01*
X164706809Y-98900000D02*
X164927809Y-98679000D01*
X163652408Y-98900000D02*
X164706809Y-98900000D01*
%TO.N,/mcu/USART1_RX*%
X167640000Y-98171000D02*
X168402000Y-97409000D01*
X171196000Y-97409000D02*
X174752000Y-93853000D01*
X165470279Y-98171000D02*
X167640000Y-98171000D01*
X165468279Y-98173000D02*
X165470279Y-98171000D01*
X164405675Y-98173000D02*
X165468279Y-98173000D01*
X168402000Y-97409000D02*
X171196000Y-97409000D01*
%TO.N,/driver/ENABLE*%
X158969000Y-107477000D02*
X149987000Y-116459000D01*
X149987000Y-116459000D02*
X149987000Y-120662800D01*
X159004000Y-104394000D02*
X158969000Y-104429000D01*
X149987000Y-120662800D02*
X150072297Y-120748097D01*
X158969000Y-104429000D02*
X158969000Y-107477000D01*
%TO.N,/batt_mgmt/5V_EN*%
X138268000Y-97825000D02*
X137324500Y-98768500D01*
X157861000Y-100569896D02*
X155116104Y-97825000D01*
X137324500Y-98768500D02*
X131375446Y-98768500D01*
X158328500Y-103124000D02*
X157861000Y-102656500D01*
X155116104Y-97825000D02*
X138268000Y-97825000D01*
X157861000Y-102656500D02*
X157861000Y-100569896D01*
%TD*%
%TA.AperFunction,Conductor*%
%TO.N,GND*%
G36*
X154703673Y-99069939D02*
G01*
X154743901Y-99096819D01*
X156299681Y-100652598D01*
X156326561Y-100692826D01*
X156336000Y-100740279D01*
X156336000Y-104784852D01*
X156333618Y-104809041D01*
X156332508Y-104814624D01*
X156331014Y-104822134D01*
X156350766Y-104921435D01*
X156381708Y-104967744D01*
X156399599Y-104994519D01*
X156399603Y-104994524D01*
X156407016Y-105005618D01*
X156418108Y-105013030D01*
X156436899Y-105028451D01*
X156845048Y-105436600D01*
X156860469Y-105455390D01*
X156867882Y-105466484D01*
X156878974Y-105473896D01*
X156878978Y-105473899D01*
X156889130Y-105480682D01*
X156889132Y-105480684D01*
X156952065Y-105522734D01*
X157051366Y-105542486D01*
X157060993Y-105540571D01*
X157064459Y-105539882D01*
X157088648Y-105537500D01*
X157287759Y-105537500D01*
X157338195Y-105548220D01*
X157379909Y-105578528D01*
X157405690Y-105623183D01*
X157414820Y-105651283D01*
X157509466Y-105815216D01*
X157636129Y-105955889D01*
X157789269Y-106067151D01*
X157962197Y-106144144D01*
X158147352Y-106183500D01*
X158147354Y-106183500D01*
X158336646Y-106183500D01*
X158336648Y-106183500D01*
X158460083Y-106157262D01*
X158521803Y-106144144D01*
X158531197Y-106139961D01*
X158540064Y-106136014D01*
X158600228Y-106125675D01*
X158658035Y-106145298D01*
X158699473Y-106190125D01*
X158714500Y-106249293D01*
X158714500Y-107320220D01*
X158705061Y-107367673D01*
X158678181Y-107407901D01*
X151510596Y-114575484D01*
X151460202Y-114606064D01*
X151401381Y-114609919D01*
X151347427Y-114586178D01*
X151310532Y-114540205D01*
X151299033Y-114482391D01*
X151315530Y-114425800D01*
X151322179Y-114414284D01*
X151380674Y-114234256D01*
X151400460Y-114046000D01*
X151380674Y-113857744D01*
X151365433Y-113810836D01*
X151362790Y-113743571D01*
X151395681Y-113684840D01*
X151489692Y-113590829D01*
X151509549Y-113574705D01*
X151518956Y-113568560D01*
X151538784Y-113543083D01*
X151548961Y-113531562D01*
X151548965Y-113531557D01*
X151549114Y-113531409D01*
X151561416Y-113514176D01*
X151564458Y-113510096D01*
X151597158Y-113468085D01*
X151597158Y-113468082D01*
X151601950Y-113461927D01*
X151602248Y-113461347D01*
X151604473Y-113453870D01*
X151604475Y-113453869D01*
X151619656Y-113402875D01*
X151621206Y-113398032D01*
X151638500Y-113347661D01*
X151638500Y-113347658D01*
X151641028Y-113340294D01*
X151641126Y-113339621D01*
X151640804Y-113331843D01*
X151640805Y-113331841D01*
X151638606Y-113278678D01*
X151638500Y-113273554D01*
X151638500Y-111497013D01*
X151658184Y-111429974D01*
X151710988Y-111384219D01*
X151715070Y-111382354D01*
X151740216Y-111370871D01*
X151861170Y-111293139D01*
X151918927Y-111249903D01*
X151969943Y-111198887D01*
X152064097Y-111090226D01*
X152141904Y-110969155D01*
X152201632Y-110838370D01*
X152226844Y-110770773D01*
X152242180Y-110700277D01*
X152262642Y-110557962D01*
X152267789Y-110486000D01*
X152262962Y-110418525D01*
X152262647Y-110409680D01*
X152262647Y-110062320D01*
X152262963Y-110053473D01*
X152267789Y-109985999D01*
X152262642Y-109914039D01*
X152242180Y-109771724D01*
X152242180Y-109771723D01*
X152226844Y-109701227D01*
X152201632Y-109633630D01*
X152141904Y-109502845D01*
X152064097Y-109381774D01*
X151969943Y-109273113D01*
X151918927Y-109222097D01*
X151861170Y-109178861D01*
X151841648Y-109166315D01*
X151799018Y-109119867D01*
X151784739Y-109058459D01*
X151802501Y-108997967D01*
X151847713Y-108954027D01*
X151908688Y-108938000D01*
X152912000Y-108938000D01*
X152912000Y-107438000D01*
X153412000Y-107438000D01*
X153412000Y-108938000D01*
X154459824Y-108938000D01*
X154519375Y-108931597D01*
X154654089Y-108881352D01*
X154769188Y-108795188D01*
X154855352Y-108680089D01*
X154905597Y-108545375D01*
X154912000Y-108485824D01*
X154912000Y-107438000D01*
X153412000Y-107438000D01*
X152912000Y-107438000D01*
X152912000Y-105438000D01*
X153412000Y-105438000D01*
X153412000Y-106938000D01*
X154912000Y-106938000D01*
X154912000Y-105890176D01*
X154905597Y-105830624D01*
X154855352Y-105695910D01*
X154769188Y-105580811D01*
X154654089Y-105494647D01*
X154519375Y-105444402D01*
X154459824Y-105438000D01*
X153412000Y-105438000D01*
X152912000Y-105438000D01*
X151864176Y-105438000D01*
X151804624Y-105444402D01*
X151669910Y-105494647D01*
X151554810Y-105580811D01*
X151483579Y-105675965D01*
X151439816Y-105712538D01*
X151384312Y-105725654D01*
X151328808Y-105712538D01*
X151285046Y-105675966D01*
X151213546Y-105580454D01*
X151098331Y-105494204D01*
X150963483Y-105443909D01*
X150903873Y-105437500D01*
X150903869Y-105437500D01*
X148308130Y-105437500D01*
X148248515Y-105443909D01*
X148113667Y-105494204D01*
X147998163Y-105580670D01*
X147944416Y-105603686D01*
X147886097Y-105599515D01*
X147836172Y-105569084D01*
X147064088Y-104796999D01*
X147031195Y-104738265D01*
X147033837Y-104671002D01*
X147062674Y-104582256D01*
X147082460Y-104394000D01*
X147062674Y-104205744D01*
X147004179Y-104025716D01*
X147004179Y-104025715D01*
X146909533Y-103861783D01*
X146782870Y-103721110D01*
X146629730Y-103609848D01*
X146456802Y-103532855D01*
X146271648Y-103493500D01*
X146271646Y-103493500D01*
X146082354Y-103493500D01*
X146082352Y-103493500D01*
X145897197Y-103532855D01*
X145843936Y-103556569D01*
X145783771Y-103566908D01*
X145725965Y-103547285D01*
X145684527Y-103502458D01*
X145669500Y-103443290D01*
X145669500Y-102623392D01*
X145678529Y-102576942D01*
X145704301Y-102537256D01*
X145730339Y-102519022D01*
X145730187Y-102518812D01*
X145893870Y-102399889D01*
X145951936Y-102335401D01*
X146020533Y-102259216D01*
X146115179Y-102095284D01*
X146173674Y-101915256D01*
X146193460Y-101727000D01*
X146173674Y-101538744D01*
X146134058Y-101416818D01*
X146129516Y-101359102D01*
X146151671Y-101305614D01*
X146195694Y-101268015D01*
X146251989Y-101254500D01*
X146323718Y-101254500D01*
X146347907Y-101256882D01*
X146352146Y-101257724D01*
X146361000Y-101259486D01*
X146460301Y-101239734D01*
X146460302Y-101239733D01*
X146460303Y-101239733D01*
X146540837Y-101185922D01*
X146540840Y-101185918D01*
X146544484Y-101183484D01*
X146551895Y-101172390D01*
X146567312Y-101153604D01*
X147334727Y-100386189D01*
X147375955Y-100358901D01*
X147424571Y-100349891D01*
X147472838Y-100360592D01*
X147530831Y-100386412D01*
X147548199Y-100394145D01*
X147733352Y-100433500D01*
X147733354Y-100433500D01*
X147922646Y-100433500D01*
X147922648Y-100433500D01*
X148091976Y-100397508D01*
X148107803Y-100394144D01*
X148280730Y-100317151D01*
X148301405Y-100302130D01*
X148433870Y-100205889D01*
X148449317Y-100188734D01*
X148560533Y-100065216D01*
X148655179Y-99901284D01*
X148713674Y-99721256D01*
X148733460Y-99533000D01*
X148713674Y-99344744D01*
X148695196Y-99287877D01*
X148674058Y-99222818D01*
X148669516Y-99165102D01*
X148691671Y-99111614D01*
X148735694Y-99074015D01*
X148791989Y-99060500D01*
X154656220Y-99060500D01*
X154703673Y-99069939D01*
G37*
%TD.AperFunction*%
%TA.AperFunction,Conductor*%
G36*
X156482065Y-95771142D02*
G01*
X156525400Y-95810418D01*
X156609857Y-95866850D01*
X156625163Y-95869894D01*
X156625164Y-95869894D01*
X156708379Y-95886448D01*
X156721274Y-95883882D01*
X156745466Y-95881500D01*
X158338049Y-95881500D01*
X158385502Y-95890939D01*
X158425730Y-95917819D01*
X161069056Y-98561145D01*
X161101949Y-98619879D01*
X161099306Y-98687144D01*
X161039326Y-98871742D01*
X161019540Y-99059999D01*
X161039326Y-99248257D01*
X161097820Y-99428284D01*
X161192466Y-99592216D01*
X161319129Y-99732889D01*
X161472269Y-99844151D01*
X161645197Y-99921144D01*
X161830352Y-99960500D01*
X161830354Y-99960500D01*
X162019646Y-99960500D01*
X162019648Y-99960500D01*
X162196974Y-99922808D01*
X162204803Y-99921144D01*
X162230118Y-99909873D01*
X162235956Y-99907274D01*
X162303220Y-99897700D01*
X162365432Y-99925009D01*
X162403915Y-99981002D01*
X162407116Y-100048868D01*
X162374073Y-100108234D01*
X162182985Y-100299322D01*
X162141755Y-100326612D01*
X162093139Y-100335622D01*
X162044868Y-100324920D01*
X161969513Y-100291369D01*
X161784359Y-100252014D01*
X161784357Y-100252014D01*
X161595065Y-100252014D01*
X161595063Y-100252014D01*
X161409908Y-100291369D01*
X161236980Y-100368362D01*
X161083840Y-100479624D01*
X160957177Y-100620297D01*
X160862531Y-100784229D01*
X160804037Y-100964256D01*
X160784251Y-101152514D01*
X160804037Y-101340771D01*
X160862531Y-101520797D01*
X160873907Y-101540501D01*
X160890519Y-101602501D01*
X160873906Y-101664501D01*
X160828519Y-101709887D01*
X160766519Y-101726500D01*
X160267015Y-101726500D01*
X160208800Y-101711985D01*
X160164214Y-101671840D01*
X160143694Y-101615463D01*
X160133345Y-101516988D01*
X160094883Y-101398616D01*
X160074850Y-101336959D01*
X159980204Y-101173027D01*
X159853541Y-101032354D01*
X159700401Y-100921092D01*
X159527473Y-100844099D01*
X159342319Y-100804744D01*
X159342317Y-100804744D01*
X159153025Y-100804744D01*
X159153023Y-100804744D01*
X158967868Y-100844099D01*
X158794940Y-100921092D01*
X158641800Y-101032354D01*
X158515137Y-101173027D01*
X158420491Y-101336959D01*
X158357970Y-101529383D01*
X158355551Y-101528597D01*
X158341075Y-101567317D01*
X158293858Y-101607644D01*
X158233010Y-101620023D01*
X158173790Y-101601351D01*
X158131047Y-101556309D01*
X158115500Y-101496193D01*
X158115500Y-100607173D01*
X158117882Y-100582984D01*
X158120485Y-100569895D01*
X158117882Y-100556808D01*
X158117880Y-100556796D01*
X158100735Y-100470598D01*
X158100734Y-100470597D01*
X158100734Y-100470595D01*
X158094828Y-100461756D01*
X158058684Y-100407662D01*
X158058682Y-100407660D01*
X158051899Y-100397508D01*
X158051899Y-100397507D01*
X158051896Y-100397504D01*
X158044484Y-100386412D01*
X158033390Y-100378999D01*
X158014600Y-100363578D01*
X155322421Y-97671399D01*
X155307000Y-97652608D01*
X155299588Y-97641516D01*
X155288494Y-97634103D01*
X155288492Y-97634101D01*
X155278339Y-97627317D01*
X155278338Y-97627316D01*
X155215405Y-97585266D01*
X155116104Y-97565514D01*
X155116103Y-97565514D01*
X155103011Y-97568118D01*
X155078822Y-97570500D01*
X151464181Y-97570500D01*
X151407886Y-97556985D01*
X151363863Y-97519385D01*
X151341708Y-97465898D01*
X151346250Y-97408182D01*
X151356528Y-97376550D01*
X151361985Y-97359756D01*
X151381771Y-97171500D01*
X151361985Y-96983244D01*
X151315358Y-96839742D01*
X151303490Y-96803215D01*
X151208844Y-96639283D01*
X151082181Y-96498610D01*
X150929041Y-96387348D01*
X150756113Y-96310355D01*
X150570959Y-96271000D01*
X150570957Y-96271000D01*
X150381665Y-96271000D01*
X150381662Y-96271000D01*
X150297908Y-96288802D01*
X150236287Y-96286219D01*
X150183533Y-96254270D01*
X150152696Y-96200857D01*
X150151404Y-96139196D01*
X150179976Y-96084541D01*
X150285522Y-95967322D01*
X150314767Y-95916669D01*
X150347032Y-95860783D01*
X150371444Y-95818499D01*
X150416831Y-95773113D01*
X150478831Y-95756500D01*
X156423612Y-95756500D01*
X156482065Y-95771142D01*
G37*
%TD.AperFunction*%
%TA.AperFunction,Conductor*%
G36*
X146920306Y-99074015D02*
G01*
X146964329Y-99111614D01*
X146986484Y-99165102D01*
X146981942Y-99222818D01*
X146942326Y-99344742D01*
X146922540Y-99533000D01*
X146930627Y-99609949D01*
X146921617Y-99670962D01*
X146884328Y-99720087D01*
X146827985Y-99745173D01*
X146766526Y-99740012D01*
X146715156Y-99705881D01*
X146620370Y-99600610D01*
X146467230Y-99489348D01*
X146294302Y-99412355D01*
X146109148Y-99373000D01*
X146109146Y-99373000D01*
X145919854Y-99373000D01*
X145919852Y-99373000D01*
X145734697Y-99412355D01*
X145561769Y-99489348D01*
X145408629Y-99600610D01*
X145281966Y-99741283D01*
X145187320Y-99905215D01*
X145128826Y-100085242D01*
X145128825Y-100085244D01*
X145128826Y-100085244D01*
X145119363Y-100175286D01*
X145118819Y-100180461D01*
X145098299Y-100236840D01*
X145053712Y-100276985D01*
X144995498Y-100291500D01*
X140610041Y-100291500D01*
X140550304Y-100276162D01*
X140505344Y-100233943D01*
X140486286Y-100175286D01*
X140497842Y-100114703D01*
X140537156Y-100067182D01*
X140670374Y-99970393D01*
X140671193Y-99969484D01*
X140797037Y-99829720D01*
X140891683Y-99665788D01*
X140900814Y-99637687D01*
X140926595Y-99593032D01*
X140968309Y-99562724D01*
X141018745Y-99552004D01*
X141584214Y-99552004D01*
X141608403Y-99554386D01*
X141612642Y-99555228D01*
X141621496Y-99556990D01*
X141720797Y-99537238D01*
X141720798Y-99537237D01*
X141720799Y-99537237D01*
X141801336Y-99483425D01*
X141801341Y-99483419D01*
X141804980Y-99480988D01*
X141812396Y-99469888D01*
X141827809Y-99451107D01*
X142182097Y-99096819D01*
X142222326Y-99069939D01*
X142269779Y-99060500D01*
X146864011Y-99060500D01*
X146920306Y-99074015D01*
G37*
%TD.AperFunction*%
%TA.AperFunction,Conductor*%
G36*
X169417893Y-95517432D02*
G01*
X169461528Y-95553530D01*
X169484562Y-95605265D01*
X169482190Y-95661846D01*
X169454908Y-95711472D01*
X169320466Y-95860783D01*
X169225820Y-96024715D01*
X169175425Y-96179818D01*
X169149644Y-96224472D01*
X169107929Y-96254780D01*
X169057494Y-96265500D01*
X168686230Y-96265500D01*
X168662041Y-96263118D01*
X168648948Y-96260513D01*
X168623883Y-96265499D01*
X168623881Y-96265500D01*
X168596232Y-96270999D01*
X168596231Y-96271000D01*
X168565102Y-96277191D01*
X168549645Y-96280266D01*
X168486707Y-96322321D01*
X168465463Y-96336515D01*
X168458049Y-96347611D01*
X168442630Y-96366398D01*
X167653349Y-97155681D01*
X167613121Y-97182561D01*
X167565668Y-97192000D01*
X166120886Y-97192000D01*
X166070450Y-97181280D01*
X166028736Y-97150972D01*
X166002955Y-97106317D01*
X165993824Y-97078216D01*
X165899178Y-96914283D01*
X165772515Y-96773610D01*
X165619375Y-96662348D01*
X165446447Y-96585355D01*
X165261293Y-96546000D01*
X165261291Y-96546000D01*
X165071999Y-96546000D01*
X165071997Y-96546000D01*
X164886842Y-96585355D01*
X164713914Y-96662348D01*
X164560774Y-96773610D01*
X164434111Y-96914283D01*
X164339466Y-97078214D01*
X164295888Y-97212333D01*
X164260930Y-97266164D01*
X164203740Y-97295304D01*
X164125872Y-97311856D01*
X163952942Y-97388849D01*
X163799804Y-97500110D01*
X163673141Y-97640783D01*
X163578495Y-97804715D01*
X163525652Y-97967350D01*
X163490693Y-98021182D01*
X163433502Y-98050322D01*
X163341604Y-98069855D01*
X163242936Y-98113786D01*
X163182772Y-98124125D01*
X163124965Y-98104502D01*
X163083527Y-98059675D01*
X163068500Y-98000507D01*
X163068500Y-97073690D01*
X163077529Y-97027239D01*
X163103301Y-96987553D01*
X163142063Y-96960411D01*
X163166230Y-96949651D01*
X163319371Y-96838388D01*
X163446033Y-96697716D01*
X163540679Y-96533784D01*
X163599174Y-96353756D01*
X163618960Y-96165500D01*
X163599174Y-95977244D01*
X163542056Y-95801454D01*
X163540679Y-95797215D01*
X163479067Y-95690500D01*
X163462454Y-95628500D01*
X163479067Y-95566500D01*
X163524454Y-95521113D01*
X163586454Y-95504500D01*
X169362758Y-95504500D01*
X169417893Y-95517432D01*
G37*
%TD.AperFunction*%
%TA.AperFunction,Conductor*%
G36*
X172950385Y-96162460D02*
G01*
X172987985Y-96206483D01*
X173001500Y-96262778D01*
X173001501Y-97919500D01*
X172984888Y-97981500D01*
X172939501Y-98026887D01*
X172877501Y-98043500D01*
X168426779Y-98043500D01*
X168370484Y-98029985D01*
X168326461Y-97992385D01*
X168304306Y-97938898D01*
X168308848Y-97881182D01*
X168339098Y-97831819D01*
X168471098Y-97699819D01*
X168511326Y-97672939D01*
X168558779Y-97663500D01*
X171158718Y-97663500D01*
X171182907Y-97665882D01*
X171187146Y-97666724D01*
X171196000Y-97668486D01*
X171295301Y-97648734D01*
X171295302Y-97648733D01*
X171295303Y-97648733D01*
X171375837Y-97594922D01*
X171375840Y-97594918D01*
X171379484Y-97592484D01*
X171386895Y-97581390D01*
X171402312Y-97562604D01*
X172789819Y-96175096D01*
X172839182Y-96144847D01*
X172896898Y-96140305D01*
X172950385Y-96162460D01*
G37*
%TD.AperFunction*%
%TA.AperFunction,Conductor*%
G36*
X174737419Y-84981745D02*
G01*
X174849619Y-84988049D01*
X175018298Y-84998256D01*
X175031548Y-84999778D01*
X175163730Y-85022239D01*
X175164902Y-85022446D01*
X175310139Y-85049064D01*
X175322103Y-85051877D01*
X175454691Y-85090076D01*
X175457181Y-85090822D01*
X175594094Y-85133487D01*
X175604628Y-85137302D01*
X175733660Y-85190751D01*
X175737050Y-85192215D01*
X175866234Y-85250357D01*
X175875302Y-85254894D01*
X175998320Y-85322885D01*
X176002402Y-85325245D01*
X176122958Y-85398125D01*
X176130498Y-85403069D01*
X176245506Y-85484672D01*
X176250148Y-85488135D01*
X176358138Y-85572740D01*
X176360694Y-85574743D01*
X176366832Y-85579880D01*
X176472082Y-85673938D01*
X176477116Y-85678698D01*
X176576300Y-85777882D01*
X176581063Y-85782919D01*
X176675113Y-85888161D01*
X176680255Y-85894304D01*
X176766854Y-86004837D01*
X176770337Y-86009507D01*
X176851921Y-86124488D01*
X176856883Y-86132054D01*
X176929733Y-86252562D01*
X176932144Y-86256731D01*
X177000097Y-86379682D01*
X177004644Y-86388771D01*
X177062773Y-86517925D01*
X177064258Y-86521363D01*
X177117691Y-86650357D01*
X177121516Y-86660919D01*
X177164154Y-86797743D01*
X177164922Y-86800307D01*
X177203121Y-86932895D01*
X177205936Y-86944869D01*
X177232512Y-87089874D01*
X177232792Y-87091456D01*
X177255218Y-87223436D01*
X177256744Y-87236718D01*
X177266948Y-87405347D01*
X177266979Y-87405882D01*
X177273254Y-87517580D01*
X177273449Y-87524535D01*
X177273449Y-124438465D01*
X177273254Y-124445420D01*
X177266979Y-124557116D01*
X177266948Y-124557651D01*
X177256744Y-124726280D01*
X177255218Y-124739562D01*
X177232792Y-124871542D01*
X177232512Y-124873124D01*
X177205936Y-125018129D01*
X177203121Y-125030103D01*
X177164922Y-125162691D01*
X177164154Y-125165255D01*
X177121516Y-125302079D01*
X177117691Y-125312641D01*
X177064258Y-125441635D01*
X177062773Y-125445073D01*
X177004644Y-125574227D01*
X177000097Y-125583316D01*
X176932144Y-125706267D01*
X176929733Y-125710436D01*
X176856891Y-125830931D01*
X176851903Y-125838537D01*
X176770362Y-125953457D01*
X176766843Y-125958175D01*
X176680255Y-126068694D01*
X176675105Y-126074847D01*
X176581079Y-126180062D01*
X176576300Y-126185116D01*
X176477116Y-126284300D01*
X176472062Y-126289079D01*
X176366847Y-126383105D01*
X176360694Y-126388255D01*
X176250175Y-126474843D01*
X176245457Y-126478362D01*
X176130537Y-126559903D01*
X176122931Y-126564891D01*
X176002436Y-126637733D01*
X175998267Y-126640144D01*
X175875316Y-126708097D01*
X175866227Y-126712644D01*
X175737073Y-126770773D01*
X175733635Y-126772258D01*
X175604641Y-126825691D01*
X175594079Y-126829516D01*
X175457255Y-126872154D01*
X175454691Y-126872922D01*
X175322103Y-126911121D01*
X175310129Y-126913936D01*
X175165124Y-126940512D01*
X175163542Y-126940792D01*
X175031562Y-126963218D01*
X175018280Y-126964744D01*
X174849651Y-126974948D01*
X174849116Y-126974979D01*
X174737420Y-126981254D01*
X174730465Y-126981449D01*
X119782535Y-126981449D01*
X119775580Y-126981254D01*
X119663882Y-126974979D01*
X119663347Y-126974948D01*
X119494718Y-126964744D01*
X119481436Y-126963218D01*
X119349456Y-126940792D01*
X119347874Y-126940512D01*
X119202869Y-126913936D01*
X119190895Y-126911121D01*
X119058307Y-126872922D01*
X119055743Y-126872154D01*
X118918919Y-126829516D01*
X118908357Y-126825691D01*
X118779363Y-126772258D01*
X118775925Y-126770773D01*
X118646771Y-126712644D01*
X118637682Y-126708097D01*
X118566839Y-126668943D01*
X118514712Y-126640133D01*
X118510562Y-126637733D01*
X118390054Y-126564883D01*
X118382488Y-126559921D01*
X118267507Y-126478337D01*
X118262837Y-126474854D01*
X118202109Y-126427276D01*
X118152304Y-126388255D01*
X118146161Y-126383113D01*
X118040919Y-126289063D01*
X118035882Y-126284300D01*
X117936698Y-126185116D01*
X117931938Y-126180082D01*
X117837880Y-126074832D01*
X117832743Y-126068694D01*
X117830740Y-126066138D01*
X117746135Y-125958148D01*
X117742672Y-125953506D01*
X117661069Y-125838498D01*
X117656125Y-125830958D01*
X117583245Y-125710402D01*
X117580885Y-125706320D01*
X117512894Y-125583302D01*
X117508354Y-125574227D01*
X117450225Y-125445073D01*
X117448740Y-125441635D01*
X117395302Y-125312628D01*
X117391487Y-125302094D01*
X117348822Y-125165181D01*
X117348076Y-125162691D01*
X117309877Y-125030103D01*
X117307064Y-125018139D01*
X117280446Y-124872902D01*
X117280239Y-124871730D01*
X117257778Y-124739548D01*
X117256256Y-124726298D01*
X117246049Y-124557619D01*
X117239745Y-124445419D01*
X117239551Y-124438467D01*
X117239551Y-122717500D01*
X131065505Y-122717500D01*
X131085291Y-122905757D01*
X131143785Y-123085784D01*
X131238431Y-123249716D01*
X131365094Y-123390389D01*
X131518234Y-123501651D01*
X131691162Y-123578644D01*
X131876317Y-123618000D01*
X131876319Y-123618000D01*
X132065611Y-123618000D01*
X132065613Y-123618000D01*
X132189049Y-123591762D01*
X132250768Y-123578644D01*
X132423695Y-123501651D01*
X132576836Y-123390388D01*
X132703498Y-123249716D01*
X132798144Y-123085784D01*
X132856639Y-122905756D01*
X132876425Y-122717500D01*
X132856639Y-122529244D01*
X132798144Y-122349216D01*
X132798144Y-122349215D01*
X132703498Y-122185283D01*
X132576835Y-122044611D01*
X132423697Y-121933350D01*
X132423693Y-121933348D01*
X132408060Y-121926387D01*
X132369301Y-121899246D01*
X132343529Y-121859560D01*
X132334500Y-121813110D01*
X132334500Y-121441780D01*
X132343939Y-121394327D01*
X132370816Y-121354101D01*
X132530100Y-121194816D01*
X132570326Y-121167939D01*
X132617779Y-121158500D01*
X133455509Y-121158500D01*
X133505945Y-121169220D01*
X133547659Y-121199528D01*
X133573440Y-121244183D01*
X133582570Y-121272283D01*
X133677216Y-121436216D01*
X133803879Y-121576889D01*
X133957019Y-121688151D01*
X134129947Y-121765144D01*
X134315102Y-121804500D01*
X134315104Y-121804500D01*
X134504396Y-121804500D01*
X134504398Y-121804500D01*
X134627834Y-121778262D01*
X134689553Y-121765144D01*
X134862480Y-121688151D01*
X134892971Y-121665998D01*
X135015620Y-121576889D01*
X135142283Y-121436216D01*
X135236929Y-121272284D01*
X135265062Y-121185699D01*
X135295424Y-121092256D01*
X135315210Y-120904000D01*
X135295424Y-120715744D01*
X135236929Y-120535716D01*
X135236929Y-120535715D01*
X135142283Y-120371783D01*
X135015620Y-120231110D01*
X134862480Y-120119848D01*
X134689552Y-120042855D01*
X134504398Y-120003500D01*
X134504396Y-120003500D01*
X134315104Y-120003500D01*
X134315102Y-120003500D01*
X134129947Y-120042855D01*
X133957019Y-120119848D01*
X133803879Y-120231110D01*
X133677216Y-120371783D01*
X133582570Y-120535716D01*
X133573440Y-120563817D01*
X133547659Y-120608472D01*
X133505945Y-120638780D01*
X133455509Y-120649500D01*
X132498277Y-120649500D01*
X132474088Y-120647118D01*
X132461000Y-120644514D01*
X132447912Y-120647118D01*
X132447900Y-120647119D01*
X132361699Y-120664265D01*
X132277514Y-120720516D01*
X132270098Y-120731615D01*
X132254680Y-120750401D01*
X131926399Y-121078681D01*
X131907615Y-121094098D01*
X131896517Y-121101514D01*
X131884190Y-121119962D01*
X131840266Y-121185698D01*
X131820514Y-121285001D01*
X131823118Y-121298093D01*
X131825500Y-121322282D01*
X131825500Y-121727388D01*
X131812950Y-121781746D01*
X131777842Y-121825101D01*
X131727281Y-121848678D01*
X131691162Y-121856355D01*
X131518234Y-121933348D01*
X131365094Y-122044610D01*
X131238431Y-122185283D01*
X131143785Y-122349215D01*
X131085291Y-122529242D01*
X131065505Y-122717500D01*
X117239551Y-122717500D01*
X117239551Y-110251369D01*
X118149502Y-110251369D01*
X118155911Y-110310984D01*
X118181058Y-110378407D01*
X118206206Y-110445831D01*
X118292456Y-110561046D01*
X118407671Y-110647296D01*
X118542519Y-110697591D01*
X118602129Y-110704000D01*
X121197874Y-110703999D01*
X121257485Y-110697591D01*
X121392333Y-110647296D01*
X121507548Y-110561046D01*
X121593798Y-110445831D01*
X121644093Y-110310983D01*
X121650502Y-110251373D01*
X121650501Y-107655628D01*
X121644093Y-107596017D01*
X121593798Y-107461169D01*
X121507548Y-107345954D01*
X121392333Y-107259704D01*
X121257485Y-107209409D01*
X121197875Y-107203000D01*
X121197871Y-107203000D01*
X118602132Y-107203000D01*
X118542517Y-107209409D01*
X118407671Y-107259704D01*
X118292456Y-107345954D01*
X118206206Y-107461168D01*
X118155911Y-107596016D01*
X118149502Y-107655630D01*
X118149502Y-110251369D01*
X117239551Y-110251369D01*
X117239551Y-105156000D01*
X137397540Y-105156000D01*
X137417326Y-105344257D01*
X137475820Y-105524284D01*
X137570466Y-105688216D01*
X137697129Y-105828889D01*
X137850269Y-105940151D01*
X138023197Y-106017144D01*
X138208352Y-106056500D01*
X138208354Y-106056500D01*
X138397646Y-106056500D01*
X138397648Y-106056500D01*
X138521084Y-106030262D01*
X138582803Y-106017144D01*
X138755730Y-105940151D01*
X138908871Y-105828888D01*
X139035533Y-105688216D01*
X139130179Y-105524284D01*
X139188674Y-105344256D01*
X139208460Y-105156000D01*
X139188674Y-104967744D01*
X139137108Y-104809041D01*
X139130180Y-104787718D01*
X139128525Y-104784852D01*
X139095038Y-104726851D01*
X139078898Y-104675660D01*
X139085904Y-104622442D01*
X139114743Y-104577173D01*
X140912097Y-102779819D01*
X140952326Y-102752939D01*
X140999779Y-102743500D01*
X141031759Y-102743500D01*
X141082195Y-102754220D01*
X141123909Y-102784528D01*
X141149690Y-102829183D01*
X141158820Y-102857283D01*
X141253466Y-103021216D01*
X141380129Y-103161889D01*
X141533269Y-103273151D01*
X141706197Y-103350144D01*
X141891352Y-103389500D01*
X141891354Y-103389500D01*
X142080646Y-103389500D01*
X142080648Y-103389500D01*
X142204083Y-103363262D01*
X142265803Y-103350144D01*
X142438730Y-103273151D01*
X142591871Y-103161888D01*
X142718533Y-103021216D01*
X142813179Y-102857284D01*
X142871674Y-102677256D01*
X142891460Y-102489000D01*
X142871674Y-102300744D01*
X142813179Y-102120716D01*
X142813179Y-102120715D01*
X142718533Y-101956783D01*
X142591870Y-101816110D01*
X142438730Y-101704848D01*
X142265802Y-101627855D01*
X142080648Y-101588500D01*
X142080646Y-101588500D01*
X141891354Y-101588500D01*
X141891352Y-101588500D01*
X141706197Y-101627855D01*
X141533269Y-101704848D01*
X141380129Y-101816110D01*
X141253466Y-101956783D01*
X141158820Y-102120716D01*
X141149690Y-102148817D01*
X141123909Y-102193472D01*
X141082195Y-102223780D01*
X141031759Y-102234500D01*
X140880277Y-102234500D01*
X140856088Y-102232118D01*
X140843000Y-102229514D01*
X140829912Y-102232118D01*
X140829900Y-102232119D01*
X140743699Y-102249265D01*
X140659514Y-102305516D01*
X140652098Y-102316615D01*
X140636680Y-102335401D01*
X138708281Y-104263800D01*
X138655818Y-104295013D01*
X138594820Y-104297409D01*
X138397649Y-104255500D01*
X138397646Y-104255500D01*
X138208354Y-104255500D01*
X138208352Y-104255500D01*
X138023197Y-104294855D01*
X137850269Y-104371848D01*
X137697129Y-104483110D01*
X137570466Y-104623783D01*
X137475820Y-104787715D01*
X137417326Y-104967742D01*
X137397540Y-105156000D01*
X117239551Y-105156000D01*
X117239551Y-99909869D01*
X117958004Y-99909869D01*
X117964413Y-99969484D01*
X117976973Y-100003158D01*
X118014708Y-100104331D01*
X118100958Y-100219546D01*
X118216173Y-100305796D01*
X118351021Y-100356091D01*
X118410631Y-100362500D01*
X121006376Y-100362499D01*
X121065987Y-100356091D01*
X121200835Y-100305796D01*
X121316050Y-100219546D01*
X121402300Y-100104331D01*
X121452595Y-99969483D01*
X121459004Y-99909873D01*
X121459003Y-98757335D01*
X121472518Y-98701041D01*
X121510118Y-98657018D01*
X121563605Y-98634863D01*
X121621321Y-98639405D01*
X121670684Y-98669655D01*
X123700629Y-100699600D01*
X123716050Y-100718390D01*
X123723463Y-100729484D01*
X123734555Y-100736896D01*
X123734559Y-100736899D01*
X123744711Y-100743682D01*
X123744713Y-100743684D01*
X123807646Y-100785734D01*
X123906947Y-100805486D01*
X123916574Y-100803571D01*
X123920040Y-100802882D01*
X123944229Y-100800500D01*
X138294622Y-100800500D01*
X138349757Y-100813432D01*
X138393392Y-100849530D01*
X138416426Y-100901265D01*
X138414054Y-100957846D01*
X138386772Y-101007472D01*
X138332466Y-101067784D01*
X138237820Y-101231715D01*
X138179326Y-101411742D01*
X138166962Y-101529383D01*
X138159540Y-101600000D01*
X138168445Y-101684730D01*
X138179326Y-101788257D01*
X138237820Y-101968284D01*
X138332466Y-102132216D01*
X138459129Y-102272889D01*
X138612269Y-102384151D01*
X138785197Y-102461144D01*
X138970352Y-102500500D01*
X138970354Y-102500500D01*
X139159646Y-102500500D01*
X139159648Y-102500500D01*
X139283083Y-102474262D01*
X139344803Y-102461144D01*
X139517730Y-102384151D01*
X139584829Y-102335401D01*
X139670870Y-102272889D01*
X139755697Y-102178680D01*
X139797533Y-102132216D01*
X139892179Y-101968284D01*
X139950674Y-101788256D01*
X139970460Y-101600000D01*
X139950674Y-101411744D01*
X139950672Y-101411740D01*
X139949311Y-101398782D01*
X139950889Y-101398616D01*
X139947779Y-101359105D01*
X139969934Y-101305616D01*
X140013957Y-101268016D01*
X140070253Y-101254500D01*
X144324011Y-101254500D01*
X144380306Y-101268015D01*
X144424329Y-101305614D01*
X144446484Y-101359102D01*
X144441942Y-101416818D01*
X144402326Y-101538742D01*
X144382540Y-101726999D01*
X144402326Y-101915257D01*
X144460820Y-102095284D01*
X144555466Y-102259216D01*
X144682129Y-102399889D01*
X144835269Y-102511151D01*
X144893902Y-102537256D01*
X145008197Y-102588144D01*
X145062282Y-102599640D01*
X145112841Y-102623216D01*
X145147950Y-102666572D01*
X145160500Y-102720930D01*
X145160500Y-112143500D01*
X145143887Y-112205500D01*
X145098500Y-112250887D01*
X145036500Y-112267500D01*
X136721303Y-112267500D01*
X136670868Y-112256780D01*
X136629153Y-112226472D01*
X136603372Y-112181819D01*
X136596904Y-112161915D01*
X136590179Y-112141216D01*
X136590178Y-112141214D01*
X136495533Y-111977283D01*
X136368870Y-111836610D01*
X136215730Y-111725348D01*
X136042802Y-111648355D01*
X135857648Y-111609000D01*
X135857646Y-111609000D01*
X135668354Y-111609000D01*
X135668352Y-111609000D01*
X135483197Y-111648355D01*
X135310269Y-111725348D01*
X135157129Y-111836610D01*
X135030466Y-111977283D01*
X134935820Y-112141215D01*
X134877326Y-112321242D01*
X134857540Y-112509500D01*
X134877326Y-112697757D01*
X134935820Y-112877784D01*
X135030466Y-113041716D01*
X135157129Y-113182389D01*
X135310269Y-113293651D01*
X135483197Y-113370644D01*
X135668352Y-113410000D01*
X135668354Y-113410000D01*
X135857646Y-113410000D01*
X135857648Y-113410000D01*
X135981084Y-113383762D01*
X136042803Y-113370644D01*
X136215730Y-113293651D01*
X136368871Y-113182388D01*
X136495533Y-113041716D01*
X136590179Y-112877784D01*
X136595249Y-112862181D01*
X136621030Y-112817527D01*
X136662745Y-112787220D01*
X136713180Y-112776500D01*
X145036500Y-112776500D01*
X145098500Y-112793113D01*
X145143887Y-112838500D01*
X145160500Y-112900500D01*
X145160500Y-121628718D01*
X145158118Y-121652907D01*
X145155514Y-121666000D01*
X145175266Y-121765301D01*
X145217027Y-121827802D01*
X145224099Y-121838385D01*
X145224103Y-121838390D01*
X145231516Y-121849484D01*
X145242608Y-121856896D01*
X145261399Y-121872317D01*
X145577348Y-122188266D01*
X145886902Y-122497819D01*
X145917152Y-122547182D01*
X145921694Y-122604898D01*
X145899539Y-122658385D01*
X145855516Y-122695985D01*
X145799221Y-122709500D01*
X145006130Y-122709500D01*
X144946515Y-122715909D01*
X144811669Y-122766204D01*
X144696454Y-122852454D01*
X144610204Y-122967668D01*
X144559909Y-123102516D01*
X144553500Y-123162130D01*
X144553500Y-125757869D01*
X144559909Y-125817484D01*
X144585056Y-125884906D01*
X144610204Y-125952331D01*
X144696454Y-126067546D01*
X144811669Y-126153796D01*
X144946517Y-126204091D01*
X145006127Y-126210500D01*
X147601872Y-126210499D01*
X147661483Y-126204091D01*
X147796331Y-126153796D01*
X147911546Y-126067546D01*
X147997796Y-125952331D01*
X148048091Y-125817483D01*
X148054500Y-125757873D01*
X148054499Y-123162128D01*
X148048091Y-123102517D01*
X148039982Y-123080778D01*
X148034294Y-123014558D01*
X148063620Y-122954912D01*
X148119533Y-122918978D01*
X148185971Y-122917080D01*
X148243845Y-122949763D01*
X148495362Y-123201280D01*
X148528255Y-123260014D01*
X148525612Y-123327279D01*
X148466326Y-123509742D01*
X148446540Y-123698000D01*
X148466326Y-123886257D01*
X148524820Y-124066284D01*
X148619466Y-124230216D01*
X148746129Y-124370889D01*
X148899269Y-124482151D01*
X149072197Y-124559144D01*
X149257352Y-124598500D01*
X149257354Y-124598500D01*
X149446646Y-124598500D01*
X149446648Y-124598500D01*
X149570084Y-124572262D01*
X149631803Y-124559144D01*
X149804730Y-124482151D01*
X149957871Y-124370888D01*
X150084533Y-124230216D01*
X150179179Y-124066284D01*
X150237674Y-123886256D01*
X150257460Y-123698000D01*
X150237674Y-123509744D01*
X150179179Y-123329716D01*
X150179179Y-123329715D01*
X150084533Y-123165783D01*
X149957870Y-123025110D01*
X149804730Y-122913848D01*
X149631802Y-122836855D01*
X149446648Y-122797500D01*
X149446646Y-122797500D01*
X149257354Y-122797500D01*
X149257352Y-122797500D01*
X149072198Y-122836854D01*
X148996841Y-122870406D01*
X148948570Y-122881107D01*
X148899955Y-122872097D01*
X148858725Y-122844807D01*
X148288317Y-122274399D01*
X148272896Y-122255608D01*
X148265484Y-122244516D01*
X148254390Y-122237103D01*
X148254388Y-122237101D01*
X148244235Y-122230317D01*
X148244234Y-122230316D01*
X148181301Y-122188266D01*
X148082000Y-122168514D01*
X148081999Y-122168514D01*
X148068907Y-122171118D01*
X148044718Y-122173500D01*
X146333779Y-122173500D01*
X146286326Y-122164061D01*
X146246098Y-122137181D01*
X145705819Y-121596901D01*
X145678939Y-121556673D01*
X145669500Y-121509220D01*
X145669500Y-112559282D01*
X145671882Y-112535093D01*
X145674486Y-112521999D01*
X145671882Y-112508907D01*
X145669500Y-112484718D01*
X145669500Y-105344710D01*
X145684527Y-105285542D01*
X145725965Y-105240715D01*
X145783771Y-105221092D01*
X145843936Y-105231431D01*
X145897197Y-105255144D01*
X146082352Y-105294500D01*
X146082354Y-105294500D01*
X146271646Y-105294500D01*
X146271648Y-105294500D01*
X146396499Y-105267962D01*
X146456803Y-105255144D01*
X146621991Y-105181596D01*
X146670260Y-105170895D01*
X146718876Y-105179905D01*
X146760106Y-105207195D01*
X147819181Y-106266269D01*
X147846061Y-106306497D01*
X147855500Y-106353950D01*
X147855500Y-108485869D01*
X147861897Y-108545375D01*
X147861909Y-108545483D01*
X147912204Y-108680331D01*
X147998454Y-108795546D01*
X148113669Y-108881796D01*
X148248517Y-108932091D01*
X148308127Y-108938500D01*
X149304536Y-108938499D01*
X149365510Y-108954526D01*
X149410722Y-108998465D01*
X149428484Y-109058957D01*
X149414205Y-109120365D01*
X149371576Y-109166814D01*
X149352821Y-109178867D01*
X149295072Y-109222097D01*
X149244055Y-109273114D01*
X149149905Y-109381770D01*
X149072095Y-109502846D01*
X149012368Y-109633628D01*
X148987156Y-109701226D01*
X148971819Y-109771724D01*
X148951357Y-109914039D01*
X148946210Y-109985999D01*
X148951037Y-110053473D01*
X148951353Y-110062320D01*
X148951353Y-110409680D01*
X148951037Y-110418527D01*
X148946210Y-110486000D01*
X148951357Y-110557960D01*
X148971819Y-110700275D01*
X148987156Y-110770773D01*
X149012368Y-110838371D01*
X149072095Y-110969153D01*
X149149905Y-111090229D01*
X149244055Y-111198885D01*
X149244057Y-111198887D01*
X149295073Y-111249903D01*
X149352830Y-111293139D01*
X149473784Y-111370871D01*
X149473786Y-111370872D01*
X149503012Y-111384219D01*
X149555816Y-111429974D01*
X149575500Y-111497013D01*
X149575500Y-112570110D01*
X149558887Y-112632110D01*
X149526469Y-112688258D01*
X149467975Y-112868285D01*
X149448189Y-113056542D01*
X149467975Y-113244800D01*
X149526469Y-113424827D01*
X149621115Y-113588758D01*
X149628770Y-113597260D01*
X149657911Y-113654451D01*
X149654552Y-113718550D01*
X149609326Y-113857740D01*
X149589540Y-114045999D01*
X149609326Y-114234257D01*
X149667820Y-114414284D01*
X149762466Y-114578216D01*
X149889129Y-114718889D01*
X150042269Y-114830151D01*
X150215197Y-114907144D01*
X150400352Y-114946500D01*
X150400354Y-114946500D01*
X150589646Y-114946500D01*
X150589648Y-114946500D01*
X150713084Y-114920262D01*
X150774803Y-114907144D01*
X150819829Y-114887096D01*
X150892071Y-114854933D01*
X150959335Y-114845359D01*
X151021547Y-114872668D01*
X151060030Y-114928661D01*
X151063231Y-114996527D01*
X151030188Y-115055893D01*
X149833398Y-116252682D01*
X149814611Y-116268101D01*
X149803515Y-116275515D01*
X149791192Y-116293956D01*
X149791192Y-116293959D01*
X149747266Y-116359698D01*
X149727514Y-116459001D01*
X149730118Y-116472093D01*
X149732500Y-116496282D01*
X149732500Y-119833138D01*
X149723471Y-119879589D01*
X149697699Y-119919275D01*
X149658937Y-119946417D01*
X149619565Y-119963947D01*
X149466426Y-120075208D01*
X149339763Y-120215880D01*
X149245117Y-120379812D01*
X149186623Y-120559839D01*
X149166837Y-120748096D01*
X149186623Y-120936354D01*
X149245117Y-121116381D01*
X149339763Y-121280313D01*
X149466426Y-121420986D01*
X149619566Y-121532248D01*
X149792494Y-121609241D01*
X149977649Y-121648597D01*
X149977651Y-121648597D01*
X150166943Y-121648597D01*
X150166945Y-121648597D01*
X150290380Y-121622359D01*
X150352100Y-121609241D01*
X150525027Y-121532248D01*
X150525026Y-121532248D01*
X150678167Y-121420986D01*
X150804830Y-121280313D01*
X150899476Y-121116381D01*
X150908919Y-121087318D01*
X150957971Y-120936353D01*
X150977757Y-120748097D01*
X150957971Y-120559841D01*
X150899476Y-120379813D01*
X150899476Y-120379812D01*
X150804830Y-120215880D01*
X150678167Y-120075207D01*
X150525029Y-119963946D01*
X150404203Y-119910151D01*
X150352100Y-119886953D01*
X150339716Y-119884320D01*
X150289157Y-119860743D01*
X150254049Y-119817388D01*
X150241500Y-119763031D01*
X150241500Y-119126000D01*
X151494540Y-119126000D01*
X151514326Y-119314257D01*
X151572820Y-119494284D01*
X151667466Y-119658216D01*
X151794129Y-119798889D01*
X151947269Y-119910151D01*
X152120197Y-119987144D01*
X152305352Y-120026500D01*
X152305354Y-120026500D01*
X152494646Y-120026500D01*
X152494648Y-120026500D01*
X152618084Y-120000262D01*
X152679803Y-119987144D01*
X152852730Y-119910151D01*
X152852729Y-119910151D01*
X153005870Y-119798889D01*
X153132533Y-119658216D01*
X153227179Y-119494284D01*
X153227179Y-119494283D01*
X153285674Y-119314256D01*
X153305460Y-119126000D01*
X153285674Y-118937744D01*
X153227179Y-118757716D01*
X153227179Y-118757715D01*
X153132533Y-118593783D01*
X153005870Y-118453110D01*
X152852730Y-118341848D01*
X152679802Y-118264855D01*
X152494648Y-118225500D01*
X152494646Y-118225500D01*
X152305354Y-118225500D01*
X152305352Y-118225500D01*
X152120197Y-118264855D01*
X151947269Y-118341848D01*
X151794129Y-118453110D01*
X151667466Y-118593783D01*
X151572820Y-118757715D01*
X151514326Y-118937742D01*
X151494540Y-119126000D01*
X150241500Y-119126000D01*
X150241500Y-116615780D01*
X150250939Y-116568327D01*
X150277819Y-116528099D01*
X152391635Y-114414283D01*
X156542048Y-110263869D01*
X165127500Y-110263869D01*
X165132565Y-110310983D01*
X165133909Y-110323483D01*
X165184204Y-110458331D01*
X165270454Y-110573546D01*
X165385669Y-110659796D01*
X165520517Y-110710091D01*
X165580127Y-110716500D01*
X168175872Y-110716499D01*
X168235483Y-110710091D01*
X168370331Y-110659796D01*
X168485546Y-110573546D01*
X168571796Y-110458331D01*
X168622091Y-110323483D01*
X168628500Y-110263873D01*
X168628499Y-107668128D01*
X168622091Y-107608517D01*
X168571796Y-107473669D01*
X168485546Y-107358454D01*
X168370331Y-107272204D01*
X168235483Y-107221909D01*
X168175873Y-107215500D01*
X168175869Y-107215500D01*
X165580130Y-107215500D01*
X165520515Y-107221909D01*
X165385669Y-107272204D01*
X165270454Y-107358454D01*
X165184204Y-107473668D01*
X165133909Y-107608515D01*
X165133909Y-107608517D01*
X165130607Y-107639234D01*
X165127500Y-107668130D01*
X165127500Y-110263869D01*
X156542048Y-110263869D01*
X159122604Y-107683312D01*
X159141390Y-107667895D01*
X159152484Y-107660484D01*
X159154918Y-107656840D01*
X159154920Y-107656839D01*
X159166681Y-107639235D01*
X159166684Y-107639234D01*
X159208734Y-107576301D01*
X159214050Y-107549576D01*
X159223500Y-107502067D01*
X159225881Y-107490097D01*
X159225882Y-107490088D01*
X159228485Y-107476999D01*
X159225882Y-107463912D01*
X159223500Y-107439723D01*
X159223500Y-106422000D01*
X168938000Y-106422000D01*
X168938000Y-107469824D01*
X168944402Y-107529375D01*
X168994647Y-107664089D01*
X169080811Y-107779188D01*
X169195910Y-107865352D01*
X169330624Y-107915597D01*
X169390176Y-107922000D01*
X170438000Y-107922000D01*
X170438000Y-106422000D01*
X170938000Y-106422000D01*
X170938000Y-107922000D01*
X171985824Y-107922000D01*
X172045375Y-107915597D01*
X172180089Y-107865352D01*
X172295188Y-107779188D01*
X172381352Y-107664089D01*
X172431597Y-107529375D01*
X172438000Y-107469824D01*
X172438000Y-106422000D01*
X170938000Y-106422000D01*
X170438000Y-106422000D01*
X168938000Y-106422000D01*
X159223500Y-106422000D01*
X159223500Y-105922000D01*
X168938000Y-105922000D01*
X170438000Y-105922000D01*
X170438000Y-104422000D01*
X170938000Y-104422000D01*
X170938000Y-105922000D01*
X172438000Y-105922000D01*
X172438000Y-104874176D01*
X172431597Y-104814624D01*
X172381352Y-104679910D01*
X172295188Y-104564811D01*
X172180089Y-104478647D01*
X172045375Y-104428402D01*
X171985824Y-104422000D01*
X170938000Y-104422000D01*
X170438000Y-104422000D01*
X169390176Y-104422000D01*
X169330624Y-104428402D01*
X169195910Y-104478647D01*
X169080811Y-104564811D01*
X168994647Y-104679910D01*
X168944402Y-104814624D01*
X168938000Y-104874176D01*
X168938000Y-105922000D01*
X159223500Y-105922000D01*
X159223500Y-105362519D01*
X159232529Y-105316068D01*
X159258302Y-105276381D01*
X159297063Y-105249239D01*
X159456730Y-105178151D01*
X159456730Y-105178150D01*
X159456732Y-105178150D01*
X159609870Y-105066889D01*
X159675033Y-104994519D01*
X159736533Y-104926216D01*
X159831179Y-104762284D01*
X159889674Y-104582256D01*
X159909460Y-104394000D01*
X159889674Y-104205744D01*
X159831179Y-104025716D01*
X159831179Y-104025715D01*
X159736533Y-103861783D01*
X159609870Y-103721110D01*
X159456732Y-103609849D01*
X159337063Y-103556569D01*
X159283803Y-103532856D01*
X159283801Y-103532855D01*
X159271898Y-103527556D01*
X159272559Y-103526071D01*
X159225972Y-103501298D01*
X159191795Y-103442099D01*
X159194180Y-103373788D01*
X159214174Y-103312256D01*
X159233960Y-103124000D01*
X159214174Y-102935744D01*
X159163511Y-102779819D01*
X159159691Y-102768062D01*
X159155149Y-102710346D01*
X159177304Y-102656858D01*
X159221327Y-102619259D01*
X159277622Y-102605744D01*
X159342319Y-102605744D01*
X159477821Y-102576942D01*
X159527474Y-102566388D01*
X159700401Y-102489395D01*
X159823596Y-102399889D01*
X159853541Y-102378133D01*
X159945027Y-102276528D01*
X159986742Y-102246220D01*
X160037177Y-102235500D01*
X161951666Y-102235500D01*
X161975855Y-102237882D01*
X161988948Y-102240486D01*
X162044104Y-102229515D01*
X162088249Y-102220734D01*
X162088249Y-102220733D01*
X162093398Y-102219709D01*
X162103544Y-102210513D01*
X162151182Y-102178684D01*
X162151182Y-102178683D01*
X162168789Y-102166920D01*
X162168792Y-102166915D01*
X162172432Y-102164484D01*
X162179848Y-102153384D01*
X162195261Y-102134603D01*
X162237974Y-102091890D01*
X162279202Y-102064602D01*
X162327819Y-102055592D01*
X162376090Y-102066294D01*
X162407198Y-102080145D01*
X162592352Y-102119500D01*
X162592354Y-102119500D01*
X162781646Y-102119500D01*
X162781648Y-102119500D01*
X162905084Y-102093262D01*
X162966803Y-102080144D01*
X163139730Y-102003151D01*
X163279616Y-101901518D01*
X163342771Y-101878219D01*
X163408795Y-101891352D01*
X163458227Y-101937047D01*
X163476500Y-102001837D01*
X163476500Y-103913869D01*
X163482909Y-103973483D01*
X163533204Y-104108331D01*
X163619454Y-104223546D01*
X163734669Y-104309796D01*
X163869517Y-104360091D01*
X163929127Y-104366500D01*
X166524872Y-104366499D01*
X166584483Y-104360091D01*
X166719331Y-104309796D01*
X166834546Y-104223546D01*
X166920796Y-104108331D01*
X166971091Y-103973483D01*
X166977500Y-103913873D01*
X166977500Y-102897869D01*
X168937500Y-102897869D01*
X168941572Y-102935742D01*
X168943909Y-102957483D01*
X168994204Y-103092331D01*
X169080454Y-103207546D01*
X169195669Y-103293796D01*
X169330517Y-103344091D01*
X169390127Y-103350500D01*
X171985872Y-103350499D01*
X172045483Y-103344091D01*
X172180331Y-103293796D01*
X172295546Y-103207546D01*
X172381796Y-103092331D01*
X172432091Y-102957483D01*
X172438500Y-102897873D01*
X172438499Y-100302128D01*
X172432091Y-100242517D01*
X172381796Y-100107669D01*
X172295546Y-99992454D01*
X172180331Y-99906204D01*
X172045483Y-99855909D01*
X171985873Y-99849500D01*
X171985869Y-99849500D01*
X169390130Y-99849500D01*
X169330515Y-99855909D01*
X169195669Y-99906204D01*
X169080454Y-99992454D01*
X168994204Y-100107668D01*
X168943909Y-100242515D01*
X168943909Y-100242517D01*
X168939673Y-100281921D01*
X168937500Y-100302130D01*
X168937500Y-102897869D01*
X166977500Y-102897869D01*
X166977499Y-101318128D01*
X166971091Y-101258517D01*
X166920796Y-101123669D01*
X166834546Y-101008454D01*
X166719331Y-100922204D01*
X166584483Y-100871909D01*
X166524873Y-100865500D01*
X166524869Y-100865500D01*
X165593720Y-100865500D01*
X165538876Y-100852712D01*
X165495344Y-100816987D01*
X165472103Y-100765691D01*
X165469869Y-100754461D01*
X165466734Y-100738699D01*
X165424684Y-100675767D01*
X165424682Y-100675765D01*
X165419792Y-100668447D01*
X165417899Y-100665613D01*
X165417899Y-100665612D01*
X165417898Y-100665611D01*
X165410484Y-100654516D01*
X165399387Y-100647101D01*
X165380597Y-100631680D01*
X165210672Y-100461755D01*
X165102050Y-100353132D01*
X165073211Y-100307864D01*
X165066205Y-100254646D01*
X165082344Y-100203458D01*
X165142778Y-100098784D01*
X165201273Y-99918756D01*
X165221059Y-99730500D01*
X165201273Y-99542244D01*
X165142778Y-99362216D01*
X165142778Y-99362215D01*
X165048134Y-99198286D01*
X165035043Y-99183747D01*
X164996077Y-99140471D01*
X164968796Y-99090846D01*
X164966424Y-99034265D01*
X164989458Y-98982530D01*
X165033093Y-98946432D01*
X165088228Y-98933500D01*
X167856718Y-98933500D01*
X167880907Y-98935882D01*
X167885146Y-98936724D01*
X167894000Y-98938486D01*
X167993301Y-98918734D01*
X167993302Y-98918733D01*
X167993303Y-98918733D01*
X168073840Y-98864921D01*
X168073845Y-98864915D01*
X168077484Y-98862484D01*
X168084900Y-98851384D01*
X168100313Y-98832603D01*
X168344098Y-98588819D01*
X168384326Y-98561939D01*
X168431779Y-98552500D01*
X172877501Y-98552500D01*
X172939501Y-98569113D01*
X172984888Y-98614500D01*
X173001501Y-98676500D01*
X173001501Y-98706872D01*
X173007909Y-98766483D01*
X173058204Y-98901331D01*
X173144454Y-99016546D01*
X173259669Y-99102796D01*
X173394517Y-99153091D01*
X173454127Y-99159500D01*
X176049872Y-99159499D01*
X176109483Y-99153091D01*
X176244331Y-99102796D01*
X176359546Y-99016546D01*
X176445796Y-98901331D01*
X176496091Y-98766483D01*
X176502500Y-98706873D01*
X176502499Y-96111128D01*
X176496091Y-96051517D01*
X176445796Y-95916669D01*
X176359546Y-95801454D01*
X176359544Y-95801453D01*
X176359544Y-95801452D01*
X176283930Y-95744848D01*
X176264451Y-95730265D01*
X176227878Y-95686505D01*
X176214762Y-95631000D01*
X176227878Y-95575495D01*
X176264451Y-95531734D01*
X176359546Y-95460546D01*
X176445796Y-95345331D01*
X176496091Y-95210483D01*
X176502500Y-95150873D01*
X176502499Y-92555128D01*
X176496091Y-92495517D01*
X176445796Y-92360669D01*
X176359546Y-92245454D01*
X176244331Y-92159204D01*
X176109483Y-92108909D01*
X176049873Y-92102500D01*
X176049869Y-92102500D01*
X173454130Y-92102500D01*
X173394515Y-92108909D01*
X173259669Y-92159204D01*
X173144454Y-92245454D01*
X173058204Y-92360668D01*
X173007909Y-92495516D01*
X173001500Y-92555130D01*
X173001500Y-95150869D01*
X173004159Y-95175596D01*
X172997805Y-95230103D01*
X172968550Y-95276530D01*
X171126901Y-97118181D01*
X171086673Y-97145061D01*
X171039220Y-97154500D01*
X170857594Y-97154500D01*
X170802459Y-97141568D01*
X170758824Y-97105470D01*
X170735790Y-97053736D01*
X170738162Y-96997154D01*
X170765444Y-96947528D01*
X170785533Y-96925216D01*
X170880179Y-96761284D01*
X170893066Y-96721623D01*
X170938674Y-96581256D01*
X170958460Y-96393000D01*
X170938674Y-96204744D01*
X170880179Y-96024716D01*
X170880179Y-96024715D01*
X170785533Y-95860783D01*
X170658870Y-95720110D01*
X170505730Y-95608848D01*
X170444711Y-95581680D01*
X170396372Y-95543365D01*
X170372475Y-95486500D01*
X170378932Y-95425157D01*
X170414145Y-95374514D01*
X170449108Y-95357169D01*
X170447896Y-95354446D01*
X170632730Y-95272151D01*
X170785870Y-95160889D01*
X170794889Y-95150873D01*
X170912533Y-95020216D01*
X171007179Y-94856284D01*
X171065674Y-94676256D01*
X171085460Y-94488000D01*
X171065674Y-94299744D01*
X171007179Y-94119716D01*
X171007179Y-94119715D01*
X170912533Y-93955783D01*
X170785870Y-93815110D01*
X170632730Y-93703848D01*
X170459802Y-93626855D01*
X170274648Y-93587500D01*
X170274646Y-93587500D01*
X170085354Y-93587500D01*
X170085352Y-93587500D01*
X169900197Y-93626855D01*
X169727269Y-93703848D01*
X169574129Y-93815110D01*
X169447466Y-93955784D01*
X169398387Y-94040792D01*
X169353000Y-94086179D01*
X169291000Y-94102792D01*
X169229000Y-94086179D01*
X169183613Y-94040792D01*
X169134533Y-93955784D01*
X169007870Y-93815110D01*
X168854730Y-93703848D01*
X168681802Y-93626855D01*
X168496648Y-93587500D01*
X168496646Y-93587500D01*
X168307354Y-93587500D01*
X168307352Y-93587500D01*
X168122197Y-93626855D01*
X167949269Y-93703848D01*
X167796129Y-93815110D01*
X167669466Y-93955783D01*
X167574820Y-94119715D01*
X167516326Y-94299742D01*
X167516325Y-94299744D01*
X167516326Y-94299744D01*
X167502587Y-94430463D01*
X167482068Y-94486840D01*
X167437482Y-94526985D01*
X167379267Y-94541500D01*
X157596280Y-94541500D01*
X157548827Y-94532061D01*
X157508599Y-94505181D01*
X157480137Y-94476719D01*
X157447244Y-94417985D01*
X157449887Y-94350720D01*
X157450679Y-94348284D01*
X157509174Y-94168256D01*
X157528960Y-93980000D01*
X157509174Y-93791744D01*
X157461100Y-93643787D01*
X157450679Y-93611715D01*
X157356033Y-93447783D01*
X157229370Y-93307110D01*
X157076230Y-93195848D01*
X156903302Y-93118855D01*
X156718148Y-93079500D01*
X156718146Y-93079500D01*
X156528854Y-93079500D01*
X156528852Y-93079500D01*
X156330949Y-93121565D01*
X156330697Y-93120379D01*
X156282161Y-93128064D01*
X156222243Y-93105062D01*
X156093826Y-93011762D01*
X155920898Y-92934769D01*
X155735744Y-92895414D01*
X155735742Y-92895414D01*
X155546450Y-92895414D01*
X155546448Y-92895414D01*
X155361293Y-92934769D01*
X155188365Y-93011762D01*
X155035225Y-93123024D01*
X154908562Y-93263697D01*
X154813916Y-93427629D01*
X154755422Y-93607656D01*
X154735636Y-93795914D01*
X154755422Y-93984171D01*
X154813916Y-94164198D01*
X154908562Y-94328130D01*
X155035225Y-94468803D01*
X155188365Y-94580065D01*
X155361293Y-94657058D01*
X155546448Y-94696414D01*
X155546450Y-94696414D01*
X155735742Y-94696414D01*
X155735743Y-94696414D01*
X155848122Y-94672527D01*
X155909121Y-94674923D01*
X155961584Y-94706136D01*
X156295267Y-95039819D01*
X156325517Y-95089182D01*
X156330059Y-95146898D01*
X156307904Y-95200385D01*
X156263881Y-95237985D01*
X156207586Y-95251500D01*
X151821956Y-95251500D01*
X151765661Y-95237985D01*
X151721638Y-95200386D01*
X151699483Y-95146898D01*
X151704025Y-95089182D01*
X151735055Y-94993680D01*
X151761674Y-94911756D01*
X151781460Y-94723500D01*
X151761674Y-94535244D01*
X151708238Y-94370786D01*
X151703179Y-94355215D01*
X151608533Y-94191283D01*
X151481870Y-94050610D01*
X151328730Y-93939348D01*
X151155802Y-93862355D01*
X150970648Y-93823000D01*
X150970646Y-93823000D01*
X150781354Y-93823000D01*
X150781352Y-93823000D01*
X150596197Y-93862355D01*
X150423269Y-93939348D01*
X150270129Y-94050610D01*
X150143466Y-94191283D01*
X150048820Y-94355215D01*
X150033679Y-94401818D01*
X150007898Y-94446472D01*
X149966184Y-94476780D01*
X149915748Y-94487500D01*
X149476863Y-94487500D01*
X149409824Y-94467816D01*
X149364069Y-94415012D01*
X149343871Y-94370784D01*
X149266139Y-94249830D01*
X149252131Y-94231118D01*
X149245015Y-94221612D01*
X149222903Y-94192073D01*
X149171887Y-94141057D01*
X149147257Y-94119715D01*
X149063229Y-94046905D01*
X149053717Y-94040792D01*
X148942155Y-93969096D01*
X148942153Y-93969095D01*
X148811371Y-93909368D01*
X148743773Y-93884156D01*
X148673275Y-93868819D01*
X148530960Y-93848357D01*
X148459000Y-93843210D01*
X148395606Y-93847745D01*
X148391525Y-93848037D01*
X148382680Y-93848353D01*
X148035320Y-93848353D01*
X148026474Y-93848037D01*
X148022099Y-93847724D01*
X147958999Y-93843210D01*
X147887039Y-93848357D01*
X147744724Y-93868819D01*
X147674226Y-93884156D01*
X147606628Y-93909368D01*
X147475846Y-93969095D01*
X147354770Y-94046905D01*
X147246114Y-94141055D01*
X147195097Y-94192072D01*
X147151865Y-94249823D01*
X147109588Y-94315608D01*
X147099447Y-94331389D01*
X147074128Y-94370786D01*
X147014341Y-94501700D01*
X146973835Y-94639653D01*
X146953353Y-94782112D01*
X146953353Y-95354002D01*
X146970970Y-95487815D01*
X146970970Y-95520185D01*
X146957018Y-95626163D01*
X146953353Y-95654000D01*
X146953353Y-96225889D01*
X146963469Y-96296250D01*
X146973835Y-96368346D01*
X147014341Y-96506299D01*
X147026893Y-96533784D01*
X147074129Y-96637216D01*
X147113010Y-96697716D01*
X147151865Y-96758176D01*
X147195097Y-96815927D01*
X147246114Y-96866944D01*
X147354770Y-96961094D01*
X147354772Y-96961095D01*
X147354774Y-96961097D01*
X147475845Y-97038904D01*
X147606630Y-97098632D01*
X147674227Y-97123844D01*
X147744723Y-97139180D01*
X147887038Y-97159642D01*
X147923019Y-97162215D01*
X147958999Y-97164789D01*
X147958999Y-97164788D01*
X147959000Y-97164789D01*
X148026474Y-97159962D01*
X148035320Y-97159647D01*
X148382680Y-97159647D01*
X148391525Y-97159962D01*
X148459000Y-97164789D01*
X148530962Y-97159642D01*
X148673277Y-97139180D01*
X148743773Y-97123844D01*
X148743775Y-97123843D01*
X148751655Y-97122129D01*
X148812949Y-97124318D01*
X148865696Y-97155614D01*
X149035182Y-97325100D01*
X149050603Y-97343890D01*
X149071719Y-97375492D01*
X149070135Y-97376550D01*
X149082272Y-97390209D01*
X149095689Y-97451372D01*
X149077511Y-97511292D01*
X149032373Y-97554690D01*
X148971785Y-97570500D01*
X138305277Y-97570500D01*
X138281088Y-97568118D01*
X138268000Y-97565514D01*
X138254912Y-97568118D01*
X138254910Y-97568118D01*
X138242934Y-97570500D01*
X138242933Y-97570500D01*
X138239228Y-97571237D01*
X138163549Y-97586289D01*
X138153407Y-97595482D01*
X138105772Y-97627312D01*
X138105770Y-97627314D01*
X138105768Y-97627316D01*
X138085613Y-97640783D01*
X138084513Y-97641518D01*
X138077098Y-97652615D01*
X138061681Y-97671400D01*
X137255401Y-98477681D01*
X137215173Y-98504561D01*
X137167720Y-98514000D01*
X134438412Y-98514000D01*
X134380937Y-98499876D01*
X134336556Y-98460720D01*
X134315379Y-98405454D01*
X134322230Y-98346667D01*
X134343597Y-98289377D01*
X134350000Y-98229824D01*
X134350000Y-97832000D01*
X131349999Y-97832000D01*
X131348933Y-97833066D01*
X131320420Y-97854358D01*
X131287034Y-97866674D01*
X131095643Y-97907355D01*
X130922715Y-97984348D01*
X130769575Y-98095610D01*
X130642912Y-98236283D01*
X130548266Y-98400215D01*
X130489772Y-98580242D01*
X130469986Y-98768499D01*
X130489772Y-98956757D01*
X130529226Y-99078182D01*
X130533768Y-99135898D01*
X130511613Y-99189385D01*
X130467590Y-99226985D01*
X130411295Y-99240500D01*
X124670780Y-99240500D01*
X124623327Y-99231061D01*
X124583099Y-99204181D01*
X123323465Y-97944547D01*
X123294810Y-97899784D01*
X123287528Y-97847137D01*
X123302957Y-97796276D01*
X123338257Y-97756550D01*
X123414871Y-97700888D01*
X123541533Y-97560216D01*
X123636179Y-97396284D01*
X123694674Y-97216256D01*
X123714460Y-97028000D01*
X126348540Y-97028000D01*
X126368326Y-97216257D01*
X126426820Y-97396284D01*
X126521466Y-97560216D01*
X126648129Y-97700889D01*
X126801269Y-97812151D01*
X126974197Y-97889144D01*
X127159352Y-97928500D01*
X127159354Y-97928500D01*
X127348646Y-97928500D01*
X127348648Y-97928500D01*
X127487227Y-97899044D01*
X127533803Y-97889144D01*
X127706730Y-97812151D01*
X127831136Y-97721765D01*
X127859870Y-97700889D01*
X127860834Y-97699819D01*
X127986533Y-97560216D01*
X128081179Y-97396284D01*
X128102066Y-97332000D01*
X131350000Y-97332000D01*
X132600000Y-97332000D01*
X132600000Y-96482000D01*
X133100000Y-96482000D01*
X133100000Y-97332000D01*
X134350000Y-97332000D01*
X134350000Y-96934176D01*
X134343597Y-96874624D01*
X134293352Y-96739910D01*
X134207188Y-96624811D01*
X134092089Y-96538647D01*
X133957375Y-96488402D01*
X133897824Y-96482000D01*
X133100000Y-96482000D01*
X132600000Y-96482000D01*
X131802176Y-96482000D01*
X131742624Y-96488402D01*
X131607910Y-96538647D01*
X131492811Y-96624811D01*
X131406647Y-96739910D01*
X131356402Y-96874624D01*
X131350000Y-96934176D01*
X131350000Y-97332000D01*
X128102066Y-97332000D01*
X128139674Y-97216256D01*
X128159460Y-97028000D01*
X128139674Y-96839744D01*
X128082035Y-96662349D01*
X128081179Y-96659715D01*
X127986533Y-96495783D01*
X127859870Y-96355110D01*
X127706734Y-96243850D01*
X127633928Y-96211435D01*
X127582061Y-96188342D01*
X127543302Y-96161202D01*
X127517529Y-96121515D01*
X127508500Y-96075064D01*
X127508500Y-94487999D01*
X135111540Y-94487999D01*
X135131326Y-94676257D01*
X135189820Y-94856284D01*
X135284466Y-95020216D01*
X135411129Y-95160889D01*
X135564269Y-95272151D01*
X135737197Y-95349144D01*
X135922352Y-95388500D01*
X135922354Y-95388500D01*
X136111646Y-95388500D01*
X136111648Y-95388500D01*
X136259048Y-95357169D01*
X136296803Y-95349144D01*
X136469730Y-95272151D01*
X136527604Y-95230103D01*
X136622870Y-95160889D01*
X136631889Y-95150873D01*
X136749533Y-95020216D01*
X136844179Y-94856284D01*
X136853310Y-94828183D01*
X136879091Y-94783528D01*
X136920805Y-94753220D01*
X136971241Y-94742500D01*
X142718220Y-94742500D01*
X142765673Y-94751939D01*
X142805901Y-94778819D01*
X143308012Y-95280930D01*
X143796362Y-95769279D01*
X143829255Y-95828012D01*
X143826612Y-95895277D01*
X143767326Y-96077740D01*
X143747540Y-96266000D01*
X143767326Y-96454257D01*
X143825820Y-96634284D01*
X143920466Y-96798216D01*
X144047129Y-96938889D01*
X144200269Y-97050151D01*
X144373197Y-97127144D01*
X144558352Y-97166500D01*
X144558354Y-97166500D01*
X144747646Y-97166500D01*
X144747648Y-97166500D01*
X144876178Y-97139180D01*
X144932803Y-97127144D01*
X145105730Y-97050151D01*
X145168627Y-97004454D01*
X145258870Y-96938889D01*
X145281026Y-96914283D01*
X145385533Y-96798216D01*
X145480179Y-96634284D01*
X145538674Y-96454256D01*
X145558460Y-96266000D01*
X145538674Y-96077744D01*
X145506019Y-95977242D01*
X145480179Y-95897715D01*
X145385533Y-95733783D01*
X145258870Y-95593110D01*
X145105730Y-95481848D01*
X144932802Y-95404855D01*
X144747648Y-95365500D01*
X144747646Y-95365500D01*
X144558354Y-95365500D01*
X144558352Y-95365500D01*
X144373197Y-95404855D01*
X144297842Y-95438406D01*
X144249570Y-95449108D01*
X144200955Y-95440098D01*
X144159725Y-95412808D01*
X143081317Y-94334399D01*
X143065896Y-94315608D01*
X143058484Y-94304516D01*
X143047390Y-94297103D01*
X143047388Y-94297101D01*
X143037235Y-94290317D01*
X143037234Y-94290316D01*
X142974301Y-94248266D01*
X142875000Y-94228514D01*
X142874999Y-94228514D01*
X142861907Y-94231118D01*
X142837718Y-94233500D01*
X136971241Y-94233500D01*
X136920805Y-94222780D01*
X136879091Y-94192472D01*
X136853310Y-94147817D01*
X136844179Y-94119716D01*
X136749533Y-93955783D01*
X136622870Y-93815110D01*
X136469730Y-93703848D01*
X136296802Y-93626855D01*
X136111648Y-93587500D01*
X136111646Y-93587500D01*
X135922354Y-93587500D01*
X135922352Y-93587500D01*
X135737197Y-93626855D01*
X135564269Y-93703848D01*
X135411129Y-93815110D01*
X135284466Y-93955783D01*
X135189820Y-94119715D01*
X135131326Y-94299742D01*
X135111540Y-94487999D01*
X127508500Y-94487999D01*
X127508500Y-90516500D01*
X131437500Y-90516500D01*
X131437500Y-90914324D01*
X131443902Y-90973875D01*
X131494147Y-91108589D01*
X131580311Y-91223688D01*
X131695410Y-91309852D01*
X131830124Y-91360097D01*
X131889676Y-91366500D01*
X132687500Y-91366500D01*
X132687500Y-90516500D01*
X133187500Y-90516500D01*
X133187500Y-91366500D01*
X133985324Y-91366500D01*
X134044875Y-91360097D01*
X134179589Y-91309852D01*
X134294688Y-91223688D01*
X134380852Y-91108589D01*
X134431097Y-90973875D01*
X134437500Y-90914324D01*
X134437500Y-90516500D01*
X133187500Y-90516500D01*
X132687500Y-90516500D01*
X131437500Y-90516500D01*
X127508500Y-90516500D01*
X127508500Y-90016500D01*
X131437500Y-90016500D01*
X132687500Y-90016500D01*
X132687500Y-89166500D01*
X133187500Y-89166500D01*
X133187500Y-90016500D01*
X134437500Y-90016500D01*
X134437500Y-89618676D01*
X134431097Y-89559124D01*
X134380852Y-89424410D01*
X134294688Y-89309311D01*
X134179589Y-89223147D01*
X134044875Y-89172902D01*
X133985324Y-89166500D01*
X133187500Y-89166500D01*
X132687500Y-89166500D01*
X131889676Y-89166500D01*
X131830124Y-89172902D01*
X131695410Y-89223147D01*
X131580311Y-89309311D01*
X131494147Y-89424410D01*
X131443902Y-89559124D01*
X131437500Y-89618676D01*
X131437500Y-90016500D01*
X127508500Y-90016500D01*
X127508500Y-88040780D01*
X127517939Y-87993327D01*
X127544819Y-87953099D01*
X129662098Y-85835819D01*
X129702326Y-85808939D01*
X129749779Y-85799500D01*
X135003500Y-85799500D01*
X135065500Y-85816113D01*
X135110887Y-85861500D01*
X135127500Y-85923500D01*
X135127500Y-86423064D01*
X135118471Y-86469515D01*
X135092698Y-86509202D01*
X135053938Y-86536342D01*
X135015025Y-86553667D01*
X134929265Y-86591850D01*
X134776129Y-86703110D01*
X134649466Y-86843783D01*
X134554820Y-87007715D01*
X134496326Y-87187742D01*
X134476540Y-87376000D01*
X134496326Y-87564257D01*
X134554820Y-87744284D01*
X134649466Y-87908216D01*
X134776129Y-88048889D01*
X134929269Y-88160151D01*
X135102197Y-88237144D01*
X135287352Y-88276500D01*
X135287354Y-88276500D01*
X135476646Y-88276500D01*
X135476648Y-88276500D01*
X135639004Y-88241990D01*
X135661803Y-88237144D01*
X135834730Y-88160151D01*
X135858265Y-88143052D01*
X135987870Y-88048889D01*
X136114533Y-87908216D01*
X136209179Y-87744284D01*
X136217409Y-87718956D01*
X136267674Y-87564256D01*
X136287460Y-87376000D01*
X136267674Y-87187744D01*
X136209179Y-87007716D01*
X136209179Y-87007715D01*
X136114533Y-86843783D01*
X135987870Y-86703110D01*
X135834734Y-86591850D01*
X135761191Y-86559107D01*
X135710061Y-86536342D01*
X135671302Y-86509202D01*
X135645529Y-86469515D01*
X135636500Y-86423064D01*
X135636500Y-85923500D01*
X135653113Y-85861500D01*
X135698500Y-85816113D01*
X135760500Y-85799500D01*
X138587500Y-85799500D01*
X138649500Y-85816113D01*
X138694887Y-85861500D01*
X138711500Y-85923500D01*
X138711500Y-88419869D01*
X138713215Y-88435817D01*
X138717909Y-88479483D01*
X138768204Y-88614331D01*
X138854454Y-88729546D01*
X138969669Y-88815796D01*
X139104517Y-88866091D01*
X139164127Y-88872500D01*
X141759872Y-88872499D01*
X141819483Y-88866091D01*
X141954331Y-88815796D01*
X142069546Y-88729546D01*
X142140734Y-88634451D01*
X142184495Y-88597878D01*
X142240000Y-88584762D01*
X142295505Y-88597878D01*
X142339267Y-88634452D01*
X142410452Y-88729544D01*
X142410453Y-88729544D01*
X142410454Y-88729546D01*
X142525669Y-88815796D01*
X142660517Y-88866091D01*
X142720127Y-88872500D01*
X145315872Y-88872499D01*
X145375483Y-88866091D01*
X145510331Y-88815796D01*
X145625546Y-88729546D01*
X145696734Y-88634451D01*
X145740495Y-88597878D01*
X145796000Y-88584762D01*
X145851505Y-88597878D01*
X145895267Y-88634452D01*
X145966452Y-88729544D01*
X145966453Y-88729544D01*
X145966454Y-88729546D01*
X146081669Y-88815796D01*
X146216517Y-88866091D01*
X146276127Y-88872500D01*
X148871872Y-88872499D01*
X148931483Y-88866091D01*
X149066331Y-88815796D01*
X149181546Y-88729546D01*
X149267796Y-88614331D01*
X149318091Y-88479483D01*
X149324500Y-88419873D01*
X149324499Y-85923499D01*
X149341112Y-85861500D01*
X149386499Y-85816113D01*
X149448499Y-85799500D01*
X151936220Y-85799500D01*
X151983673Y-85808939D01*
X152023901Y-85835819D01*
X153067362Y-86879280D01*
X153100255Y-86938014D01*
X153097612Y-87005279D01*
X153038326Y-87187742D01*
X153018540Y-87376000D01*
X153038326Y-87564257D01*
X153096820Y-87744284D01*
X153191466Y-87908216D01*
X153318129Y-88048889D01*
X153471267Y-88160150D01*
X153515564Y-88179872D01*
X153609502Y-88221696D01*
X153655939Y-88257571D01*
X153680682Y-88310783D01*
X153684265Y-88328799D01*
X153684265Y-88328800D01*
X153684266Y-88328801D01*
X153726316Y-88391734D01*
X153726318Y-88391736D01*
X153733101Y-88401887D01*
X153733103Y-88401890D01*
X153740516Y-88412984D01*
X153751608Y-88420396D01*
X153770399Y-88435817D01*
X154972362Y-89637780D01*
X155005255Y-89696514D01*
X155002612Y-89763779D01*
X154943326Y-89946242D01*
X154923540Y-90134499D01*
X154943326Y-90322757D01*
X155005848Y-90515179D01*
X155001581Y-90516565D01*
X155011774Y-90547513D01*
X154997247Y-90612010D01*
X154951640Y-90659875D01*
X154887919Y-90677500D01*
X154116241Y-90677500D01*
X154065805Y-90666780D01*
X154024091Y-90636472D01*
X153998310Y-90591817D01*
X153989179Y-90563716D01*
X153894533Y-90399783D01*
X153767870Y-90259110D01*
X153614730Y-90147848D01*
X153441802Y-90070855D01*
X153256648Y-90031500D01*
X153256646Y-90031500D01*
X153067354Y-90031500D01*
X153067352Y-90031500D01*
X152882197Y-90070855D01*
X152709269Y-90147848D01*
X152556129Y-90259110D01*
X152429466Y-90399783D01*
X152334820Y-90563715D01*
X152276326Y-90743742D01*
X152256540Y-90932000D01*
X152276326Y-91120257D01*
X152334820Y-91300284D01*
X152429466Y-91464216D01*
X152556129Y-91604889D01*
X152709269Y-91716151D01*
X152882197Y-91793144D01*
X153067352Y-91832500D01*
X153067354Y-91832500D01*
X153256646Y-91832500D01*
X153256648Y-91832500D01*
X153380083Y-91806262D01*
X153441803Y-91793144D01*
X153614730Y-91716151D01*
X153767871Y-91604888D01*
X153894533Y-91464216D01*
X153989179Y-91300284D01*
X153998310Y-91272183D01*
X154024091Y-91227528D01*
X154065805Y-91197220D01*
X154116241Y-91186500D01*
X157193442Y-91186500D01*
X157240895Y-91195939D01*
X157281123Y-91222819D01*
X158532483Y-92474178D01*
X158565376Y-92532911D01*
X158562733Y-92600176D01*
X158503447Y-92782639D01*
X158483661Y-92970898D01*
X158503447Y-93159156D01*
X158561941Y-93339183D01*
X158656587Y-93503115D01*
X158783250Y-93643788D01*
X158936390Y-93755050D01*
X159109318Y-93832043D01*
X159294473Y-93871399D01*
X159294475Y-93871399D01*
X159483767Y-93871399D01*
X159483769Y-93871399D01*
X159616387Y-93843210D01*
X159668924Y-93832043D01*
X159841851Y-93755050D01*
X159841851Y-93755049D01*
X159994991Y-93643788D01*
X160035319Y-93599000D01*
X160121654Y-93503115D01*
X160216300Y-93339183D01*
X160225431Y-93311082D01*
X160251212Y-93266427D01*
X160292926Y-93236119D01*
X160343362Y-93225399D01*
X168357819Y-93225399D01*
X168382008Y-93227781D01*
X168395101Y-93230385D01*
X168471543Y-93215180D01*
X168494402Y-93210633D01*
X168516528Y-93195849D01*
X168516527Y-93195849D01*
X168516530Y-93195848D01*
X168574938Y-93156821D01*
X168574941Y-93156817D01*
X168578585Y-93154383D01*
X168585996Y-93143289D01*
X168601413Y-93124503D01*
X171083727Y-90642188D01*
X171124954Y-90614901D01*
X171173570Y-90605891D01*
X171221842Y-90616593D01*
X171297198Y-90650145D01*
X171482352Y-90689500D01*
X171482354Y-90689500D01*
X171671646Y-90689500D01*
X171671648Y-90689500D01*
X171811022Y-90659875D01*
X171856803Y-90650144D01*
X172029730Y-90573151D01*
X172182871Y-90461888D01*
X172309533Y-90321216D01*
X172404179Y-90157284D01*
X172462674Y-89977256D01*
X172482460Y-89789000D01*
X172462674Y-89600744D01*
X172417467Y-89461612D01*
X172404179Y-89420715D01*
X172309533Y-89256783D01*
X172182870Y-89116110D01*
X172176504Y-89111485D01*
X173802200Y-89111485D01*
X173842637Y-89275546D01*
X173921162Y-89425163D01*
X174033209Y-89551638D01*
X174172270Y-89647625D01*
X174232188Y-89670348D01*
X174330261Y-89707543D01*
X174455915Y-89722800D01*
X174540084Y-89722800D01*
X174540085Y-89722800D01*
X174665739Y-89707543D01*
X174823729Y-89647625D01*
X174962789Y-89551639D01*
X175074838Y-89425162D01*
X175153362Y-89275546D01*
X175193800Y-89111485D01*
X175193800Y-88942515D01*
X175158884Y-88800856D01*
X175153362Y-88778453D01*
X175074837Y-88628836D01*
X174962790Y-88502361D01*
X174823729Y-88406374D01*
X174665739Y-88346457D01*
X174665738Y-88346456D01*
X174540085Y-88331200D01*
X174455915Y-88331200D01*
X174393088Y-88338828D01*
X174330260Y-88346457D01*
X174172270Y-88406374D01*
X174033209Y-88502361D01*
X173921162Y-88628836D01*
X173842637Y-88778453D01*
X173802200Y-88942515D01*
X173802200Y-89111485D01*
X172176504Y-89111485D01*
X172029730Y-89004848D01*
X171856802Y-88927855D01*
X171671648Y-88888500D01*
X171671646Y-88888500D01*
X171482354Y-88888500D01*
X171482352Y-88888500D01*
X171297197Y-88927855D01*
X171124269Y-89004848D01*
X170971129Y-89116110D01*
X170844466Y-89256783D01*
X170749820Y-89420715D01*
X170691326Y-89600742D01*
X170671540Y-89789000D01*
X170691326Y-89977257D01*
X170750612Y-90159720D01*
X170753255Y-90226985D01*
X170720362Y-90285719D01*
X168326002Y-92680080D01*
X168285774Y-92706960D01*
X168238321Y-92716399D01*
X160343362Y-92716399D01*
X160292926Y-92705679D01*
X160251212Y-92675371D01*
X160225431Y-92630716D01*
X160216300Y-92602615D01*
X160121654Y-92438682D01*
X159994991Y-92298009D01*
X159841851Y-92186747D01*
X159668923Y-92109754D01*
X159483769Y-92070399D01*
X159483767Y-92070399D01*
X159294475Y-92070399D01*
X159294473Y-92070399D01*
X159109318Y-92109754D01*
X159033963Y-92143305D01*
X158985691Y-92154007D01*
X158937076Y-92144997D01*
X158895846Y-92117707D01*
X158242355Y-91464216D01*
X157556539Y-90778399D01*
X157541118Y-90759608D01*
X157533706Y-90748516D01*
X157522612Y-90741103D01*
X157522610Y-90741101D01*
X157512457Y-90734317D01*
X157512456Y-90734316D01*
X157449523Y-90692266D01*
X157350222Y-90672514D01*
X157350221Y-90672514D01*
X157337129Y-90675118D01*
X157312940Y-90677500D01*
X156770081Y-90677500D01*
X156706360Y-90659875D01*
X156660753Y-90612010D01*
X156646226Y-90547513D01*
X156656418Y-90516565D01*
X156652152Y-90515179D01*
X156689646Y-90399783D01*
X156714674Y-90322756D01*
X156734460Y-90134500D01*
X156714674Y-89946244D01*
X156663582Y-89789000D01*
X164992040Y-89789000D01*
X165011826Y-89977257D01*
X165070320Y-90157284D01*
X165164966Y-90321216D01*
X165291629Y-90461889D01*
X165444769Y-90573151D01*
X165617697Y-90650144D01*
X165802852Y-90689500D01*
X165802854Y-90689500D01*
X165992146Y-90689500D01*
X165992148Y-90689500D01*
X166131522Y-90659875D01*
X166177303Y-90650144D01*
X166350230Y-90573151D01*
X166503371Y-90461888D01*
X166630033Y-90321216D01*
X166724679Y-90157284D01*
X166775075Y-90002181D01*
X166800856Y-89957528D01*
X166842571Y-89927220D01*
X166893006Y-89916500D01*
X167066759Y-89916500D01*
X167117195Y-89927220D01*
X167158909Y-89957528D01*
X167184690Y-90002183D01*
X167193820Y-90030283D01*
X167288466Y-90194216D01*
X167415129Y-90334889D01*
X167568269Y-90446151D01*
X167741197Y-90523144D01*
X167926352Y-90562500D01*
X167926354Y-90562500D01*
X168115646Y-90562500D01*
X168115648Y-90562500D01*
X168239083Y-90536262D01*
X168300803Y-90523144D01*
X168473730Y-90446151D01*
X168626871Y-90334888D01*
X168753533Y-90194216D01*
X168848179Y-90030284D01*
X168906674Y-89850256D01*
X168926460Y-89662000D01*
X168906674Y-89473744D01*
X168866580Y-89350348D01*
X168848179Y-89293715D01*
X168753533Y-89129783D01*
X168626870Y-88989110D01*
X168473730Y-88877848D01*
X168300802Y-88800855D01*
X168115648Y-88761500D01*
X168115646Y-88761500D01*
X167926354Y-88761500D01*
X167926352Y-88761500D01*
X167741197Y-88800855D01*
X167568269Y-88877848D01*
X167415129Y-88989110D01*
X167288466Y-89129783D01*
X167193820Y-89293716D01*
X167184690Y-89321817D01*
X167158909Y-89366472D01*
X167117195Y-89396780D01*
X167066759Y-89407500D01*
X166788640Y-89407500D01*
X166726640Y-89390887D01*
X166681253Y-89345500D01*
X166630033Y-89256784D01*
X166630032Y-89256782D01*
X166503370Y-89116110D01*
X166350230Y-89004848D01*
X166177302Y-88927855D01*
X165992148Y-88888500D01*
X165992146Y-88888500D01*
X165802854Y-88888500D01*
X165802852Y-88888500D01*
X165617697Y-88927855D01*
X165444769Y-89004848D01*
X165291629Y-89116110D01*
X165164966Y-89256783D01*
X165070320Y-89420715D01*
X165011826Y-89600742D01*
X164992040Y-89789000D01*
X156663582Y-89789000D01*
X156656179Y-89766216D01*
X156656179Y-89766215D01*
X156561533Y-89602283D01*
X156434870Y-89461610D01*
X156281730Y-89350348D01*
X156108802Y-89273355D01*
X155923648Y-89234000D01*
X155923646Y-89234000D01*
X155734354Y-89234000D01*
X155734352Y-89234000D01*
X155549198Y-89273354D01*
X155473841Y-89306906D01*
X155425570Y-89317607D01*
X155376955Y-89308597D01*
X155335725Y-89281307D01*
X154385469Y-88331051D01*
X154356814Y-88286288D01*
X154349532Y-88233641D01*
X154364961Y-88182781D01*
X154400265Y-88143052D01*
X154465735Y-88095485D01*
X168722200Y-88095485D01*
X168762637Y-88259546D01*
X168841162Y-88409163D01*
X168953209Y-88535638D01*
X169092270Y-88631625D01*
X169152188Y-88654348D01*
X169250261Y-88691543D01*
X169375915Y-88706800D01*
X169460084Y-88706800D01*
X169460085Y-88706800D01*
X169585739Y-88691543D01*
X169743729Y-88631625D01*
X169882789Y-88535639D01*
X169994838Y-88409162D01*
X170073362Y-88259546D01*
X170113800Y-88095485D01*
X170113800Y-87926515D01*
X170078845Y-87784699D01*
X170073362Y-87762453D01*
X169994837Y-87612836D01*
X169882790Y-87486361D01*
X169743729Y-87390374D01*
X169585739Y-87330457D01*
X169585738Y-87330456D01*
X169460085Y-87315200D01*
X169375915Y-87315200D01*
X169313088Y-87322828D01*
X169250260Y-87330457D01*
X169092270Y-87390374D01*
X168953209Y-87486361D01*
X168841162Y-87612836D01*
X168762637Y-87762453D01*
X168722200Y-87926515D01*
X168722200Y-88095485D01*
X154465735Y-88095485D01*
X154529871Y-88048888D01*
X154656533Y-87908216D01*
X154751179Y-87744284D01*
X154809674Y-87564256D01*
X154829460Y-87376000D01*
X154809674Y-87187744D01*
X154774498Y-87079485D01*
X173802200Y-87079485D01*
X173842637Y-87243546D01*
X173921162Y-87393163D01*
X174033209Y-87519638D01*
X174172270Y-87615625D01*
X174232188Y-87638348D01*
X174330261Y-87675543D01*
X174455915Y-87690800D01*
X174540084Y-87690800D01*
X174540085Y-87690800D01*
X174665739Y-87675543D01*
X174823729Y-87615625D01*
X174962789Y-87519639D01*
X175074838Y-87393162D01*
X175153362Y-87243546D01*
X175193800Y-87079485D01*
X175193800Y-86910515D01*
X175166636Y-86800307D01*
X175153362Y-86746453D01*
X175074837Y-86596836D01*
X174962790Y-86470361D01*
X174823729Y-86374374D01*
X174665739Y-86314457D01*
X174540085Y-86299200D01*
X174455915Y-86299200D01*
X174393087Y-86306828D01*
X174330260Y-86314457D01*
X174172270Y-86374374D01*
X174033209Y-86470361D01*
X173921162Y-86596836D01*
X173842637Y-86746453D01*
X173802200Y-86910515D01*
X173802200Y-87079485D01*
X154774498Y-87079485D01*
X154751179Y-87007716D01*
X154751179Y-87007715D01*
X154656533Y-86843783D01*
X154529870Y-86703110D01*
X154376730Y-86591848D01*
X154203802Y-86514855D01*
X154018648Y-86475500D01*
X154018646Y-86475500D01*
X153829354Y-86475500D01*
X153829352Y-86475500D01*
X153644198Y-86514854D01*
X153568841Y-86548406D01*
X153520570Y-86559107D01*
X153471955Y-86550097D01*
X153430725Y-86522807D01*
X152299317Y-85391399D01*
X152283896Y-85372608D01*
X152276484Y-85361516D01*
X152265390Y-85354103D01*
X152265388Y-85354101D01*
X152255235Y-85347317D01*
X152255234Y-85347316D01*
X152192301Y-85305266D01*
X152093000Y-85285514D01*
X152092999Y-85285514D01*
X152079907Y-85288118D01*
X152055718Y-85290500D01*
X129630282Y-85290500D01*
X129606093Y-85288118D01*
X129592999Y-85285513D01*
X129493700Y-85305265D01*
X129437241Y-85342990D01*
X129437239Y-85342991D01*
X129409514Y-85361516D01*
X129402099Y-85372614D01*
X129386680Y-85391401D01*
X127100398Y-87677682D01*
X127081611Y-87693101D01*
X127070515Y-87700515D01*
X127058197Y-87718950D01*
X127058193Y-87718956D01*
X127028595Y-87763255D01*
X127028592Y-87763257D01*
X127014266Y-87784697D01*
X127002485Y-87843929D01*
X126994514Y-87883999D01*
X126997118Y-87897092D01*
X126999500Y-87921281D01*
X126999500Y-96075064D01*
X126990471Y-96121515D01*
X126964698Y-96161202D01*
X126925938Y-96188342D01*
X126889105Y-96204742D01*
X126801265Y-96243850D01*
X126648129Y-96355110D01*
X126521466Y-96495783D01*
X126426820Y-96659715D01*
X126368326Y-96839742D01*
X126348540Y-97028000D01*
X123714460Y-97028000D01*
X123694674Y-96839744D01*
X123637035Y-96662349D01*
X123636179Y-96659715D01*
X123541533Y-96495783D01*
X123414870Y-96355110D01*
X123261730Y-96243848D01*
X123088802Y-96166855D01*
X122903648Y-96127500D01*
X122903646Y-96127500D01*
X122888956Y-96127500D01*
X122826956Y-96110887D01*
X122781569Y-96065500D01*
X122709897Y-95941359D01*
X122583234Y-95800686D01*
X122430094Y-95689424D01*
X122257166Y-95612431D01*
X122072012Y-95573076D01*
X122072010Y-95573076D01*
X121882718Y-95573076D01*
X121882716Y-95573076D01*
X121697563Y-95612430D01*
X121551544Y-95677443D01*
X121492459Y-95687861D01*
X121435399Y-95669321D01*
X121393722Y-95626163D01*
X121382533Y-95606783D01*
X121255870Y-95466110D01*
X121102730Y-95354848D01*
X120929802Y-95277855D01*
X120744648Y-95238500D01*
X120744646Y-95238500D01*
X120558780Y-95238500D01*
X120502485Y-95224985D01*
X120458462Y-95187385D01*
X120436307Y-95133898D01*
X120440849Y-95076182D01*
X120471099Y-95026819D01*
X120858264Y-94639653D01*
X121045728Y-94452188D01*
X121086955Y-94424901D01*
X121135571Y-94415891D01*
X121183838Y-94426592D01*
X121251659Y-94456788D01*
X121259199Y-94460145D01*
X121444352Y-94499500D01*
X121444354Y-94499500D01*
X121633646Y-94499500D01*
X121633648Y-94499500D01*
X121778070Y-94468802D01*
X121818803Y-94460144D01*
X121991730Y-94383151D01*
X122070720Y-94325762D01*
X122144870Y-94271889D01*
X122271533Y-94131216D01*
X122366179Y-93967284D01*
X122400272Y-93862356D01*
X122424674Y-93787256D01*
X122444460Y-93599000D01*
X122424674Y-93410744D01*
X122366179Y-93230716D01*
X122366179Y-93230715D01*
X122271533Y-93066783D01*
X122144870Y-92926110D01*
X121991730Y-92814848D01*
X121818802Y-92737855D01*
X121633648Y-92698500D01*
X121633646Y-92698500D01*
X121444354Y-92698500D01*
X121444352Y-92698500D01*
X121259197Y-92737855D01*
X121086269Y-92814848D01*
X120933129Y-92926110D01*
X120806466Y-93066783D01*
X120711820Y-93230715D01*
X120653326Y-93410742D01*
X120633540Y-93599000D01*
X120653326Y-93787257D01*
X120712612Y-93969719D01*
X120715255Y-94036984D01*
X120682362Y-94095718D01*
X119554902Y-95223178D01*
X119536115Y-95238597D01*
X119525019Y-95246011D01*
X119512699Y-95264449D01*
X119512696Y-95264454D01*
X119468769Y-95330195D01*
X119466989Y-95336062D01*
X119466388Y-95342171D01*
X119455604Y-95396388D01*
X119455603Y-95396389D01*
X119449017Y-95429494D01*
X119451622Y-95442588D01*
X119454004Y-95466777D01*
X119454004Y-96737501D01*
X119437391Y-96799501D01*
X119392004Y-96844888D01*
X119330004Y-96861501D01*
X118410632Y-96861501D01*
X118380826Y-96864704D01*
X118351019Y-96867909D01*
X118216173Y-96918204D01*
X118100958Y-97004454D01*
X118014708Y-97119668D01*
X117964413Y-97254516D01*
X117958004Y-97314130D01*
X117958004Y-99909869D01*
X117239551Y-99909869D01*
X117239551Y-90571869D01*
X117982004Y-90571869D01*
X117988413Y-90631484D01*
X118004688Y-90675118D01*
X118038708Y-90766331D01*
X118124958Y-90881546D01*
X118240173Y-90967796D01*
X118375021Y-91018091D01*
X118434631Y-91024500D01*
X121030376Y-91024499D01*
X121089987Y-91018091D01*
X121224835Y-90967796D01*
X121340050Y-90881546D01*
X121426300Y-90766331D01*
X121476595Y-90631483D01*
X121483004Y-90571873D01*
X121483003Y-87976128D01*
X121476595Y-87916517D01*
X121426300Y-87781669D01*
X121340050Y-87666454D01*
X121224835Y-87580204D01*
X121089987Y-87529909D01*
X121030377Y-87523500D01*
X121030373Y-87523500D01*
X118434634Y-87523500D01*
X118375019Y-87529909D01*
X118240173Y-87580204D01*
X118124958Y-87666454D01*
X118038708Y-87781668D01*
X117988413Y-87916516D01*
X117982004Y-87976130D01*
X117982004Y-90571869D01*
X117239551Y-90571869D01*
X117239551Y-87524533D01*
X117239746Y-87517579D01*
X117246040Y-87405533D01*
X117256256Y-87236697D01*
X117257777Y-87223455D01*
X117280248Y-87091217D01*
X117280436Y-87090153D01*
X117307066Y-86944851D01*
X117309877Y-86932895D01*
X117335550Y-86843784D01*
X117348088Y-86800264D01*
X117348806Y-86797867D01*
X117391491Y-86660891D01*
X117395296Y-86650385D01*
X117448771Y-86521289D01*
X117450193Y-86517996D01*
X117508366Y-86388745D01*
X117512883Y-86379716D01*
X117580910Y-86256633D01*
X117583219Y-86252641D01*
X117656140Y-86132015D01*
X117661052Y-86124525D01*
X117742701Y-86009452D01*
X117746104Y-86004891D01*
X117832767Y-85894275D01*
X117837854Y-85888196D01*
X117931971Y-85782880D01*
X117936663Y-85777918D01*
X118035918Y-85678663D01*
X118040880Y-85673971D01*
X118146196Y-85579854D01*
X118152275Y-85574767D01*
X118262891Y-85488104D01*
X118267452Y-85484701D01*
X118382525Y-85403052D01*
X118390015Y-85398140D01*
X118510641Y-85325219D01*
X118514633Y-85322910D01*
X118637716Y-85254883D01*
X118646745Y-85250366D01*
X118775996Y-85192193D01*
X118779289Y-85190771D01*
X118908385Y-85137296D01*
X118918891Y-85133491D01*
X119055867Y-85090806D01*
X119058264Y-85090088D01*
X119190895Y-85051876D01*
X119202851Y-85049066D01*
X119348153Y-85022436D01*
X119349217Y-85022248D01*
X119481455Y-84999777D01*
X119494697Y-84998256D01*
X119663533Y-84988040D01*
X119775580Y-84981745D01*
X119782533Y-84981551D01*
X174730467Y-84981551D01*
X174737419Y-84981745D01*
G37*
%TD.AperFunction*%
%TD*%
M02*
