%TF.GenerationSoftware,KiCad,Pcbnew,7.0.1*%
%TF.CreationDate,2024-08-13T13:18:48+02:00*%
%TF.ProjectId,driver_prereg_combined,64726976-6572-45f7-9072-657265675f63,rev?*%
%TF.SameCoordinates,Original*%
%TF.FileFunction,Legend,Bot*%
%TF.FilePolarity,Positive*%
%FSLAX46Y46*%
G04 Gerber Fmt 4.6, Leading zero omitted, Abs format (unit mm)*
G04 Created by KiCad (PCBNEW 7.0.1) date 2024-08-13 13:18:48*
%MOMM*%
%LPD*%
G01*
G04 APERTURE LIST*
%ADD10C,0.125000*%
%ADD11C,0.100000*%
%ADD12C,0.120000*%
%ADD13C,0.010000*%
G04 APERTURE END LIST*
D10*
%TO.C,JP2*%
X151023666Y-111767309D02*
X151023666Y-112124452D01*
X151023666Y-112124452D02*
X151047475Y-112195880D01*
X151047475Y-112195880D02*
X151095094Y-112243500D01*
X151095094Y-112243500D02*
X151166523Y-112267309D01*
X151166523Y-112267309D02*
X151214142Y-112267309D01*
X150785571Y-112267309D02*
X150785571Y-111767309D01*
X150785571Y-111767309D02*
X150595095Y-111767309D01*
X150595095Y-111767309D02*
X150547476Y-111791119D01*
X150547476Y-111791119D02*
X150523666Y-111814928D01*
X150523666Y-111814928D02*
X150499857Y-111862547D01*
X150499857Y-111862547D02*
X150499857Y-111933976D01*
X150499857Y-111933976D02*
X150523666Y-111981595D01*
X150523666Y-111981595D02*
X150547476Y-112005404D01*
X150547476Y-112005404D02*
X150595095Y-112029214D01*
X150595095Y-112029214D02*
X150785571Y-112029214D01*
X150309380Y-111814928D02*
X150285571Y-111791119D01*
X150285571Y-111791119D02*
X150237952Y-111767309D01*
X150237952Y-111767309D02*
X150118904Y-111767309D01*
X150118904Y-111767309D02*
X150071285Y-111791119D01*
X150071285Y-111791119D02*
X150047476Y-111814928D01*
X150047476Y-111814928D02*
X150023666Y-111862547D01*
X150023666Y-111862547D02*
X150023666Y-111910166D01*
X150023666Y-111910166D02*
X150047476Y-111981595D01*
X150047476Y-111981595D02*
X150333190Y-112267309D01*
X150333190Y-112267309D02*
X150023666Y-112267309D01*
%TO.C,TP14*%
X175621046Y-99426309D02*
X175335332Y-99426309D01*
X175478189Y-99926309D02*
X175478189Y-99426309D01*
X175168666Y-99926309D02*
X175168666Y-99426309D01*
X175168666Y-99426309D02*
X174978190Y-99426309D01*
X174978190Y-99426309D02*
X174930571Y-99450119D01*
X174930571Y-99450119D02*
X174906761Y-99473928D01*
X174906761Y-99473928D02*
X174882952Y-99521547D01*
X174882952Y-99521547D02*
X174882952Y-99592976D01*
X174882952Y-99592976D02*
X174906761Y-99640595D01*
X174906761Y-99640595D02*
X174930571Y-99664404D01*
X174930571Y-99664404D02*
X174978190Y-99688214D01*
X174978190Y-99688214D02*
X175168666Y-99688214D01*
X174406761Y-99926309D02*
X174692475Y-99926309D01*
X174549618Y-99926309D02*
X174549618Y-99426309D01*
X174549618Y-99426309D02*
X174597237Y-99497738D01*
X174597237Y-99497738D02*
X174644856Y-99545357D01*
X174644856Y-99545357D02*
X174692475Y-99569166D01*
X173978190Y-99592976D02*
X173978190Y-99926309D01*
X174097238Y-99402500D02*
X174216285Y-99759642D01*
X174216285Y-99759642D02*
X173906762Y-99759642D01*
%TO.C,TP15*%
X175621046Y-91436309D02*
X175335332Y-91436309D01*
X175478189Y-91936309D02*
X175478189Y-91436309D01*
X175168666Y-91936309D02*
X175168666Y-91436309D01*
X175168666Y-91436309D02*
X174978190Y-91436309D01*
X174978190Y-91436309D02*
X174930571Y-91460119D01*
X174930571Y-91460119D02*
X174906761Y-91483928D01*
X174906761Y-91483928D02*
X174882952Y-91531547D01*
X174882952Y-91531547D02*
X174882952Y-91602976D01*
X174882952Y-91602976D02*
X174906761Y-91650595D01*
X174906761Y-91650595D02*
X174930571Y-91674404D01*
X174930571Y-91674404D02*
X174978190Y-91698214D01*
X174978190Y-91698214D02*
X175168666Y-91698214D01*
X174406761Y-91936309D02*
X174692475Y-91936309D01*
X174549618Y-91936309D02*
X174549618Y-91436309D01*
X174549618Y-91436309D02*
X174597237Y-91507738D01*
X174597237Y-91507738D02*
X174644856Y-91555357D01*
X174644856Y-91555357D02*
X174692475Y-91579166D01*
X173954381Y-91436309D02*
X174192476Y-91436309D01*
X174192476Y-91436309D02*
X174216285Y-91674404D01*
X174216285Y-91674404D02*
X174192476Y-91650595D01*
X174192476Y-91650595D02*
X174144857Y-91626785D01*
X174144857Y-91626785D02*
X174025809Y-91626785D01*
X174025809Y-91626785D02*
X173978190Y-91650595D01*
X173978190Y-91650595D02*
X173954381Y-91674404D01*
X173954381Y-91674404D02*
X173930571Y-91722023D01*
X173930571Y-91722023D02*
X173930571Y-91841071D01*
X173930571Y-91841071D02*
X173954381Y-91888690D01*
X173954381Y-91888690D02*
X173978190Y-91912500D01*
X173978190Y-91912500D02*
X174025809Y-91936309D01*
X174025809Y-91936309D02*
X174144857Y-91936309D01*
X174144857Y-91936309D02*
X174192476Y-91912500D01*
X174192476Y-91912500D02*
X174216285Y-91888690D01*
%TO.C,TP13*%
X166096046Y-100199309D02*
X165810332Y-100199309D01*
X165953189Y-100699309D02*
X165953189Y-100199309D01*
X165643666Y-100699309D02*
X165643666Y-100199309D01*
X165643666Y-100199309D02*
X165453190Y-100199309D01*
X165453190Y-100199309D02*
X165405571Y-100223119D01*
X165405571Y-100223119D02*
X165381761Y-100246928D01*
X165381761Y-100246928D02*
X165357952Y-100294547D01*
X165357952Y-100294547D02*
X165357952Y-100365976D01*
X165357952Y-100365976D02*
X165381761Y-100413595D01*
X165381761Y-100413595D02*
X165405571Y-100437404D01*
X165405571Y-100437404D02*
X165453190Y-100461214D01*
X165453190Y-100461214D02*
X165643666Y-100461214D01*
X164881761Y-100699309D02*
X165167475Y-100699309D01*
X165024618Y-100699309D02*
X165024618Y-100199309D01*
X165024618Y-100199309D02*
X165072237Y-100270738D01*
X165072237Y-100270738D02*
X165119856Y-100318357D01*
X165119856Y-100318357D02*
X165167475Y-100342166D01*
X164715095Y-100199309D02*
X164405571Y-100199309D01*
X164405571Y-100199309D02*
X164572238Y-100389785D01*
X164572238Y-100389785D02*
X164500809Y-100389785D01*
X164500809Y-100389785D02*
X164453190Y-100413595D01*
X164453190Y-100413595D02*
X164429381Y-100437404D01*
X164429381Y-100437404D02*
X164405571Y-100485023D01*
X164405571Y-100485023D02*
X164405571Y-100604071D01*
X164405571Y-100604071D02*
X164429381Y-100651690D01*
X164429381Y-100651690D02*
X164453190Y-100675500D01*
X164453190Y-100675500D02*
X164500809Y-100699309D01*
X164500809Y-100699309D02*
X164643666Y-100699309D01*
X164643666Y-100699309D02*
X164691285Y-100675500D01*
X164691285Y-100675500D02*
X164715095Y-100651690D01*
D11*
%TO.C,U8*%
X132953190Y-118130619D02*
X132953190Y-118844904D01*
X132953190Y-118844904D02*
X133000809Y-118987761D01*
X133000809Y-118987761D02*
X133096047Y-119083000D01*
X133096047Y-119083000D02*
X133238904Y-119130619D01*
X133238904Y-119130619D02*
X133334142Y-119130619D01*
X132334142Y-119130619D02*
X132429380Y-119083000D01*
X132429380Y-119083000D02*
X132476999Y-119035380D01*
X132476999Y-119035380D02*
X132524618Y-118940142D01*
X132524618Y-118940142D02*
X132524618Y-118654428D01*
X132524618Y-118654428D02*
X132476999Y-118559190D01*
X132476999Y-118559190D02*
X132429380Y-118511571D01*
X132429380Y-118511571D02*
X132334142Y-118463952D01*
X132334142Y-118463952D02*
X132191285Y-118463952D01*
X132191285Y-118463952D02*
X132096047Y-118511571D01*
X132096047Y-118511571D02*
X132048428Y-118559190D01*
X132048428Y-118559190D02*
X132000809Y-118654428D01*
X132000809Y-118654428D02*
X132000809Y-118940142D01*
X132000809Y-118940142D02*
X132048428Y-119035380D01*
X132048428Y-119035380D02*
X132096047Y-119083000D01*
X132096047Y-119083000D02*
X132191285Y-119130619D01*
X132191285Y-119130619D02*
X132334142Y-119130619D01*
X131572237Y-118463952D02*
X131572237Y-119130619D01*
X131572237Y-118559190D02*
X131524618Y-118511571D01*
X131524618Y-118511571D02*
X131429380Y-118463952D01*
X131429380Y-118463952D02*
X131286523Y-118463952D01*
X131286523Y-118463952D02*
X131191285Y-118511571D01*
X131191285Y-118511571D02*
X131143666Y-118606809D01*
X131143666Y-118606809D02*
X131143666Y-119130619D01*
X130238904Y-119130619D02*
X130238904Y-118606809D01*
X130238904Y-118606809D02*
X130286523Y-118511571D01*
X130286523Y-118511571D02*
X130381761Y-118463952D01*
X130381761Y-118463952D02*
X130572237Y-118463952D01*
X130572237Y-118463952D02*
X130667475Y-118511571D01*
X130238904Y-119083000D02*
X130334142Y-119130619D01*
X130334142Y-119130619D02*
X130572237Y-119130619D01*
X130572237Y-119130619D02*
X130667475Y-119083000D01*
X130667475Y-119083000D02*
X130715094Y-118987761D01*
X130715094Y-118987761D02*
X130715094Y-118892523D01*
X130715094Y-118892523D02*
X130667475Y-118797285D01*
X130667475Y-118797285D02*
X130572237Y-118749666D01*
X130572237Y-118749666D02*
X130334142Y-118749666D01*
X130334142Y-118749666D02*
X130238904Y-118702047D01*
X128429380Y-119035380D02*
X128476999Y-119083000D01*
X128476999Y-119083000D02*
X128619856Y-119130619D01*
X128619856Y-119130619D02*
X128715094Y-119130619D01*
X128715094Y-119130619D02*
X128857951Y-119083000D01*
X128857951Y-119083000D02*
X128953189Y-118987761D01*
X128953189Y-118987761D02*
X129000808Y-118892523D01*
X129000808Y-118892523D02*
X129048427Y-118702047D01*
X129048427Y-118702047D02*
X129048427Y-118559190D01*
X129048427Y-118559190D02*
X129000808Y-118368714D01*
X129000808Y-118368714D02*
X128953189Y-118273476D01*
X128953189Y-118273476D02*
X128857951Y-118178238D01*
X128857951Y-118178238D02*
X128715094Y-118130619D01*
X128715094Y-118130619D02*
X128619856Y-118130619D01*
X128619856Y-118130619D02*
X128476999Y-118178238D01*
X128476999Y-118178238D02*
X128429380Y-118225857D01*
X127572237Y-119130619D02*
X127572237Y-118606809D01*
X127572237Y-118606809D02*
X127619856Y-118511571D01*
X127619856Y-118511571D02*
X127715094Y-118463952D01*
X127715094Y-118463952D02*
X127905570Y-118463952D01*
X127905570Y-118463952D02*
X128000808Y-118511571D01*
X127572237Y-119083000D02*
X127667475Y-119130619D01*
X127667475Y-119130619D02*
X127905570Y-119130619D01*
X127905570Y-119130619D02*
X128000808Y-119083000D01*
X128000808Y-119083000D02*
X128048427Y-118987761D01*
X128048427Y-118987761D02*
X128048427Y-118892523D01*
X128048427Y-118892523D02*
X128000808Y-118797285D01*
X128000808Y-118797285D02*
X127905570Y-118749666D01*
X127905570Y-118749666D02*
X127667475Y-118749666D01*
X127667475Y-118749666D02*
X127572237Y-118702047D01*
X127096046Y-118463952D02*
X127096046Y-119463952D01*
X127096046Y-118511571D02*
X127000808Y-118463952D01*
X127000808Y-118463952D02*
X126810332Y-118463952D01*
X126810332Y-118463952D02*
X126715094Y-118511571D01*
X126715094Y-118511571D02*
X126667475Y-118559190D01*
X126667475Y-118559190D02*
X126619856Y-118654428D01*
X126619856Y-118654428D02*
X126619856Y-118940142D01*
X126619856Y-118940142D02*
X126667475Y-119035380D01*
X126667475Y-119035380D02*
X126715094Y-119083000D01*
X126715094Y-119083000D02*
X126810332Y-119130619D01*
X126810332Y-119130619D02*
X127000808Y-119130619D01*
X127000808Y-119130619D02*
X127096046Y-119083000D01*
X126191284Y-118463952D02*
X126191284Y-119463952D01*
X126191284Y-118511571D02*
X126096046Y-118463952D01*
X126096046Y-118463952D02*
X125905570Y-118463952D01*
X125905570Y-118463952D02*
X125810332Y-118511571D01*
X125810332Y-118511571D02*
X125762713Y-118559190D01*
X125762713Y-118559190D02*
X125715094Y-118654428D01*
X125715094Y-118654428D02*
X125715094Y-118940142D01*
X125715094Y-118940142D02*
X125762713Y-119035380D01*
X125762713Y-119035380D02*
X125810332Y-119083000D01*
X125810332Y-119083000D02*
X125905570Y-119130619D01*
X125905570Y-119130619D02*
X126096046Y-119130619D01*
X126096046Y-119130619D02*
X126191284Y-119083000D01*
X124905570Y-119083000D02*
X125000808Y-119130619D01*
X125000808Y-119130619D02*
X125191284Y-119130619D01*
X125191284Y-119130619D02*
X125286522Y-119083000D01*
X125286522Y-119083000D02*
X125334141Y-118987761D01*
X125334141Y-118987761D02*
X125334141Y-118606809D01*
X125334141Y-118606809D02*
X125286522Y-118511571D01*
X125286522Y-118511571D02*
X125191284Y-118463952D01*
X125191284Y-118463952D02*
X125000808Y-118463952D01*
X125000808Y-118463952D02*
X124905570Y-118511571D01*
X124905570Y-118511571D02*
X124857951Y-118606809D01*
X124857951Y-118606809D02*
X124857951Y-118702047D01*
X124857951Y-118702047D02*
X125334141Y-118797285D01*
X124286522Y-119130619D02*
X124381760Y-119083000D01*
X124381760Y-119083000D02*
X124429379Y-118987761D01*
X124429379Y-118987761D02*
X124429379Y-118130619D01*
X123762712Y-119130619D02*
X123857950Y-119083000D01*
X123857950Y-119083000D02*
X123905569Y-118987761D01*
X123905569Y-118987761D02*
X123905569Y-118130619D01*
X123000807Y-119083000D02*
X123096045Y-119130619D01*
X123096045Y-119130619D02*
X123286521Y-119130619D01*
X123286521Y-119130619D02*
X123381759Y-119083000D01*
X123381759Y-119083000D02*
X123429378Y-118987761D01*
X123429378Y-118987761D02*
X123429378Y-118606809D01*
X123429378Y-118606809D02*
X123381759Y-118511571D01*
X123381759Y-118511571D02*
X123286521Y-118463952D01*
X123286521Y-118463952D02*
X123096045Y-118463952D01*
X123096045Y-118463952D02*
X123000807Y-118511571D01*
X123000807Y-118511571D02*
X122953188Y-118606809D01*
X122953188Y-118606809D02*
X122953188Y-118702047D01*
X122953188Y-118702047D02*
X123429378Y-118797285D01*
D10*
%TO.C,JP4*%
X148625666Y-93203309D02*
X148625666Y-93560452D01*
X148625666Y-93560452D02*
X148649475Y-93631880D01*
X148649475Y-93631880D02*
X148697094Y-93679500D01*
X148697094Y-93679500D02*
X148768523Y-93703309D01*
X148768523Y-93703309D02*
X148816142Y-93703309D01*
X148387571Y-93703309D02*
X148387571Y-93203309D01*
X148387571Y-93203309D02*
X148197095Y-93203309D01*
X148197095Y-93203309D02*
X148149476Y-93227119D01*
X148149476Y-93227119D02*
X148125666Y-93250928D01*
X148125666Y-93250928D02*
X148101857Y-93298547D01*
X148101857Y-93298547D02*
X148101857Y-93369976D01*
X148101857Y-93369976D02*
X148125666Y-93417595D01*
X148125666Y-93417595D02*
X148149476Y-93441404D01*
X148149476Y-93441404D02*
X148197095Y-93465214D01*
X148197095Y-93465214D02*
X148387571Y-93465214D01*
X147673285Y-93369976D02*
X147673285Y-93703309D01*
X147792333Y-93179500D02*
X147911380Y-93536642D01*
X147911380Y-93536642D02*
X147601857Y-93536642D01*
D12*
%TO.C,JP2*%
X149207000Y-109936000D02*
X149207000Y-110536000D01*
X149907000Y-111236000D02*
X151307000Y-111236000D01*
X151307000Y-109236000D02*
X149907000Y-109236000D01*
X152007000Y-110536000D02*
X152007000Y-109936000D01*
X149907000Y-109236000D02*
G75*
G03*
X149207000Y-109936000I-1J-699999D01*
G01*
X149207000Y-110536000D02*
G75*
G03*
X149907000Y-111236000I699999J-1D01*
G01*
X152007000Y-109936000D02*
G75*
G03*
X151307000Y-109236000I-700000J0D01*
G01*
X151307000Y-111236000D02*
G75*
G03*
X152007000Y-110536000I0J700000D01*
G01*
%TO.C,TP14*%
X176202000Y-98859000D02*
X176202000Y-95959000D01*
X176202000Y-95959000D02*
X173302000Y-95959000D01*
X173302000Y-98859000D02*
X176202000Y-98859000D01*
X173302000Y-95959000D02*
X173302000Y-98859000D01*
%TO.C,TP15*%
X176202000Y-95303000D02*
X176202000Y-92403000D01*
X176202000Y-92403000D02*
X173302000Y-92403000D01*
X173302000Y-95303000D02*
X176202000Y-95303000D01*
X173302000Y-92403000D02*
X173302000Y-95303000D01*
%TO.C,TP13*%
X166677000Y-104066000D02*
X166677000Y-101166000D01*
X166677000Y-101166000D02*
X163777000Y-101166000D01*
X163777000Y-104066000D02*
X166677000Y-104066000D01*
X163777000Y-101166000D02*
X163777000Y-104066000D01*
%TO.C,U9*%
D13*
X128550268Y-115192201D02*
X128552447Y-115195437D01*
X128565925Y-115223712D01*
X128583050Y-115270405D01*
X128603253Y-115333585D01*
X128625964Y-115411321D01*
X128650617Y-115501683D01*
X128676643Y-115602741D01*
X128703472Y-115712564D01*
X128710750Y-115742995D01*
X128740432Y-115864323D01*
X128768355Y-115973979D01*
X128793916Y-116069689D01*
X128816510Y-116149183D01*
X128835536Y-116210188D01*
X128838481Y-116220197D01*
X128836027Y-116221714D01*
X128823488Y-116206543D01*
X128802089Y-116176666D01*
X128768351Y-116123112D01*
X128728808Y-116053807D01*
X128682930Y-115967780D01*
X128630188Y-115864059D01*
X128570051Y-115741672D01*
X128435317Y-115463736D01*
X128464495Y-115365807D01*
X128470416Y-115346356D01*
X128486435Y-115296880D01*
X128502098Y-115252248D01*
X128514723Y-115220234D01*
X128523042Y-115201887D01*
X128533080Y-115184469D01*
X128540952Y-115182190D01*
X128550268Y-115192201D01*
G36*
X128550268Y-115192201D02*
G01*
X128552447Y-115195437D01*
X128565925Y-115223712D01*
X128583050Y-115270405D01*
X128603253Y-115333585D01*
X128625964Y-115411321D01*
X128650617Y-115501683D01*
X128676643Y-115602741D01*
X128703472Y-115712564D01*
X128710750Y-115742995D01*
X128740432Y-115864323D01*
X128768355Y-115973979D01*
X128793916Y-116069689D01*
X128816510Y-116149183D01*
X128835536Y-116210188D01*
X128838481Y-116220197D01*
X128836027Y-116221714D01*
X128823488Y-116206543D01*
X128802089Y-116176666D01*
X128768351Y-116123112D01*
X128728808Y-116053807D01*
X128682930Y-115967780D01*
X128630188Y-115864059D01*
X128570051Y-115741672D01*
X128435317Y-115463736D01*
X128464495Y-115365807D01*
X128470416Y-115346356D01*
X128486435Y-115296880D01*
X128502098Y-115252248D01*
X128514723Y-115220234D01*
X128523042Y-115201887D01*
X128533080Y-115184469D01*
X128540952Y-115182190D01*
X128550268Y-115192201D01*
G37*
X128109709Y-115131075D02*
X128153714Y-115153169D01*
X128200244Y-115193603D01*
X128250457Y-115253034D01*
X128305509Y-115332118D01*
X128333463Y-115375181D01*
X128253563Y-115702689D01*
X128245165Y-115737048D01*
X128216578Y-115852752D01*
X128191938Y-115950118D01*
X128170725Y-116030981D01*
X128152417Y-116097178D01*
X128136493Y-116150546D01*
X128122434Y-116192922D01*
X128109718Y-116226142D01*
X128097824Y-116252044D01*
X128076477Y-116293900D01*
X128056383Y-116254732D01*
X128043216Y-116224022D01*
X128027019Y-116177032D01*
X128007616Y-116113072D01*
X127984797Y-116031390D01*
X127958350Y-115931229D01*
X127928065Y-115811836D01*
X127893731Y-115672455D01*
X127822100Y-115378240D01*
X127842077Y-115340980D01*
X127847036Y-115332066D01*
X127878843Y-115283547D01*
X127918085Y-115233616D01*
X127959100Y-115189044D01*
X127996228Y-115156601D01*
X128024651Y-115139281D01*
X128067074Y-115126664D01*
X128109709Y-115131075D01*
G36*
X128109709Y-115131075D02*
G01*
X128153714Y-115153169D01*
X128200244Y-115193603D01*
X128250457Y-115253034D01*
X128305509Y-115332118D01*
X128333463Y-115375181D01*
X128253563Y-115702689D01*
X128245165Y-115737048D01*
X128216578Y-115852752D01*
X128191938Y-115950118D01*
X128170725Y-116030981D01*
X128152417Y-116097178D01*
X128136493Y-116150546D01*
X128122434Y-116192922D01*
X128109718Y-116226142D01*
X128097824Y-116252044D01*
X128076477Y-116293900D01*
X128056383Y-116254732D01*
X128043216Y-116224022D01*
X128027019Y-116177032D01*
X128007616Y-116113072D01*
X127984797Y-116031390D01*
X127958350Y-115931229D01*
X127928065Y-115811836D01*
X127893731Y-115672455D01*
X127822100Y-115378240D01*
X127842077Y-115340980D01*
X127847036Y-115332066D01*
X127878843Y-115283547D01*
X127918085Y-115233616D01*
X127959100Y-115189044D01*
X127996228Y-115156601D01*
X128024651Y-115139281D01*
X128067074Y-115126664D01*
X128109709Y-115131075D01*
G37*
X129983110Y-115139901D02*
X130000097Y-115150826D01*
X130034825Y-115180980D01*
X130073652Y-115221941D01*
X130112335Y-115269091D01*
X130146629Y-115317813D01*
X130185202Y-115378112D01*
X130170177Y-115428873D01*
X130166830Y-115440871D01*
X130157727Y-115475847D01*
X130145197Y-115525718D01*
X130130139Y-115586858D01*
X130113450Y-115655643D01*
X130096027Y-115728446D01*
X130073412Y-115822400D01*
X130042997Y-115944104D01*
X130015924Y-116046261D01*
X129991976Y-116129649D01*
X129970937Y-116195043D01*
X129952590Y-116243220D01*
X129944568Y-116260298D01*
X129931108Y-116280641D01*
X129921516Y-116283389D01*
X129918735Y-116280156D01*
X129906384Y-116257726D01*
X129891043Y-116218700D01*
X129872506Y-116162386D01*
X129850566Y-116088092D01*
X129825017Y-115995126D01*
X129795650Y-115882796D01*
X129762260Y-115750410D01*
X129668992Y-115375333D01*
X129705688Y-115317969D01*
X129724828Y-115290157D01*
X129758513Y-115246375D01*
X129791840Y-115207731D01*
X129811515Y-115187580D01*
X129858168Y-115148758D01*
X129900653Y-115128462D01*
X129941468Y-115125805D01*
X129983110Y-115139901D01*
G36*
X129983110Y-115139901D02*
G01*
X130000097Y-115150826D01*
X130034825Y-115180980D01*
X130073652Y-115221941D01*
X130112335Y-115269091D01*
X130146629Y-115317813D01*
X130185202Y-115378112D01*
X130170177Y-115428873D01*
X130166830Y-115440871D01*
X130157727Y-115475847D01*
X130145197Y-115525718D01*
X130130139Y-115586858D01*
X130113450Y-115655643D01*
X130096027Y-115728446D01*
X130073412Y-115822400D01*
X130042997Y-115944104D01*
X130015924Y-116046261D01*
X129991976Y-116129649D01*
X129970937Y-116195043D01*
X129952590Y-116243220D01*
X129944568Y-116260298D01*
X129931108Y-116280641D01*
X129921516Y-116283389D01*
X129918735Y-116280156D01*
X129906384Y-116257726D01*
X129891043Y-116218700D01*
X129872506Y-116162386D01*
X129850566Y-116088092D01*
X129825017Y-115995126D01*
X129795650Y-115882796D01*
X129762260Y-115750410D01*
X129668992Y-115375333D01*
X129705688Y-115317969D01*
X129724828Y-115290157D01*
X129758513Y-115246375D01*
X129791840Y-115207731D01*
X129811515Y-115187580D01*
X129858168Y-115148758D01*
X129900653Y-115128462D01*
X129941468Y-115125805D01*
X129983110Y-115139901D01*
G37*
X129476367Y-115188471D02*
X129481448Y-115198732D01*
X129492639Y-115227286D01*
X129506689Y-115267106D01*
X129521928Y-115312992D01*
X129536687Y-115359745D01*
X129549297Y-115402166D01*
X129558087Y-115435057D01*
X129561388Y-115453218D01*
X129557015Y-115471052D01*
X129543865Y-115505438D01*
X129523256Y-115553240D01*
X129496516Y-115611785D01*
X129464976Y-115678399D01*
X129429965Y-115750411D01*
X129392812Y-115825146D01*
X129354847Y-115899932D01*
X129317400Y-115972096D01*
X129281799Y-116038965D01*
X129249375Y-116097866D01*
X129221457Y-116146126D01*
X129199374Y-116181072D01*
X129187682Y-116197746D01*
X129172255Y-116218117D01*
X129164469Y-116226070D01*
X129164192Y-116225741D01*
X129166463Y-116213445D01*
X129174129Y-116186950D01*
X129185801Y-116151136D01*
X129187628Y-116145623D01*
X129198788Y-116108516D01*
X129213342Y-116056170D01*
X129230109Y-115993018D01*
X129247907Y-115923494D01*
X129265552Y-115852032D01*
X129279038Y-115796522D01*
X129312516Y-115660838D01*
X129342109Y-115544387D01*
X129368127Y-115446079D01*
X129390885Y-115364822D01*
X129410695Y-115299524D01*
X129427868Y-115249094D01*
X129442719Y-115212440D01*
X129455559Y-115188471D01*
X129457023Y-115186299D01*
X129466523Y-115177914D01*
X129476367Y-115188471D01*
G36*
X129476367Y-115188471D02*
G01*
X129481448Y-115198732D01*
X129492639Y-115227286D01*
X129506689Y-115267106D01*
X129521928Y-115312992D01*
X129536687Y-115359745D01*
X129549297Y-115402166D01*
X129558087Y-115435057D01*
X129561388Y-115453218D01*
X129557015Y-115471052D01*
X129543865Y-115505438D01*
X129523256Y-115553240D01*
X129496516Y-115611785D01*
X129464976Y-115678399D01*
X129429965Y-115750411D01*
X129392812Y-115825146D01*
X129354847Y-115899932D01*
X129317400Y-115972096D01*
X129281799Y-116038965D01*
X129249375Y-116097866D01*
X129221457Y-116146126D01*
X129199374Y-116181072D01*
X129187682Y-116197746D01*
X129172255Y-116218117D01*
X129164469Y-116226070D01*
X129164192Y-116225741D01*
X129166463Y-116213445D01*
X129174129Y-116186950D01*
X129185801Y-116151136D01*
X129187628Y-116145623D01*
X129198788Y-116108516D01*
X129213342Y-116056170D01*
X129230109Y-115993018D01*
X129247907Y-115923494D01*
X129265552Y-115852032D01*
X129279038Y-115796522D01*
X129312516Y-115660838D01*
X129342109Y-115544387D01*
X129368127Y-115446079D01*
X129390885Y-115364822D01*
X129410695Y-115299524D01*
X129427868Y-115249094D01*
X129442719Y-115212440D01*
X129455559Y-115188471D01*
X129457023Y-115186299D01*
X129466523Y-115177914D01*
X129476367Y-115188471D01*
G37*
X129117149Y-114455260D02*
X129198303Y-114462038D01*
X129264931Y-114472578D01*
X129303933Y-114481646D01*
X129462555Y-114531589D01*
X129612356Y-114599970D01*
X129751844Y-114685635D01*
X129879528Y-114787429D01*
X129993914Y-114904199D01*
X130093513Y-115034790D01*
X130176830Y-115178048D01*
X130194385Y-115214473D01*
X130207955Y-115248165D01*
X130212909Y-115271716D01*
X130210595Y-115289577D01*
X130206658Y-115299850D01*
X130200890Y-115304918D01*
X130191465Y-115299205D01*
X130175403Y-115280631D01*
X130149723Y-115247116D01*
X130122604Y-115213639D01*
X130062356Y-115155844D01*
X130001174Y-115119154D01*
X129939540Y-115103563D01*
X129877933Y-115109066D01*
X129816836Y-115135658D01*
X129756729Y-115183333D01*
X129698092Y-115252087D01*
X129652086Y-115315263D01*
X129625265Y-115249197D01*
X129606508Y-115204950D01*
X129582265Y-115157103D01*
X129558301Y-115124856D01*
X129531544Y-115105356D01*
X129498923Y-115095749D01*
X129457368Y-115093181D01*
X129426296Y-115095245D01*
X129389718Y-115107602D01*
X129360474Y-115134120D01*
X129333579Y-115178223D01*
X129320717Y-115205218D01*
X129306890Y-115238453D01*
X129292627Y-115277776D01*
X129277318Y-115325267D01*
X129260354Y-115383005D01*
X129241125Y-115453070D01*
X129219024Y-115537543D01*
X129193440Y-115638503D01*
X129163764Y-115758030D01*
X129147885Y-115821720D01*
X129125588Y-115908899D01*
X129103954Y-115991056D01*
X129083835Y-116065077D01*
X129066081Y-116127846D01*
X129051543Y-116176249D01*
X129041073Y-116207170D01*
X129029735Y-116236140D01*
X129017123Y-116265422D01*
X129008243Y-116279506D01*
X129001047Y-116281249D01*
X128993484Y-116273509D01*
X128986876Y-116263424D01*
X128975834Y-116241811D01*
X128963778Y-116211941D01*
X128950182Y-116172044D01*
X128934519Y-116120350D01*
X128916260Y-116055090D01*
X128894880Y-115974493D01*
X128869851Y-115876789D01*
X128840647Y-115760209D01*
X128813042Y-115649755D01*
X128782837Y-115531323D01*
X128756179Y-115430873D01*
X128732407Y-115346940D01*
X128710859Y-115278060D01*
X128690872Y-115222768D01*
X128671784Y-115179601D01*
X128652933Y-115147092D01*
X128633657Y-115123779D01*
X128613293Y-115108195D01*
X128591180Y-115098878D01*
X128566654Y-115094361D01*
X128539055Y-115093181D01*
X128506531Y-115095441D01*
X128469687Y-115107330D01*
X128439244Y-115131898D01*
X128412094Y-115171911D01*
X128385132Y-115230134D01*
X128351131Y-115313293D01*
X128304596Y-115251388D01*
X128287352Y-115229154D01*
X128235246Y-115171833D01*
X128184843Y-115132924D01*
X128133632Y-115110784D01*
X128079103Y-115103769D01*
X128060595Y-115104579D01*
X128004443Y-115117965D01*
X127949772Y-115148696D01*
X127894855Y-115197941D01*
X127837964Y-115266867D01*
X127799618Y-115318794D01*
X127790414Y-115291182D01*
X127788450Y-115283278D01*
X127788773Y-115265794D01*
X127795678Y-115242076D01*
X127810521Y-115208102D01*
X127834657Y-115159847D01*
X127843180Y-115143584D01*
X127930049Y-115002568D01*
X128032741Y-114874861D01*
X128149884Y-114761509D01*
X128280107Y-114663559D01*
X128422038Y-114582057D01*
X128574308Y-114518048D01*
X128735544Y-114472578D01*
X128773542Y-114465785D01*
X128849666Y-114457509D01*
X128936518Y-114452996D01*
X129027783Y-114452247D01*
X129117149Y-114455260D01*
G36*
X129117149Y-114455260D02*
G01*
X129198303Y-114462038D01*
X129264931Y-114472578D01*
X129303933Y-114481646D01*
X129462555Y-114531589D01*
X129612356Y-114599970D01*
X129751844Y-114685635D01*
X129879528Y-114787429D01*
X129993914Y-114904199D01*
X130093513Y-115034790D01*
X130176830Y-115178048D01*
X130194385Y-115214473D01*
X130207955Y-115248165D01*
X130212909Y-115271716D01*
X130210595Y-115289577D01*
X130206658Y-115299850D01*
X130200890Y-115304918D01*
X130191465Y-115299205D01*
X130175403Y-115280631D01*
X130149723Y-115247116D01*
X130122604Y-115213639D01*
X130062356Y-115155844D01*
X130001174Y-115119154D01*
X129939540Y-115103563D01*
X129877933Y-115109066D01*
X129816836Y-115135658D01*
X129756729Y-115183333D01*
X129698092Y-115252087D01*
X129652086Y-115315263D01*
X129625265Y-115249197D01*
X129606508Y-115204950D01*
X129582265Y-115157103D01*
X129558301Y-115124856D01*
X129531544Y-115105356D01*
X129498923Y-115095749D01*
X129457368Y-115093181D01*
X129426296Y-115095245D01*
X129389718Y-115107602D01*
X129360474Y-115134120D01*
X129333579Y-115178223D01*
X129320717Y-115205218D01*
X129306890Y-115238453D01*
X129292627Y-115277776D01*
X129277318Y-115325267D01*
X129260354Y-115383005D01*
X129241125Y-115453070D01*
X129219024Y-115537543D01*
X129193440Y-115638503D01*
X129163764Y-115758030D01*
X129147885Y-115821720D01*
X129125588Y-115908899D01*
X129103954Y-115991056D01*
X129083835Y-116065077D01*
X129066081Y-116127846D01*
X129051543Y-116176249D01*
X129041073Y-116207170D01*
X129029735Y-116236140D01*
X129017123Y-116265422D01*
X129008243Y-116279506D01*
X129001047Y-116281249D01*
X128993484Y-116273509D01*
X128986876Y-116263424D01*
X128975834Y-116241811D01*
X128963778Y-116211941D01*
X128950182Y-116172044D01*
X128934519Y-116120350D01*
X128916260Y-116055090D01*
X128894880Y-115974493D01*
X128869851Y-115876789D01*
X128840647Y-115760209D01*
X128813042Y-115649755D01*
X128782837Y-115531323D01*
X128756179Y-115430873D01*
X128732407Y-115346940D01*
X128710859Y-115278060D01*
X128690872Y-115222768D01*
X128671784Y-115179601D01*
X128652933Y-115147092D01*
X128633657Y-115123779D01*
X128613293Y-115108195D01*
X128591180Y-115098878D01*
X128566654Y-115094361D01*
X128539055Y-115093181D01*
X128506531Y-115095441D01*
X128469687Y-115107330D01*
X128439244Y-115131898D01*
X128412094Y-115171911D01*
X128385132Y-115230134D01*
X128351131Y-115313293D01*
X128304596Y-115251388D01*
X128287352Y-115229154D01*
X128235246Y-115171833D01*
X128184843Y-115132924D01*
X128133632Y-115110784D01*
X128079103Y-115103769D01*
X128060595Y-115104579D01*
X128004443Y-115117965D01*
X127949772Y-115148696D01*
X127894855Y-115197941D01*
X127837964Y-115266867D01*
X127799618Y-115318794D01*
X127790414Y-115291182D01*
X127788450Y-115283278D01*
X127788773Y-115265794D01*
X127795678Y-115242076D01*
X127810521Y-115208102D01*
X127834657Y-115159847D01*
X127843180Y-115143584D01*
X127930049Y-115002568D01*
X128032741Y-114874861D01*
X128149884Y-114761509D01*
X128280107Y-114663559D01*
X128422038Y-114582057D01*
X128574308Y-114518048D01*
X128735544Y-114472578D01*
X128773542Y-114465785D01*
X128849666Y-114457509D01*
X128936518Y-114452996D01*
X129027783Y-114452247D01*
X129117149Y-114455260D01*
G37*
X130274735Y-115550598D02*
X130284208Y-115566841D01*
X130295798Y-115593806D01*
X130300752Y-115610491D01*
X130308046Y-115656406D01*
X130312170Y-115715786D01*
X130313111Y-115783686D01*
X130310860Y-115855161D01*
X130305402Y-115925267D01*
X130296728Y-115989059D01*
X130258753Y-116146733D01*
X130200906Y-116299860D01*
X130124597Y-116445107D01*
X130031068Y-116580113D01*
X129921560Y-116702518D01*
X129888619Y-116733882D01*
X129759427Y-116838593D01*
X129618827Y-116925713D01*
X129467749Y-116994797D01*
X129307123Y-117045401D01*
X129137878Y-117077081D01*
X129100154Y-117079811D01*
X129042372Y-117080327D01*
X128974767Y-117078380D01*
X128903281Y-117074320D01*
X128833856Y-117068493D01*
X128772434Y-117061247D01*
X128724956Y-117052929D01*
X128673437Y-117040228D01*
X128513826Y-116987181D01*
X128364618Y-116916362D01*
X128226941Y-116828787D01*
X128101923Y-116725473D01*
X127990691Y-116607437D01*
X127894374Y-116475695D01*
X127814101Y-116331264D01*
X127750998Y-116175160D01*
X127716408Y-116050410D01*
X127694472Y-115912163D01*
X127687357Y-115763694D01*
X127687796Y-115708322D01*
X127689600Y-115665707D01*
X127693377Y-115634887D01*
X127699732Y-115611043D01*
X127709271Y-115589357D01*
X127716304Y-115576221D01*
X127728713Y-115556573D01*
X127735588Y-115550805D01*
X127736443Y-115552759D01*
X127741777Y-115570891D01*
X127750950Y-115605415D01*
X127763178Y-115653278D01*
X127777675Y-115711430D01*
X127793659Y-115776820D01*
X127804641Y-115821955D01*
X127834840Y-115943095D01*
X127861851Y-116045499D01*
X127886407Y-116130685D01*
X127909241Y-116200168D01*
X127931086Y-116255466D01*
X127952676Y-116298095D01*
X127974742Y-116329573D01*
X127998019Y-116351415D01*
X128023240Y-116365139D01*
X128051137Y-116372261D01*
X128082444Y-116374298D01*
X128099745Y-116373363D01*
X128128280Y-116366484D01*
X128154472Y-116351698D01*
X128178987Y-116327566D01*
X128202494Y-116292649D01*
X128225658Y-116245509D01*
X128249147Y-116184706D01*
X128273627Y-116108801D01*
X128299766Y-116016356D01*
X128328229Y-115905933D01*
X128359685Y-115776090D01*
X128363494Y-115760075D01*
X128378736Y-115697286D01*
X128392558Y-115642313D01*
X128404121Y-115598359D01*
X128412589Y-115568630D01*
X128417125Y-115556327D01*
X128419845Y-115558103D01*
X128430858Y-115574861D01*
X128448708Y-115606755D01*
X128472034Y-115651232D01*
X128499478Y-115705739D01*
X128529680Y-115767719D01*
X128569749Y-115850439D01*
X128621514Y-115954133D01*
X128667423Y-116041441D01*
X128708699Y-116114278D01*
X128746570Y-116174559D01*
X128782261Y-116224201D01*
X128816997Y-116265117D01*
X128852005Y-116299225D01*
X128888510Y-116328438D01*
X128904600Y-116339598D01*
X128956356Y-116366415D01*
X129005211Y-116375366D01*
X129054005Y-116366066D01*
X129105580Y-116338127D01*
X129162778Y-116291165D01*
X129201661Y-116248722D01*
X129248708Y-116184109D01*
X129301343Y-116099630D01*
X129359635Y-115995165D01*
X129423656Y-115870595D01*
X129493475Y-115725799D01*
X129519838Y-115670288D01*
X129543608Y-115621480D01*
X129563023Y-115582907D01*
X129576574Y-115557567D01*
X129582754Y-115548454D01*
X129582811Y-115548462D01*
X129587136Y-115558778D01*
X129595322Y-115586450D01*
X129606515Y-115628286D01*
X129619859Y-115681094D01*
X129634500Y-115741680D01*
X129661863Y-115855085D01*
X129691721Y-115972444D01*
X129718928Y-116071396D01*
X129743928Y-116153292D01*
X129767168Y-116219482D01*
X129789091Y-116271317D01*
X129810144Y-116310149D01*
X129830772Y-116337328D01*
X129846760Y-116353389D01*
X129866567Y-116367211D01*
X129890341Y-116373078D01*
X129926665Y-116374298D01*
X129953299Y-116373804D01*
X129980128Y-116369755D01*
X130000233Y-116358825D01*
X130022169Y-116337740D01*
X130035743Y-116321208D01*
X130054393Y-116290848D01*
X130073421Y-116250223D01*
X130093426Y-116197577D01*
X130115008Y-116131155D01*
X130138768Y-116049201D01*
X130165307Y-115949960D01*
X130195224Y-115831676D01*
X130197042Y-115824346D01*
X130215485Y-115750986D01*
X130232492Y-115685076D01*
X130247352Y-115629242D01*
X130259352Y-115586110D01*
X130267783Y-115558306D01*
X130271932Y-115548454D01*
X130274735Y-115550598D01*
G36*
X130274735Y-115550598D02*
G01*
X130284208Y-115566841D01*
X130295798Y-115593806D01*
X130300752Y-115610491D01*
X130308046Y-115656406D01*
X130312170Y-115715786D01*
X130313111Y-115783686D01*
X130310860Y-115855161D01*
X130305402Y-115925267D01*
X130296728Y-115989059D01*
X130258753Y-116146733D01*
X130200906Y-116299860D01*
X130124597Y-116445107D01*
X130031068Y-116580113D01*
X129921560Y-116702518D01*
X129888619Y-116733882D01*
X129759427Y-116838593D01*
X129618827Y-116925713D01*
X129467749Y-116994797D01*
X129307123Y-117045401D01*
X129137878Y-117077081D01*
X129100154Y-117079811D01*
X129042372Y-117080327D01*
X128974767Y-117078380D01*
X128903281Y-117074320D01*
X128833856Y-117068493D01*
X128772434Y-117061247D01*
X128724956Y-117052929D01*
X128673437Y-117040228D01*
X128513826Y-116987181D01*
X128364618Y-116916362D01*
X128226941Y-116828787D01*
X128101923Y-116725473D01*
X127990691Y-116607437D01*
X127894374Y-116475695D01*
X127814101Y-116331264D01*
X127750998Y-116175160D01*
X127716408Y-116050410D01*
X127694472Y-115912163D01*
X127687357Y-115763694D01*
X127687796Y-115708322D01*
X127689600Y-115665707D01*
X127693377Y-115634887D01*
X127699732Y-115611043D01*
X127709271Y-115589357D01*
X127716304Y-115576221D01*
X127728713Y-115556573D01*
X127735588Y-115550805D01*
X127736443Y-115552759D01*
X127741777Y-115570891D01*
X127750950Y-115605415D01*
X127763178Y-115653278D01*
X127777675Y-115711430D01*
X127793659Y-115776820D01*
X127804641Y-115821955D01*
X127834840Y-115943095D01*
X127861851Y-116045499D01*
X127886407Y-116130685D01*
X127909241Y-116200168D01*
X127931086Y-116255466D01*
X127952676Y-116298095D01*
X127974742Y-116329573D01*
X127998019Y-116351415D01*
X128023240Y-116365139D01*
X128051137Y-116372261D01*
X128082444Y-116374298D01*
X128099745Y-116373363D01*
X128128280Y-116366484D01*
X128154472Y-116351698D01*
X128178987Y-116327566D01*
X128202494Y-116292649D01*
X128225658Y-116245509D01*
X128249147Y-116184706D01*
X128273627Y-116108801D01*
X128299766Y-116016356D01*
X128328229Y-115905933D01*
X128359685Y-115776090D01*
X128363494Y-115760075D01*
X128378736Y-115697286D01*
X128392558Y-115642313D01*
X128404121Y-115598359D01*
X128412589Y-115568630D01*
X128417125Y-115556327D01*
X128419845Y-115558103D01*
X128430858Y-115574861D01*
X128448708Y-115606755D01*
X128472034Y-115651232D01*
X128499478Y-115705739D01*
X128529680Y-115767719D01*
X128569749Y-115850439D01*
X128621514Y-115954133D01*
X128667423Y-116041441D01*
X128708699Y-116114278D01*
X128746570Y-116174559D01*
X128782261Y-116224201D01*
X128816997Y-116265117D01*
X128852005Y-116299225D01*
X128888510Y-116328438D01*
X128904600Y-116339598D01*
X128956356Y-116366415D01*
X129005211Y-116375366D01*
X129054005Y-116366066D01*
X129105580Y-116338127D01*
X129162778Y-116291165D01*
X129201661Y-116248722D01*
X129248708Y-116184109D01*
X129301343Y-116099630D01*
X129359635Y-115995165D01*
X129423656Y-115870595D01*
X129493475Y-115725799D01*
X129519838Y-115670288D01*
X129543608Y-115621480D01*
X129563023Y-115582907D01*
X129576574Y-115557567D01*
X129582754Y-115548454D01*
X129582811Y-115548462D01*
X129587136Y-115558778D01*
X129595322Y-115586450D01*
X129606515Y-115628286D01*
X129619859Y-115681094D01*
X129634500Y-115741680D01*
X129661863Y-115855085D01*
X129691721Y-115972444D01*
X129718928Y-116071396D01*
X129743928Y-116153292D01*
X129767168Y-116219482D01*
X129789091Y-116271317D01*
X129810144Y-116310149D01*
X129830772Y-116337328D01*
X129846760Y-116353389D01*
X129866567Y-116367211D01*
X129890341Y-116373078D01*
X129926665Y-116374298D01*
X129953299Y-116373804D01*
X129980128Y-116369755D01*
X130000233Y-116358825D01*
X130022169Y-116337740D01*
X130035743Y-116321208D01*
X130054393Y-116290848D01*
X130073421Y-116250223D01*
X130093426Y-116197577D01*
X130115008Y-116131155D01*
X130138768Y-116049201D01*
X130165307Y-115949960D01*
X130195224Y-115831676D01*
X130197042Y-115824346D01*
X130215485Y-115750986D01*
X130232492Y-115685076D01*
X130247352Y-115629242D01*
X130259352Y-115586110D01*
X130267783Y-115558306D01*
X130271932Y-115548454D01*
X130274735Y-115550598D01*
G37*
D12*
%TO.C,JP4*%
X148509000Y-94104000D02*
X147909000Y-94104000D01*
X147209000Y-94804000D02*
X147209000Y-96204000D01*
X149209000Y-96204000D02*
X149209000Y-94804000D01*
X147909000Y-96904000D02*
X148509000Y-96904000D01*
X149209000Y-94804000D02*
G75*
G03*
X148509000Y-94104000I-699999J1D01*
G01*
X147909000Y-94104000D02*
G75*
G03*
X147209000Y-94804000I-1J-699999D01*
G01*
X148509000Y-96904000D02*
G75*
G03*
X149209000Y-96204000I0J700000D01*
G01*
X147209000Y-96204000D02*
G75*
G03*
X147909000Y-96904000I700000J0D01*
G01*
%TD*%
M02*
