M48
; DRILL file {KiCad 7.0.1} date Tue Aug 13 13:18:51 2024
; FORMAT={-:-/ absolute / metric / decimal}
; #@! TF.CreationDate,2024-08-13T13:18:51+02:00
; #@! TF.GenerationSoftware,Kicad,Pcbnew,7.0.1
; #@! TF.FileFunction,Plated,1,2,PTH
FMAT,2
METRIC
; #@! TA.AperFunction,Plated,PTH,ViaDrill
T1C0.400
; #@! TA.AperFunction,Plated,PTH,ComponentDrill
T2C1.200
%
G90
G05
T1
X119.888Y-91.567
X119.888Y-114.554
X119.888Y-118.491
X119.888Y-122.809
X120.65Y-96.139
X121.539Y-93.599
X121.977Y-96.474
X122.809Y-97.028
X124.968Y-88.9
X124.968Y-90.678
X125.222Y-120.65
X126.238Y-120.65
X126.492Y-88.9
X127.254Y-97.028
X127.254Y-98.425
X127.254Y-120.65
X128.143Y-101.981
X128.27Y-107.188
X128.524Y-96.139
X128.524Y-123.19
X128.524Y-124.206
X128.524Y-125.222
X128.651Y-88.138
X128.651Y-91.948
X129.413Y-93.091
X130.556Y-107.442
X131.064Y-114.173
X131.064Y-115.062
X131.064Y-115.951
X131.375Y-98.768
X131.572Y-101.981
X131.971Y-122.718
X132.08Y-107.866
X132.842Y-97.536
X132.938Y-90.266
X133.35Y-111.887
X133.35Y-114.808
X134.112Y-105.537
X134.41Y-120.904
X135.382Y-87.376
X135.509Y-103.251
X135.509Y-108.966
X135.763Y-112.509
X136.017Y-94.488
X136.652Y-108.966
X137.033Y-103.251
X137.414Y-114.681
X137.928Y-108.111
X138.303Y-88.646
X138.303Y-105.156
X138.303Y-117.729
X138.303Y-118.618
X138.43Y-91.821
X138.557Y-90.17
X138.557Y-96.139
X138.684Y-106.807
X139.065Y-101.6
X140.065Y-99.298
X140.081Y-117.729
X140.768Y-105.104
X140.97Y-98.552
X141.478Y-126.238
X141.605Y-117.729
X141.986Y-102.489
X142.113Y-116.586
X142.24Y-114.554
X142.494Y-96.266
X142.621Y-99.695
X143.129Y-117.729
X143.145Y-93.813
X143.764Y-102.362
X144.145Y-99.695
X144.145Y-107.315
X144.653Y-96.266
X144.78Y-94.996
X145.288Y-101.727
X146.014Y-100.273
X146.141Y-121.031
X146.177Y-104.394
X146.177Y-106.172
X146.177Y-108.585
X146.177Y-110.871
X146.177Y-115.443
X146.304Y-101.727
X146.431Y-96.52
X147.828Y-99.533
X148.082Y-104.902
X148.082Y-109.474
X148.082Y-110.871
X148.082Y-115.443
X149.352Y-123.698
X149.553Y-95.435
X149.987Y-122.301
X150.072Y-120.748
X150.354Y-113.057
X150.377Y-126.365
X150.476Y-97.171
X150.495Y-114.046
X150.749Y-102.489
X150.876Y-94.724
X151.765Y-91.313
X151.765Y-92.964
X151.871Y-126.365
X152.4Y-119.126
X152.4Y-120.904
X152.781Y-105.029
X152.781Y-109.347
X152.908Y-101.219
X153.035Y-110.998
X153.162Y-90.932
X153.395Y-126.365
X153.67Y-105.029
X153.67Y-109.347
X153.924Y-87.376
X154.051Y-100.711
X154.426Y-110.992
X154.559Y-117.348
X155.015Y-126.365
X155.487Y-121.754
X155.641Y-93.796
X155.829Y-90.135
X156.509Y-126.365
X156.591Y-96.774
X156.624Y-93.98
X157.317Y-104.521
X157.48Y-89.535
X157.6Y-97.689
X158.242Y-105.283
X158.328Y-103.124
X158.623Y-98.679
X159.004Y-104.394
X159.131Y-122.428
X159.131Y-123.317
X159.248Y-101.705
X159.389Y-92.971
X159.766Y-87.376
X160.02Y-122.428
X160.02Y-123.317
X160.909Y-122.428
X160.909Y-123.317
X161.29Y-93.98
X161.544Y-87.376
X161.671Y-104.394
X161.69Y-101.153
X161.925Y-99.06
X162.687Y-101.219
X162.713Y-96.165
X163.322Y-87.376
X163.621Y-98.931
X164.316Y-99.73
X164.406Y-98.173
X164.465Y-91.313
X165.167Y-97.447
X165.735Y-93.98
X165.735Y-96.266
X165.897Y-89.789
X167.513Y-105.029
X167.513Y-105.918
X167.513Y-106.807
X168.021Y-89.662
X168.021Y-100.203
X168.402Y-94.488
X168.402Y-105.029
X168.402Y-105.918
X168.402Y-106.807
X168.656Y-90.551
X169.926Y-114.3
X169.926Y-117.602
X169.926Y-121.539
X170.053Y-96.393
X170.18Y-94.488
X170.307Y-108.712
X170.307Y-109.728
X170.307Y-110.744
X171.577Y-89.789
X172.902Y-97.409
X173.228Y-89.916
X173.355Y-108.331
X173.609Y-103.886
X174.752Y-103.886
X174.752Y-108.331
X175.895Y-103.886
X176.022Y-91.44
X176.022Y-108.331
T2
X119.709Y-98.612
X119.733Y-89.274
X119.9Y-108.953
X140.462Y-87.122
X144.018Y-87.122
X146.304Y-124.46
X147.574Y-87.122
X149.606Y-107.188
X153.162Y-107.188
X166.878Y-108.966
X170.688Y-101.6
X170.688Y-106.172
T0
M30
